<svg width="1440" height="904" xmlns="http://www.w3.org/2000/svg"><defs><linearGradient x1="49.99%" y1="100.006%" x2="49.99%" y2="-.008%" id="a"><stop stop-color="gray" stop-opacity=".25" offset="0%"/><stop stop-color="gray" stop-opacity=".12" offset="54%"/><stop stop-color="gray" stop-opacity=".1" offset="100%"/></linearGradient></defs><g fill="none" fill-rule="evenodd"><g fill="#277EB4" fill-rule="nonzero"><path d="M1368.884 304.236c-13.796-28.868-31.888-55.11-53.558-77.682l-742.93-6.665 611.681-78.21c-40.023-14.42-81.901-21.983-124.104-22.411C1001.087 75.976 925.403 50 842.85 50c-74.07 0-142.562 20.958-198.402 56.518C596.995 84.261 542.899 71.64 485.423 71.64c-165.07 0-302.615 104.082-333.474 242.116l1216.935-9.52z" opacity=".703" style="mix-blend-mode:multiply"/><path d="M1395 420c-.051-37.822-7.962-75.153-23.153-109.254L84.257 433.792c-13.069 21.455-23.226 44.81-30.165 69.358l398.727 54.112L45 596.708c12.27 156.265 159.408 279.645 339.149 279.645 90.474 0 172.68-31.263 233.597-82.25C678.855 846.056 761.85 878 853.304 878c135.68 0 252.796-70.336 307.334-172.025 109.41-31.624 194.4-111.004 223.49-210.313l-504.243-71.198H1395V420z" opacity=".749" style="mix-blend-mode:multiply"/></g><g fill-rule="nonzero"><path d="M473.866 687.261l-3.996-1.635-2.742-19.476h-36.505l-2.97 19.396-3.576 1.738a.818.818 0 00-.446.928c.09.372.432.635.826.635h49.08a.843.843 0 00.831-.662.82.82 0 00-.502-.924z" fill="#E6E6E6"/><path d="M527.546 667.485h-157.1c-7.544-.017-13.65-6.194-13.65-13.807v-14.231h184.402v14.231c0 7.613-6.107 13.79-13.652 13.807z" fill="#CCC"/><path d="M539.862 652.798H355.459v-98.346c.008-7.621 6.115-13.798 13.652-13.806H526.21c7.536.008 13.643 6.185 13.652 13.806v98.346z" fill="#3F3D56"/><path d="M526.215 643.452H370.442c-3.845-.004-6.961-3.086-6.966-6.89v-81.015c.005-3.804 3.12-6.886 6.966-6.89h155.773c3.845.004 6.961 3.086 6.965 6.89v81.015c-.004 3.804-3.12 6.886-6.965 6.89z" fill="#FFF"/><path d="M457.014 589.316l.001.039c.897 13.901 12.595 24.724 26.724 24.724 14.13 0 25.828-10.823 26.724-24.724a.609.609 0 00-.61-.644h-52.227a.609.609 0 00-.612.605z" fill="#3F3D56"/><path d="M502.447 568.926a.75.75 0 01-.234.54l-18.463 17.686a.81.81 0 01-.563.224h-25.375a.806.806 0 01-.58-.24.749.749 0 01-.216-.575c.658-9.925 7.122-18.638 16.69-22.498 9.568-3.86 20.591-2.2 28.463 4.283a.756.756 0 01.278.58z" fill="#E6E6E6"/><path d="M475.721 624.815a5.34 5.34 0 01-3.35 4.9 5.348 5.348 0 01-5.812-1.217 5.337 5.337 0 01-1.1-5.832 5.345 5.345 0 0110.262 2.149z" fill="#2C97D2"/><path d="M489.084 624.815a5.34 5.34 0 01-3.35 4.9 5.348 5.348 0 01-5.813-1.217 5.337 5.337 0 01-1.099-5.832 5.345 5.345 0 0110.262 2.149z" fill="#3F3D56"/><path d="M502.446 624.815a5.34 5.34 0 01-3.35 4.9 5.348 5.348 0 01-5.812-1.217 5.337 5.337 0 01-1.1-5.832 5.345 5.345 0 0110.262 2.149zM432.386 574.457l-44.214-.432c-1.172-.013-2.262.572-2.859 1.532a2.993 2.993 0 00-.034 3.123c.576.972 1.653 1.578 2.826 1.588l44.213.432c1.173.012 2.262-.572 2.86-1.532.596-.96.609-2.152.033-3.124-.576-.971-1.653-1.577-2.825-1.587zM432.384 591.814l-44.21-.432c-1.547-.018-2.896.996-3.237 2.432-.34 1.437.42 2.904 1.825 3.52.421.188.88.287 1.344.291l44.21.432c1.173.013 2.264-.571 2.86-1.532.598-.96.61-2.152.035-3.124-.577-.972-1.654-1.578-2.827-1.587zM432.384 610.506l-44.212-.432c-1.172-.013-2.262.572-2.859 1.532a2.993 2.993 0 00-.034 3.123c.576.972 1.653 1.578 2.825 1.588l44.213.432c1.172.013 2.263-.571 2.86-1.532.597-.96.61-2.152.034-3.124-.577-.972-1.654-1.577-2.827-1.587z" fill="#E6E6E6"/><path d="M420.666 574.34l-31.203-.315a3.246 3.246 0 00-2.82 1.562 3.14 3.14 0 00-.033 3.185 3.244 3.244 0 002.787 1.62l30.553.308a3.633 3.633 0 002.299-2.968 3.603 3.603 0 00-1.583-3.392zM405.26 591.564l-17.076-.182c-1.552-.02-2.905 1.089-3.247 2.66-.341 1.57.422 3.174 1.831 3.848l15.684.167c2.069.021 3.762-1.7 3.784-3.846a3.89 3.89 0 00-.976-2.647zM429.602 610.475l-40.155-.401a3.237 3.237 0 00-2.806 1.54 3.066 3.066 0 00-.033 3.136 3.233 3.233 0 002.773 1.595l40.413.404a3.544 3.544 0 001.83-3.193 3.557 3.557 0 00-2.022-3.08z" fill="#2C97D2"/></g><g transform="translate(573.268 583.37)" fill-rule="nonzero"><ellipse fill="#A0616A" cx="18.708" cy="14.687" rx="10.69" ry="10.681"/><path fill="#A0616A" d="M59.875 92.125l.256 5.642-21.001 3.704-.379-8.326z"/><path d="M63.531 90.79l.61 11.989-.234.01a9.465 9.465 0 01-5.144-1.148c-1.4-.822-2.205-1.962-2.269-3.208l-.371-7.323 7.408-.32z" fill="#2F2E41"/><path fill="#A0616A" d="M60.132 101.471h5.433l2.584-21.362H60.13z"/><path d="M56.123 98.802h11.425c1.932 0 3.784.68 5.15 1.893 1.365 1.212 2.132 2.856 2.132 4.571v.21H56.123v-6.674z" fill="#2F2E41"/><path d="M7.65 95.426c1.265-.725 2.125-1.943 2.35-3.327.224-1.383-.21-2.79-1.187-3.841l4.55-42.863-10.835.717L1.463 88.02c-1.795 1.707-1.958 4.416-.38 6.306 1.579 1.89 4.4 2.362 6.568 1.1z" fill="#A0616A"/><path d="M12.35 53.39L1.841 52.054A2.086 2.086 0 01.355 51.1a2.267 2.267 0 01-.28-1.798l2.798-10.618c.406-3.322 3.31-5.674 6.495-5.259 3.183.415 5.445 3.44 5.056 6.763l.274 10.974a2.233 2.233 0 01-.686 1.674 2.04 2.04 0 01-1.663.553z" fill="#2C97D2"/><path d="M10.864 102.807c-2.63-.178-4.963-1.73-6.115-4.07a7.18 7.18 0 01.536-7.261l6.966-7.136 25.39-22.441 13.575-11.116a6.142 6.142 0 015.781-1.082 6.03 6.03 0 014 4.259l7.093 28.31a1.952 1.952 0 01-1.256 2.316l-7.732 2.746a2.01 2.01 0 01-1.595-.107 1.966 1.966 0 01-.998-1.232L53.57 75.11 37.203 90.547l5.106 1.855a1.963 1.963 0 011.226 2.372l-1.65 5.768a1.975 1.975 0 01-1.855 1.427l-29.167.838z" fill="#2F2E41"/><path d="M11.302 85.45l-.663-23.882-4.181-10.474a15.57 15.57 0 01.809-13.273c2.241-4.09 6.199-6.996 10.814-7.94.344-.07.688-.14 1.03-.206a16.15 16.15 0 0112.632 2.802c3.621 2.651 5.938 6.688 6.38 11.114l1.965 17.979-.008.034c-3.134 13.746-12.2 21.312-28.534 23.808l-.244.038z" fill="#2C97D2"/><path d="M22.404 68.377a4.25 4.25 0 01.691-.053l11.62-17.85-2.2-4.71 6.414-4.374 4.676 7.943a3.577 3.577 0 01-.382 4.151L27.32 71.603c.511 1.82-.116 3.778-1.575 4.919a4.264 4.264 0 01-4.991.211c-1.544-1.013-2.324-2.912-1.957-4.77.367-1.856 1.803-3.284 3.607-3.586z" fill="#A0616A"/><path d="M32.334 50.662a2.109 2.109 0 01-1.366-1.065l-4.582-9.004c-1.82-2.526-1.08-5.935 1.653-7.62 2.734-1.686 6.43-1.014 8.265 1.503l7.24 7.413c.418.428.614 1.003.535 1.574a1.969 1.969 0 01-.942 1.403L34.1 50.404c-.52.32-1.166.414-1.767.258z" fill="#2C97D2"/><path d="M29.398 15.839l-.43-1.138c-1.185-3.137-4.018-5.549-7.05-6-3.087-.42-6.13 1.046-7.817 3.766a18.737 18.737 0 00-1.65 4.01c-.135.417-.27.72-.533.81-.294.11-.587-.078-1.073-.391a.65.65 0 00-.72.008.709.709 0 00-.3.68l.51 3.778-.426-.394c-2.774-2.565-3.344-7.392-1.34-10.455l-4.56.974.205-.407c1.894-3.799 5.158-6.663 9.08-7.967l-4.369-1 .442-.283c3.911-2.503 9.072-2.433 13.145.176 4.155 2.765 6.723 7.487 6.861 12.611l.025 1.222z" fill="#2F2E41"/></g><g transform="translate(895.715 573.894)" fill-rule="nonzero"><path d="M277.821 142.861H65.596c-3.017-.003-5.461-2.422-5.465-5.407V7.967c.003-2.187 1.794-3.959 4.003-3.962h215.079c2.248.003 4.07 1.806 4.072 4.03v129.42c-.003 2.984-2.447 5.403-5.464 5.406z" fill="#F2F2F2"/><path d="M270.006 136.185H72.075c-2.902 0-5.262-2.19-5.262-4.882V18.308c0-1.997 1.749-3.621 3.899-3.621h200.592c2.186 0 3.964 1.65 3.964 3.68v112.936c0 2.692-2.36 4.882-5.262 4.882z" fill="#FFF"/><path d="M283.285 8.01H60.131V5.315C60.136 2.38 62.59.002 65.616 0H277.8c3.027.002 5.48 2.38 5.484 5.314V8.01z" fill="#E6E6E6"/><ellipse fill="#FFF" cx="70.821" cy="4.005" rx="1.336" ry="1.335"/><ellipse fill="#FFF" cx="76.166" cy="4.005" rx="1.336" ry="1.335"/><ellipse fill="#FFF" cx="81.511" cy="4.005" rx="1.336" ry="1.335"/><path d="M154.947 104.142h105.68c2.92 0 5.287-2.33 5.287-5.203V51.933c0-2.873-2.367-5.203-5.287-5.203h-105.68c-2.92 0-5.287 2.33-5.287 5.203V98.94c0 2.873 2.367 5.203 5.287 5.203z" fill="#F2F2F2"/><path d="M249.909 77.439h-84.243c-1.46 0-2.643-1.196-2.643-2.67 0-1.475 1.183-2.67 2.643-2.67h84.243c1.46 0 2.643 1.195 2.643 2.67 0 1.474-1.184 2.67-2.643 2.67zM249.909 89.455h-84.243c-1.46 0-2.643-1.195-2.643-2.67 0-1.475 1.183-2.67 2.643-2.67h84.243c1.46 0 2.643 1.195 2.643 2.67 0 1.475-1.184 2.67-2.643 2.67zM235.204 66.757h-69.532a2.66 2.66 0 01-2.65-2.67 2.66 2.66 0 012.65-2.67h69.532a2.66 2.66 0 012.649 2.67 2.66 2.66 0 01-2.649 2.67z" fill="#FFF"/><g transform="translate(104.228 50.736)"><path d="M.094 74.202c.25-1.088 1.017-2.02 2.095-2.544a4.508 4.508 0 013.492-.174l9.642-10.067 2.048 6.68-9.47 8.537c-.913 1.724-3.1 2.556-5.092 1.935C.817 77.95-.35 76.073.094 74.202z" fill="#FFB8B8"/><ellipse fill="#FFB8B8" cx="50.778" cy="14.687" rx="9.354" ry="9.346"/><path fill="#FFB8B8" d="M40.087 149.537h-5.433l-2.584-18.692h8.018z"/><path d="M41.424 153.542H25.389v-.21c0-1.715.657-3.36 1.828-4.572a6.134 6.134 0 014.413-1.894h9.794v6.676z" fill="#2F2E41"/><path fill="#FFB8B8" d="M54.786 154.877H50.09l-.65-18.245 5.345-.447z"/><path d="M54.786 158.883H38.751v-.21c0-1.716.658-3.36 1.828-4.572a6.134 6.134 0 014.414-1.894h9.793v6.676z" fill="#2F2E41"/><path d="M52.635 152.195l-3.794-.45a1.799 1.799 0 01-1.58-1.758l-.71-49.653a.596.596 0 00-1.158-.191l-5.264 14.935.376 27.994c.014.96-.726 1.76-1.68 1.818l-4.953.211a1.801 1.801 0 01-1.886-1.567L29.4 111.866l-.001-.02 3.925-33.072 29.48 2.143-8.183 69.704a1.794 1.794 0 01-1.985 1.574z" fill="#2F2E41"/><path d="M33.009 81.84a1.777 1.777 0 01-.939-1.437s2.66-16.48 3.635-16.79L33.572 45.99a16.21 16.21 0 013.501-12.114 15.572 15.572 0 0110.778-5.753c.298-.027.595-.047.89-.061a15.72 15.72 0 0113.21 5.991 15.894 15.894 0 012.88 14.464l-1.197 4.147v28.984a1.808 1.808 0 01-.742 1.451c-3.725 2.724-7.933 3.687-12.024 3.687-7.74 0-15.054-3.448-17.86-4.944z" fill="#2C97D2"/><path d="M11.203 75.745l-5.139-3.823a1.781 1.781 0 01-.238-2.644L36.44 36.593a6.017 6.017 0 017.775-.822 5.919 5.919 0 01.767 9.105L13.532 75.59a1.788 1.788 0 01-2.329.155z" fill="#2C97D2"/><path d="M51.086 71.454c.439-1.17 1.324-2.065 2.416-2.444 1.093-.379 2.281-.202 3.245.482l10.806-9.41.596 7.882-10.353 7.727c-1.171 1.755-3.343 2.263-5.055 1.182-1.712-1.081-2.423-3.41-1.655-5.419z" fill="#FFB8B8"/><path d="M59.966 74.685a1.753 1.753 0 01-1.186-1.276l-1.113-4.68a1.744 1.744 0 01.648-1.812l7.488-8.108-11.015-17.004a5.994 5.994 0 01-.18-7.315 5.976 5.976 0 0110.314 1.176l10.24 19.955a9.086 9.086 0 01-3.029 11.702l-10.465 6.999a1.749 1.749 0 01-1.702.363z" fill="#2C97D2"/><path d="M58.909 22.459c-.46.268-1.02.313-1.519.122a1.692 1.692 0 01-1.023-1.098l-.006-.023c-.196-.777-.041-1.59.01-2.39.05-.798-.036-1.675-.598-2.26-1.05-1.088-2.903-.499-4.413-.767-1.83-.387-3.08-2.035-2.918-3.849.02-.166.053-.332.09-.498a2.73 2.73 0 00-.638-2.404 2.909 2.909 0 00-2.357-.955c-1.524.093-3.168.55-4.435-.54a3.114 3.114 0 01-.804-3.421c.71-2.024 2.74-3.092 4.75-3.684 5.039-1.443 10.478-.605 14.81 2.282 1.277.865 2.471 1.954 3.022 3.369.55 1.415.298 3.205-.92 4.147 1.94 1.975 2.651 4.805 1.866 7.426-.594 1.894-3.467 3.722-4.917 4.543z" fill="#2F2E41"/><path d="M67.734 160.218H9.748c-.218 0-.394-.299-.394-.668 0-.368.176-.667.394-.667h57.986c.218 0 .177.667.394.667.098 0-.176.668-.394.668z" fill="#CCC"/></g><path d="M109.288 47.23a4.849 4.849 0 00-4.555-3.17H4.84C2.168 44.059 0 46.202 0 48.847v75.872c.004 2.644 2.169 4.787 4.84 4.79h99.893c2.671-.003 4.836-2.146 4.84-4.79V48.85c0-.552-.096-1.1-.285-1.62z" fill="#FFF"/><path d="M109.288 47.23a4.849 4.849 0 00-4.555-3.17H4.84C2.168 44.059 0 46.202 0 48.847v75.872c.004 2.644 2.169 4.787 4.84 4.79h99.893c2.671-.003 4.836-2.146 4.84-4.79V48.85c0-.552-.096-1.1-.285-1.62zm-.285 77.49c-.003 2.332-1.913 4.223-4.27 4.226H4.84c-2.357-.003-4.268-1.894-4.27-4.227V48.85c.002-2.333 1.913-4.224 4.27-4.226h99.893c2.357.002 4.267 1.893 4.27 4.226v75.87z" fill="#3F3D56"/><path d="M101.555 53.415v53.388c0 .742-.602 1.344-1.346 1.344H9.365a1.344 1.344 0 01-1.347-1.344V53.415a1.343 1.343 0 011.346-1.344h90.844a1.349 1.349 0 011.347 1.343v.001z" fill="#E6E6E6"/><ellipse fill="#2C97D2" cx="30.066" cy="71.431" rx="11.358" ry="11.349"/><path d="M68.149 108.147H10.904a1.17 1.17 0 01-.214-.017l27.074-47.082a1.894 1.894 0 013.3 0l18.17 31.596.87 1.511 8.045 13.992z" fill="#3F3D56"/><path fill="#000" opacity=".2" d="M68.149 108.147H48.105l9.84-14.46.708-1.04.354-.522.892 1.563z"/><path d="M98.883 108.147H49.44l9.581-13.66.69-.984 12.484-17.801c.819-1.167 2.788-1.24 3.75-.22.065.07.125.143.18.22l22.757 32.445z" fill="#3F3D56"/></g><g fill-rule="nonzero"><path d="M66.606 39.083c-7.358-4.238-10.159-5.288-10.159-5.293l-.15-.106a6.124 6.124 0 01-1.857-2.346v-.484.048c.12-2.244 1.712-4.281 3.226-6.061 1.29-1.52 2.58-3.037 3.87-4.553.445-.46.785-1.011.997-1.615.079-.317.114-.642.106-.968v-.397c0-1.132-.053-2.264-.092-3.386-.038-.992-.29-2.235-1.282-2.419-.513-.106-1.19.077-1.451-.363a.813.813 0 01-.068-.585v.043a.252.252 0 010-.053c.191-.763.314-1.542.368-2.327a3.338 3.338 0 00-.16-1.175c-.575-1.64-2.544-2.313-4.286-2.622-1.741-.31-3.696-.576-4.789-1.935-.3-.454-.623-.891-.967-1.311a3.812 3.812 0 00-1.785-.88 10.023 10.023 0 00-6.473.565c-.842.377-1.688.88-2.612.827-.924-.053-1.78-.725-2.729-.885-1.528-.261-2.994.866-3.749 2.196a5.322 5.322 0 00-.691 2.589v.15c-.02.975.337 1.921.996 2.64.658.688 1.64 1.157 1.935 2.057.111.368.087.764.184 1.132 0 .048.029.092.044.14l-.054.063a11.5 11.5 0 00-2.418 7.073 11.736 11.736 0 008.223 11.127v.348a5.002 5.002 0 01-1.596 3.894l-10.44 4.19s-6.288-.745-8.552 8.442a15.559 15.559 0 00-.387 4.658c.082 1.389-.111 3.827-1.722 6.981-2.579 5.05-1.993 16.637 3.28 17.783 4.977 1.084 6.927.634 7.13.58v.204c-.082 2.177-.87 20.928-3.74 23.221-.797.624-.647 1.05 0 1.335v.339c-.086 1.374-.531 6.594-2.452 9.569-2.206 3.43-1.954 23.264-1.954 23.264l-1.52 11.703s.934 7.227 0 8.49c-.836 1.127-1.934 27.87-2.186 33.666h-.096a2.82 2.82 0 00-2.255 1.373c-1.248 2.003-5.553 5.694-5.553 5.694-.934 1.33-4.397 2.603-6.226 3.203a3.99 3.99 0 00-.706.305 3.715 3.715 0 00-1.573 1.654c-.24.418-.3.916-.164 1.379.484 1.147 10.193 1.935 12.65.803 1.935-.9 9.598-2.09 12.78-2.554a2.622 2.622 0 002.274-2.274 1.5 1.5 0 00-.29-1.137c-.61-.754-.924-2.815-1.064-4.16.258-.106.5-.25.716-.426a30.522 30.522 0 011.756-12.278c2.341-6.192 3.047-17.667 2.462-25.127 0 0 7.145-30.753 12.771-33.622.087.106 2.815 3.609 3.164 14.455.348 11.015 4.33 18.243 4.33 18.243s-1.757 18.702 0 25.703l-2.308 11.025a3.575 3.575 0 01-.276-.252s.068.31.165.798l-.049.233.097.024c.261 1.379.648 3.783.484 5.196-.092.807-.315 1.906-.484 2.99-.242 1.697-.31 3.347.585 3.705 1.452.59 10.077 1.398 11.543-.484.67-.787.835-1.886.425-2.835a2.903 2.903 0 00-.425-.72s-2.289-3.74-1.64-6.377c.12-.52.02-1.065-.276-1.509a77.929 77.929 0 012.007-12.38c1.452-5.52 4.557-17.623 2.284-25.586a14.5 14.5 0 00-.29-.92 34.35 34.35 0 01-1.292-13.424 27.29 27.29 0 010-11.703 250.62 250.62 0 002.375-12.708s.774-8.49.097-13.696l-.044-.333.368-.083s-1.988-8.833-2.695-14.455c-.164-1.33-.382-3.009-.619-4.804a12.683 12.683 0 001.911-.483c6.328-2.182 8.316-21.92 8.316-21.92v-6.26s2.109-9.564-5.273-13.826zM19.474 191.47l-.31-.164.31.164z" fill="url(#a)" transform="matrix(-1 0 0 1 370.158 596.722)"/><path d="M307.422 748.82c-2.72 7.874.48 20.653 1.919 26.36a80.453 80.453 0 011.92 12.551 26.23 26.23 0 009.979-.231l-2.4-11.75c1.7-6.962 0-25.563 0-25.563s3.84-7.193 4.194-18.147c.336-10.78 2.975-14.266 3.061-14.377 5.484 2.868 12.384 33.441 12.384 33.441-.566 7.415.115 18.828 2.399 24.993a31.097 31.097 0 011.703 12.209c.792.67 1.895.787 3.085.594 3.239-.527 7.12-3.336 7.12-3.336s-1.247-33.311-2.154-34.576c-.907-1.265 0-8.443 0-8.443l-1.473-11.64s.226-19.74-1.92-23.172c-1.86-2.96-2.288-8.154-2.374-9.516v-.338l-3.282-3.953s-31.758-2.414-34.137 0c-.586.589-.96 1.93-1.161 3.61-.653 5.176.096 13.62.096 13.62s.96 6.275 2.312 12.662a27.878 27.878 0 010 11.64 34.964 34.964 0 01-1.271 13.363z" fill="#2F2E41"/><path d="M309.363 798.535c1.501 1.807 10.343 1.042 11.85.463.921-.347.85-1.918.6-3.54-.157-1.033-.387-2.085-.478-2.85-.244-1.973.718-5.972.718-5.972s-1.986 1.918-2.464 0c-.226-.745-.886-1.316-1.715-1.483a4.912 4.912 0 00-3.126.177c-1.562.616-4.169 1.932-3.7 3.706.661 2.516-1.685 6.084-1.685 6.084-.182.21-.33.442-.438.69-.43.911-.261 1.965.438 2.725z" fill="#A27772"/><path d="M309.298 799.924c1.36 1.72 9.363.993 10.727.441.834-.33.77-1.826.544-3.37-.857.383-2.304.705-4.755.49-.57-.054-1.143-.071-1.715-.054-1.733.078-3.469.046-5.197-.097a2.417 2.417 0 00.396 2.59zM338.73 751.145c-.581 7.407.118 18.807 2.461 24.966a30.303 30.303 0 011.748 12.195c.813.67 1.945.787 3.166.594-.704-4.823-3.693-25.526-5.613-41.888-2.18-18.639-12.392-31.462-12.392-31.462l-2.039 2.195c5.589 2.86 12.669 33.4 12.669 33.4z" fill="#000" opacity=".1"/><path d="M312.699 631.791l1.363 6.854 6.663 11.483 8.219-3.6s11.175-11.996 4.154-13.707a6.119 6.119 0 01-2.334-1.064c-1.377-1.068-1.81-2.614-1.82-4.132.055-1.7.443-3.372 1.14-4.915l-14.377-4.626a23.978 23.978 0 011.033 5.97c.108 4.01-1.344 5.992-2.537 6.935-.444.368-.956.64-1.504.802z" fill="#B5979B"/><path d="M315.371 616.75a26.092 26.092 0 011.056 6.304c3.047 3.83 7.98 5.321 12.476 3.773a14.076 14.076 0 011.167-5.192l-14.699-4.886z" fill="#000" opacity=".1"/><path d="M314.035 616.082c0 6.268 5.085 11.349 11.358 11.349 6.273 0 11.358-5.081 11.358-11.35 0-6.267-5.085-11.348-11.358-11.348a11.335 11.335 0 00-8.04 3.316 11.316 11.316 0 00-3.318 8.033z" fill="#B5979B"/><path d="M312.699 632.22l1.363 6.693 6.663 11.215 8.219-3.517s11.175-11.715 4.154-13.386a6.188 6.188 0 01-2.334-1.039c1.268 3.489-3.966 10.744-3.966 10.744-.608.897-2.009.335-2.009.335-3.367-.51-9.577-10.215-10.586-11.829a4.27 4.27 0 01-1.504.784zM306.018 697.248c2.023.454 13.209 2.77 17.448 2.187 4.668-.646 13.75-1.073 13.75-1.073s5.78.291 7.553-.455v-.318l-3.295-3.725s-31.887-2.275-34.276 0c-.626.536-.964 1.796-1.18 3.384z" fill="#000" opacity=".1"/><path d="M326.706 642.154s6.097-8.37 3.8-11.632l10.301 4.188s6.2-.747 8.434 8.423c.358 1.525.488 3.095.386 4.658-.083 1.38.108 3.814 1.697 6.964 2.542 5.04 1.956 16.614-3.237 17.758-5.192 1.143-7.05.572-7.05.572s.694 20.966 3.696 23.37c3.002 2.403-7.661 1.831-7.661 1.831s-9.212.485-13.95 1.149c-4.738.664-18.027-2.423-18.027-2.423s1.956-8.82 2.66-14.433c.704-5.612 2.308-17.564 2.308-17.564l-11.789-15.829s-2.078-9.567 5.203-13.802c7.28-4.236 10.023-5.283 10.023-5.283s7.334 11.81 11.128 12.383c0 .01 1.447.59 2.078-.33z" fill="#2C97D2"/><path d="M340.281 646.123s.105 3.7-.538 5.156c-.643 1.456-2.992 9.53-2.992 9.53h5.345s-2.887-3.25-2.674-4.82c.212-1.57.86-9.866.86-9.866z" fill="#000" opacity=".1"/><path d="M323.6 674.16s12.815-3.085 14.008-5.71c1.194-2.627 4.488-8.517 4.488-8.517l-1.35-1.794-6.236 4.836s-7.429 5.803-10.91 6.403c-3.482.6 0 4.783 0 4.783z" fill="#FBBEBE"/><path d="M323.6 674.16s12.815-3.085 14.008-5.71c1.194-2.627 4.488-8.517 4.488-8.517l-1.35-1.794-6.236 4.836s-7.429 5.803-10.91 6.403c-3.482.6 0 4.783 0 4.783z" fill="#B5979B" opacity=".818"/><path d="M312.699 659.544v6.64h1.098a32.594 32.594 0 0115.481 3.9l2.052 1.106.554.3 3.531-7.735-3.304-2.884h-.169c-.81.075-4.301.357-5.78-.126s-3.155-1.941-7.293-.91c-2.042.506-3.781 2.733-5.78 2.04l-.39-2.33z" fill="#B5979B"/><path d="M301.585 647.14l-2.249 2.546v6.163s1.902 19.456 7.98 21.604c6.077 2.149 16.904-1.244 16.904-1.244s2.801-7.464 1.493-7.919c-1.307-.454-11.574-3.177-11.574-3.177s.148-11.412-2.102-14.804c0 0 1.46-10.633-3.594-10.857-5.055-.225-6.858 7.689-6.858 7.689z" fill="#000" opacity=".1"/><path d="M301.585 647.14l-2.249 2.546v6.163s1.902 19.456 7.984 21.604c6.082 2.149 16.9-1.244 16.9-1.244s2.801-7.464 1.493-7.919c-1.307-.454-11.569-3.177-11.569-3.177s.143-11.412-2.107-14.804c0 0 1.465-10.633-3.594-10.857-5.06-.225-6.858 7.689-6.858 7.689z" fill="#2C97D2"/><path d="M317.325 621.3a4.389 4.389 0 01.266-2.216 1.748 1.748 0 011.845-1.04c.987.226 1.43 1.493 2.407 1.797.824.255 1.727-.313 2.122-1.065a5.33 5.33 0 00.404-2.476v-2.858c0-1.035.035-2.153.69-2.968.815-1.011 2.723-1.445 3.996-1.411.85.008 1.665.328 2.284.896.63.62 1.513.928 2.402.838.79-.118 1.44-.67 1.672-1.416a.113.113 0 000-.039c-2.702-3.49-7.182-5.2-11.59-4.425-4.409.774-7.998 3.903-9.286 8.093-1.287 4.19-.055 8.732 3.188 11.75-.197-1.145-.33-2.3-.4-3.46z" fill="#000" opacity=".1"/><path d="M333.522 609.709a2.03 2.03 0 001.61-1.438c.09-.372.066-.773.175-1.14.26-.91 1.198-1.385 1.828-2.074 1.26-1.38 1.18-3.655.289-5.318-.725-1.34-2.121-2.47-3.585-2.21-.904.165-1.685.83-2.604.89-.919.058-1.69-.45-2.496-.832a9.118 9.118 0 00-6.184-.568 3.538 3.538 0 00-1.705.886c-.325.423-.629.864-.909 1.32-1.041 1.375-2.912 1.644-4.574 1.957-1.662.313-3.547.979-4.091 2.647-.365 1.096 0 2.284.194 3.424.072.234.057.487-.043.71-.26.444-.909.259-1.42.361-.947.206-1.184 1.468-1.217 2.446a136.073 136.073 0 00-.09 3.424c-.028.425.004.852.095 1.267.204.593.526 1.135.947 1.59l3.698 4.589c1.638 2.035 3.376 4.402 3.05 7.03.776.356 1.695-.333 1.95-1.175.256-.841.052-1.741-.123-2.602a32.973 32.973 0 01-.582-4.515 4.71 4.71 0 01.255-2.255c.29-.729 1.02-1.163 1.776-1.057.947.23 1.369 1.516 2.306 1.825.791.264 1.658-.318 2.036-1.081a5.758 5.758 0 00.389-2.515v-2.9c0-1.052.033-2.187.663-3.014.776-1.027 2.613-1.468 3.835-1.433a3.198 3.198 0 012.193.91 2.788 2.788 0 002.334.85z" fill="#2F2E41"/><path d="M331.406 646.123l-3.419 14.686s-2.69-.014 3.42-14.686zM319.38 643.452s3.819 7.848 2.327 15.958l-.709.064s1.268-3.756-1.618-16.022zM315.371 686.55s-6.226-1.74-6.681 2.297c0 0 1.177-2.77 6.681-2.297zM332.316 662.144s1.135 7.614-.91 10.66a26.05 26.05 0 0010.007 1.301l.683-11.96h-9.78z" fill="#000" opacity=".1"/><path d="M331.406 671.189l.544.301 3.465-7.78-3.243-2.9h-.165c.052.377.955 7.078-.6 10.379z" fill="#000" opacity=".1"/><path d="M332.362 660.81s1.193 7.613-.956 10.658a28.681 28.681 0 0010.517 1.302l4.182-11.96h-13.743z" fill="#2C97D2"/><path d="M342.111 794.378a2.545 2.545 0 002.188 2.23c3.055.477 10.429 1.622 12.288 2.508 2.383 1.13 11.715.339 12.168-.786.128-.457.07-.946-.162-1.359a3.713 3.713 0 00-2.188-1.907c-1.764-.591-5.09-1.835-5.986-3.142 0 0-4.147-3.632-5.33-5.592a2.698 2.698 0 00-2.168-1.349c-.986-.047-2.083.453-2.535 2.613 0 0-5.405 3.084-6.869.381 0 0-.224 4.152-1.12 5.292-.24.317-.342.717-.286 1.11z" fill="#A27772"/><path d="M342.113 794.16c.134 1.204 1.034 2.16 2.188 2.323 3.055.496 10.428 1.688 12.286 2.61 2.383 1.177 11.715.353 12.168-.818a1.93 1.93 0 00-.162-1.415 3.701 3.701 0 00-1.511-1.687c-1.525 1.052-4.909 2.084-12.353.873-7.102-1.156-10.614-2.288-12.33-3.057a1.602 1.602 0 00-.286 1.171zM355.459 787.649s-1.155 2.773-5.345.325M319.38 787.649s-3.55 4.758-8.017 1.57M308.69 735.578s2.584 1.526 2.669 2.398c.085.873-1.335-.635-1.335-.635l-1.334-1.763zM307.354 748.93c1.034.619 2.322.979 3.667 1.025 2.227.07 2.041 2.154.584 1.527-1.457-.626-4.251-2.553-4.251-2.553zM307.354 750.264s1.474 6.42 2.672 5.182" fill="#000" opacity=".1"/></g><g transform="translate(739.306 336)" fill-rule="nonzero"><path d="M172.132 18.692H99.127c-3.085.004-5.585 2.487-5.59 5.551v36.329h11.236a4.836 4.836 0 014.11 2.257l3.894 6.156 3.723 5.882.7 1.106 4.26 6.73.048.076h56.214V24.243c-.004-3.064-2.504-5.547-5.59-5.55z" fill="#CCC"/><path d="M143.314 29.373h-36.75c-2.028 0-3.673 1.794-3.673 4.006s1.645 4.005 3.674 4.005h36.75c2.028 0 3.673-1.793 3.673-4.005 0-2.212-1.645-4.006-3.674-4.006zM164.4 48.065h-56.204c-2.192 0-3.968 1.794-3.968 4.006s1.776 4.005 3.968 4.005H164.4c2.191 0 3.968-1.793 3.968-4.005 0-2.212-1.777-4.006-3.968-4.006zM167.994 63.724a3.943 3.943 0 00-3.571-2.307h-55.934c-.086 0-.167.004-.253.008.73.405 1.345.993 1.786 1.709l3.896 6.294h50.505c1.35 0 2.606-.7 3.33-1.856a4.054 4.054 0 00.24-3.848zM168.331 78.235c-.266-1.984-1.937-3.465-3.913-3.467H117.59l.7 1.131 4.267 6.88h41.861a3.872 3.872 0 002.293-.747 4.02 4.02 0 001.62-3.797z" fill="#FFF"/><path d="M212.889 50.056l-5.734-2.26-28.586-11.25-34.202-13.462c-2.899-1.134-6.161.31-7.294 3.23l-1.196 3.094-2.847 7.348-4.136 10.694-3.105 8.021-2.326 6.014-3.104 8.017-2.33 6.018-.066.174-.373.958 4.292 6.885.05.079h79.498a4.865 4.865 0 013.804 1.834l.336-.86 4.104-10.598 6.414-16.576c1.127-2.923-.304-6.215-3.199-7.36z" fill="#2C97D2"/><path d="M182.078 51.425L179 50.18l-31.028-12.538c-1.884-.755-4.003.206-4.744 2.151-.73 1.952.2 4.148 2.082 4.913l10.248 4.14 12.676 5.122L179 58.322l.416.167c1.882.756 4.001-.208 4.735-2.157.734-1.948-.193-4.144-2.073-4.907zM193.909 73.87l-15.31-5.92-10.927-4.225-5.837-2.258-15.203-5.881-4.94-1.91c-1.91-.74-4.073.09-4.985 1.91a3.887 3.887 0 00-.077 3.315 3.94 3.94 0 002.185 2.077l1.263.489 20.266 7.84 18.255 7.06 12.432 4.81c.457.178.944.268 1.435.267 1.904.003 3.54-1.338 3.894-3.193a3.914 3.914 0 00-2.451-4.38zM177.961 83.675l-.975-.39-9.54-3.812-8.713-3.48-15.111-6.038-7.31-2.921a3.855 3.855 0 00-3.886.606 4.072 4.072 0 00-1.428 3.75c.214 1.423 1.152 2.62 2.462 3.14l3.658 1.463 18.252 7.293 1.878.75.194.078h21.616l-1.097-.439zM141.452 84.04l-1.806-.708-7.549-2.962a3.758 3.758 0 00-3.263.247 3.793 3.793 0 00-1.845 2.715 3.617 3.617 0 00-.038.782h14.692l-.19-.074z" fill="#FFF"/><path d="M157.498 83.198l-1.904-.736h-29.769c-.04.243-.054.49-.045.736h-4.07l.05.078h35.934l-.196-.078zm0 0H121.71l.05.078h35.934l-.196-.078zm0 0H121.71l.05.078h35.934l-.196-.078zm.196.078l-.196-.078H121.71l.05.078h35.934zM104.87 60.082a5.745 5.745 0 014.841 2.652l4.21 6.64 3.757 5.928.107.17 4.43 6.99h79.182c1.57-.001 3.07.64 4.148 1.774a5.622 5.622 0 011.575 3.901v71.75a5.674 5.674 0 01-3.352 5.159 5.701 5.701 0 01-2.371.513H85.894a5.681 5.681 0 01-2.367-.513 5.673 5.673 0 01-3.352-5.159v-94.13c.004-3.131 2.561-5.67 5.72-5.675zm101.43 99.805c-.005 2.683-2.198 4.856-4.903 4.858H85.894c-2.703-.004-4.894-2.177-4.898-4.858v-94.13c.002-2.682 2.193-4.857 4.898-4.862h18.975a4.883 4.883 0 014.148 2.275l3.93 6.204 3.758 5.928.706 1.114 4.3 6.782.048.078h79.637c2.707.002 4.9 2.177 4.903 4.861v71.75zm-48.801-76.689H121.71l.05.078h35.934l-.196-.078zm0 0H121.71l.05.078h35.934l-.196-.078zm0 0H121.71l.05.078h35.934l-.196-.078zm0 0l-1.904-.736h-33.38l-4.43-6.99-.373.944 4.3 6.782.048.078h35.935l-.196-.078z" fill="#E6E6E6"/><path fill="#FFB8B8" d="M62.804 117.671l-2.241 5.163-19.14-7.067 3.308-7.62z"/><path d="M58.463 125.587l4.729-9.878 5.939 2.839-7.352 15.358-.454-.217a6.072 6.072 0 01-2.862-8.102z" fill="#2F2E41"/><path fill="#FFB8B8" d="M68.743 160.218l-5.699-.184-.24-21.178 6.681.376z"/><path d="M59.058 159.187l10.953.369-.223 6.574-17.028-.574.017-.503a6.078 6.078 0 016.28-5.866zM76.918 73.499s-16.488-4.225-23.963 2l-4.177 12.23-16.708 24.015 24.183 14.675 4.397-11.118-10.553-5.336 12.751-11.118-2.198 58.702 8.354 1.334s18.467-72.488 7.914-85.384z" fill="#2F2E41"/><path d="M52.114 76.104l.208-.362c2.195-3.808 1.839-10.01 1.154-14.54-.573-3.796-.556-10.485-.44-15.428.058-3.437 2.55-6.374 5.999-7.071 5.196-1.056 11.576-1.28 14.916-1.319l.003.223-.003-.223c1.888-.007 3.435 1.46 3.481 3.303.102 5.323.07 15.03-1.283 20.237-2.009 7.73 1.132 12.983 1.164 13.035l.19.309-25.39 1.836z" fill="#2C97D2"/><path d="M44.389 97.051c1.041-.522 1.808-1.5 2.094-2.67a4.24 4.24 0 00-.612-3.395l8.915-40.25h-6.74L40.18 90.192c-1.534 1.323-1.88 3.638-.805 5.388 1.074 1.75 3.229 2.382 5.015 1.471zM101.555 58.698L85.826 44.06l-4.25 5.855 10.627 9.201-13.938 10.89c-.1-.007-.2-.015-.303-.015-2.389-.003-4.356 1.845-4.464 4.193-.107 2.348 1.683 4.363 4.062 4.572 2.379.21 4.504-1.46 4.821-3.79l.044.043 19.13-16.31z" fill="#FFB8B8"/><path d="M57.459 40.202s-9.804-1.659-10.693 6.139c-.889 7.797-1.333 7.797-1.333 7.797s7.112-1.376 8.89.459c1.778 1.834 3.136-14.395 3.136-14.395zM73.494 38.954s7.595-1.276 10.971 2.125c3.376 3.4 5.064 4.25 5.064 4.25s-7.596 4.251-4.642 8.077c0 0-8.017-3.826-9.283-2.55-1.266 1.275-2.11-11.902-2.11-11.902z" fill="#2C97D2"/><path d="M65.26 12.808c-2.49-1.944-3.144-5.698-1.7-8.475 1.445-2.778 4.71-4.451 7.894-4.326s6.184 1.912 8.028 4.453c2.59 3.57 3.134 8.531 6.58 11.326 3.111 2.524 7.568 2.451 11.606 2.25 1.36-.067 2.765-.146 3.987-.737 1.22-.591 2.218-1.839 2.061-3.163 1.014 1.57.426 3.773-.935 5.068-1.36 1.296-3.298 1.839-5.184 2.055-6.77.696-13.413-2.155-17.474-7.499-1.405-1.895-2.489-4.102-4.416-5.49-1.928-1.388-5.142-1.484-6.325.55-.585 1.007-.528 2.27-1.066 3.3-.538 1.032-2.286 1.588-2.804.547" fill="#2F2E41"/><ellipse fill="#2F2E41" cx="65.476" cy="21.362" rx="12.026" ry="12.016"/><ellipse fill="#FFB8B8" cx="66.144" cy="24.7" rx="10.022" ry="10.014"/><path d="M56.123 17.78c1.415.31.952 2.676 2.07 3.593 1.009.828 2.462-.023 3.732-.331 1.603-.39 3.28.18 4.76.907 1.48.727 2.908 1.63 4.522 1.968 1.615.338 3.529-.043 4.434-1.418.866-1.315.547-3.088-.13-4.508a10.505 10.505 0 00-9.34-5.974 10.507 10.507 0 00-9.503 5.714" fill="#2F2E41"/><path d="M292.64 166.226c0 .368-.184.667-.41.668H.41c-.226 0-.409-.3-.409-.668 0-.369.183-.667.409-.667H292.23c.225 0 .408.299.408.667z" fill="#CCC"/></g><path d="M457 717c15.333 70 56.667 105 124 105s165.667-49.333 295-148M449 521c-1.333-68 19-112.333 61-133s115.333-5.667 220 45" stroke="#E3E6F3" stroke-width="2" stroke-dasharray="5"/><path d="M979 430c66-34 113-37.667 141-11s9.333 71.667-56 135" stroke="#E3E6F3" stroke-width="2" stroke-dasharray="5,5"/></g></svg>