<?xml version="1.0" encoding="UTF-8"?>
<svg width="68px" height="88px" viewBox="0 0 68 88" version="1.1" xmlns="http://www.w3.org/2000/svg" xmlns:xlink="http://www.w3.org/1999/xlink">
    <title>cloudsecure-logo</title>
    <defs>
        <linearGradient x1="2.66660471%" y1="49.9996686%" x2="94.3525217%" y2="49.9996686%" id="linearGradient-1">
            <stop stop-color="#2FAFE5" offset="0%"></stop>
            <stop stop-color="#2FAAE0" offset="14.3%"></stop>
            <stop stop-color="#2D9DD1" offset="31.5%"></stop>
            <stop stop-color="#2B87B9" offset="50.2%"></stop>
            <stop stop-color="#276897" offset="70%"></stop>
            <stop stop-color="#23416C" offset="90.3%"></stop>
            <stop stop-color="#212C55" offset="100%"></stop>
        </linearGradient>
    </defs>
    <g id="cloudsecure-logo" stroke="none" stroke-width="1" fill="none" fill-rule="evenodd">
        <g id="cloudsecure-logo-colour-100" transform="translate(1.000000, 0.000000)" fill-rule="nonzero">
            <g id="Group">
                <path d="M37.6107347,37.885 L37.6107347,0 C16.7948421,0.151244383 7.10542736e-15,17.068558 7.10542736e-15,37.885 C7.10542736e-15,58.701442 16.7948421,75.6187556 37.6107347,75.7705022 C44.4110291,75.8194097 50.716009,72.2198346 54.1304995,66.3387037 C57.54499,60.4575727 57.54499,53.1974273 54.1304995,47.3162963 C50.716009,41.4351654 44.4110291,37.8355903 37.6107347,37.885 Z" id="Path" fill="url(#linearGradient-1)"></path>
                <path d="M37.6107347,37.885 C27.2027884,37.8093778 18.8053673,29.350721 18.8053673,18.9425 C18.8053673,8.534279 27.2027884,0.0756221916 37.6107347,-8.8817842e-16 L37.6107347,37.885 Z" id="Path" fill="#212C55"></path>
            </g>
            <g id="Group" transform="translate(8.183122, 81.448985)" fill="#212C55">
                <g transform="translate(29.457480, 0.221776)">
                    <path d="M0.0411325262,4.47823916 C0.0781325262,4.43423916 0.115132526,4.37823916 0.152132526,4.33723916 C0.226132526,4.24223916 0.307132526,4.18223916 0.411132526,4.27123916 C0.749860475,4.59690809 1.19076376,4.79545588 1.65913253,4.83323916 C1.89898809,4.86057723 2.13968218,4.78952959 2.32624467,4.63632221 C2.51280716,4.48311484 2.62930511,4.26083204 2.64913253,4.02023916 C2.64913253,3.51023916 2.20513253,3.20823916 1.35613253,2.85323916 C0.544132526,2.49923916 0.0561325262,2.16723916 0.0561325262,1.32523916 C0.0784397726,0.937554718 0.26009473,0.576359336 0.558026302,0.327293846 C0.855957874,0.0782283546 1.24363305,-0.0365261175 1.62913253,0.0102391611 C2.07682429,0.0162228724 2.51406323,0.146390603 2.89213253,0.386239161 C2.93506448,0.41053374 2.96487464,0.452762637 2.97339212,0.501351024 C2.98190961,0.549939412 2.96824089,0.599790104 2.93613253,0.637239161 C2.90713253,0.682239161 2.87713253,0.737239161 2.84813253,0.778239161 C2.8278852,0.826464964 2.78621312,0.862419173 2.7355411,0.875381782 C2.68486909,0.88834439 2.63105079,0.876817953 2.59013253,0.844239161 C2.30091732,0.65185654 1.96812715,0.534967431 1.62213253,0.504239161 C0.839132526,0.504239161 0.603132526,1.00423916 0.603132526,1.31723916 C0.603132526,1.81723916 0.979132526,2.10023916 1.60313253,2.35923916 C2.60313253,2.76423916 3.24213253,3.14123916 3.24213253,3.99823916 C3.20713056,4.38681403 3.01899079,4.74550416 2.71920919,4.99519709 C2.41942759,5.24489002 2.03263154,5.36507322 1.64413253,5.32923916 C1.06972909,5.32214029 0.51692414,5.10925007 0.0861325262,4.72923916 C0.0421507292,4.70592664 0.0113283318,4.6636883 0.00254400606,4.61469129 C-0.00624031973,4.56569427 0.00798879569,4.51537897 0.0411325262,4.47823916 Z" id="Path"></path>
                    <path d="M4.67513253,0.229239161 C4.67568205,0.151757819 4.73864923,0.0892391611 4.81613253,0.0892391611 L7.72613253,0.0892391611 C7.80345239,0.0892391611 7.86613253,0.151919296 7.86613253,0.229239161 L7.86613253,0.443239161 C7.86613253,0.520722452 7.80361387,0.583689634 7.72613253,0.584239161 L5.24413253,0.584239161 L5.24413253,2.38423916 L7.36313253,2.38423916 C7.4399075,2.38682635 7.50154533,2.44846419 7.50413253,2.52523916 L7.50413253,2.73923916 C7.50413253,2.81711131 7.44100468,2.88023916 7.36313253,2.88023916 L5.24413253,2.88023916 L5.24413253,4.76223916 L7.72613253,4.76223916 C7.80361387,4.76278869 7.86613253,4.82575587 7.86613253,4.90323916 L7.86613253,5.11723916 C7.86613253,5.19455903 7.80345239,5.25723916 7.72613253,5.25723916 L4.81613253,5.25723916 C4.73864923,5.25723916 4.67568205,5.1947205 4.67513253,5.11723916 L4.67513253,0.229239161 Z" id="Path"></path>
                    <path d="M11.6791325,0.0102391611 C12.3408421,0.00335621207 12.9802765,0.249044934 13.4671325,0.697239161 C13.496373,0.723256435 13.5136715,0.760121816 13.5149943,0.799239005 C13.5163171,0.838356193 13.5015486,0.876305965 13.4741325,0.904239161 L13.2741325,1.10423916 C13.2151325,1.17823916 13.1551325,1.17123916 13.0821325,1.09623916 C12.6902468,0.75371228 12.1913971,0.558202783 11.6711325,0.543239161 C10.5163099,0.568301104 9.59321669,1.51164457 9.59321669,2.66673916 C9.59321669,3.82183375 10.5163099,4.76517722 11.6711325,4.79023916 C12.1932934,4.78290787 12.6949008,4.5856066 13.0821325,4.23523916 C13.1278305,4.18564066 13.202683,4.17633696 13.2591325,4.21323916 L13.4801325,4.41323916 C13.5061084,4.44050133 13.5200069,4.47707822 13.5186897,4.51471116 C13.5173726,4.55234411 13.5009509,4.5878598 13.4731325,4.61323916 C12.9916197,5.08096463 12.3443617,5.33878905 11.6731325,5.33023916 C10.2046074,5.33023916 9.01413253,4.13976431 9.01413253,2.67123916 C9.01413253,1.20271401 10.2046074,0.0122391611 11.6731325,0.0122391611 L11.6791325,0.0102391611 Z" id="Path"></path>
                    <path d="M14.9091325,0.229239161 C14.9112278,0.152804011 14.9726974,0.0913344441 15.0491325,0.0892391611 L15.3301325,0.0892391611 C15.3672628,0.0892391611 15.4028724,0.103989119 15.4291275,0.130244212 C15.4553826,0.156499305 15.4701325,0.192108852 15.4701325,0.229239161 L15.4701325,3.30923916 C15.4277297,3.83293215 15.6821136,4.33627892 16.1289029,4.61274157 C16.5756923,4.88920422 17.1396603,4.89223413 17.5893944,4.62058805 C18.0391285,4.34894197 18.298906,3.84835753 18.2621325,3.32423916 L18.2621325,0.229239161 C18.2621325,0.151919296 18.3248127,0.0892391611 18.4021325,0.0892391611 L18.6831325,0.0892391611 C18.7595677,0.0913344441 18.8210372,0.152804011 18.8231325,0.229239161 L18.8231325,3.35323916 C18.8231325,4.43406042 17.9469538,5.31023916 16.8661325,5.31023916 C15.7853113,5.31023916 14.9091325,4.43406042 14.9091325,3.35323916 L14.9091325,0.229239161 Z" id="Path"></path>
                    <path d="M20.6271325,0.229239161 C20.6271325,0.151919296 20.6898127,0.0892391611 20.7671325,0.0892391611 L22.6801325,0.0892391611 C23.1025857,0.0830999565 23.5100485,0.245667043 23.8122519,0.540925351 C24.1144552,0.83618366 24.28645,1.23975747 24.2901325,1.66223916 C24.2707471,2.3416716 23.8369428,2.93978968 23.1971325,3.16923916 L24.2091325,5.04523916 C24.2370102,5.08934962 24.2378344,5.14535765 24.2112669,5.19026938 C24.1846994,5.23518111 24.1352163,5.26142981 24.0831325,5.25823916 L23.7061325,5.25823916 C23.6574409,5.2605018 23.6116904,5.23491257 23.5881325,5.19223916 L22.6061325,3.22923916 L21.1961325,3.22923916 L21.1961325,5.11223916 C21.1935177,5.18883568 21.1317457,5.25016954 21.0551325,5.25223916 L20.7701325,5.25223916 C20.6928127,5.25223916 20.6301325,5.18955903 20.6301325,5.11223916 L20.6271325,0.229239161 Z M22.6431325,2.74823916 C23.2285544,2.74823916 23.7031325,2.273661 23.7031325,1.68823916 C23.7031325,1.10281733 23.2285544,0.628239161 22.6431325,0.628239161 L21.2101325,0.628239161 L21.2101325,2.74823916 L22.6431325,2.74823916 Z" id="Shape"></path>
                    <path d="M25.8701325,0.229239161 C25.8701325,0.151919296 25.9328127,0.0892391611 26.0101325,0.0892391611 L28.9201325,0.0892391611 C28.9974524,0.0892391611 29.0601325,0.151919296 29.0601325,0.229239161 L29.0601325,0.443239161 C29.0601345,0.520722452 28.9976139,0.583689634 28.9201325,0.584239161 L26.4411325,0.584239161 L26.4411325,2.38423916 L28.5611325,2.38423916 C28.637729,2.38685401 28.6990629,2.44862597 28.7011325,2.52523916 L28.7011325,2.73923916 C28.7011345,2.81672245 28.6386139,2.87968963 28.5611325,2.88023916 L26.4411325,2.88023916 L26.4411325,4.76223916 L28.9231325,4.76223916 C29.0006139,4.76278869 29.0631325,4.82575587 29.0631325,4.90323916 L29.0631325,5.11723916 C29.0631325,5.19455903 29.0004524,5.25723916 28.9231325,5.25723916 L26.0131325,5.25723916 C25.9358127,5.25723916 25.8731325,5.19455903 25.8731325,5.11723916 L25.8701325,0.229239161 Z" id="Path"></path>
                </g>
                <g>
                    <path d="M2.95161283,0.00801527616 C3.64961399,-0.0123995875 4.32670717,0.247633009 4.83161283,0.730015276 C4.86403404,0.756376826 4.8835066,0.795443623 4.885039,0.837201472 C4.88657139,0.878959321 4.87001465,0.919348294 4.83961283,0.948015276 L4.23361283,1.57701528 C4.2080432,1.603034 4.1730927,1.61768952 4.13661283,1.61768952 C4.10013297,1.61768952 4.06518247,1.603034 4.03961283,1.57701528 C3.75045969,1.32016332 3.37737076,1.17789871 2.99061283,1.17701528 C2.13552847,1.209446 1.45968506,1.91317973 1.46184047,2.76887616 C1.46399587,3.62457259 2.14337594,4.32489267 2.99861283,4.35301528 C3.37828723,4.352697 3.74613357,4.22089423 4.03961283,3.98001528 C4.09929627,3.93350971 4.18383458,3.93689124 4.23961283,3.98801528 L4.84461283,4.63301528 C4.89683896,4.69432697 4.89380594,4.78531756 4.83761283,4.84301528 C4.33217061,5.33311744 3.65361008,5.60375096 2.94961283,5.59601528 C1.91501171,5.65137637 0.934406396,5.13090027 0.400459884,4.2430008 C-0.133486628,3.35510134 -0.133486628,2.24492921 0.400459884,1.35702975 C0.934406396,0.469130286 1.91501171,-0.0513458132 2.94961283,0.00401527616 L2.95161283,0.00801527616 Z" id="Path"></path>
                    <path d="M6.15961283,0.233015276 C6.15961283,0.151829418 6.22542698,0.0860152762 6.30661283,0.0860152762 L7.22761283,0.0860152762 C7.3080899,0.0880911076 7.37299145,0.152554135 7.37561283,0.233015276 L7.37561283,4.38101528 L9.22761283,4.38101528 C9.26677263,4.38074888 9.30442007,4.39611865 9.33220458,4.42371542 C9.35998909,4.4513122 9.37561283,4.48885457 9.37561283,4.52801528 L9.37561283,5.37501528 C9.37561283,5.41417598 9.35998909,5.45171836 9.33220458,5.47931513 C9.30442007,5.5069119 9.26677263,5.52228168 9.22761283,5.52201868 L6.30761283,5.52201868 C6.22642698,5.52201868 6.16061283,5.45620113 6.16061283,5.37501528 L6.15961283,0.233015276 Z" id="Path"></path>
                    <path d="M12.8776128,0.00799351684 C14.0110975,0.00356226635 15.0354503,0.682929805 15.4723051,1.72885771 C15.9091599,2.77478562 15.6723266,3.98091529 14.8724047,4.78399209 C14.0724829,5.58706889 12.8672948,5.82864804 11.8196554,5.39591368 C10.772016,4.96317932 10.0885983,3.94150869 10.0885983,2.80801528 C10.0862218,2.06658437 10.3789422,1.35467196 10.9021829,0.829367575 C11.4254236,0.304063192 12.1361783,0.00854272471 12.8776128,0.00799351684 Z M12.8776128,4.35701816 C13.50665,4.35822403 14.0742893,3.97985696 14.3151948,3.39877716 C14.5561003,2.81769736 14.4226858,2.14868565 13.9773142,1.70446345 C13.5319427,1.26024125 12.8625884,1.12855586 12.2821331,1.37096202 C11.7016777,1.61336819 11.3247787,2.18198336 11.327597,2.81101528 C11.3330894,3.66412793 12.0244889,4.35374315 12.8776128,4.35701816 L12.8776128,4.35701816 Z" id="Shape"></path>
                    <path d="M16.9276128,0.233015276 C16.9302067,0.152928414 16.994526,0.0886091008 17.0746128,0.08601187 L18.0276128,0.08601187 C18.0667726,0.0857488768 18.1044201,0.101118648 18.1322046,0.128715422 C18.1599891,0.156312197 18.1756137,0.193854571 18.1756128,0.233015276 L18.1756128,3.37901528 C18.1756128,3.91086549 18.6067626,4.34201528 19.1386128,4.34201528 C19.670463,4.34201528 20.1016128,3.91086549 20.1016128,3.37901528 L20.1016128,0.233015276 C20.1016128,0.151829418 20.167427,0.08601187 20.2486128,0.08601187 L21.2036128,0.08601187 C21.2840899,0.0880911076 21.3489914,0.152554135 21.3516128,0.233015276 L21.3516128,3.44101528 C21.3260172,4.64516614 20.3425357,5.60796477 19.1381128,5.60796477 C17.93369,5.60796477 16.9502085,4.64516614 16.9246128,3.44101528 L16.9276128,0.233015276 Z" id="Path"></path>
                    <path d="M22.9886128,0.233015276 C22.9874772,0.15407242 23.0497085,0.0887295571 23.1286128,0.0860152762 L25.0276128,0.0860152762 C26.5287228,0.0860152762 27.7456128,1.30290533 27.7456128,2.80401528 C27.7456128,4.30512523 26.5287228,5.52201528 25.0276128,5.52201528 L23.1276128,5.52201528 C23.0489427,5.51878186 22.9870071,5.45374954 22.9876084,5.37501528 L22.9886128,0.233015276 Z M24.9466128,4.37301528 C25.7935383,4.34281125 26.4645147,3.64747917 26.4645147,2.80001528 C26.4645147,1.95255139 25.7935383,1.2572193 24.9466128,1.22701528 L24.2006128,1.22701528 L24.2006128,4.37301528 L24.9466128,4.37301528 Z" id="Shape"></path>
                </g>
            </g>
        </g>
    </g>
</svg>