<svg width="200" height="55" xmlns="http://www.w3.org/2000/svg" xmlns:xlink="http://www.w3.org/1999/xlink">
    <defs>
        <linearGradient x1="44.581%" y1="12.944%" x2="67.918%" y2="93.752%" id="b">
            <stop stop-color="#2FAFE4" offset="0%"/>
            <stop stop-color="#212C55" offset="100%"/>
        </linearGradient>
        <path d="M19.972 0C8.942 0 0 8.94 0 19.968s8.942 19.968 19.972 19.968V0z" id="a"/>
    </defs>
    <g fill="none" fill-rule="evenodd">
        <text font-family="BrandonGrotesque-Regular, Brandon Grotesque" font-size="20.43" letter-spacing=".006" fill="#212C55" transform="translate(1 3)">
            <tspan x="120.984" y="31.274">S</tspan> 
            <tspan x="131.879" y="31.274" letter-spacing="-.055">E</tspan> 
            <tspan x="143.857" y="31.274">CURE</tspan>
        </text>
        <text font-family="BrandonGrotesque-Black, Brandon Grotesque" font-size="21.505" font-weight="400" letter-spacing=".006" fill="#212C55" transform="translate(1 3)">
            <tspan x="45.622" y="31.865">C</tspan> 
            <tspan x="60.101" y="31.865" letter-spacing="-.08">L</tspan> 
            <tspan x="70.924" y="31.865">OUD</tspan>
        </text>
        <g transform="translate(1 3)">
            <mask id="c" fill="#fff">
                <use xlink:href="#a"/>
            </mask>
            <path d="M19.972 0C8.942 0 0 8.94 0 19.968s8.942 19.968 19.972 19.968V0z" fill="url(#b)" mask="url(#c)"/>
        </g>
        <path d="M17.777 53c11.03 0 19.972-8.94 19.972-19.968s-8.942-19.968-19.972-19.968V53z" fill="#212C55"/>
    </g>
</svg>