<svg width="200" height="55" xmlns="http://www.w3.org/2000/svg" xmlns:xlink="http://www.w3.org/1999/xlink"><defs><linearGradient x1="44.581%" y1="12.944%" x2="67.918%" y2="93.752%" id="b"><stop stop-color="#2FAFE4" offset="0%"/><stop stop-color="#212C55" offset="100%"/></linearGradient><path d="M19.972 0C8.942 0 0 8.94 0 19.968s8.942 19.968 19.972 19.968V0z" id="a"/></defs><g fill="none" fill-rule="evenodd"><path d="M127.581 34.478c2.39 0 4.413-1.553 4.413-3.677 0-2.37-1.777-3.412-4.535-4.536-1.716-.715-2.758-1.511-2.758-2.88 0-.858.654-2.247 2.82-2.247 1.245 0 2.532.858 2.675.94.327.183.532.101.715-.185.082-.122.164-.265.246-.388.245-.388 0-.633-.123-.694 0 0-1.491-1.042-3.493-1.042-3.249 0-4.352 2.247-4.352 3.636 0 2.33 1.348 3.249 3.596 4.23 2.349.98 3.575 1.817 3.575 3.227 0 1.205-1.083 2.247-2.738 2.247-1.818 0-3.31-1.43-3.452-1.552-.286-.245-.511-.082-.715.184l-.307.388c-.245.388-.04.551.123.694.265.245 1.9 1.655 4.31 1.655zm15.82-.204a.388.388 0 00.387-.388v-.593a.388.388 0 00-.388-.388h-6.864v-5.21h5.863a.388.388 0 00.388-.388v-.592a.402.402 0 00-.388-.388h-5.863v-4.985h6.864a.388.388 0 00.388-.388v-.593a.388.388 0 00-.388-.388h-8.05a.388.388 0 00-.387.388v13.525c0 .204.163.388.388.388h8.05zm9.873.204c1.818 0 3.575-.633 4.964-1.982.143-.143.184-.429.02-.551l-.612-.552c-.123-.081-.286-.102-.49.062-1.083.817-2.125 1.532-3.902 1.532-3.228 0-5.7-2.717-5.7-5.864 0-3.166 2.472-5.883 5.7-5.883 1.389 0 2.84.613 3.902 1.532.204.204.367.225.53.02l.552-.551c.164-.164.143-.409-.02-.572-1.39-1.185-2.88-1.9-4.944-1.9a7.359 7.359 0 00-7.375 7.375c0 4.086 3.29 7.334 7.375 7.334zm13.326 0c3.228 0 5.435-2.37 5.435-5.475v-8.642a.402.402 0 00-.388-.388h-.777a.388.388 0 00-.388.388v8.56c0 2.33-1.47 4.107-3.882 4.107-2.39 0-3.84-1.819-3.84-4.148v-8.519a.388.388 0 00-.389-.388h-.776a.402.402 0 00-.388.388v8.642c0 3.105 2.186 5.475 5.393 5.475zm10.61-.204a.402.402 0 00.388-.388v-5.21h3.902l2.717 5.414a.35.35 0 00.327.184h1.042c.347 0 .49-.327.347-.593l-2.799-5.189c1.778-.715 3.024-2.288 3.024-4.167 0-2.432-2.002-4.352-4.454-4.352h-5.291a.388.388 0 00-.388.388v13.525c0 .204.163.388.388.388h.797zm4.392-6.946h-3.963v-5.864h3.963c1.573 0 2.942 1.328 2.942 2.881 0 1.675-1.369 2.983-2.942 2.983zm16.37 6.946a.388.388 0 00.389-.388v-.593a.388.388 0 00-.389-.388h-6.864v-5.21h5.863a.388.388 0 00.389-.388v-.592a.402.402 0 00-.389-.388h-5.863v-4.985h6.864a.388.388 0 00.389-.388v-.593a.388.388 0 00-.389-.388h-8.049a.388.388 0 00-.388.388v13.525c0 .204.163.388.388.388h8.05zM55.138 35.08c1.914 0 3.763-.666 5.225-2.085.15-.151.172-.43.022-.581l-1.678-1.785c-.129-.15-.408-.15-.559-.022-.774.667-1.87 1.033-2.881 1.033-2.43 0-4.237-1.979-4.237-4.366 0-2.408 1.785-4.43 4.215-4.43 1.054 0 2.108.387 2.903 1.097.15.15.387.15.538 0l1.677-1.742a.4.4 0 00-.021-.602c-1.462-1.333-3.054-2-5.204-2a7.746 7.746 0 00-7.764 7.763c0 4.301 3.463 7.72 7.764 7.72zm16.307-.215a.408.408 0 00.408-.408v-2.344a.408.408 0 00-.408-.409h-5.119V20.221a.423.423 0 00-.408-.409h-2.56a.408.408 0 00-.408.409v14.236c0 .215.172.408.409.408h8.086zm8.952.215c4.3 0 7.742-3.419 7.742-7.72a7.728 7.728 0 00-7.742-7.763c-4.301 0-7.72 3.462-7.72 7.763s3.419 7.72 7.72 7.72zm0-3.44c-2.344 0-4.28-1.936-4.28-4.28 0-2.365 1.936-4.322 4.28-4.322 2.366 0 4.3 1.957 4.3 4.322 0 2.344-1.934 4.28-4.3 4.28zm16.242 3.44c3.398 0 6.15-2.71 6.15-5.978v-8.881a.423.423 0 00-.408-.409h-2.645a.408.408 0 00-.408.409v8.71c0 1.504-1.14 2.709-2.689 2.709-1.526 0-2.645-1.205-2.645-2.71v-8.71a.408.408 0 00-.408-.408H90.94a.423.423 0 00-.409.409v8.881c0 3.269 2.731 5.978 6.107 5.978zm15.254-.215c4.15 0 7.548-3.376 7.548-7.548 0-4.129-3.398-7.505-7.548-7.505h-5.248c-.215 0-.387.194-.387.409v14.236c0 .215.172.408.387.408h5.248zm-.215-3.182h-2.065v-8.71h2.065c2.43 0 4.193 1.914 4.193 4.344 0 2.452-1.763 4.366-4.193 4.366z" fill="#212C55" fill-rule="nonzero"/><g transform="translate(1 3)"><mask id="c" fill="#fff"><use xlink:href="#a"/></mask><path d="M19.972 0C8.942 0 0 8.94 0 19.968s8.942 19.968 19.972 19.968V0z" fill="url(#b)" mask="url(#c)"/></g><path d="M17.777 53c11.03 0 19.972-8.94 19.972-19.968s-8.942-19.968-19.972-19.968V53z" fill="#212C55"/></g></svg>