<svg width="203" height="40" xmlns="http://www.w3.org/2000/svg">
    <defs>
        <linearGradient x1="3.14%" y1="50%" x2="94.467%" y2="50%" id="a">
            <stop stop-color="#2FAFE5" offset="0%"/>
            <stop stop-color="#2FAAE0" offset="14.3%"/>
            <stop stop-color="#2D9DD1" offset="31.5%"/>
            <stop stop-color="#2B87B9" offset="50.2%"/>
            <stop stop-color="#276897" offset="70%"/>
            <stop stop-color="#23416C" offset="90.3%"/>
            <stop stop-color="#212C55" offset="100%"/>
        </linearGradient>
    </defs>
    <g fill="none" fill-rule="nonzero">
        <g fill="#212C55">
            <path d="M119.354 22.781c.106-.128.213-.276.319-.404.213-.277.447-.447.744-.191.15.127 1.702 1.616 3.594 1.616 1.723 0 2.85-1.085 2.85-2.34 0-1.467-1.276-2.34-3.722-3.36-2.339-1.02-3.743-1.978-3.743-4.402 0-1.447 1.149-3.786 4.53-3.786A6.956 6.956 0 01127.563 11c.128.064.383.319.128.723-.085.127-.17.276-.256.404-.19.298-.404.383-.744.191-.149-.085-1.489-.978-2.786-.978-2.254 0-2.936 1.446-2.936 2.34 0 1.426 1.085 2.255 2.871 3 2.872 1.17 4.722 2.254 4.722 4.721 0 2.212-2.105 3.828-4.593 3.828a6.933 6.933 0 01-4.488-1.723c-.17-.15-.382-.32-.127-.724zM132.71 10.531a.404.404 0 01.404-.404h8.38a.404.404 0 01.403.404v.616a.404.404 0 01-.404.404h-7.145v5.19h6.103c.22.007.397.183.404.403v.616a.404.404 0 01-.404.405h-6.103v5.423h7.145a.404.404 0 01.404.404v.616a.404.404 0 01-.404.404h-8.378a.404.404 0 01-.404-.404l-.001-14.077zM152.893 9.914c2.148 0 3.7.744 5.147 1.978a.412.412 0 01.02.595l-.575.575c-.17.213-.34.192-.552-.02-1.106-.957-2.616-1.595-4.062-1.595-3.36 0-5.934 2.828-5.934 6.125 0 3.275 2.574 6.103 5.934 6.103 1.85 0 2.935-.744 4.062-1.595a.4.4 0 01.51-.063l.638.574c.17.128.127.426-.02.575a7.299 7.299 0 01-5.168 2.06 7.656 7.656 0 010-15.312zM162.208 10.531a.418.418 0 01.405-.404h.808a.404.404 0 01.404.404v8.87c0 2.423 1.51 4.316 3.998 4.316 2.51 0 4.04-1.85 4.04-4.274V10.53a.404.404 0 01.405-.404h.808c.22.007.397.184.404.404v8.997c0 3.232-2.297 5.7-5.657 5.7-3.339 0-5.615-2.468-5.615-5.7V10.53zM178.69 10.531a.404.404 0 01.405-.404h5.508a4.57 4.57 0 014.637 4.53c0 1.956-1.298 3.594-3.148 4.338l2.913 5.403a.402.402 0 01-.361.615h-1.084a.364.364 0 01-.34-.19l-2.83-5.636h-4.061v5.423a.418.418 0 01-.404.404h-.83a.404.404 0 01-.404-.404V10.531zm5.807 7.252a3.1 3.1 0 003.063-3.105c0-1.616-1.425-2.999-3.063-2.999h-4.126v6.104h4.126zM193.813 10.531a.404.404 0 01.404-.404h8.379a.404.404 0 01.404.404v.616a.404.404 0 01-.404.404h-7.146v5.19h6.104c.22.007.396.183.404.403v.616a.404.404 0 01-.404.405h-6.104v5.423h7.146a.404.404 0 01.404.404v.616a.404.404 0 01-.404.404h-8.38a.404.404 0 01-.403-.404V10.53zM42.83 9.253c2.24 0 3.896.694 5.419 2.082a.416.416 0 01.022.627l-1.746 1.813a.392.392 0 01-.56 0 4.575 4.575 0 00-3.022-1.142c-2.53 0-4.388 2.105-4.388 4.613 0 2.484 1.88 4.544 4.41 4.544 1.094 0 2.154-.38 3-1.074a.442.442 0 01.582.022l1.747 1.858c.15.177.14.44-.023.605a7.684 7.684 0 01-5.44 2.172 8.06 8.06 0 010-16.12zM52.076 9.902a.425.425 0 01.426-.425h2.664a.44.44 0 01.425.425v11.956h5.329a.425.425 0 01.425.425v2.44a.425.425 0 01-.425.426h-8.417a.425.425 0 01-.426-.426V9.902zM71.441 9.253a8.06 8.06 0 11-8.037 8.082 8.046 8.046 0 018.037-8.082zm0 12.537a4.478 4.478 0 10-4.455-4.455 4.486 4.486 0 004.455 4.455zM83.104 9.902a.44.44 0 01.426-.425h2.754a.425.425 0 01.425.425v9.068c0 1.567 1.164 2.82 2.754 2.82a2.762 2.762 0 002.798-2.82V9.902a.425.425 0 01.426-.425h2.754a.44.44 0 01.425.425v9.247c0 3.403-2.866 6.224-6.403 6.224-3.515 0-6.359-2.821-6.359-6.224V9.902zM100.59 9.902a.42.42 0 01.402-.425h5.463a7.836 7.836 0 010 15.672h-5.463a.421.421 0 01-.403-.426V9.902zm5.64 11.933c2.531 0 4.367-1.992 4.367-4.545 0-2.53-1.836-4.522-4.366-4.522h-2.15v9.067h2.15z"/>
        </g>
        <path d="M20 20V0C8.953 0 0 8.954 0 20s8.954 20 20 20a10 10 0 100-20z" fill="url(#a)"/>
        <path d="M20 20c-5.506-.025-9.955-4.495-9.955-10s4.45-9.975 9.954-10v20z" fill="#212C55"/>
    </g>
</svg>