<?xml version="1.0" encoding="UTF-8"?>
<svg width="1440px" height="904px" viewBox="0 0 1440 904" version="1.1" xmlns="http://www.w3.org/2000/svg" xmlns:xlink="http://www.w3.org/1999/xlink">
    <title>cloud-scene</title>
    <defs>
        <linearGradient x1="49.9900369%" y1="100.00609%" x2="49.9900369%" y2="-0.00757959559%" id="linearGradient-1">
            <stop stop-color="#808080" stop-opacity="0.25" offset="0%"></stop>
            <stop stop-color="#808080" stop-opacity="0.12" offset="54%"></stop>
            <stop stop-color="#808080" stop-opacity="0.1" offset="100%"></stop>
        </linearGradient>
    </defs>
    <g id="cloud-scene" stroke="none" stroke-width="1" fill="none" fill-rule="evenodd">
        <g id="Group-5" transform="translate(45.000000, 50.000000)">
            <g id="cloud" fill="#277EB4" fill-rule="nonzero">
                <path d="M1323.88407,254.235806 C1310.08768,225.367733 1291.99577,199.126673 1270.32611,176.553715 L527.396018,169.889369 L1139.07743,91.6797912 C1099.05395,77.2584602 1057.17558,69.6957337 1014.97301,69.2680319 C956.086726,25.975512 880.403097,0 797.85,0 C723.779204,0 655.287611,20.9579539 599.447788,56.5182883 C551.99469,34.2609155 497.899115,21.6398272 440.422566,21.6398272 C275.352212,21.6398272 137.807522,125.721993 106.948673,263.756301 L1323.88407,254.235806 Z" id="Path" opacity="0.70304362" style="mix-blend-mode: multiply;"></path>
                <path d="M1350,369.999876 C1349.94886,332.177634 1342.03781,294.847216 1326.8469,260.745766 L39.2575221,383.791728 C26.188305,405.247249 16.0305098,428.602249 9.09159292,453.149818 L407.819469,507.262252 L0,546.707977 C12.269469,702.972746 159.407522,826.353212 339.148673,826.353212 C429.622566,826.353212 511.829204,795.089966 572.74646,744.103857 C633.854867,796.054881 716.85,828 808.30354,828 C943.984513,828 1061.1,757.664129 1115.63761,655.974953 C1225.04735,624.351471 1310.03761,544.97113 1339.12832,445.662078 L834.885398,374.464216 L1350,374.464216 C1350,372.971814 1350,371.492278 1350,369.999876 Z" id="Path" opacity="0.748664493" style="mix-blend-mode: multiply;"></path>
            </g>

<g id="packman-screen" transform="translate(310.458844, 490.645777)" fill-rule="nonzero">
                <path d="M118.406745,146.615588 L114.410711,144.979743 L111.669447,125.504087 L75.16461,125.504087 L72.1932825,144.900172 L68.6181994,146.638031 C68.2660565,146.809235 68.0811944,147.19336 68.1716583,147.5659 C68.2621221,147.938439 68.6041708,148.201635 68.9978894,148.201635 L118.077403,148.201635 C118.481504,148.201635 118.829606,147.924729 118.909573,147.539623 C118.98954,147.154518 118.779204,146.767989 118.406745,146.615588 L118.406745,146.615588 Z" id="Path" fill="#E6E6E6"></path>
                <path d="M172.087366,126.839237 L14.9879403,126.839237 C7.44327595,126.821913 1.33625219,120.64553 1.33625219,113.032584 L1.33625219,98.8010899 L185.739054,98.8010899 L185.739054,113.032584 C185.739054,120.645538 179.632038,126.821931 172.087366,126.839237 Z" id="Path" fill="#CCCCCC"></path>
                <path d="M184.402802,112.152589 L0,112.152589 L0,13.8066619 C0.00854751026,6.18503667 6.1156116,0.0086445425 13.6516866,2.84217094e-14 L170.751116,2.84217094e-14 C178.287198,0.00862614072 184.394273,6.18502903 184.402802,13.8066619 L184.402802,112.152589 Z" id="Path" fill="#3F3D56"></path>
                <path d="M170.756074,102.80654 L14.982972,102.80654 C11.1378529,102.80225 8.02184952,99.719812 8.01751313,95.9161126 L8.01751313,14.9013343 C8.02184494,11.0976301 11.1378522,8.0151866 14.9829762,8.01089918 L170.756074,8.01089918 C174.601194,8.0151979 177.717196,11.0976341 177.721541,14.9013343 L177.721541,95.9161126 C177.717205,99.7198152 174.601196,102.802254 170.756074,102.80654 L170.756074,102.80654 Z" id="Path" fill="#FFFFFF"></path>
                <path d="M101.555166,48.669897 C101.555166,48.6829952 101.555166,48.6960947 101.556444,48.7091956 C102.452668,62.6105047 114.150758,73.4332425 128.280173,73.4332425 C142.409588,73.4332425 154.107665,62.6104769 155.003874,48.7091668 C155.015302,48.541727 154.955343,48.3771803 154.838448,48.255185 C154.723518,48.1335222 154.562259,48.0647213 154.393622,48.0653951 L102.166784,48.0653951 C101.82872,48.0661914 101.555166,48.3366184 101.555166,48.669897 Z" id="Path" fill="#3F3D56"></path>
                <path d="M146.987741,28.2798579 C146.987741,28.4826444 146.90352,28.6771036 146.754041,28.8206966 L128.291476,46.5065385 C128.142315,46.650222 127.939347,46.7307735 127.727812,46.7302452 L102.353293,46.7302452 C102.13317,46.7310602 101.922693,46.6437758 101.772679,46.4894607 C101.620835,46.3347575 101.542677,46.1267094 101.556795,45.9147951 C102.215452,35.9902469 108.679583,27.2771893 118.247193,23.4176635 C127.814804,19.5581377 138.838385,21.21674 146.710103,27.7001778 C146.878231,27.8392219 146.978586,28.0388652 146.987224,28.251476 C146.987741,28.260961 146.987741,28.2704216 146.987741,28.2798579 Z" id="Path" fill="#E6E6E6"></path>
                <path d="M120.26247,84.1691341 C120.240296,86.3290597 118.918113,88.2629589 116.912453,89.0690555 C114.906793,89.875152 112.612638,89.3946986 111.099751,87.8517303 C109.586863,86.308762 109.153182,84.0071409 110.000933,82.0201118 C110.848683,80.0330826 112.810915,78.7519578 114.97264,78.7741251 C117.922992,78.8077235 120.289386,81.2211685 120.26247,84.1691341 L120.26247,84.1691341 Z" id="Path" fill="#2C97D2"></path>
                <path d="M133.624992,84.1691339 C133.602818,86.3290584 132.280637,88.2629567 130.274978,89.0690542 C128.26932,89.8751516 125.975166,89.3947007 124.462277,87.8517353 C122.949389,86.3087699 122.515705,84.0071511 123.363451,82.0201214 C124.211197,80.0330917 126.173424,78.7519633 128.335148,78.774125 C131.285506,78.8077157 133.651908,81.221163 133.624992,84.1691339 L133.624992,84.1691339 Z" id="Path" fill="#3F3D56"></path>
                <path d="M146.987513,84.1691385 C146.965338,86.3290625 145.643156,88.2629595 143.637497,89.0690554 C141.631839,89.8751514 139.337685,89.3946994 137.824798,87.8517337 C136.31191,86.3087679 135.878227,84.0071495 136.725973,82.0201204 C137.573719,80.0330912 139.535946,78.7519633 141.69767,78.774125 C144.648027,78.8077208 147.014427,81.2211679 146.987513,84.1691385 Z" id="Path" fill="#E6E6E6"></path>
                <path d="M76.9269062,33.8107722 L32.7130545,33.3789381 C31.5409381,33.366605 30.4510414,33.9508343 29.8542975,34.9113489 C29.2575537,35.8718636 29.2447224,37.0625775 29.8206415,38.0345454 C30.3965607,39.0065134 31.4736378,39.6119073 32.6457733,39.6224703 L76.859625,40.0543044 C78.0317414,40.0666375 79.1216381,39.4824082 79.718382,38.5218936 C80.3151258,37.5613789 80.3279571,36.370665 79.752038,35.3986971 C79.1761188,34.4267291 78.0990417,33.8213352 76.9269062,33.8107722 L76.9269062,33.8107722 Z" id="Path" fill="#E6E6E6"></path>
                <path d="M76.9252015,51.1677419 L32.7143435,50.7359274 C31.1677742,50.718052 29.8186878,51.7322378 29.4782482,53.1686864 C29.1378085,54.6051349 29.8987376,56.0726154 31.3035124,56.6887774 C31.7242526,56.8763715 32.182493,56.9754947 32.6470668,56.9794054 L76.8579248,57.4112318 C78.0304125,57.4242248 79.1209519,56.8401515 79.7180862,55.8793807 C80.3152205,54.91861 80.3280566,53.7273861 79.7517514,52.7551538 C79.1754462,51.7829215 78.0977223,51.1776697 76.9252015,51.1677578 L76.9252015,51.1677419 Z" id="Path" fill="#E6E6E6"></path>
                <path d="M76.9251046,69.8598175 L32.7129291,69.4279844 C31.540857,69.4156513 30.4510015,69.9998791 29.8542803,70.9603914 C29.257559,71.9209036 29.2447282,73.1116145 29.8206255,74.08358 C30.3965229,75.0555454 31.4735593,75.6609378 32.6456504,75.6715008 L76.857826,76.1033299 C78.0303486,76.116323 79.1209205,75.5322461 79.7180726,74.5714694 C80.3152247,73.6106927 80.3280611,72.4194615 79.7517387,71.4472232 C79.1754164,70.4749849 78.0976604,69.8697294 76.9251046,69.8598175 L76.9251046,69.8598175 Z" id="Path" fill="#E6E6E6"></path>
                <path d="M65.20751,33.693999 L34.0043929,33.3789419 C32.8481547,33.3663647 31.7730224,33.9621533 31.1843623,34.9416722 C30.5957023,35.9211911 30.5830449,37.1354639 31.1511623,38.1266627 C31.7192797,39.1178615 32.7817662,39.7352334 33.9380232,39.7460054 L64.4909848,40.0544959 C65.755919,39.5592812 66.6401066,38.4176878 66.7901208,37.0860328 C66.9401349,35.7543777 66.3315042,34.4498901 65.20751,33.693999 L65.20751,33.693999 Z" id="Path" fill="#2C97D2"></path>
                <path d="M49.8007965,50.9177303 L32.7248238,50.7359491 C31.1733677,50.7164057 29.8200185,51.8252308 29.4785031,53.3957222 C29.1369878,54.9662137 29.9003212,56.570633 31.3095348,57.2442924 L46.9935848,57.4112492 C49.0616957,57.4325189 50.75523,55.7108857 50.7771182,53.5649401 C50.7921459,52.5850394 50.4424476,51.6368636 49.8007965,50.9177303 L49.8007965,50.9177303 Z" id="Path" fill="#2C97D2"></path>
                <path d="M74.1427863,69.8293488 L33.9880717,69.4279852 C32.8376035,69.4155967 31.7678363,70.0024533 31.1821139,70.9672874 C30.5963915,71.9321214 30.5837972,73.12819 31.1490795,74.1045289 C31.7143618,75.0808678 32.7715462,75.6889842 33.9220332,75.6995947 L74.3354949,76.1035422 C75.5022323,75.448507 76.2050133,74.221683 76.1647314,72.9102981 C76.1244495,71.5989133 75.3476247,70.4152322 74.1427698,69.8293488 L74.1427863,69.8293488 Z" id="Path" fill="#2C97D2"></path>
            </g>
            <g id="sitting-down-chap" transform="translate(528.267951, 533.370572)" fill-rule="nonzero">
                <ellipse id="Oval" fill="#A0616A" cx="18.7075306" cy="14.6866485" rx="10.6900175" ry="10.6811989"></ellipse>
                <polygon id="Path" fill="#A0616A" points="59.8751047 92.1253406 60.1313485 97.7674298 39.129642 101.47139 38.7513135 93.144851"></polygon>
                <path d="M63.5314792,90.7901907 L64.1401051,102.778798 L63.9069268,102.788878 C62.1057183,102.898225 60.3112318,102.497893 58.7633071,101.641387 C57.3636306,100.818652 56.5576168,99.6790791 56.4942765,98.4328048 L56.4942765,98.432512 L56.1225919,91.1103048 L63.5314792,90.7901907 Z" id="Path" fill="#2F2E41"></path>
                <polygon id="Path" fill="#A0616A" points="60.1322347 101.47139 65.5646825 101.470938 68.1488616 80.1089918 60.1313485 80.1094436"></polygon>
                <path d="M56.1225919,98.8015101 L67.5482498,98.8010899 L67.548723,98.8010899 C69.4798663,98.8010899 71.3319322,99.4821594 72.6974678,100.694597 C74.0630034,101.907035 74.8301226,103.55147 74.8301226,105.26613 L74.8301226,105.476222 L56.1229516,105.476839 L56.1225919,98.8015101 Z" id="Path" fill="#2F2E41"></path>
                <path d="M7.65082014,95.426286 C8.9149072,94.7009711 9.77483985,93.4826406 9.99922733,92.099123 C10.2236148,90.7156053 9.78940742,89.3090193 8.81344173,88.2578492 L13.3625219,45.3950954 L2.52818353,46.1123538 L1.46339313,88.0195013 C-0.33191538,89.7267987 -0.495165602,92.4359601 1.08339626,94.3256051 C2.66195813,96.21525 5.48338511,96.6881053 7.65082014,95.4262684 L7.65082014,95.426286 Z" id="Path" fill="#A0616A"></path>
                <path d="M12.3494745,53.3899234 L1.84225464,52.0536831 C1.23731102,51.9767411 0.694419956,51.6288253 0.355048679,51.100596 C0.0156774031,50.5723666 -0.0865595481,49.9161447 0.0749788603,49.3029291 L2.87291605,38.6845282 C3.27901853,35.3633453 6.18392628,33.0114058 9.36758086,33.4261655 C12.5512354,33.8409253 14.8128982,36.8659546 14.4241069,40.1893929 L14.6980786,51.1626004 C14.7137639,51.7983546 14.4634959,52.409748 14.01249,52.8374626 C13.561484,53.2651772 12.954412,53.466848 12.3494658,53.3899234 L12.3494745,53.3899234 Z" id="Path" fill="#2C97D2"></path>
                <path d="M10.8642569,102.80654 C8.23394149,102.628971 5.90095195,101.076162 4.74868509,98.7360889 C3.59641824,96.396016 3.80102082,93.6264061 5.28501916,91.4759842 L12.2505472,84.3400265 L37.6412879,61.8985376 L51.2156107,50.782902 C52.8256787,49.4644466 55.0097207,49.0558171 56.9971003,49.7011979 C58.9844799,50.3465787 60.4958083,51.9552413 60.9978153,53.9595711 L68.0896037,82.2701804 C68.3361895,83.2459131 67.7931379,84.2472267 66.8336496,84.5859896 L59.1022485,87.3324574 C58.578829,87.5184782 58.0003541,87.4794294 57.5074794,87.2248058 C57.0146047,86.9701822 56.6524819,86.5233095 56.5091606,85.9928444 L53.5681843,75.1095589 L37.2042581,90.5470199 L42.3097841,92.401541 C43.2805542,92.7583992 43.8131653,93.7889672 43.5358743,94.7739462 L41.8860016,100.542198 C41.6523209,101.368132 40.9000534,101.947057 40.0313736,101.969472 L10.8642569,102.80654 Z" id="Path" fill="#2F2E41"></path>
                <path d="M11.3019438,85.4495913 L10.6390638,61.5682753 L6.45771561,51.0937785 C4.72959708,46.768174 5.02575368,41.9106756 7.26697202,37.8205249 C9.50819035,33.7303741 13.4658098,30.8248692 18.0812807,29.8811493 C18.4254902,29.8106235 18.7687046,29.7419161 19.1109239,29.6750271 L19.1109239,29.6750271 C23.5339588,28.8089664 28.122074,29.8268001 31.7432569,32.477401 C35.3644398,35.1280019 37.6814652,39.1645309 38.1226601,43.5910668 L40.0875657,61.5695349 L40.0795858,61.6039595 C36.946486,75.3503994 27.8799644,82.9156627 11.5464512,85.4122306 L11.3019438,85.4495913 Z" id="Path" fill="#2C97D2"></path>
                <path d="M22.4035525,68.3774956 C22.6324812,68.3408918 22.863835,68.3230769 23.0954627,68.3242165 L34.7151974,50.4734067 L32.5146051,45.7646741 L38.9288029,41.3896458 L43.6051986,49.3326721 C44.3812181,50.6507706 44.2256244,52.3421931 43.2233053,53.4841421 L27.3200814,71.6027893 C27.8314941,73.4228001 27.2042552,75.381297 25.7447481,76.5216255 C24.2852411,77.6619541 22.2980201,77.7461629 20.7537701,76.733119 C19.20952,75.720075 18.4304786,73.8211695 18.797179,71.9639485 C19.1638795,70.1067275 20.5998026,68.6787359 22.4035525,68.3774956 L22.4035525,68.3774956 Z" id="Path" fill="#A0616A"></path>
                <path d="M32.3338924,50.6623061 C31.7322773,50.5074139 31.2336782,50.1183329 30.9682839,49.5966557 L26.3858059,40.5933957 C24.566677,38.0667003 25.3062122,34.6583172 28.0393605,32.972464 C30.7725088,31.2866108 34.4687874,31.9589071 36.3040089,34.4756764 L43.5441204,41.8887624 C43.9622032,42.3168872 44.1576056,42.8917143 44.0794086,43.4634524 C44.0012116,44.0351905 43.6571607,44.5472084 43.1369104,44.8660823 L34.1007206,50.4044747 C33.5805435,50.7236395 32.9354329,50.8177798 32.3338924,50.6623061 L32.3338924,50.6623061 Z" id="Path" fill="#2C97D2"></path>
                <path d="M29.3975482,15.8386667 L28.9681189,14.7014596 C27.7833997,11.5640386 24.9504175,9.15242842 21.918658,8.70037327 C18.8311813,8.28065926 15.7873219,9.74703847 14.1007151,12.4666671 C13.3994538,13.7307142 12.8457966,15.0771561 12.4514748,16.4774634 C12.316342,16.8943904 12.1801353,17.1961266 11.9184896,17.287364 C11.6238785,17.3975122 11.3307608,17.208914 10.8449605,16.8959594 C10.6237974,16.7536762 10.3434621,16.7568214 10.1253075,16.9040336 C9.90715294,17.0512458 9.79038142,17.3160709 9.82554158,17.5838702 L10.3349658,21.3623978 L9.90866571,20.9681865 C7.13498237,18.4030235 6.56512674,13.5758849 8.5688181,10.5133444 L4.00875657,11.4868046 L4.21420745,11.0795008 C6.10806096,7.28139169 9.37228549,4.41698291 13.2931019,3.11262696 L8.925207,2.1131781 L9.3666915,1.83046603 C13.2782405,-0.673200897 18.4385139,-0.602683048 22.5123389,2.00607203 C26.666578,4.77131758 29.2352038,9.49285882 29.3730056,14.6170649 L29.3975482,15.8386667 Z" id="Path" fill="#2F2E41"></path>
            </g>
            <g id="professor-and-screens" transform="translate(850.714536, 523.893733)" fill-rule="nonzero">
                <path d="M277.821182,142.861035 L65.5956303,142.861035 C62.5792026,142.857665 60.1347543,140.438902 60.1313485,137.454168 L60.1313485,7.96667507 C60.1338079,5.78002129 61.9246041,4.00797059 64.1344776,4.00544959 L279.213046,4.00544959 C281.461149,4.00798584 283.282945,5.81067531 283.285464,8.03515718 L283.285464,137.454176 C283.282052,140.438906 280.837606,142.857663 277.821182,142.861035 Z" id="Path" fill="#F2F2F2"></path>
                <path d="M270.005981,136.185286 L72.0745513,136.185286 C69.1730763,136.185286 66.8126095,133.995051 66.8126095,131.302958 L66.8126095,18.3075882 C66.8126095,16.3110446 68.5617634,14.6866485 70.7118249,14.6866485 L271.304099,14.6866485 C273.489805,14.6866485 275.267951,16.3378225 275.267951,18.3672361 L275.267951,131.302942 C275.267951,133.995051 272.907412,136.185286 270.005981,136.185286 Z" id="Path" fill="#FFFFFF"></path>
                <path d="M283.285464,8.01089918 L60.1313485,8.01089918 L60.1313485,5.31375322 C60.1357152,2.37951614 62.5890572,0.00241276131 65.6155247,0 L277.801316,0 C280.827778,0.00241492578 283.281111,2.37952141 283.285464,5.31375322 L283.285464,8.01089918 Z" id="Path" fill="#E6E6E6"></path>
                <ellipse id="Oval" fill="#FFFFFF" cx="70.821366" cy="4.00544959" rx="1.33625219" ry="1.33514986"></ellipse>
                <ellipse id="Oval" fill="#FFFFFF" cx="76.1663748" cy="4.00544959" rx="1.33625219" ry="1.33514986"></ellipse>
                <ellipse id="Oval" fill="#FFFFFF" cx="81.5113835" cy="4.00544959" rx="1.33625219" ry="1.33514986"></ellipse>
                <path d="M154.946941,104.141689 L260.62749,104.141689 C263.54725,104.141689 265.914186,101.812214 265.914186,98.9386624 L265.914186,51.9332722 C265.914186,49.0597198 263.547251,46.7302452 260.62749,46.7302452 L154.946941,46.7302452 C152.02718,46.7302452 149.660245,49.0597198 149.660245,51.9332722 L149.660245,98.9386624 C149.660245,101.812214 152.027181,104.141689 154.946941,104.141689 L154.946941,104.141689 Z" id="Path" fill="#F2F2F2"></path>
                <path d="M249.908744,77.4386921 L165.665687,77.4386921 C164.206043,77.4386921 163.022767,76.2431582 163.022767,74.7683924 C163.022767,73.2936266 164.206043,72.0980926 165.665687,72.0980926 L249.908744,72.0980926 C251.368388,72.0980926 252.551664,73.2936266 252.551664,74.7683924 C252.551664,76.2431582 251.368388,77.4386921 249.908744,77.4386921 L249.908744,77.4386921 Z" id="Path" fill="#FFFFFF"></path>
                <path d="M249.908744,89.4550409 L165.665687,89.4550409 C164.206043,89.4550409 163.022767,88.259507 163.022767,86.7847411 C163.022767,85.3099753 164.206043,84.1144414 165.665687,84.1144414 L249.908744,84.1144414 C251.368388,84.1144414 252.551664,85.3099753 252.551664,86.7847411 C252.551664,88.259507 251.368388,89.4550409 249.908744,89.4550409 L249.908744,89.4550409 Z" id="Path" fill="#FFFFFF"></path>
                <path d="M235.204036,66.7574932 L165.671621,66.7574932 C164.208699,66.7574932 163.022767,65.5619593 163.022767,64.0871935 C163.022767,62.6124276 164.208699,61.4168937 165.671621,61.4168937 L235.204036,61.4168937 C236.666957,61.4168937 237.85289,62.6124276 237.85289,64.0871935 C237.85289,65.5619593 236.666957,66.7574932 235.204036,66.7574932 L235.204036,66.7574932 Z" id="Path" fill="#FFFFFF"></path>
                <g id="man" transform="translate(104.227671, 50.735695)">
                    <path d="M0.0936727628,74.2024092 C0.343393523,73.1143604 1.11067243,72.1827056 2.1890466,71.6581386 C3.26742078,71.1335715 4.54611459,71.0699783 5.68105133,71.4844707 L15.3232457,61.4168937 L17.3712785,68.097928 L7.90089785,76.6339945 C6.98819616,78.3581771 4.80052754,79.1895655 2.80869929,78.5692029 C0.816871042,77.9488403 -0.349529344,76.0728142 0.0936892035,74.2024092 L0.0936727628,74.2024092 Z" id="Path" fill="#FFB8B8"></path>
                    <ellipse id="Oval" fill="#FFB8B8" cx="50.7775832" cy="14.6866485" rx="9.35376532" ry="9.34604905"></ellipse>
                    <polygon id="Path" fill="#FFB8B8" points="40.0866795 149.536785 34.6542316 149.536389 32.0700525 130.844687 40.0875657 130.845082"></polygon>
                    <path d="M41.4235096,153.542234 L25.3887916,153.541621 L25.3887916,153.331529 C25.3887916,151.616868 26.0463223,149.972432 27.2167814,148.759993 C28.3872405,147.547555 29.9747256,146.866485 31.6299912,146.866485 L31.6303969,146.866485 L41.4238179,146.866905 L41.4235096,153.542234 Z" id="Path" fill="#2F2E41"></path>
                    <polygon id="Path" fill="#FFB8B8" points="54.7855739 154.877384 50.0911254 154.876989 49.441331 136.63156 54.7863398 136.185286"></polygon>
                    <path d="M54.7860315,158.882834 L38.7513135,158.88222 L38.7513135,158.672128 C38.7513135,156.957468 39.4088442,155.313031 40.5793033,154.100593 C41.7497624,152.888154 43.3372475,152.207084 44.9925131,152.207084 L44.9929188,152.207084 L54.7863398,152.207505 L54.7860315,158.882834 Z" id="Path" fill="#2F2E41"></path>
                    <path d="M52.6350951,152.194604 L48.8410847,151.745751 C47.9512352,151.638429 47.2768825,150.887412 47.2618297,149.986958 L46.5508415,100.33405 C46.546612,100.044075 46.3362431,99.798802 46.0514506,99.7518024 C45.7666582,99.7048028 45.4892696,99.8695801 45.3929631,100.142964 L40.1290408,115.077871 L40.5054943,143.071903 C40.5187614,144.0318 39.7785942,144.832537 38.8249478,144.889974 L33.8716959,145.101338 C32.9319499,145.154975 32.1099146,144.471649 31.9862335,143.534026 L29.3991974,111.86642 L29.3975482,111.846529 L33.3228346,78.773842 L62.8038529,80.9171507 L54.6201044,150.62066 C54.5127982,151.524394 53.7509046,152.205362 52.8451534,152.207084 C52.7749482,152.207084 52.7048018,152.202997 52.6350951,152.194604 Z" id="Path" fill="#2F2E41"></path>
                    <path d="M33.008943,81.840504 C32.4692869,81.553499 32.1149051,81.0109506 32.0700525,80.4030895 C32.0700525,80.4030895 34.7298978,63.9222713 35.7046096,63.613062 L33.5719806,45.9885129 C33.0559403,41.6459531 34.3179854,37.2794109 37.0729811,33.8754222 C39.7268576,30.5720617 43.6208331,28.4934054 47.8511739,28.1218786 C48.1492437,28.0951047 48.4456907,28.0746714 48.7405149,28.0605786 C53.8622819,27.7872824 58.7950056,30.0244276 61.9518228,34.052322 C65.2263579,38.1148345 66.3012449,43.5155907 64.8304039,48.515716 L63.6343288,52.6630815 L63.6343288,81.6468987 C63.6317524,82.2205838 63.3563263,82.7590735 62.8919772,83.0982815 C59.1674761,85.8218074 54.9585737,86.7847411 50.8682636,86.7847411 C43.1286955,86.7847411 35.8136366,83.3365051 33.008943,81.840504 Z" id="Path" fill="#2C97D2"></path>
                    <path d="M11.2029643,75.7454203 L6.06410433,71.9218883 C5.65636533,71.6186085 5.39750037,71.1570952 5.35214288,70.6525792 C5.3067854,70.1480631 5.47921631,69.6481614 5.82638304,69.2776896 L36.4398801,36.5933501 C38.4706642,34.4440355 41.7753787,34.0944485 44.2149388,35.7708706 L44.2150225,35.7709182 C45.6712987,36.7811271 46.5997321,38.3842062 46.7479677,40.1444268 C46.8962034,41.9046475 46.2488385,43.639109 44.9818315,44.8763721 L13.5316023,75.5900836 C12.9637212,76.1500683 12.0903927,76.2648903 11.3958226,75.870888 C11.3289661,75.8331142 11.2645538,75.7912095 11.2029643,75.7454203 Z" id="Path" fill="#2C97D2"></path>
                    <path d="M51.0855184,71.4543423 C51.5247526,70.2837766 52.4097648,69.3887192 53.5024159,69.0100123 C54.595067,68.6313053 55.7831168,68.8078505 56.746885,69.4921431 L67.5526562,60.0817439 L68.1488616,67.9635628 L57.7961098,75.6914674 C56.6247007,77.4462424 54.4528993,77.9537208 52.7408465,76.872716 C51.0287938,75.7917112 50.3176451,73.4639132 51.0855184,71.4543423 L51.0855184,71.4543423 Z" id="Path" fill="#FFB8B8"></path>
                    <path d="M59.9661369,74.6847774 C59.3727426,74.5001779 58.9214804,74.0145985 58.7802951,73.4087557 L57.6673349,68.7288312 C57.5005044,68.0496517 57.7554162,67.3364139 58.3147494,66.9173792 L65.8029249,58.8093864 L54.7882533,41.8052288 C53.0739131,39.6915749 52.9994684,36.6861317 54.6070554,34.4899994 C55.8756204,32.7579893 57.9737561,31.8391269 60.1052197,32.0821204 C62.2366833,32.3251139 64.0747692,33.692718 64.9219236,35.6659267 L75.1619919,55.6214059 C77.2694856,59.7257931 75.9664664,64.7600458 72.1332203,67.3231533 L61.6684737,74.3219537 C61.3480302,74.6090393 60.9332317,74.7679597 60.5032227,74.7683924 C60.32098,74.7683924 60.1398511,74.7399409 59.9661369,74.6847774 Z" id="Path" fill="#2C97D2"></path>
                    <path d="M58.9089729,22.4590227 C58.4497132,22.726816 57.8883511,22.7717299 57.3901901,22.5805386 C56.8920291,22.3893473 56.5137983,21.9838231 56.3668748,21.4833803 L56.3608496,21.4600704 C56.1650042,20.6827402 56.3196008,19.8691558 56.3701791,19.0703835 C56.4207573,18.2716111 56.335488,17.3948452 55.7725227,16.8106617 C54.7230916,15.7216729 52.8699994,16.3114823 51.3597147,16.0426053 C49.5292354,15.6556051 48.2796971,14.0075403 48.4419698,12.1942778 C48.4625432,12.0281953 48.4953238,11.8618656 48.5321916,11.6955967 C48.7188008,10.8416844 48.4827083,9.9521563 47.8943543,9.29241057 C47.3060004,8.63266484 46.4334046,8.2789748 45.5369134,8.33686686 C44.0126208,8.42950136 42.3692644,8.88689963 41.1016645,7.7961877 C40.1512882,6.91629301 39.8347602,5.56942191 40.297874,4.37594627 C41.0070931,2.35205013 43.0371446,1.28388346 45.0486272,0.692027664 C50.0869347,-0.750786281 55.5260932,0.0873434333 59.8576898,2.97398275 C61.1350264,3.83885792 62.32947,4.92769837 62.8796567,6.34278508 C63.4298434,7.75787179 63.1780327,9.54809911 61.9601498,10.4904734 C63.9004589,12.46518 64.6113607,15.294504 63.8258407,17.9157521 C63.2321776,19.8100901 60.3591461,21.6382453 58.9089729,22.4590227 Z" id="Path" fill="#2F2E41"></path>
                    <path d="M67.7340129,160.217984 L9.74822646,160.217984 C9.53037159,160.217984 9.35376532,159.9191 9.35376532,159.550409 C9.35376532,159.181717 9.53037159,158.882834 9.74822646,158.882834 L67.7340129,158.882834 C67.9518541,158.882834 67.9106368,159.550409 68.1284741,159.550409 C68.2263122,159.550409 67.9518541,160.217984 67.7340129,160.217984 Z" id="Path" fill="#CCCCCC"></path>
                </g>
                <path d="M109.287952,47.2300324 C108.594529,45.3300853 106.773678,44.062944 104.732616,44.0599455 L4.8400574,44.0599455 C2.16800252,44.0589228 0,46.2019723 0,48.8465821 L0,124.719192 C0.0037837553,127.363274 2.16853636,129.505792 4.8400574,129.509537 L104.732616,129.509537 C107.404137,129.505792 109.568889,127.363274 109.57268,124.719192 L109.57268,48.8502983 C109.57268,48.2979396 109.477249,47.7496475 109.287952,47.2300324 Z" id="Path" fill="#FFFFFF"></path>
                <path d="M109.287952,47.2300328 C108.594529,45.3300857 106.773678,44.0629443 104.732616,44.0599459 L4.8400574,44.0599459 C2.16800252,44.0589231 0,46.2019726 0,48.8465824 L0,124.719192 C0.0037837553,127.363273 2.16853636,129.505791 4.8400574,129.509536 L104.732616,129.509536 C107.404137,129.505791 109.568889,127.363273 109.57268,124.719192 L109.57268,48.8502986 C109.57268,48.2979399 109.477249,47.7496478 109.287952,47.2300328 Z M109.003259,124.719192 C109.000383,127.052398 107.090035,128.94313 104.732616,128.945971 L4.8400574,128.945971 C2.48264925,128.943112 0.57231817,127.052386 0.569449566,124.719192 L0.569449566,48.8502986 C0.572316013,46.5170977 2.48266311,44.626372 4.84007739,44.623535 L104.732616,44.623535 C107.090031,44.6263764 109.00038,46.5170969 109.003259,48.8502986 L109.003259,124.719192 Z" id="Shape" fill="#3F3D56"></path>
                <path d="M101.555166,53.4149509 L101.555166,106.802974 C101.555166,107.545053 100.952649,108.147139 100.20882,108.147139 L9.36480665,108.147139 C9.30013358,108.147139 9.23553536,108.142603 9.17171766,108.132132 C8.5092685,108.036977 8.01751313,107.470705 8.01751313,106.802998 L8.01751313,53.4149509 C8.01751313,53.0585895 8.1591784,52.7167768 8.41167412,52.4647079 C8.66416983,52.212639 9.00669409,52.0708447 9.36389517,52.0708447 L100.207869,52.0708447 C100.56507,52.0708447 100.907691,52.2121645 101.160358,52.4640621 C101.413025,52.7159597 101.555166,53.0576762 101.555166,53.4140375 L101.555166,53.4149509 L101.555166,53.4149509 Z" id="Path" fill="#E6E6E6"></path>
                <ellipse id="Oval" fill="#2C97D2" cx="30.0656743" cy="71.4305177" rx="11.3581436" ry="11.3487738"></ellipse>
                <path d="M68.1488616,108.147139 L10.9039283,108.147139 C10.8322546,108.147976 10.7606476,108.142273 10.6900175,108.130002 L37.7642335,61.0477821 C38.1006351,60.4508086 38.730968,60.0817439 39.414149,60.0817439 C40.0973301,60.0817439 40.7276629,60.4508086 41.0640646,61.0477821 L59.2342502,92.6436155 L60.104741,94.1554861 L68.1488616,108.147139 Z" id="Path" fill="#3F3D56"></path>
                <polygon id="Path" fill="#000000" opacity="0.2" points="68.1488616 108.147139 48.1050788 108.147139 57.9444302 93.6875141 58.652734 92.6462016 59.0068859 92.1253406 59.8993487 93.6875141"></polygon>
                <path d="M98.882662,108.147139 L49.441331,108.147139 L59.0220898,94.4872685 L59.7115565,93.5032414 L72.1961465,75.7018431 C73.0146273,74.5351349 74.9836498,74.4624981 75.9459631,75.4817894 C76.0105987,75.5513121 76.0706483,75.6248127 76.1257459,75.7018431 L98.882662,108.147139 Z" id="Path" fill="#3F3D56"></path>
            </g>
            <g id="standing-guy" transform="translate(289.078809, 648.861035) scale(-1, 1) translate(-289.078809, -648.861035) translate(253.000000, 546.722071)" fill-rule="nonzero">
                <path d="M66.6058585,39.0828283 C59.2480358,34.8450009 56.447129,33.7952194 56.447129,33.7903817 L56.2971668,33.6839523 C55.4934837,33.0675054 54.8552316,32.2613443 54.4395705,31.3376666 C54.4395705,31.168347 54.4395705,30.9990274 54.4395705,30.8538963 L54.4395705,30.9022733 C54.5605078,28.6575794 56.1520421,26.6209066 57.6661765,24.8406321 C58.9561739,23.3215935 60.2461713,21.8041675 61.5361687,20.288354 C61.980797,19.8277887 62.3207198,19.2766276 62.5326917,18.6725614 C62.6115194,18.3563025 62.6473172,18.0308533 62.6391165,17.7050209 C62.6391165,17.5695652 62.6391165,17.4389472 62.6391165,17.3083293 C62.6391165,16.1763069 62.5859041,15.0442845 62.5472042,13.9219375 C62.5085043,12.9302085 62.2569548,11.6869189 61.2652693,11.5030862 C60.7524953,11.3966568 60.0752467,11.5804895 59.8140222,11.1402586 C59.7190193,10.9604805 59.6948546,10.7516195 59.7462973,10.5548966 C59.7462973,10.5548966 59.7462973,10.5839228 59.7462973,10.5984359 C59.744416,10.5807475 59.744416,10.5629095 59.7462973,10.5452211 C59.9370412,9.78189881 60.0600679,9.00323479 60.1139466,8.21828624 C60.1313503,7.82004341 60.0772842,7.42190278 59.9543094,7.04272453 C59.3786481,5.40274337 57.4097895,4.73030272 55.668293,4.42068976 C53.9267965,4.1110768 51.9724505,3.84500316 50.8791777,2.48560876 C50.5793841,2.03229226 50.2564576,1.59470759 49.9116796,1.17459138 C49.4051364,0.728196705 48.7891263,0.424351833 48.1266457,0.29412952 C45.9661288,-0.241132803 43.6889144,-0.0419954557 41.6540838,0.860140714 C40.8123604,1.23748151 39.9657997,1.74060257 39.041839,1.68738784 C38.1178784,1.63417312 37.2616426,0.961732467 36.3134945,0.802088284 C34.7848476,0.540852348 33.319088,1.66803703 32.5644396,2.99840523 C32.116918,3.78801641 31.8787847,4.67897394 31.8726784,5.58657607 C31.8726784,5.6349531 31.8726784,5.68816782 31.8726784,5.73654485 L31.8726784,5.73654485 C31.853598,6.71226983 32.2103883,7.65797869 32.8692014,8.37793042 C33.5271001,9.06488418 34.5091106,9.53414132 34.8041975,10.433954 C34.9154598,10.8016194 34.8912724,11.198311 34.9880222,11.5659764 C34.9880222,11.6143534 35.0170471,11.6578927 35.0315596,11.7062697 L34.9783472,11.7691599 C33.4069955,13.7915798 32.5557527,16.2807229 32.5596021,18.841881 C32.5908041,23.9441928 35.914944,28.4417558 40.7833355,29.9685967 C40.7833355,30.0798639 40.7833355,30.1959688 40.7833355,30.3169113 C40.8497744,31.7866332 40.2658657,33.2110792 39.1869637,34.2112618 L28.7476597,38.4007122 C28.7476597,38.4007122 22.4589224,37.655706 20.194977,46.8425031 C19.8320905,48.3670509 19.7016183,49.9376791 19.8079777,51.5012106 C19.8902151,52.8896312 19.6967155,55.3278333 18.0858312,58.4820154 C15.5074489,63.5325768 16.0927852,75.1188743 21.3656496,76.2654098 C26.3434271,77.3490552 28.2929357,76.8991488 28.4961102,76.8459341 L28.4961102,77.0491176 C28.4138729,79.2260837 27.625362,97.9770187 24.7567303,100.27009 C23.9585444,100.894153 24.1085066,101.319871 24.7567303,101.605296 C24.7567303,101.605296 24.7567303,101.726238 24.7567303,101.943935 C24.6696554,103.317842 24.2246063,108.537723 22.3041227,111.51291 C20.0982271,114.942841 20.3497766,134.777422 20.3497766,134.777422 L18.8308047,146.479824 C18.8308047,146.479824 19.7644403,153.707352 18.8308047,154.969992 C17.9939189,156.097177 16.8958086,182.839996 16.6442591,188.635564 L16.5475093,188.635564 C15.6149085,188.691846 14.7707102,189.206359 14.2932388,190.009471 C13.0451663,192.01228 8.73980002,195.703447 8.73980002,195.703447 C7.8061644,197.033815 4.34252137,198.306131 2.51395005,198.906006 C2.26926176,198.984619 2.03273889,199.086685 1.80767647,199.210781 C1.12301086,199.583656 0.572988156,200.162474 0.235492136,200.865276 C-0.00475839851,201.283294 -0.0641567619,201.781214 0.0710174672,202.244021 C0.554766493,203.390556 10.2636094,204.179102 12.7210545,203.04708 C14.6560506,202.147267 22.3186352,200.957192 25.5017038,200.492773 C26.6898822,200.343072 27.6256299,199.407283 27.7753242,198.219052 C27.8369778,197.816405 27.732198,197.406 27.4850748,197.082192 L27.4850748,197.082192 C26.875551,196.327511 26.5611141,194.26665 26.4208269,192.921768 C26.6791674,192.815954 26.9204297,192.672495 27.1367755,192.49605 C26.8756269,188.326299 27.4733022,184.147328 28.8927844,180.217961 C31.2341297,174.025702 31.9404033,162.550672 31.355067,155.090935 C31.355067,155.090935 38.5000401,124.33766 44.1260413,121.468902 L44.1260413,121.468902 C44.2131161,121.575332 46.9414606,125.077828 47.2897599,135.923957 C47.6380592,146.939406 51.6193137,154.166933 51.6193137,154.166933 C51.6193137,154.166933 49.8633047,172.869491 51.6193137,179.869647 L49.3118308,190.894771 C49.215601,190.815776 49.1235633,190.731808 49.0360939,190.64321 C49.0360939,190.64321 49.1038188,190.952823 49.2005686,191.441431 L49.1521937,191.673641 L49.2489435,191.697829 C49.5101679,193.076575 49.8971672,195.480913 49.7326925,196.893522 C49.6407802,197.701418 49.4182556,198.799577 49.2489435,199.883222 C49.007069,201.581256 48.9393441,203.230912 49.8342798,203.588902 C51.2855269,204.179102 59.910772,204.986998 61.3765315,203.105132 C62.0466147,202.31831 62.2116648,201.219179 61.8022307,200.270238 C61.6959055,200.010657 61.5525148,199.76786 61.3765315,199.549421 C61.3765315,199.549421 59.0883987,195.809877 59.7366224,193.173329 C59.8566144,192.653705 59.7568485,192.107594 59.4608854,191.663966 C59.7963943,187.490168 60.4677541,183.350204 61.4684439,179.284285 C62.9196909,173.764466 66.0253597,161.660535 63.7517393,153.697676 L63.7517393,153.697676 C63.6646644,153.388063 63.5679146,153.07845 63.4614899,152.778513 C62.1480602,148.432968 61.7090625,143.870152 62.16988,139.353888 C61.3236971,135.498981 61.3236971,131.506393 62.16988,127.651486 C63.5630771,121.231855 64.5450877,114.942841 64.5450877,114.942841 C64.5450877,114.942841 65.3190861,106.452673 64.6418375,101.247306 L64.5983001,100.913504 L64.9659493,100.831263 C64.9659493,100.831263 62.9777408,91.9976184 62.2714672,86.376208 C62.1069926,85.0458399 61.8893055,83.3671571 61.6522685,81.5723695 C62.3007886,81.4609242 62.9396534,81.2991792 63.5630771,81.0885992 C69.8905144,78.9067954 71.8787229,59.1689691 71.8787229,59.1689691 L71.8787229,52.9089821 C71.8787229,52.9089821 73.9878687,43.3448442 66.6058585,39.0828283 Z M19.4741909,191.470457 L19.1645915,191.305976 L19.1645915,191.305976 L19.4741909,191.470457 Z" id="Shape" fill="url(#linearGradient-1)"></path>
                <path d="M62.7359265,152.09851 C65.456366,159.972364 62.2561312,172.751086 60.8167452,178.457337 C59.8474355,182.583492 59.2056866,186.780655 58.8975639,191.00916 C55.5866269,191.571472 52.199454,191.492823 48.9178211,190.777434 L51.3167978,179.026997 C49.6183223,172.065563 51.3167978,153.464727 51.3167978,153.464727 C51.3167978,153.464727 47.4784352,146.271567 47.1233866,135.317688 C46.7875299,124.537603 44.1486556,121.052059 44.0622924,120.941023 L44.0622924,120.941023 C38.5782319,123.808632 31.6787751,154.381976 31.6787751,154.381976 C32.2449336,161.797206 31.5636242,173.20971 29.2797984,179.374586 C27.9032777,183.28797 27.3240074,187.440178 27.576525,191.583647 C26.7848628,192.254687 25.6813335,192.37055 24.4914411,192.177445 C21.2528226,191.651234 17.3712785,188.841557 17.3712785,188.841557 C17.3712785,188.841557 18.6187463,155.53095 19.5255595,154.266113 C20.4323726,153.001275 19.5255595,145.822598 19.5255595,145.822598 L20.9985311,134.183196 C20.9985311,134.183196 20.7730273,114.443041 22.9177124,111.010601 C24.7793183,108.051267 25.2063361,102.856743 25.2926993,101.495353 C25.2926993,101.27811 25.2926993,101.15742 25.2926993,101.15742 L28.5744993,97.2035956 C28.5744993,97.2035956 60.3321519,94.7897835 62.7119368,97.2035956 C63.2972871,97.7925657 63.6715274,99.1346452 63.8730415,100.814658 C64.5255631,105.989871 63.7770824,114.433386 63.7770824,114.433386 C63.7770824,114.433386 62.8174917,120.709297 61.4644689,127.096244 C60.6455189,130.932293 60.6455189,134.899598 61.4644689,138.735646 C61.0212993,143.230747 61.453171,147.769666 62.7359265,152.09851 L62.7359265,152.09851 Z" id="Path" fill="#2F2E41"></path>
                <path d="M60.7947897,201.812789 C59.2931994,203.619836 50.4516319,202.855316 48.9449514,202.276135 C48.0236366,201.928626 48.0948985,200.357885 48.3443152,198.736176 C48.5021095,197.702916 48.7311656,196.651122 48.8227881,195.886602 C49.0671147,193.91275 48.1050788,189.914079 48.1050788,189.914079 C48.1050788,189.914079 50.0902321,191.832329 50.568705,189.914079 C50.7942086,189.168528 51.4544806,188.597814 52.2840811,188.431374 C53.3154215,188.147565 54.4243998,188.210041 55.4094251,188.607445 C56.972097,189.223695 59.5782471,190.539596 59.1099545,192.314209 C58.4482367,194.830174 60.7947897,198.397934 60.7947897,198.397934 C60.9767981,198.607469 61.1242669,198.840044 61.2325415,199.088318 C61.6629956,199.998921 61.4937052,201.052547 60.7947897,201.812789 L60.7947897,201.812789 Z" id="Path" fill="#A27772"></path>
                <path d="M60.8598145,203.201974 C59.5004287,204.92261 51.4961804,204.194649 50.1321864,203.643163 C49.2981225,203.312271 49.3626358,201.816641 49.5884321,200.27248 C50.4455364,200.656314 51.8924759,200.978382 54.3439785,200.762199 C54.9135997,200.709305 55.4861897,200.691621 56.0581872,200.709257 C57.7911624,200.787074 59.527622,200.754649 61.2561101,200.612195 C61.6438911,201.478031 61.4907155,202.479028 60.8598145,203.201974 L60.8598145,203.201974 Z" id="Path" fill="#000000" opacity="0.1"></path>
                <path d="M31.4280213,154.422712 C32.0090005,161.829968 31.309856,173.230198 28.9662449,179.388445 C27.55369,183.29762 26.9592558,187.445363 27.2183838,191.584376 C26.4059976,192.254694 25.2735805,192.370433 24.0525394,192.177536 C24.7566074,187.355103 27.7452039,166.652401 29.6653894,150.289887 C31.8465232,131.651186 42.0579714,118.828338 42.0579714,118.828338 L44.0963222,121.022545 C38.50809,123.882247 31.4280213,154.422712 31.4280213,154.422712 Z" id="Path" fill="#000000" opacity="0.1"></path>
                <path d="M57.4588441,35.0691309 L56.0960633,41.9224974 L49.4330556,53.4059946 L41.2139313,49.8053189 C41.2139313,49.8053189 30.0381858,37.8095109 37.0595719,36.0985858 C37.9012797,35.9142976 38.6962533,35.5521633 39.3937466,35.035299 C40.7706739,33.9671792 41.2045003,32.4205802 41.2139313,30.90298 C41.1584122,29.2027755 40.7703576,27.5313079 40.0727792,25.9876953 L54.4503523,21.3623978 C53.8556063,23.2978582 53.5084748,25.3042533 53.4176568,27.3313031 C53.3092002,31.3427941 54.7615756,33.324374 55.9545982,34.2668327 C56.3986738,34.6345957 56.9101628,34.9074013 57.4588441,35.0691309 Z" id="Path" fill="#B5979B"></path>
                <path d="M54.7863398,20.027248 C54.1783069,22.0717152 53.8234204,24.1911121 53.7305734,26.332327 C50.6840461,30.1611324 45.750492,31.6530332 41.2542116,30.1051638 C41.1974521,28.3092024 40.8007282,26.5435963 40.0875657,24.9130461 L54.7863398,20.027248 Z" id="Path" fill="#000000" opacity="0.1"></path>
                <path d="M56.1225919,19.3596907 C56.1225919,25.6274357 51.0373504,30.7084469 44.7644306,30.7084469 C38.4915109,30.7084469 33.4063047,25.6274357 33.4063047,19.3596907 C33.4063047,13.0919458 38.4915109,8.01089918 44.7644306,8.01089918 C47.7790952,8.00341034 50.6724563,9.19666307 52.8041527,11.3266009 C54.9358491,13.4565388 56.130087,16.3475131 56.1225919,19.3596907 Z" id="Path" fill="#B5979B"></path>
                <path d="M57.4588441,35.4974541 L56.0960633,42.1907357 L49.4330556,53.4059946 L41.2139313,49.8894256 C41.2139313,49.8894256 30.0381858,38.1738227 37.0595719,36.5028624 C37.9012797,36.3228789 38.6962533,35.9692035 39.3937466,35.4644125 C38.1252759,38.9526601 43.3594858,46.2076487 43.3594858,46.2076487 C43.9677859,47.1044918 45.3682907,46.5427848 45.3682907,46.5427848 C48.7351609,46.0330003 54.9454803,36.328214 55.9545982,34.7138965 C56.3986738,35.073069 56.9101628,35.3395023 57.4588441,35.4974541 Z" id="Path" fill="#000000" opacity="0.1"></path>
                <path d="M64.1401051,100.525502 C62.1167894,100.980336 50.9307439,103.295443 46.6914157,102.713255 C42.0233373,102.06739 32.9425036,101.639846 32.9425036,101.639846 C32.9425036,101.639846 27.1616016,101.93094 25.3887916,101.185011 C25.3887916,100.980336 25.3887916,100.866627 25.3887916,100.866627 L28.6839058,97.1415334 C28.6839058,97.1415334 60.5703981,94.8673612 62.9598376,97.1415334 C63.586102,97.678238 63.9233213,98.9381294 64.1401051,100.525502 Z" id="Path" fill="#000000" opacity="0.1"></path>
                <path d="M43.4515415,45.4320254 C43.4515415,45.4320254 37.3545039,37.0620968 39.6525052,33.8003933 L29.3506142,37.9877808 C29.3506142,37.9877808 23.1508999,37.2414178 20.9164603,46.4110211 C20.558346,47.9364008 20.4282038,49.5056484 20.5302005,51.0685205 C20.6133197,52.4497768 20.4226345,54.8827266 18.833591,58.0329603 C16.2911215,63.0733342 16.8778452,74.6468083 22.0703503,75.7905854 C27.2628555,76.9343626 29.120814,76.362474 29.120814,76.362474 C29.120814,76.362474 28.4265243,97.328491 25.4244544,99.7323616 C22.4223846,102.136232 33.0860887,101.564344 33.0860887,101.564344 C33.0860887,101.564344 42.2976515,102.048995 47.0354457,102.712967 C51.77324,103.37694 65.0625328,100.289711 65.0625328,100.289711 C65.0625328,100.289711 63.106787,91.4690563 62.4027185,85.8567938 C61.69865,80.2445312 60.0949384,68.2930292 60.0949384,68.2930292 L71.8831963,52.4643164 C71.8831963,52.4643164 73.9611763,42.8972989 66.6809124,38.6614462 C59.4006486,34.4255935 56.6577151,33.3787466 56.6577151,33.3787466 C56.6577151,33.3787466 49.3236683,45.1896998 45.5295214,45.7615883 C45.5295214,45.7712814 44.0822695,46.352863 43.4515415,45.4320254 Z" id="Path" fill="#2C97D2"></path>
                <path d="M29.876155,49.400545 C29.876155,49.400545 29.7720608,53.1006696 30.4147291,54.5570007 C31.0573974,56.0133318 33.4063047,64.0871935 33.4063047,64.0871935 L28.061296,64.0871935 C28.061296,64.0871935 30.9487774,60.837725 30.7360633,59.267544 C30.5233491,57.6973629 29.876155,49.400545 29.876155,49.400545 Z" id="Path" fill="#000000" opacity="0.1"></path>
                <path d="M46.5578356,77.4386921 C46.5578356,77.4386921 33.7423409,74.353299 32.5491742,71.7273296 C31.3560074,69.1013603 28.061296,63.2110643 28.061296,63.2110643 L29.4115876,61.4168937 L35.6474796,66.2529331 C35.6474796,66.2529331 43.0765384,72.0561803 46.5578356,72.6558492 C50.0391328,73.2555181 46.5578356,77.4386921 46.5578356,77.4386921 Z" id="Path" fill="#FBBEBE"></path>
                <path d="M46.5578356,77.4386921 C46.5578356,77.4386921 33.7423409,74.353299 32.5491742,71.7273296 C31.3560074,69.1013603 28.061296,63.2110643 28.061296,63.2110643 L29.4115876,61.4168937 L35.6474796,66.2529331 C35.6474796,66.2529331 43.0765384,72.0561803 46.5578356,72.6558492 C50.0391328,73.2555181 46.5578356,77.4386921 46.5578356,77.4386921 Z" id="Path" fill="#B5979B" opacity="0.8182126"></path>
                <path d="M57.4588441,62.8223014 L57.4588441,69.4611024 L56.3606012,69.4611024 C50.9436147,69.4611415 45.615822,70.803559 40.8792299,73.3618667 L38.8272498,74.4683336 L38.2733115,74.7683924 L34.7425569,67.0325015 L38.0469193,64.1491239 L38.2155092,64.1491239 C39.0247408,64.2241386 42.5169606,64.5054438 43.995735,64.0225366 C45.4745094,63.5396295 47.1507749,62.0815313 51.2884531,63.1129834 C53.3307996,63.6193326 55.0696842,65.8463315 57.0686789,65.1524455 L57.4588441,62.8223014 Z" id="Path" fill="#B5979B"></path>
                <path d="M68.5721458,50.4188487 L70.821366,52.9644205 L70.821366,59.1273839 C70.821366,59.1273839 68.9192771,78.5828256 62.8421028,80.7312499 C56.7649285,82.8796742 45.937287,79.4871734 45.937287,79.4871734 C45.937287,79.4871734 43.136461,72.0227147 44.4441472,71.5681483 C45.7518334,71.113582 56.0183586,68.3909685 56.0183586,68.3909685 C56.0183586,68.3909685 55.8709467,56.9789595 58.1201669,53.5864588 C58.1201669,53.5864588 56.6603136,42.95439 61.7151151,42.7294993 C66.7699165,42.5046086 68.5721458,50.4188487 68.5721458,50.4188487 Z" id="Path" fill="#000000" opacity="0.1"></path>
                <path d="M68.5721458,50.4188487 L70.821366,52.9644205 L70.821366,59.1273839 C70.821366,59.1273839 68.9192771,78.5828256 62.8373476,80.7312499 C56.7554181,82.8796742 45.937287,79.4871734 45.937287,79.4871734 C45.937287,79.4871734 43.136461,72.0227147 44.4441472,71.5681483 C45.7518334,71.113582 56.0136034,68.3909685 56.0136034,68.3909685 C56.0136034,68.3909685 55.8709467,56.9789595 58.1201669,53.5864588 C58.1201669,53.5864588 56.6555584,42.95439 61.7151151,42.7294993 C66.7746717,42.5046086 68.5721458,50.4188487 68.5721458,50.4188487 Z" id="Path" fill="#2C97D2"></path>
                <path d="M52.8325389,24.5787385 C52.9363081,23.8298389 52.8446837,23.06747 52.5661714,22.3624042 C52.2655774,21.6456514 51.5071491,21.2178063 50.7213298,21.3216907 C49.7347835,21.5481423 49.2908377,22.8153073 48.3141569,23.1188487 C47.4903907,23.374209 46.5877009,22.8056711 46.1930824,22.0540447 C45.8627952,21.2705314 45.7242933,20.4225331 45.7885984,19.577532 C45.7885984,18.6139084 45.7885984,17.6743754 45.7885984,16.7203881 C45.7885984,15.6844927 45.7540693,14.5666894 45.098016,13.7524274 C44.2841153,12.7406227 42.3751483,12.3069921 41.1025036,12.3407189 C40.2531368,12.3493074 39.4380438,12.6691447 38.8186489,13.2368888 C38.1886202,13.8563675 37.3056858,14.1645008 36.4164087,14.0752413 C35.6263674,13.9567441 34.976072,13.4058752 34.7442127,12.6587147 C34.742005,12.6459568 34.742005,12.6329275 34.7442127,12.6201697 C37.4462733,9.13072812 41.9263875,7.42016877 46.3348682,8.1947236 C50.7433489,8.96927842 54.3323675,12.0975565 55.6201398,16.2879979 C56.9079122,20.4784394 55.6759883,25.0202024 52.4329876,28.0381471 C52.6299793,26.8928975 52.7633581,25.7380718 52.8325389,24.5787385 Z" id="Path" fill="#000000" opacity="0.1"></path>
                <path d="M36.6355645,12.9866447 C35.8768429,12.8647288 35.2518753,12.3064522 35.0255745,11.5484585 C34.9356045,11.1766825 34.9592808,10.7755557 34.8503698,10.4086715 C34.5899302,9.49879855 33.6523478,9.02429493 33.0225576,8.33455256 C31.7629772,6.95506782 31.8434767,4.68038553 32.7337065,3.01717697 C33.4582019,1.67682654 34.855105,0.546823084 36.3183018,0.806087947 C37.2227374,0.972408803 38.004056,1.63769223 38.9226974,1.6963937 C39.8413387,1.75509518 40.6131868,1.24634904 41.4181818,0.864789426 C43.3577848,-0.0428950392 45.5383371,-0.242975586 47.6024375,0.2973418 C48.2377435,0.427727619 48.826903,0.733735436 49.3071328,1.18275577 C49.6330626,1.60572732 49.9365646,2.04663489 50.2163036,2.50353903 C51.2580618,3.87813199 53.1284914,4.14718043 54.7905692,4.46025498 C56.4526471,4.77332953 58.3372825,5.43861296 58.8818379,7.1067133 C59.2464533,8.20247423 58.8818379,9.39117917 58.6876921,10.5309662 C58.6153317,10.7645629 58.6305418,11.017716 58.7303094,11.2402757 C58.990749,11.6854286 59.6394803,11.4995406 60.1508888,11.6022682 C61.0979418,11.8077234 61.334705,13.0698052 61.3678519,14.0481631 C61.4120477,15.1830584 61.4420377,16.324476 61.4578219,17.472416 C61.4857285,17.8972496 61.4538279,18.3240185 61.3631166,18.7393896 C61.1588457,19.3320778 60.8361755,19.8737489 60.4160637,20.3292213 L56.717822,24.9177202 C55.0794204,26.9527048 53.3415783,29.3203311 53.6683115,31.9472223 C52.8917281,32.3043229 51.9730868,31.6145806 51.7173825,30.7731927 C51.4616782,29.9318048 51.6652946,29.0317155 51.8404994,28.1707605 C52.1383086,26.6819388 52.3329483,25.17307 52.4229369,23.6556384 C52.522744,22.8936812 52.4347935,22.1180258 52.1672326,21.4005233 C51.8768911,20.6720469 51.1471652,20.2378309 50.3915084,20.3438967 C49.4444554,20.5738108 49.0230169,21.8603516 48.0854345,22.1685343 C47.2946453,22.432691 46.4280919,21.850568 46.0492707,21.0874488 C45.7343772,20.2913252 45.6015017,19.430891 45.660979,18.5730688 L45.660979,15.6722374 C45.660979,14.6205025 45.6278321,13.4856073 44.9980419,12.6588948 C44.2214585,11.6316189 42.3841758,11.1913578 41.1624775,11.2256004 C40.3471126,11.2343202 39.5646493,11.559048 38.97005,12.1354733 C38.3587439,12.7729223 37.4987618,13.0864784 36.6355645,12.9866447 L36.6355645,12.9866447 Z" id="Path" fill="#2F2E41"></path>
                <path d="M38.7513135,49.400545 L42.1702265,64.0871935 C42.1702265,64.0871935 44.8601406,64.0727001 38.7513135,49.400545 Z" id="Path" fill="#000000" opacity="0.1"></path>
                <path d="M50.7775832,46.7302452 C50.7775832,46.7302452 46.9588751,54.5780601 48.450927,62.6877983 L49.1595533,62.7520436 C49.1595533,62.7520436 47.8918996,58.9961624 50.7775832,46.7302452 Z" id="Path" fill="#000000" opacity="0.1"></path>
                <path d="M54.7863398,89.8281407 C54.7863398,89.8281407 61.0124169,88.0875699 61.4676007,92.1253406 C61.4676007,92.1253406 60.2904012,89.3554476 54.7863398,89.8281407 Z" id="Path" fill="#000000" opacity="0.1"></path>
                <path d="M37.8420366,65.4223433 C37.8420366,65.4223433 36.7066432,73.0358014 38.7513135,76.0811846 C35.5431255,77.1618647 32.137975,77.60487 28.7444564,77.3830629 L28.061296,65.4223433 L37.8420366,65.4223433 Z" id="Path" fill="#000000" opacity="0.1"></path>
                <path d="M38.7513135,74.4665837 L38.2076731,74.7683924 L34.7425569,66.9873865 L37.9854897,64.0871935 L38.1509455,64.0871935 L38.1509455,64.0871935 C38.0989451,64.4644543 37.1960294,71.1655509 38.7513135,74.4665837 Z" id="Path" fill="#000000" opacity="0.1"></path>
                <path d="M37.7956656,64.0871935 C37.7956656,64.0871935 36.6023699,71.7006515 38.7513135,74.7460347 C35.3795156,75.8267148 31.8007106,76.2697202 28.2341308,76.047913 L24.0525394,64.0871935 L37.7956656,64.0871935 Z" id="Path" fill="#2C97D2"></path>
                <path d="M28.0461759,197.655497 C27.9127895,198.812062 27.0119729,199.730746 25.8584736,199.886592 C22.8033165,200.363322 15.4299498,201.507473 13.5711178,202.394191 C11.188,203.52404 1.85571033,202.732669 1.40291793,201.607587 C1.27466021,201.151119 1.33295233,200.662385 1.56496995,200.248907 C2.00538821,199.34275 2.79500894,198.654474 3.75267217,198.341988 C5.5161794,197.750843 8.84301196,196.506578 9.73906429,195.200339 C9.73906429,195.200339 13.8856894,191.567658 15.0677159,189.608299 C15.5185081,188.823141 16.3329538,188.316461 17.2363531,188.259154 C18.2229639,188.211481 19.3191982,188.712047 19.7719906,190.871633 C19.7719906,190.871633 25.1769019,193.956074 26.6401363,191.253017 C26.6401363,191.253017 26.8641494,195.405333 27.7602017,196.544717 L27.7602017,196.544717 C27.9996784,196.862079 28.1026176,197.261915 28.0461759,197.655497 L28.0461759,197.655497 Z" id="Path" fill="#A27772"></path>
                <path d="M28.0444107,197.438324 C27.9110332,198.642394 27.0102761,199.598813 25.8568531,199.761061 C22.8018979,200.257372 15.4290184,201.448519 13.5703093,202.371658 C11.1873489,203.547915 1.855676,202.724038 1.40291353,201.552744 C1.27466428,201.077527 1.33295254,200.568719 1.56495483,200.138257 C1.88614371,199.424686 2.41466971,198.834358 3.07575172,198.450799 C4.60084638,199.502979 7.98465014,200.535306 15.4290184,199.324307 C22.5302404,198.167902 26.042724,197.036312 27.7584555,196.26703 L27.7584555,196.26703 C28.0016847,196.601262 28.1048179,197.023703 28.0444107,197.438324 L28.0444107,197.438324 Z" id="Path" fill="#000000" opacity="0.1"></path>
                <path d="M14.6987741,190.926431 C14.6987741,190.926431 15.8538197,193.699784 20.0437828,191.252331" id="Path" fill="#000000" opacity="0.1"></path>
                <path d="M50.7775832,190.926431 C50.7775832,190.926431 54.3271466,195.685388 58.7950963,192.497043" id="Path" fill="#000000" opacity="0.1"></path>
                <path d="M61.4676007,138.855586 C61.4676007,138.855586 58.8839565,140.381532 58.7987814,141.25414 C58.7136064,142.126749 60.1331911,140.618702 60.1331911,140.618702 L61.4676007,138.855586 Z" id="Path" fill="#000000" opacity="0.1"></path>
                <path d="M62.8038529,152.207084 C61.7697521,152.826549 60.4819691,153.186771 59.1363438,153.23297 C56.9096419,153.303451 57.0952004,155.386547 58.5523803,154.760052 C60.0095603,154.133557 62.8038529,152.207084 62.8038529,152.207084 Z" id="Path" fill="#000000" opacity="0.1"></path>
                <path d="M62.8038529,153.542234 C62.8038529,153.542234 61.3297557,159.962401 60.1313485,158.724297" id="Path" fill="#000000" opacity="0.1"></path>
            </g>
            <g id="girl-with-folders" transform="translate(694.306480, 286.000000)" fill-rule="nonzero">
                <path d="M172.132327,18.6920981 L99.1268759,18.6920981 C96.0416852,18.6960547 93.5416372,21.1789438 93.5376532,24.2429595 L93.5376532,60.5718333 L104.773064,60.5718333 C106.443773,60.5673216 107.998118,61.4208602 108.88261,62.8285107 L112.776806,68.9849206 L116.50031,74.866791 L117.199357,75.9729263 L121.459361,82.7025887 L121.508188,82.7792916 L177.721541,82.7792916 L177.721541,24.2429352 C177.717544,21.1789321 175.217505,18.6960591 172.132327,18.6920981 L172.132327,18.6920981 Z" id="Path" fill="#CCCCCC"></path>
                <path d="M143.314432,29.373297 L106.564727,29.373297 C104.536015,29.373297 102.891419,31.1665979 102.891419,33.3787466 C102.891419,35.5908953 104.536015,37.3841962 106.564727,37.3841962 L143.314432,37.3841962 C145.343144,37.3841962 146.987741,35.5908953 146.987741,33.3787466 C146.987741,31.1665979 145.343144,29.373297 143.314432,29.373297 Z" id="Path" fill="#FFFFFF"></path>
                <path d="M164.399625,48.0653951 L108.195821,48.0653951 C106.004272,48.0653951 104.227671,49.858696 104.227671,52.0708447 C104.227671,54.2829934 106.004272,56.0762943 108.195821,56.0762943 L164.399625,56.0762943 C166.591174,56.0762943 168.367776,54.2829934 168.367776,52.0708447 C168.367776,49.858696 166.591174,48.0653951 164.399625,48.0653951 L164.399625,48.0653951 Z" id="Path" fill="#FFFFFF"></path>
                <path d="M167.993634,63.7239996 C167.344767,62.3174223 165.953092,61.4183014 164.422656,61.4168937 L108.488629,61.4168937 C108.403221,61.4168937 108.321819,61.4210209 108.236427,61.4251481 C108.966219,61.8297779 109.581104,62.418206 110.021914,63.1338098 L113.918179,69.4277929 L164.422656,69.4277929 C165.772537,69.4281791 167.028846,68.7279571 167.752726,67.5717299 C168.476606,66.4155027 168.567491,64.9639001 167.993634,63.7239996 Z" id="Path" fill="#FFFFFF"></path>
                <path d="M168.331194,78.2352383 C168.064805,76.2508338 166.394085,74.7704919 164.418499,74.7683924 L117.590193,74.7683924 L118.290348,75.8992445 L122.557108,82.7792916 L164.418499,82.7792916 C165.241116,82.7810469 166.043307,82.5196276 166.710811,82.0322599 C167.750822,81.281064 168.367776,80.066302 168.367776,78.7717739 C168.367776,78.5922792 168.355821,78.4129886 168.331194,78.2352383 L168.331194,78.2352383 Z" id="Path" fill="#FFFFFF"></path>
                <path d="M212.889014,50.0560665 L207.155275,47.7967294 L178.568567,36.545478 L144.36671,23.0844545 C141.468188,21.9500348 138.205974,23.3946018 137.07255,26.3144393 L135.876688,29.4081204 L133.030415,36.7561292 L128.893891,47.4497745 L125.789448,55.471041 L123.463118,61.4849257 L120.358675,69.5020619 L118.028345,75.5200522 L117.962951,75.6935503 L117.590193,76.6518067 L121.882306,83.537209 L121.931502,83.6156869 L201.429731,83.6156869 C202.907921,83.6143227 204.307066,84.2887169 205.234476,85.4495913 L205.57024,84.5904649 L209.673959,73.9918192 L216.087617,57.4164625 C217.214946,54.4932506 215.784341,51.2012461 212.889014,50.0560665 L212.889014,50.0560665 Z" id="Path" fill="#2C97D2"></path>
                <path d="M182.077605,51.4245504 L179.000237,50.1804676 L147.971519,37.6416468 C146.088012,36.8867994 143.9693,37.8477752 143.227818,39.7932284 C142.497794,41.7449704 143.428292,43.9406999 145.309587,44.7056512 L155.557945,48.8469131 L168.233598,53.9681033 L179.000237,58.3223931 L179.415669,58.4885548 C181.298261,59.2454698 183.417157,58.2807746 184.151326,56.3324959 C184.885496,54.3842172 183.957637,52.1882329 182.077596,51.4245504 L182.077605,51.4245504 Z" id="Path" fill="#FFFFFF"></path>
                <path d="M193.908558,73.8708216 L178.59947,67.9495 L167.67197,63.7246006 L161.835161,61.4667433 L146.632149,55.5858127 L141.692119,53.675318 C139.781977,52.9362348 137.618529,53.7654032 136.707298,55.5858127 C136.658539,55.6867902 136.609579,55.7918068 136.568779,55.9008625 C136.187084,56.8692651 136.209281,57.9482732 136.630488,58.900455 C137.051694,59.8526369 137.837397,60.599972 138.814704,60.9780121 L140.078072,61.4667433 L160.34351,69.3066378 L178.599446,76.3669859 L191.030927,81.1775548 C191.488134,81.3545456 191.974789,81.4449697 192.465642,81.4441417 C194.370112,81.4474736 196.006684,80.1056372 196.360006,78.25112 C196.713329,76.3966028 195.683109,74.5558213 193.908509,73.8708216 L193.908558,73.8708216 Z" id="Path" fill="#FFFFFF"></path>
                <path d="M177.961073,83.6751821 L176.98567,83.2856724 L167.446859,79.4734491 L158.733463,75.9927235 L143.621859,69.9553469 L136.312872,67.0340236 C135.004605,66.5099643 133.522603,66.7410305 132.425982,67.6400476 C131.329361,68.5390648 130.785031,69.9691998 130.99835,71.3909047 C131.21167,72.8126095 132.150172,74.0094963 133.459786,74.5300148 L137.118315,75.9927483 L155.370328,83.2856972 L157.248209,84.0357107 L157.442467,84.1144414 L179.057793,84.1144414 L177.961073,83.6751821 Z" id="Path" fill="#FFFFFF"></path>
                <path d="M141.452071,84.0401052 L139.645652,83.331955 L132.097022,80.3702438 C131.028762,79.9497385 129.828177,80.0404025 128.834441,80.6166225 C127.840706,81.1928424 127.161728,82.1920477 126.989323,83.331955 C126.9519,83.566014 126.937574,83.8032157 126.946555,84.0401052 C126.945785,84.0649528 126.94712,84.0898212 126.950545,84.1144414 L141.642732,84.1144414 L141.452071,84.0401052 Z" id="Path" fill="#FFFFFF"></path>
                <path d="M157.497532,83.1982776 L155.593853,82.4619009 L125.825049,82.4619009 C125.785611,82.7052893 125.770514,82.9519458 125.779978,83.1982776 L121.710184,83.1982776 L121.759465,83.2755768 L157.694455,83.2755768 L157.497532,83.1982776 Z M157.497532,83.1982776 L121.710176,83.1982776 L121.759457,83.2755768 L157.694447,83.2755768 L157.497532,83.1982776 Z M157.497532,83.1982776 L121.710176,83.1982776 L121.759457,83.2755768 L157.694447,83.2755768 L157.497532,83.1982776 Z M157.694459,83.2755768 L157.497532,83.1982776 L121.710176,83.1982776 L121.759457,83.2755768 L157.694459,83.2755768 Z M104.86892,60.0817479 C106.834403,60.084724 108.661388,61.085797 109.709957,62.7343315 L109.709957,62.7343315 L113.919376,69.3739273 L117.677261,75.3015322 L117.784033,75.4724245 L122.214805,82.4619009 L201.395819,82.4619009 C202.965889,82.460755 204.466745,83.1026112 205.543538,84.2357144 C206.555741,85.2865385 207.119085,86.6841019 207.119085,88.1372947 L207.119085,88.1372947 L207.119085,159.88724 C207.116355,162.109166 205.806458,164.125192 203.767257,165.045945 C203.023448,165.384833 202.214373,165.559724 201.395815,165.558567 L201.395815,165.558567 L85.8941872,165.558567 C85.0769832,165.559747 84.2692771,165.38484 83.5269621,165.045945 C81.4877039,164.125258 80.1777806,162.10919 80.1751355,159.88724 L80.1751355,159.88724 L80.1751355,65.7571377 C80.1787859,62.6258043 82.7364938,60.0876268 85.8941954,60.0817479 L85.8941954,60.0817479 Z M206.298559,159.887236 C206.293874,162.569732 204.10091,164.742526 201.395819,164.744881 L85.8941913,164.744881 C83.1905101,164.740786 80.9997763,162.568337 80.99566,159.887236 L80.99566,65.7571336 C80.9979947,63.0746401 83.1891091,60.8999942 85.8941913,60.8954019 L104.868916,60.8954019 C106.555142,60.890873 108.123924,61.7510483 109.016631,63.1696441 L112.946996,69.3739232 L116.705083,75.3015281 L117.410622,76.4162642 L121.710192,83.1982532 L121.759473,83.2755524 L201.395815,83.2755524 C204.10253,83.2778516 206.296191,85.4531556 206.298559,88.1372662 L206.298559,159.887236 Z M157.497537,83.1982776 L121.71018,83.1982776 L121.759461,83.2755768 L157.694451,83.2755768 L157.497537,83.1982776 Z M157.497537,83.1982776 L121.71018,83.1982776 L121.759461,83.2755768 L157.694451,83.2755768 L157.497537,83.1982776 Z M157.497537,83.1982776 L121.71018,83.1982776 L121.759461,83.2755768 L157.694451,83.2755768 L157.497537,83.1982776 Z M157.497537,83.1982776 L155.593857,82.4619009 L122.214801,82.4619009 L117.784029,75.4724245 L117.410622,76.4162886 L121.710192,83.1982776 L121.759473,83.2755768 L157.694463,83.2755768 L157.497537,83.1982776 Z" id="Shape" fill="#E6E6E6"></path>
                <polygon id="Path" fill="#FFB8B8" points="62.8038529 117.671109 60.5627541 122.833787 41.4238179 115.766573 44.7310818 108.147139"></polygon>
                <path d="M60.0466809,121.514309 L70.9981804,121.517828 L71.0002942,128.099884 L53.9730669,128.094413 L53.9730669,127.591091 C53.971989,124.233907 56.6912352,121.513242 60.0466809,121.514309 Z" id="Path" fill="#2F2E41" transform="translate(62.486681, 124.807097) rotate(-64.438400) translate(-62.486681, -124.807097) "></path>
                <polygon id="Path" fill="#FFB8B8" points="68.7432288 160.217984 63.0439882 160.034263 62.8038529 138.855586 69.4851138 139.232048"></polygon>
                <path d="M58.9455909,159.26702 L69.9044377,159.266715 L69.9042546,165.844359 L52.8657658,165.844833 L52.8657658,165.341848 C52.8657658,161.986914 55.587894,159.267125 58.9455909,159.26702 Z" id="Path" fill="#2F2E41" transform="translate(61.385102, 162.555774) rotate(1.933090) translate(-61.385102, -162.555774) "></path>
                <path d="M76.9181838,73.4985801 C76.9181838,73.4985801 60.4298913,69.2738398 52.9552108,75.4997748 L48.7781808,87.7292979 L32.0700525,111.743622 L56.2528815,126.419042 L60.6497595,115.301293 L50.0972605,109.964774 L62.8481985,98.8470257 L60.6497595,157.548704 L69.0038237,158.882834 C69.0038237,158.882834 87.4706869,86.3951599 76.9181838,73.4985801 Z" id="Path" fill="#2F2E41"></path>
                <path d="M52.1138354,76.1035422 L52.3220136,75.7423062 C54.5166619,71.9341558 54.1610422,65.7328298 53.4763389,61.2013451 C52.9028445,57.4057755 52.9200794,50.7168806 53.035512,45.7737917 C53.0942646,42.3371339 55.5865825,39.3996569 59.0349199,38.7028146 C64.2312936,37.647335 70.6106824,37.4237356 73.9508976,37.3841962 L73.9536783,37.6065216 L73.9508976,37.3841962 C75.8386954,37.3768671 77.3858426,38.8445127 77.4321223,40.6865623 C77.5337651,46.0095571 77.5021811,55.7164062 76.1487935,60.9243391 C74.1401708,68.6539608 77.2811008,73.9066325 77.3131308,73.9587169 L77.502627,74.2678481 L52.1138354,76.1035422 Z" id="Path" fill="#2C97D2"></path>
                <path d="M44.3890076,97.0512086 C45.4299583,96.5292698 46.1966354,95.5513953 46.4827422,94.3807105 C46.7688491,93.2100257 46.5449961,91.9667859 45.8714175,90.9855208 L54.7863398,50.7356948 L48.0464795,50.7356948 L40.1785921,90.1922036 C38.645493,91.5152779 38.2998422,93.8298004 39.3740231,95.5797018 C40.448204,97.3296032 42.602691,97.9617771 44.3890076,97.0512086 Z" id="Path" fill="#FFB8B8"></path>
                <path d="M101.555166,58.6982297 L85.8263211,44.0599455 L81.5752781,49.9152567 L92.2028775,59.1164659 L78.2653623,70.005685 C78.1646903,69.9989962 78.0644337,69.990624 77.9618944,69.990624 C75.5733153,69.9883317 73.6062125,71.836451 73.4984875,74.1840542 C73.3907624,76.5316574 75.1805979,78.5466473 77.5596701,78.7561181 C79.9387424,78.9655889 82.0638002,77.2952947 82.3814809,74.9661776 L82.4254892,75.0094749 L101.555166,58.6982297 Z" id="Path" fill="#FFB8B8"></path>
                <path d="M57.4588441,40.202364 C57.4588441,40.202364 47.655135,38.5431709 46.7661108,46.3405195 C45.8770866,54.1378682 45.4325744,54.1378682 45.4325744,54.1378682 C45.4325744,54.1378682 52.5447643,52.7618689 54.3228169,54.596536 C56.1008695,56.431203 57.4588441,40.202364 57.4588441,40.202364 Z" id="Path" fill="#2C97D2"></path>
                <path d="M73.4938704,38.9535679 C73.4938704,38.9535679 81.089409,37.6783573 84.4652017,41.0789253 C87.8409945,44.4794933 89.5288967,45.3296402 89.5288967,45.3296402 C89.5288967,45.3296402 81.9333581,49.5803551 84.8871763,53.4059946 C84.8871763,53.4059946 76.8696632,49.5803551 75.6037433,50.8555695 C74.3378235,52.130784 73.4938704,38.9535679 73.4938704,38.9535679 Z" id="Path" fill="#2C97D2"></path>
                <path d="M65.2598853,12.8082614 C62.7702976,10.8635554 62.1161451,7.11028062 63.5605919,4.33264626 C65.0050387,1.5550119 68.2707679,-0.118429449 71.4543019,0.00654266954 C74.6378358,0.131514788 77.6376391,1.91919871 79.481975,4.46028393 C82.07277,8.02982161 82.616442,12.9909886 86.0614272,15.7855232 C89.1729866,18.3095735 93.6304339,18.2372867 97.6676477,18.0364868 C99.0285427,17.9687984 100.433459,17.8903368 101.65462,17.2989284 C102.875782,16.7075199 103.873488,15.4602226 103.716082,14.1363491 C104.73031,15.706725 104.141896,17.9085244 102.781167,19.2042412 C101.420438,20.4999581 99.4829087,21.0428004 97.5967301,21.258948 C90.8265873,21.9549417 84.1835936,19.1041487 80.1228859,13.7601733 C78.7181923,11.8648097 77.634108,9.65771485 75.7065808,8.27001855 C73.7790536,6.88232225 70.565157,6.78572858 69.3818416,8.82055652 C68.79659,9.82697161 68.8540312,11.0893512 68.315838,12.1205762 C67.7776449,13.1518011 66.0299365,13.7078444 65.5116989,12.6668841" id="Path" fill="#2F2E41"></path>
                <ellipse id="Oval" fill="#2F2E41" cx="65.4763573" cy="21.3623978" rx="12.0262697" ry="12.0163488"></ellipse>
                <ellipse id="Oval" fill="#FFB8B8" cx="66.1444834" cy="24.7002725" rx="10.0218914" ry="10.013624"></ellipse>
                <path d="M56.1225919,17.7808524 C57.5379016,18.0893823 57.0747714,20.4556039 58.1931544,21.3734311 C59.2020056,22.2013682 60.6548519,21.349919 61.9245941,21.0416807 C63.5276549,20.6525278 65.2055261,21.2226058 66.6855592,21.9493702 C68.1655924,22.6761346 69.5927104,23.5780603 71.207287,23.9166437 C72.8218636,24.2552271 74.7360084,23.8736129 75.6411113,22.4987379 C76.506532,21.1841389 76.1879559,19.4113637 75.5108926,17.9912352 C73.7935509,14.3891225 70.1715929,12.0726207 66.1704603,12.0173591 C62.1693277,11.9620975 58.4843521,14.1776797 56.6675158,17.7309802" id="Path" fill="#2F2E41"></path>
                <path d="M292.639229,166.226158 C292.639229,166.594382 292.455956,166.892608 292.230515,166.893733 L0.408714008,166.893733 C0.182987494,166.893733 0,166.594849 0,166.226158 C0,165.857467 0.182987494,165.558583 0.408714008,165.558583 L292.230515,165.558583 C292.455956,165.559708 292.639229,165.857934 292.639229,166.226158 Z" id="Path" fill="#CCCCCC"></path>
            </g>
            <path d="M412,667 C427.333333,737 468.666667,772 536,772 C603.333333,772 701.666667,722.666667 831,624" id="Path-2" stroke="#E3E6F3" stroke-width="2" stroke-dasharray="5"></path>
            <path d="M404,471 C402.666667,403 423,358.666667 465,338 C507,317.333333 580.333333,332.333333 685,383" id="Path-3" stroke="#E3E6F3" stroke-width="2" stroke-dasharray="5"></path>
            <path d="M934,380 C1000,346 1047,342.333333 1075,369 C1103,395.666667 1084.33333,440.666667 1019,504" id="Path-4" stroke="#E3E6F3" stroke-width="2" stroke-dasharray="5,5"></path>
        </g>
    </g>
</svg>