<svg width="68" height="88" xmlns="http://www.w3.org/2000/svg" xmlns:xlink="http://www.w3.org/1999/xlink">
    <defs>
        <linearGradient x1="44.568%" y1="12.944%" x2="67.961%" y2="93.752%" id="b">
            <stop stop-color="#2FAFE4" offset="0%"/>
            <stop stop-color="#212C55" offset="100%"/>
        </linearGradient>
        <path d="M29.333 0C13.133 0 0 13.114 0 29.292c0 16.177 13.133 29.292 29.333 29.292V0z" id="a"/>
    </defs>
    <g fill="none" fill-rule="evenodd">
        <g fill="#212C55" fill-rule="nonzero">
            <path d="M35.003 85c.837 0 1.545-.543 1.545-1.286 0-.828-.622-1.192-1.587-1.585-.601-.25-.966-.529-.966-1.007 0-.3.229-.786.987-.786.378 0 .767.225.896.304l.026.016a.68.68 0 00.015.009c.114.064.186.035.25-.065.029-.042.057-.092.086-.135.086-.136 0-.222-.043-.243 0 0-.522-.364-1.223-.364-1.137 0-1.523.785-1.523 1.271 0 .814.472 1.136 1.258 1.478.823.343 1.252.636 1.252 1.129 0 .421-.379.785-.958.785-.637 0-1.159-.5-1.209-.542-.1-.086-.179-.029-.25.064-.036.043-.072.093-.108.136-.085.135-.014.192.043.242.093.086.665.579 1.51.579zm5.545-.071a.136.136 0 00.136-.136v-.207a.136.136 0 00-.136-.136h-2.403V82.63h2.053a.136.136 0 00.135-.136v-.207a.14.14 0 00-.135-.136h-2.053v-1.742h2.403a.136.136 0 00.136-.136v-.207a.136.136 0 00-.136-.136H37.73a.136.136 0 00-.136.136v4.728c0 .071.057.136.136.136h2.818zm3.463.071c.637 0 1.252-.221 1.738-.693.05-.05.065-.15.007-.193l-.214-.192c-.043-.029-.1-.036-.172.021-.379.286-.744.536-1.366.536-1.13 0-1.995-.95-1.995-2.05 0-1.107.865-2.057 1.995-2.057.486 0 .994.214 1.366.536.072.071.129.078.186.007l.193-.193c.057-.057.05-.143-.007-.2-.486-.414-1.008-.664-1.73-.664a2.574 2.574 0 00-2.583 2.578A2.562 2.562 0 0044.011 85zm4.672 0c1.13 0 1.903-.828 1.903-1.914v-3.021a.14.14 0 00-.136-.136h-.272a.136.136 0 00-.136.136v2.992c0 .815-.515 1.436-1.359 1.436-.837 0-1.344-.636-1.344-1.45v-2.978a.136.136 0 00-.136-.136h-.272a.14.14 0 00-.136.136v3.02c0 1.087.765 1.915 1.888 1.915zm3.72-.071a.14.14 0 00.137-.136v-1.821h1.366l.951 1.892c.014.029.05.065.115.065h.364c.122 0 .172-.115.122-.208l-.98-1.814c.622-.25 1.059-.8 1.059-1.457 0-.85-.701-1.52-1.56-1.52h-1.852a.136.136 0 00-.136.135v4.728c0 .071.057.136.136.136h.279zm1.539-2.429h-1.388v-2.05h1.388c.55 0 1.03.465 1.03 1.007 0 .586-.48 1.043-1.03 1.043zm5.737 2.429a.136.136 0 00.136-.136v-.207a.136.136 0 00-.136-.136h-2.403V82.63h2.053a.136.136 0 00.136-.136v-.207a.14.14 0 00-.136-.136h-2.053v-1.742h2.403a.136.136 0 00.136-.136v-.207a.136.136 0 00-.136-.136h-2.818a.136.136 0 00-.136.136v4.728c0 .071.058.136.136.136h2.818zM7.718 84.862c.67 0 1.317-.233 1.83-.73.052-.052.06-.15.007-.203l-.587-.624c-.046-.052-.143-.052-.196-.007-.271.233-.655.36-1.009.36-.85 0-1.483-.69-1.483-1.525 0-.842.625-1.55 1.475-1.55.37 0 .738.136 1.017.384a.132.132 0 00.188 0l.587-.609a.14.14 0 00-.007-.21c-.512-.466-1.07-.7-1.822-.7A2.71 2.71 0 005 82.164a2.697 2.697 0 002.718 2.699zm5.715-.075a.143.143 0 00.143-.143v-.82a.143.143 0 00-.143-.143h-1.792v-4.014a.148.148 0 00-.143-.143h-.895a.143.143 0 00-.144.143v4.977c0 .075.06.143.144.143h2.83zm3.14.075a2.69 2.69 0 002.711-2.7 2.704 2.704 0 00-2.71-2.713 2.697 2.697 0 00-2.703 2.714 2.684 2.684 0 002.703 2.699zm0-1.203c-.82 0-1.497-.677-1.497-1.496 0-.827.677-1.511 1.498-1.511.828 0 1.506.684 1.506 1.51 0 .82-.678 1.497-1.506 1.497zm5.694 1.203c1.19 0 2.153-.948 2.153-2.09v-3.105a.148.148 0 00-.143-.143h-.926a.143.143 0 00-.143.143v3.045a.928.928 0 01-.941.947c-.535 0-.926-.421-.926-.947v-3.045a.143.143 0 00-.143-.143h-.926a.148.148 0 00-.143.143v3.105c0 1.142.956 2.09 2.138 2.09zm5.346-.075a2.644 2.644 0 002.643-2.64c0-1.443-1.19-2.623-2.643-2.623h-1.837c-.075 0-.135.068-.135.143v4.977c0 .075.06.143.135.143h1.837zm-.075-1.113h-.723v-3.045h.723c.85 0 1.468.67 1.468 1.519 0 .857-.617 1.526-1.468 1.526z"/>
        </g>
        <g transform="translate(8.028 3)">
            <mask id="c" fill="#fff">
                <use xlink:href="#a"/>
            </mask>
            <path d="M29.333 0C13.133 0 0 13.114 0 29.292c0 16.177 13.133 29.292 29.333 29.292V0z" fill="url(#b)" mask="url(#c)"/>
        </g>
        <path d="M32.667 76.347C48.867 76.347 62 63.233 62 47.055c0-16.177-13.133-29.292-29.333-29.292v58.584z" fill="#212C55"/>
    </g>
</svg>