<svg xmlns="http://www.w3.org/2000/svg" x="0" y="0" enable-background="new 0 0 24 24" version="1.1" viewBox="0 0 24 24" xml:space="preserve"><path d="M6.749,20.001c-1.516,0-2.75-1.234-2.75-2.75s1.234-2.75,2.75-2.75s2.75,1.234,2.75,2.75S8.265,20.001,6.749,20.001z M6.749,15.501c-0.965,0-1.75,0.785-1.75,1.75s0.785,1.75,1.75,1.75s1.75-0.785,1.75-1.75S7.714,15.501,6.749,15.501z"/><path d="M5.999 24c-.551 0-1-.448-1-1v-.799c-.603-.214-1.17-.541-1.657-.956l-.694.4c-.152.088-.325.134-.499.134-.087 0-.175-.012-.26-.034-.258-.069-.474-.235-.607-.466l-.75-1.3c-.275-.477-.111-1.09.366-1.366l.694-.401c-.116-.631-.116-1.287 0-1.919l-.693-.4c-.231-.134-.397-.349-.466-.607s-.034-.528.1-.759l.75-1.3c.178-.308.511-.5.868-.5.174 0 .347.046.498.134l.689.398c.488-.417 1.057-.745 1.662-.959v-.8c0-.551.449-1 1-1h1.5c.551 0 1 .449 1 1v.801c.605.214 1.174.542 1.662.958l.693-.4c.152-.087.324-.134.499-.134.357 0 .689.191.867.5l.75 1.3c.275.478.111 1.091-.366 1.366l-.693.4c.117.631.117 1.288 0 1.919 0 0 .693.4.694.401.474.275.638.886.366 1.362l-.751 1.301c-.178.308-.51.5-.867.5l0 0c-.175 0-.347-.046-.499-.134l-.693-.4c-.488.417-1.057.745-1.662.959V23c0 .552-.449 1-1 1H5.999zM3.41 20.129c.133 0 .258.051.352.145.519.513 1.165.886 1.869 1.078.217.06.368.258.368.482V23h1.5v-1.166c0-.225.151-.423.368-.482.706-.193 1.354-.566 1.874-1.082.094-.094.219-.145.352-.145.088 0 .174.023.25.067l1.011.583.75-1.3-1.011-.582c-.195-.112-.291-.343-.234-.56.186-.708.186-1.456 0-2.164-.057-.217.039-.448.234-.56l1.011-.584-.75-1.3-1.011.583c-.076.044-.162.067-.25.067-.132 0-.257-.051-.352-.144-.52-.515-1.168-.888-1.874-1.08-.217-.059-.369-.257-.369-.482V11.5h-1.5v1.167c0 .225-.151.423-.368.482-.706.193-1.354.567-1.874 1.082-.094.094-.219.145-.352.145-.088 0-.175-.023-.251-.067l-1.006-.582-.749 1.301 1.011.584c.195.113.291.343.234.56-.186.708-.186 1.456 0 2.164.057.217-.039.448-.234.56l-1.011.584.75 1.3 1.011-.583C3.236 20.152 3.322 20.129 3.41 20.129zM17.249 9.501c-1.516 0-2.75-1.234-2.75-2.75s1.234-2.75 2.75-2.75 2.75 1.234 2.75 2.75S18.765 9.501 17.249 9.501zM17.249 5.001c-.965 0-1.75.785-1.75 1.75s.785 1.75 1.75 1.75 1.75-.785 1.75-1.75S18.214 5.001 17.249 5.001z"/><path d="M16.499,13.5c-0.552,0-1-0.448-1-1v-0.799c-0.605-0.214-1.174-0.542-1.662-0.958l-0.693,0.4 c-0.152,0.088-0.324,0.134-0.499,0.134c-0.087,0-0.175-0.011-0.26-0.034c-0.258-0.069-0.474-0.235-0.608-0.466l-0.75-1.3 C10.752,9,10.916,8.387,11.393,8.111l0.694-0.401c-0.116-0.631-0.116-1.288,0-1.919c0,0-0.705-0.407-0.71-0.411 c-0.458-0.271-0.618-0.882-0.344-1.355l0.75-1.299c0.178-0.308,0.511-0.5,0.868-0.5c0.175,0,0.347,0.046,0.499,0.134l0.688,0.399 c0.488-0.417,1.057-0.745,1.661-0.959V1c0-0.551,0.448-1,1-1h1.5c0.552,0,1,0.449,1,1v0.801c0.605,0.214,1.173,0.542,1.662,0.958 l0.693-0.4c0.152-0.087,0.324-0.134,0.499-0.134c0.357,0,0.689,0.191,0.867,0.5l0.75,1.3c0.275,0.478,0.111,1.09-0.366,1.366 l-0.693,0.4c0.116,0.631,0.116,1.287,0,1.918l0.693,0.399c0.478,0.276,0.642,0.888,0.367,1.366l-0.75,1.3 c-0.178,0.308-0.51,0.5-0.867,0.5l0,0c-0.175,0-0.347-0.046-0.499-0.134l-0.693-0.4c-0.489,0.417-1.057,0.745-1.662,0.96V12.5 c0,0.552-0.448,1-1,1H16.499z M13.905,9.627c0.132,0,0.257,0.051,0.351,0.144c0.52,0.515,1.168,0.888,1.874,1.08 c0.217,0.059,0.369,0.258,0.369,0.482V12.5h1.5v-1.166c0-0.225,0.152-0.423,0.369-0.482c0.706-0.193,1.354-0.567,1.873-1.082 c0.094-0.093,0.219-0.145,0.352-0.145c0.087,0,0.174,0.023,0.25,0.067l1.011,0.583l0.75-1.3l-1.01-0.582 c-0.195-0.113-0.291-0.343-0.234-0.561c0.186-0.708,0.186-1.456,0-2.164c-0.057-0.217,0.039-0.448,0.234-0.56l1.011-0.584 l-0.75-1.3l-1.011,0.583c-0.076,0.044-0.162,0.067-0.25,0.067c-0.132,0-0.257-0.051-0.352-0.144 c-0.52-0.515-1.168-0.888-1.874-1.08c-0.217-0.059-0.369-0.257-0.369-0.482V1h-1.5v1.168c0,0.225-0.151,0.423-0.368,0.482 c-0.706,0.193-1.354,0.567-1.874,1.082c-0.094,0.093-0.219,0.145-0.352,0.145c-0.088,0-0.175-0.023-0.251-0.068l-1.006-0.583 l-0.749,1.3l1.006,0.582c0.195,0.112,0.291,0.343,0.233,0.56c-0.186,0.708-0.186,1.456,0,2.164c0.057,0.217-0.039,0.448-0.234,0.56 l-1.011,0.584l0.75,1.3l1.011-0.583C13.731,9.65,13.817,9.627,13.905,9.627z"/></svg>