<svg xmlns="http://www.w3.org/2000/svg" x="0" y="0" enable-background="new 0 0 24 24" version="1.1" viewBox="0 0 24 24" xml:space="preserve"><path d="M1.5,16C1.224,16,1,15.776,1,15.5V3.786C1,2.801,1.801,2,2.786,2h3.432c0.405,0,0.799,0.167,1.08,0.459l1.341,1.387 C8.734,3.944,8.865,4,9,4h13c0.276,0,0.5,0.224,0.5,0.5S22.276,5,22,5H9C8.595,5,8.201,4.833,7.92,4.541L6.579,3.154 C6.484,3.056,6.353,3,6.218,3H2.786C2.353,3,2,3.353,2,3.786V15.5C2,15.776,1.776,16,1.5,16z"/><path d="M5.5,22C4.673,22,4,21.327,4,20.5v-12C4,7.673,4.673,7,5.5,7h16C22.327,7,23,7.673,23,8.5v12c0,0.827-0.673,1.5-1.5,1.5 H5.5z M5.5,8C5.224,8,5,8.224,5,8.5v12C5,20.776,5.224,21,5.5,21h16c0.276,0,0.5-0.224,0.5-0.5v-12C22,8.224,21.776,8,21.5,8H5.5z"/><path d="M8 19c-.189 0-.366-.11-.449-.28-.083-.171-.062-.377.054-.527l2.45-3.151c.298-.348.717-.542 1.156-.542.271 0 .537.074.771.215.017.011.032.021.046.031l1.382 1.056 1.358-1.748c.266-.319.629-.51 1.028-.547.046-.004.091-.006.136-.006.355 0 .687.12.96.348.101.084.191.182.267.291l2.755 4.081c.104.154.114.351.027.514C19.855 18.898 19.686 19 19.5 19H8zM18.559 18l-2.224-3.293c-.021-.03-.051-.063-.084-.09-.091-.076-.202-.116-.321-.116-.015 0-.03.001-.045.002-.132.012-.252.075-.338.178l-1.652 2.126C13.8 16.929 13.656 17 13.5 17c-.11 0-.215-.035-.303-.102l-1.751-1.338c-.073-.04-.155-.061-.238-.061-.145 0-.283.064-.379.175L9.022 18H18.559zM9.5 13c-1.103 0-2-.897-2-2s.897-2 2-2 2 .897 2 2S10.603 13 9.5 13zM9.5 10c-.551 0-1 .449-1 1s.449 1 1 1 1-.449 1-1S10.051 10 9.5 10z"/></svg>