<svg width="599" height="460" xmlns="http://www.w3.org/2000/svg"><defs><linearGradient x1="49.99%" y1="100.006%" x2="49.99%" y2="-.008%" id="a"><stop stop-color="gray" stop-opacity=".25" offset="0%"/><stop stop-color="gray" stop-opacity=".12" offset="54%"/><stop stop-color="gray" stop-opacity=".1" offset="100%"/></linearGradient></defs><g fill-rule="nonzero" fill="none"><path d="M588 105.066a122.906 122.906 0 00-23.766-32.103l-329.666-2.754 271.426-32.321a178.387 178.387 0 00-55.07-9.262C424.795 10.735 391.212 0 354.58 0c-32.868 0-63.26 8.661-88.039 23.357-21.056-9.198-45.06-14.414-70.565-14.414C122.727 8.943 61.693 51.956 48 109l540-3.934zM599 152.069A104.655 104.655 0 00588.727 107L17.419 157.758A111.267 111.267 0 004.034 186.37l176.917 22.322L0 224.963c5.444 64.462 70.73 115.358 150.482 115.358 40.143 0 76.619-12.897 103.648-33.93C281.244 327.823 318.069 341 358.647 341c60.202 0 112.167-29.014 136.366-70.963 48.545-13.045 86.256-45.79 99.163-86.757l-223.734-29.37H599v-1.841z" fill="#2C97D2" opacity=".1"/><ellipse fill="#2C97D2" opacity=".1" cx="265.5" cy="453" rx="153.5" ry="7"/><path d="M357 440.843V445H234v-3.376c15.34-5.68 25.743-20.042 26.352-36.382A40.401 40.401 0 00236.782 367h119.383a40.402 40.402 0 00-23.593 37.193A40.403 40.403 0 00357 440.843z" fill="#C8CAD7"/><path d="M356 367c-11.077 5.14-19.262 15.063-22.269 27H259.27c-3.009-11.936-11.193-21.86-22.269-27h119z" fill="#000" opacity=".1"/><path d="M93 346v23.503C93 382.48 102.41 393 114.023 393h360.954C486.589 393 496 382.48 496 369.503V346H93z" fill="#C8CAD7"/><path d="M357 441.053V445H234v-3.205a41.19 41.19 0 009.484-4.795h105.974a41.268 41.268 0 007.542 4.053z" fill="#000" opacity=".1"/><rect fill="#C8CAD7" x="193" y="438" width="204" height="12" rx="6"/><path d="M496 91.939c-.015-11.57-9.424-20.942-21.023-20.939H114.039C102.433 70.988 93.015 80.362 93 91.939V351h403V91.939z" fill="#474157"/><path d="M485 100.356v223.288A10.347 10.347 0 01474.65 334h-360.3A10.347 10.347 0 01104 323.644V100.356C104 94.636 108.634 90 114.35 90h360.274a10.346 10.346 0 017.335 3.024 10.359 10.359 0 013.041 7.332z" fill="#4C4C78"/><circle fill="#FFF" cx="295" cy="81" r="5"/><circle fill="#FFF" cx="295" cy="371" r="12"/><path d="M185 96v238h-69.716a10.266 10.266 0 01-7.273-3.021 10.333 10.333 0 01-3.011-7.3V101.158l.374-1.401L106.376 96H185z" fill="#FFF"/><path fill="#4C4C78" d="M194 100v21h-89v-19.626l.374-1.374z"/><path d="M485 101H104c0-2.653 1.09-5.197 3.032-7.073 1.94-1.875 4.573-2.928 7.317-2.927h360.275c2.75-.008 5.388 1.042 7.335 2.918C483.906 95.794 485 98.343 485 101z" fill="#C8CAD7"/><circle fill="#EDEDF4" cx="114.5" cy="95.5" r="2.5"/><circle fill="#EDEDF4" cx="122.5" cy="95.5" r="2.5"/><circle fill="#EDEDF4" cx="130.5" cy="95.5" r="2.5"/><path fill="#2C97D2" d="M118 109h54v5h-54z"/><path fill="#2C97D2" opacity=".5" d="M118 133h54v5h-54zM118 150h54v5h-54zM118 167h54v5h-54zM118 184h54v5h-54zM118 201h54v5h-54zM118 218h54v5h-54zM118 235h54v5h-54z"/><path fill="#DCE0ED" opacity=".5" d="M229 127h238v1H229zM229 145h238v1H229zM229 164h238v1H229zM229 182h238v1H229zM229 201h238v1H229z"/><path fill="#2C97D2" opacity=".5" d="M467 202H229v-36.086l21.827 10.705 22.59 3.045 19.82-5.948 23.913-18.454 12.027-6.911 8.794-1.686 8.412.448 13.838 6.8 18.804 11.922 14.76 1.891 11.705-4.014 24.802-20.218L442.955 139l13.25 2.039 10.795 6.2z"/><path d="M269.604 178.998c-21.492 0-41.36-13.11-41.604-13.28l.59-.878c.307.206 30.878 20.38 56.857 10.272 9.483-3.68 16.215-9.415 22.756-14.953 6.812-5.788 13.247-11.257 22.012-13.63 10.088-2.716 21.052-.254 29.404 6.588 7.135 5.85 21.354 15.249 36.374 12.437 7.656-1.43 14.112-7.01 20.945-12.914 13.082-11.331 26.653-23.028 50.062-6.232l-.621.858c-22.75-16.303-35.976-4.877-48.761 6.174-6.945 6.004-13.507 11.648-21.445 13.157-15.45 2.886-29.966-6.692-37.245-12.66-8.086-6.629-18.72-9.001-28.447-6.38-8.543 2.308-14.866 7.699-21.604 13.407-6.589 5.596-13.406 11.389-23.042 15.138a44.643 44.643 0 01-16.231 2.896z" fill="#2C97D2"/><circle fill="#2C97D2" cx="343" cy="146" r="6"/><path d="M195.922 273.856c-8.056-4.647-11.122-5.798-11.122-5.803l-.164-.117a6.714 6.714 0 01-2.034-2.573v-.53.053c.132-2.462 1.875-4.695 3.532-6.647a6243.31 6243.31 0 014.237-4.992 4.876 4.876 0 001.091-1.772 3.98 3.98 0 00.117-1.06v-.436c0-1.24-.058-2.482-.1-3.713-.043-1.087-.318-2.45-1.404-2.652-.562-.117-1.303.085-1.59-.398a.892.892 0 01-.073-.642v.048a.276.276 0 010-.059c.209-.837.343-1.69.402-2.551.02-.437-.04-.874-.174-1.29-.63-1.798-2.786-2.535-4.693-2.875-1.907-.339-4.046-.63-5.243-2.121a17.366 17.366 0 00-1.06-1.438 4.17 4.17 0 00-1.954-.965 10.957 10.957 0 00-7.086.62c-.922.414-1.848.966-2.86.907-1.012-.058-1.949-.795-2.987-.97-1.674-.287-3.278.95-4.105 2.408a5.843 5.843 0 00-.757 2.838v.164a4.173 4.173 0 001.091 2.897c.72.753 1.795 1.268 2.119 2.254.121.403.095.838.2 1.242 0 .053.033.1.048.153l-.058.07a12.623 12.623 0 00-2.648 7.755 12.867 12.867 0 009.004 12.2v.383a5.49 5.49 0 01-1.748 4.27l-11.43 4.594s-6.884-.817-9.363 9.257a17.087 17.087 0 00-.424 5.108c.09 1.523-.122 4.196-1.885 7.655-2.823 5.538-2.182 18.243 3.59 19.5 5.45 1.189 7.585.695 7.807.637v.223c-.09 2.387-.953 22.948-4.094 25.463-.874.684-.71 1.15 0 1.464v.371c-.095 1.507-.582 7.23-2.685 10.493-2.415 3.761-2.14 25.51-2.14 25.51l-1.663 12.833s1.023 7.925 0 9.31c-.916 1.236-2.118 30.56-2.393 36.915h-.106a3.087 3.087 0 00-2.468 1.507c-1.367 2.196-6.08 6.244-6.08 6.244-1.023 1.459-4.815 2.854-6.817 3.511a4.366 4.366 0 00-.773.335 4.071 4.071 0 00-1.721 1.814 1.944 1.944 0 00-.18 1.512c.53 1.257 11.159 2.122 13.85.88 2.118-.986 10.507-2.291 13.992-2.8a2.873 2.873 0 002.49-2.494 1.646 1.646 0 00-.319-1.246c-.667-.828-1.011-3.088-1.165-4.563.283-.116.547-.273.784-.466a33.517 33.517 0 011.923-13.464c2.563-6.79 3.336-19.373 2.695-27.553 0 0 7.823-33.722 13.982-36.868.096.117 3.083 3.958 3.464 15.85.381 12.08 4.74 20.005 4.74 20.005s-1.922 20.508 0 28.184l-2.526 12.09a3.916 3.916 0 01-.302-.276s.074.34.18.875l-.053.255.106.026c.286 1.512.71 4.149.53 5.698-.101.886-.345 2.09-.53 3.278-.265 1.862-.339 3.67.64 4.063 1.59.648 11.033 1.534 12.638-.53a2.98 2.98 0 00.466-3.109 3.184 3.184 0 00-.466-.79s-2.506-4.1-1.796-6.992a2.125 2.125 0 00-.302-1.655 85.576 85.576 0 012.198-13.575c1.59-6.052 4.99-19.325 2.5-28.057-.095-.339-.201-.679-.318-1.007a37.722 37.722 0 01-1.414-14.721 29.971 29.971 0 010-12.832c1.525-7.04 2.6-13.936 2.6-13.936s.848-9.31.107-15.018l-.048-.366.402-.09s-2.176-9.686-2.95-15.85c-.18-1.46-.418-3.3-.678-5.268.71-.122 1.41-.3 2.092-.53 6.928-2.393 9.105-24.037 9.105-24.037v-6.864s2.309-10.487-5.773-15.16zm-51.601 167.1l-.34-.18.34.18z" fill="url(#a)"/><path d="M191.439 398.714c3.024 8.682-.534 22.772-2.134 29.065a88.032 88.032 0 00-2.134 13.84c-3.681.62-7.447.533-11.096-.256l2.667-12.956c-1.888-7.676 0-28.187 0-28.187s-4.267-7.932-4.662-20.01c-.373-11.887-3.308-15.73-3.404-15.853-6.097 3.162-13.768 36.875-13.768 36.875.63 8.176-.128 20.76-2.667 27.558a34.028 34.028 0 00-1.894 13.462c-.88.74-2.107.868-3.43.655-3.601-.58-7.917-3.678-7.917-3.678s1.387-36.73 2.395-38.125c1.008-1.395 0-9.31 0-9.31l1.638-12.835s-.25-21.767 2.134-25.552c2.07-3.263 2.544-8.99 2.64-10.492v-.372l3.65-4.36s35.31-2.662 37.955 0c.65.65 1.067 2.13 1.291 3.982.726 5.706-.107 15.017-.107 15.017s-1.067 6.92-2.57 13.963c-.911 4.23-.911 8.604 0 12.834a38.25 38.25 0 001.413 14.735z" fill="#2F2E41"/><path d="M189.295 453.692c-1.573 2.092-10.837 1.207-12.415.536-.965-.402-.89-2.22-.63-4.097.166-1.196.406-2.414.502-3.299.256-2.284-.752-6.913-.752-6.913s2.08 2.22 2.581 0a2.406 2.406 0 011.797-1.716 4.69 4.69 0 013.275.204c1.637.713 4.368 2.236 3.877 4.29-.693 2.913 1.765 7.042 1.765 7.042.19.243.345.512.459.8a3.055 3.055 0 01-.459 3.153z" fill="#A27772"/><path d="M189.292 453.657c-1.582 2.148-10.9 1.239-12.488.55-.97-.412-.896-2.28-.633-4.207.998.48 2.682.881 5.536.611.663-.066 1.33-.088 1.996-.066 2.017.097 4.039.057 6.05-.12a3.19 3.19 0 01-.46 3.232zM157.095 401.262c.638 8.17-.13 20.746-2.702 27.538a33.578 33.578 0 00-1.918 13.453c-.892.74-2.135.867-3.475.654.773-5.32 4.053-28.155 6.16-46.204C157.556 376.144 168.764 362 168.764 362l2.237 2.42c-6.134 3.155-13.905 36.842-13.905 36.842z" fill="#000" opacity=".1"/><path d="M186 269.971l-1.56 7.486L176.814 290l-9.407-3.933s-12.791-13.102-4.755-14.971a7.165 7.165 0 002.672-1.162c1.576-1.166 2.072-2.856 2.083-4.513a13.63 13.63 0 00-1.306-5.369L182.557 255a25.11 25.11 0 00-1.182 6.52c-.124 4.381 1.538 6.546 2.903 7.575.509.402 1.094.7 1.722.876z" fill="#B5979B"/><path d="M182 255a25.555 25.555 0 00-1.15 6.493 12.632 12.632 0 01-13.58 3.886 13.844 13.844 0 00-1.27-5.347L182 255z" fill="#000" opacity=".1"/><path d="M184 253c0 7.18-5.82 13-13 13s-13-5.82-13-13 5.82-13 13-13a12.968 12.968 0 0113 13z" fill="#B5979B"/><path d="M186 269.88l-1.56 7.52-7.626 12.6-9.407-3.95s-12.791-13.163-4.755-15.04a7.149 7.149 0 002.672-1.167c-1.452 3.92 4.539 12.07 4.539 12.07.696 1.007 2.299.376 2.299.376 3.853-.572 10.961-11.475 12.116-13.289a4.92 4.92 0 001.722.88zM193 342.266c-2.245.546-14.658 3.32-19.362 2.622-5.18-.774-15.256-1.286-15.256-1.286s-6.415.349-8.382-.545v-.382l3.656-4.464s35.383-2.725 38.034 0c.695.643 1.07 2.153 1.31 4.055z" fill="#000" opacity=".1"/><path d="M169.086 282.194s-6.566-9.162-4.091-12.732l-11.094 4.583s-6.677-.817-9.083 9.22a17.636 17.636 0 00-.416 5.1c.09 1.511-.116 4.175-1.827 7.623-2.738 5.518-2.106 18.187 3.485 19.439 5.592 1.252 7.593.626 7.593.626s-.747 22.95-3.98 25.582c-3.233 2.631 8.25 2.005 8.25 2.005s9.92.53 15.023 1.258c5.102.726 19.413-2.653 19.413-2.653s-2.106-9.656-2.864-15.8c-.758-6.143-2.485-19.226-2.485-19.226l12.694-17.327s2.238-10.472-5.602-15.11c-7.84-4.636-10.794-5.782-10.794-5.782s-7.898 12.929-11.984 13.555c0 .01-1.559.647-2.238-.36z" fill="#2C97D2"/><path d="M155.037 286s-.117 4.031.605 5.618C156.363 293.204 159 302 159 302h-6s3.241-3.54 3.003-5.25c-.24-1.711-.966-10.75-.966-10.75z" fill="#000" opacity=".1"/><path d="M173.302 317s-14.067-3.466-15.376-6.417c-1.31-2.95-4.926-9.567-4.926-9.567l1.482-2.016 6.845 5.433s8.154 6.52 11.975 7.194c3.82.673 0 5.373 0 5.373z" fill="#FBBEBE"/><path d="M173.302 317s-14.067-3.466-15.376-6.417c-1.31-2.95-4.926-9.567-4.926-9.567l1.482-2.016 6.845 5.433s8.154 6.52 11.975 7.194c3.82.673 0 5.373 0 5.373z" fill="#B5979B" opacity=".818"/><path d="M185 300.082v7.735h-1.209a34.305 34.305 0 00-17.037 4.544l-2.259 1.29-.61.349-3.885-9.013 3.637-3.36h.185c.89.088 4.734.416 6.361-.147 1.628-.562 3.473-2.261 8.026-1.06 2.248.59 4.162 3.185 6.362 2.377l.429-2.715z" fill="#B5979B"/><path d="M197.475 286.545l2.525 2.827v6.844s-2.135 21.606-8.957 23.992c-6.822 2.386-18.976-1.381-18.976-1.381s-3.144-8.29-1.677-8.795c1.468-.505 12.993-3.528 12.993-3.528s-.165-12.674 2.36-16.442c0 0-1.64-11.807 4.035-12.057 5.674-.25 7.697 8.54 7.697 8.54z" fill="#000" opacity=".1"/><path d="M197.475 286.545l2.525 2.827v6.844s-2.135 21.606-8.962 23.992c-6.828 2.386-18.971-1.381-18.971-1.381s-3.144-8.29-1.677-8.795c1.468-.505 12.988-3.528 12.988-3.528s-.16-12.674 2.364-16.442c0 0-1.644-11.807 4.036-12.057s7.697 8.54 7.697 8.54z" fill="#2C97D2"/><path d="M180.46 258.2a4.916 4.916 0 00-.286-2.435 1.874 1.874 0 00-1.985-1.143c-1.06.249-1.538 1.64-2.59 1.974-.885.28-1.856-.344-2.28-1.17a5.967 5.967 0 01-.436-2.72v-3.139c0-1.138-.037-2.365-.743-3.26-.875-1.111-2.93-1.588-4.298-1.55a3.65 3.65 0 00-2.457.984 3.189 3.189 0 01-2.584.92 2.232 2.232 0 01-1.8-1.555.127.127 0 010-.043 12.81 12.81 0 0112.47-4.861 12.782 12.782 0 019.988 8.89A12.738 12.738 0 01180.031 262c.212-1.258.355-2.527.43-3.8z" fill="#000" opacity=".1"/><path d="M163.125 246.185a2.257 2.257 0 01-1.807-1.571c-.101-.406-.075-.844-.197-1.245-.292-.994-1.345-1.512-2.052-2.265-1.414-1.507-1.323-3.992-.324-5.808.813-1.464 2.381-2.699 4.024-2.416 1.015.182 1.892.909 2.923.973 1.032.064 1.898-.492 2.802-.908a10.496 10.496 0 016.942-.62 4.01 4.01 0 011.913.967c.366.462.707.943 1.02 1.443 1.17 1.5 3.27 1.795 5.136 2.137 1.866.342 3.981 1.068 4.592 2.89.41 1.197 0 2.496-.218 3.74-.08.256-.064.532.048.775.293.487 1.02.284 1.595.396 1.063.224 1.329 1.603 1.366 2.671.05 1.24.083 2.487.101 3.74.031.464-.004.93-.106 1.384a4.904 4.904 0 01-1.063 1.737l-4.152 5.012c-1.839 2.222-3.79 4.808-3.423 7.678-.872.39-1.903-.364-2.19-1.283-.287-.919-.059-1.902.138-2.842.334-1.626.553-3.274.654-4.932a5.015 5.015 0 00-.287-2.463 1.88 1.88 0 00-1.993-1.154c-1.063.251-1.537 1.656-2.59 1.993-.887.288-1.86-.347-2.285-1.181a6.136 6.136 0 01-.436-2.746v-3.169c0-1.149-.037-2.388-.744-3.291-.872-1.122-2.934-1.603-4.305-1.566a3.642 3.642 0 00-2.461.994 3.18 3.18 0 01-2.621.93z" fill="#2F2E41"/><path d="M165 285l4.264 16s3.355-.016-4.264-16zM179 283s-5.716 8.327-3.482 16.932l1.06.068s-1.897-3.985 2.422-17zM182 330.42s6.523-1.956 7 2.58c0 0-1.233-3.112-7-2.58zM163.98 302s-1.275 8.87 1.02 12.418a28.248 28.248 0 01-11.233 1.517L153 302h10.98z" fill="#000" opacity=".1"/><path d="M165 313.66l-.542.34-3.458-8.742 3.236-3.258h.165c-.052.424-.953 7.952.599 11.66z" fill="#000" opacity=".1"/><path d="M164.025 302s-1.218 8.87.975 12.418a25.878 25.878 0 01-10.733 1.517L150 302h14.025z" fill="#2C97D2"/><path d="M152.983 448.24c-.15 1.26-1.16 2.26-2.456 2.43-3.43.52-11.706 1.766-13.793 2.732-2.675 1.231-13.15.37-13.66-.857a1.897 1.897 0 01.183-1.48 4.133 4.133 0 012.456-2.077c1.98-.644 5.714-2 6.72-3.423 0 0 4.654-3.957 5.981-6.092a3.04 3.04 0 012.435-1.47c1.107-.052 2.338.494 2.846 2.846 0 0 6.067 3.36 7.71.416 0 0 .251 4.524 1.257 5.765.269.346.384.781.321 1.21z" fill="#A27772"/><path d="M152.981 448.228c-.15 1.263-1.16 2.266-2.456 2.436-3.429.52-11.705 1.77-13.792 2.737-2.675 1.234-13.15.37-13.658-.859a1.905 1.905 0 01.182-1.483 3.985 3.985 0 011.696-1.77c1.712 1.104 5.51 2.187 13.867.917 7.971-1.213 11.914-2.4 13.84-3.206.273.35.389.793.321 1.228zM138 441s1.297 2.077 6 .244M178 441s3.985 5.347 9 1.765M190 384s-2.9 1.714-2.996 2.695c-.095.98 1.498-.714 1.498-.714L190 384zM191 398c-.967.928-2.172 1.468-3.43 1.537-2.084.105-1.91 3.226-.547 2.287C188.386 400.886 191 398 191 398zM192 400s-1.655 7.213-3 5.822" fill="#000" opacity=".1"/><g opacity=".5" fill="#DCE0ED"><path d="M250 243h35.047v7H250zM330.476 243h35.047v7h-35.047zM410.953 243H446v7h-35.047z"/></g><path d="M246.982 295.32c0-10.94 8.908-19.342 19.863-19.342H267V271h-.155C253.142 271 242 281.635 242 295.32a24.75 24.75 0 008.512 18.68l3.53-3.527a19.797 19.797 0 01-7.06-15.152z" fill="#2C97D2"/><path d="M267.426 271v4.915c8.728.058 16.385 5.78 18.84 14.08 2.454 8.3-.874 17.213-8.19 21.93-7.316 4.718-16.887 4.122-23.55-1.464L251 313.944c8.257 7.154 20.283 8.062 29.54 2.23 9.255-5.83 13.527-17.008 10.493-27.452-3.034-10.445-12.65-17.66-23.618-17.722h.01zM428.68 274.982c10.94 0 19.342 8.908 19.342 19.863V295H453v-.155C453 281.147 442.365 270 428.68 270a24.74 24.74 0 00-18.68 8.512l3.527 3.53a19.797 19.797 0 0115.152-7.06z" fill="#2C97D2" opacity=".5"/><path d="M452.984 295.415h-4.915c-.057 8.728-5.78 16.385-14.08 18.84-8.3 2.455-17.213-.874-21.93-8.19-4.717-7.315-4.122-16.887 1.464-23.55L410.056 279c-7.154 8.257-8.062 20.283-2.23 29.54 5.83 9.255 17.008 13.527 27.452 10.493 10.445-3.034 17.66-12.65 17.722-23.618h-.016z" fill="#2C97D2"/><path d="M357.253 272l-.978 4.94c7.192 2.929 11.79 10.045 11.79 18.34.002 9.876-7.211 18.24-16.9 19.595-9.69 1.355-18.885-4.713-21.542-14.217-2.657-9.504 2.038-19.53 11-23.489l-2.177-4.454c-11.123 5.055-16.868 17.6-13.476 29.43 3.392 11.828 14.888 19.335 26.966 17.609 12.077-1.726 21.057-12.16 21.064-24.474 0-10.706-6.278-19.84-15.747-23.28z" fill="#2C97D2" opacity=".5"/><path d="M349.13 275.242c2.368-.001 4.711.513 6.884 1.51l.986-5.213a20.77 20.77 0 00-7.87-1.539c-3.493 0-6.946.786-10.13 2.305l2.218 4.695a18.665 18.665 0 017.912-1.758z" fill="#2C97D2"/></g></svg>