<?xml version="1.0" encoding="UTF-8"?>
<svg width="599px" height="460px" viewBox="0 0 599 460" version="1.1" xmlns="http://www.w3.org/2000/svg" xmlns:xlink="http://www.w3.org/1999/xlink">
    <title>who-illustration</title>
    <defs>
        <linearGradient x1="49.9900369%" y1="100.00609%" x2="49.9900369%" y2="-0.00757959559%" id="linearGradient-1">
            <stop stop-color="#808080" stop-opacity="0.25" offset="0%"></stop>
            <stop stop-color="#808080" stop-opacity="0.12" offset="54%"></stop>
            <stop stop-color="#808080" stop-opacity="0.1" offset="100%"></stop>
        </linearGradient>
    </defs>
    <g id="who-illustration" stroke="none" stroke-width="1" fill="none" fill-rule="evenodd">
        <g id="undraw_dashboard_nklg-copy" fill-rule="nonzero">
            <path d="M588,105.065558 C581.878024,93.1355303 573.849962,82.2911428 564.234317,72.962636 L234.568298,70.2085264 L505.994345,37.8876152 C488.234419,31.9278521 469.651413,28.8024777 450.924545,28.6257256 C424.794487,10.7346471 391.210815,0 354.578901,0 C321.710903,0 291.318608,8.6610897 266.540378,23.3567631 C245.483654,14.1586752 221.479413,8.94288084 195.974907,8.94288084 C122.726984,8.94288084 61.693232,51.9559046 48,109 L588,105.065558 Z" id="Path" fill="#2C97D2" opacity="0.1"></path>
            <path d="M599,152.06879 C598.977308,136.466606 595.467145,121.067307 588.726885,107 L17.418708,157.758114 C11.6198479,166.608805 7.11279657,176.243057 4.03397345,186.369259 L180.951009,208.691366 L0,224.963258 C5.44400885,289.424576 70.729708,340.320678 150.481522,340.320678 C190.625124,340.320678 227.100513,327.424168 254.129726,306.391713 C281.243752,327.822209 318.069,341 358.647274,341 C418.849425,341 470.814,311.985507 495.01254,270.037355 C543.558044,256.992243 581.26854,224.246785 594.176195,183.280465 L370.441743,153.91039 L599,153.91039 C599,153.294754 599,152.684425 599,152.06879 Z" id="Path" fill="#2C97D2" opacity="0.1"></path>
            <ellipse id="Oval" fill="#2C97D2" opacity="0.1" cx="265.5" cy="453" rx="153.5" ry="7"></ellipse>
            <path d="M357,440.842694 L357,445 L234,445 L234,441.624182 C249.340459,435.943583 259.742974,421.581535 260.352082,405.241645 C260.961191,388.901754 251.656793,373.805821 236.781795,367 L356.16493,367 C341.637951,373.648013 332.391591,388.224359 332.572172,404.192601 C332.752753,420.160843 342.326391,434.524572 357,440.842694 L357,440.842694 Z" id="Path" fill="#C8CAD7"></path>
            <path d="M356,367 C344.923169,372.139543 336.738426,382.063224 333.731242,394 L259.268758,394 C256.260177,382.063944 248.075878,372.140801 237,367 L356,367 Z" id="Path" fill="#000000" opacity="0.1"></path>
            <path d="M93,346 L93,369.502677 C93,382.480009 102.410831,393 114.023181,393 L474.976819,393 C486.589169,393 496,382.480009 496,369.502677 L496,346 L93,346 Z" id="Path" fill="#C8CAD7"></path>
            <path d="M357,441.052997 L357,445 L234,445 L234,441.794953 C237.371993,440.604248 240.561376,438.991686 243.483632,437 L349.457773,437 C351.812369,438.602326 354.340827,439.961054 357,441.052997 L357,441.052997 Z" id="Path" fill="#000000" opacity="0.1"></path>
            <rect id="Rectangle" fill="#C8CAD7" x="193" y="438" width="204" height="12" rx="6"></rect>
            <path d="M496,91.9388921 C495.985362,80.3683226 486.576392,70.9970813 474.976819,71 L114.039095,71 C102.43331,70.9883139 93.0146405,80.3621199 93,91.9388921 L93,351 L496,351 L496,91.9388921 Z" id="Path" fill="#474157"></path>
            <path d="M485,100.355794 L485,323.644239 C485,326.391189 483.911485,329.026036 481.970302,330.968423 C480.029119,332.91081 477.395906,334 474.650659,334 L114.349341,334 C111.604094,334 108.970881,332.91081 107.029698,330.968423 C105.088515,329.026036 104,326.391189 104,323.644239 L104,100.355794 C104,94.6364657 108.633559,90 114.349341,90 L474.624135,90 C477.373544,89.9929835 480.012758,91.0809203 481.959376,93.0237668 C483.905994,94.9666132 485,97.6046713 485,100.355794 Z" id="Path" fill="#4C4C78"></path>
            <circle id="Oval" fill="#FFFFFF" cx="295" cy="81" r="5"></circle>
            <circle id="Oval" fill="#FFFFFF" cx="295" cy="371" r="12"></circle>
            <path d="M185,96 L185,334 L115.283984,334 C112.556073,334 109.939489,332.914547 108.010565,330.978825 C106.081641,329.043102 104.998602,326.417296 105,323.679771 L105,101.157469 L105.374252,99.7556953 L106.375767,96 L185,96 Z" id="Path" fill="#FFFFFF"></path>
            <polygon id="Path" fill="#4C4C78" points="194 100 194 121 105 121 105 101.374074 105.374481 100"></polygon>
            <path d="M485,101 L104,101 C104,98.3469589 105.090543,95.8026544 107.031573,93.927152 C108.972603,92.0516496 111.605012,90.9986869 114.34934,91 L474.624137,91 C477.373056,90.9918705 480.012286,92.041823 481.959058,93.9180649 C483.90583,95.7943068 485,98.342508 485,101 Z" id="Path" fill="#C8CAD7"></path>
            <circle id="Oval" fill="#EDEDF4" cx="114.5" cy="95.5" r="2.5"></circle>
            <circle id="Oval" fill="#EDEDF4" cx="122.5" cy="95.5" r="2.5"></circle>
            <circle id="Oval" fill="#EDEDF4" cx="130.5" cy="95.5" r="2.5"></circle>
            <rect id="Rectangle" fill="#2C97D2" x="118" y="109" width="54" height="5"></rect>
            <rect id="Rectangle" fill="#2C97D2" opacity="0.5" x="118" y="133" width="54" height="5"></rect>
            <rect id="Rectangle" fill="#2C97D2" opacity="0.5" x="118" y="150" width="54" height="5"></rect>
            <rect id="Rectangle" fill="#2C97D2" opacity="0.5" x="118" y="167" width="54" height="5"></rect>
            <rect id="Rectangle" fill="#2C97D2" opacity="0.5" x="118" y="184" width="54" height="5"></rect>
            <rect id="Rectangle" fill="#2C97D2" opacity="0.5" x="118" y="201" width="54" height="5"></rect>
            <rect id="Rectangle" fill="#2C97D2" opacity="0.5" x="118" y="218" width="54" height="5"></rect>
            <rect id="Rectangle" fill="#2C97D2" opacity="0.5" x="118" y="235" width="54" height="5"></rect>
            <rect id="Rectangle" fill="#DCE0ED" opacity="0.5" x="229" y="127" width="238" height="1"></rect>
            <rect id="Rectangle" fill="#DCE0ED" opacity="0.5" x="229" y="145" width="238" height="1"></rect>
            <rect id="Rectangle" fill="#DCE0ED" opacity="0.5" x="229" y="164" width="238" height="1"></rect>
            <rect id="Rectangle" fill="#DCE0ED" opacity="0.5" x="229" y="182" width="238" height="1"></rect>
            <rect id="Rectangle" fill="#DCE0ED" opacity="0.5" x="229" y="201" width="238" height="1"></rect>
            <polygon id="Path" fill="#2C97D2" opacity="0.5" points="467 202 229 202 229 165.914207 250.826946 176.618781 273.41622 179.663684 293.23676 173.716113 317.149521 155.262313 329.177369 148.350698 337.970616 146.664939 346.382699 147.112718 360.221078 153.913705 379.02518 165.835187 393.784705 167.726399 405.489623 163.712183 430.291768 143.493603 442.95489 139 456.205641 141.038716 467 147.23915"></polygon>
            <path d="M269.603999,178.998148 C248.111785,178.998148 228.24423,165.8879 228,165.718462 L228.589337,164.839504 C228.897279,165.046006 259.468466,185.219691 285.447073,175.111669 C294.929557,171.431692 301.661802,165.697283 308.20291,160.158785 C315.014795,154.371426 321.449717,148.901763 330.215439,146.529635 C340.303188,143.813335 351.266978,146.275478 359.618572,153.116528 C366.754326,158.967426 380.972742,168.365927 395.992869,165.554319 C403.648939,164.124688 410.105098,158.543832 416.938221,152.639984 C430.020438,141.308833 443.591114,129.612332 467,146.407851 L466.378807,147.26563 C443.628279,130.962539 430.40271,142.388999 417.617816,153.439519 C410.673198,159.44397 404.110852,165.088366 396.173387,166.597421 C380.723203,169.483158 366.207464,159.904629 358.928357,153.937242 C350.84223,147.307989 340.20762,144.935861 330.480906,147.556851 C321.938176,149.865441 315.614751,155.25568 308.877196,160.963615 C302.288304,166.560356 295.47111,172.35301 285.834655,176.101821 C280.652369,178.066369 275.147825,179.048643 269.603999,178.998148 L269.603999,178.998148 Z" id="Path" fill="#2C97D2"></path>
            <circle id="Oval" fill="#2C97D2" cx="343" cy="146" r="6"></circle>
            <path d="M195.921792,273.856091 C187.86626,269.209121 184.799756,268.057989 184.799756,268.052684 L184.635573,267.935979 C183.755681,267.260017 183.056906,266.376025 182.60183,265.36317 C182.60183,265.177504 182.60183,264.991837 182.60183,264.832695 L182.60183,264.885742 C182.734235,262.424334 184.476687,260.19103 186.1344,258.238878 C187.546722,256.573183 188.959044,254.909257 190.371366,253.247099 C190.858157,252.742068 191.230313,252.137695 191.462385,251.475309 C191.548688,251.128517 191.58788,250.771647 191.578902,250.414357 C191.578902,250.265824 191.578902,250.122595 191.578902,249.979367 C191.578902,248.738053 191.520643,247.496739 191.478274,246.266035 C191.435904,245.178559 191.160501,243.815236 190.074779,243.613655 C189.513381,243.49695 188.771912,243.698531 188.485916,243.215798 C188.381905,243.018663 188.355449,242.789638 188.411769,242.573922 C188.411769,242.573922 188.411769,242.605751 188.411769,242.621665 C188.40971,242.602269 188.40971,242.582709 188.411769,242.563313 C188.620601,241.726295 188.755294,240.872455 188.814281,240.011723 C188.833335,239.575032 188.774142,239.138452 188.639506,238.722666 C188.009258,236.924353 185.853701,236.186991 183.947066,235.847487 C182.040432,235.507982 179.900764,235.21622 178.703821,233.725583 C178.375599,233.2285 178.022051,232.748669 177.644579,232.287993 C177.090003,231.798501 176.415579,231.465321 175.690279,231.322526 C173.32489,230.735587 170.831737,230.95395 168.603953,231.943183 C167.682413,232.356955 166.755576,232.90865 165.744001,232.850297 C164.732425,232.791945 163.794996,232.054583 162.75694,231.879526 C161.083338,231.593069 159.478587,232.829078 158.652379,234.287887 C158.162421,235.153732 157.901706,236.130707 157.895021,237.125934 C157.895021,237.178981 157.895021,237.237334 157.895021,237.290381 L157.895021,237.290381 C157.874131,238.360308 158.264754,239.39732 158.98604,240.18678 C159.706324,240.940056 160.781454,241.454618 161.104523,242.441303 C161.226336,242.844465 161.199855,243.279455 161.305779,243.682617 C161.305779,243.735664 161.337556,243.783407 161.353445,243.836455 L161.295186,243.905417 C159.57483,246.123092 158.642868,248.85255 158.647082,251.660976 C158.681243,257.255892 162.320596,262.187673 167.650635,263.861923 C167.650635,263.983933 167.650635,264.111247 167.650635,264.243866 C167.723374,265.855483 167.084096,267.417452 165.902887,268.514198 L154.473671,273.10812 C154.473671,273.10812 147.588601,272.291187 145.109976,282.364926 C144.712678,284.036662 144.569834,285.758927 144.686279,287.47341 C144.776315,288.995876 144.564466,291.669475 142.800829,295.128178 C139.97795,300.666347 140.618792,313.371247 146.391658,314.628476 C151.841456,315.816742 153.975827,315.323399 154.198268,315.265047 L154.198268,315.487847 C154.108232,317.874989 153.244951,338.436238 150.104299,340.950694 C149.230425,341.635008 149.394608,342.101827 150.104299,342.414808 C150.104299,342.414808 150.104299,342.547427 150.104299,342.786141 C150.008968,344.292693 149.521717,350.016529 147.419122,353.278956 C145.004051,357.040031 145.279454,378.789546 145.279454,378.789546 L143.616445,391.62176 C143.616445,391.62176 144.638613,399.547072 143.616445,400.931614 C142.700201,402.167623 141.497962,431.492336 141.222559,437.847438 L141.116635,437.847438 C140.0956,437.909154 139.17135,438.473341 138.648602,439.35399 C137.282181,441.55016 132.568556,445.597692 132.568556,445.597692 C131.546388,447.056501 127.754303,448.451653 125.752337,449.109443 C125.484446,449.195646 125.225494,449.307565 124.97909,449.443643 C124.229501,449.852517 123.627322,450.487217 123.257823,451.257871 C122.99479,451.716247 122.92976,452.262238 123.077752,452.769728 C123.607373,454.026956 134.236861,454.891632 136.927335,453.650318 C139.045818,452.663632 147.435011,451.358661 150.919915,450.849404 C152.220763,450.685251 153.245244,449.659116 153.409133,448.356167 C153.476633,447.914646 153.361917,447.464618 153.091361,447.109549 L153.091361,447.109549 C152.424038,446.282006 152.079785,444.022179 151.926195,442.547455 C152.209033,442.431426 152.473173,442.274116 152.710034,442.080636 C152.424121,437.508315 153.078472,432.925884 154.632557,428.617156 C157.195922,421.827063 157.969168,409.244173 157.328327,401.064233 C157.328327,401.064233 165.150825,367.341874 171.310315,364.196152 L171.310315,364.196152 C171.405647,364.312857 174.392708,368.153503 174.774035,380.046774 C175.155362,392.125713 179.514141,400.051024 179.514141,400.051024 C179.514141,400.051024 177.591617,420.559226 179.514141,428.235213 L176.98785,440.324761 C176.882495,440.23814 176.781729,440.146065 176.685966,440.048913 C176.685966,440.048913 176.760113,440.388418 176.866037,440.924199 L176.813075,441.178827 L176.918999,441.205351 C177.204994,442.717208 177.628691,445.353673 177.44862,446.902663 C177.347992,447.788558 177.104366,448.992739 176.918999,450.181005 C176.654188,452.042975 176.580042,453.851899 177.55984,454.244451 C179.148702,454.891632 188.591841,455.777526 190.196591,453.713975 C190.930216,452.851189 191.110917,451.645942 190.662658,450.605386 C190.54625,450.320743 190.389262,450.054505 190.196591,449.814976 C190.196591,449.814976 187.691485,445.714397 188.401177,442.823303 C188.532547,442.253512 188.423321,441.654676 188.099293,441.168218 C188.466617,436.59146 189.201639,432.051801 190.297219,427.593337 C191.886082,421.540606 195.286247,408.268097 192.797029,399.536462 L192.797029,399.536462 C192.701698,399.196958 192.595774,398.857453 192.479257,398.528558 C191.041281,393.763471 190.560655,388.760136 191.06517,383.807849 C190.138747,379.580769 190.138747,375.202715 191.06517,370.975635 C192.590477,363.936219 193.665607,357.040031 193.665607,357.040031 C193.665607,357.040031 194.513001,347.730177 193.771532,342.022256 L193.723866,341.656227 L194.126378,341.566046 C194.126378,341.566046 191.949636,331.879555 191.17639,325.715424 C190.996319,324.256615 190.757989,322.415863 190.498475,320.447797 C191.208492,320.325592 191.907937,320.148232 192.590477,319.917321 C199.517917,317.524874 201.694658,295.881454 201.694658,295.881454 L201.694658,289.017095 C201.694658,289.017095 204.003805,278.529585 195.921792,273.856091 Z M144.320841,440.956027 L143.981883,440.775665 L143.981883,440.775665 L144.320841,440.956027 Z" id="Shape" fill="url(#linearGradient-1)"></path>
            <path d="M191.438762,398.713612 C194.463487,407.395831 190.9053,421.486472 189.304917,427.778553 C188.227188,432.328316 187.513658,436.956379 187.171072,441.619001 C183.489801,442.239042 179.723767,442.152318 176.075078,441.363485 L178.742384,428.406696 C176.853931,420.730571 178.742384,400.220091 178.742384,400.220091 C178.742384,400.220091 174.474694,392.28845 174.079932,380.209997 C173.70651,368.323182 170.772473,364.479796 170.67645,364.357361 L170.67645,364.357361 C164.578987,367.519371 156.907815,401.231509 156.907815,401.231509 C157.537299,409.408019 156.779784,421.992181 154.240508,428.78997 C152.710021,433.105119 152.065959,437.683612 152.346721,442.252467 C151.46651,442.992399 150.239549,443.120157 148.916565,442.907227 C145.315702,442.326993 141,439.228862 141,439.228862 C141,439.228862 142.386999,402.498442 143.395241,401.103751 C144.403483,399.709059 143.395241,391.793388 143.395241,391.793388 L145.032967,378.959034 C145.032967,378.959034 144.78224,357.192267 147.166812,353.407437 C149.236642,350.144285 149.711422,344.416469 149.807445,342.915313 C149.807445,342.675767 149.807445,342.542685 149.807445,342.542685 L153.45632,338.182944 C153.45632,338.182944 188.766121,335.52132 191.412089,338.182944 C192.062911,338.832381 192.479011,340.312244 192.703065,342.164735 C193.428572,347.871258 192.596373,357.181621 192.596373,357.181621 C192.596373,357.181621 191.52945,364.101845 190.025089,371.144504 C189.114538,375.374378 189.114538,379.748984 190.025089,383.978858 C189.53235,388.935445 190.012528,393.94035 191.438762,398.713612 L191.438762,398.713612 Z" id="Path" fill="#2F2E41"></path>
            <path d="M189.295092,453.692021 C187.721866,455.783703 178.458499,454.898761 176.87994,454.22835 C175.914672,453.826103 175.989334,452.007949 176.25065,450.130798 C176.415972,448.934785 176.655955,447.717319 176.751949,446.832376 C177.007931,444.547616 176,439.919099 176,439.919099 C176,439.919099 178.079858,442.1395 178.581157,439.919099 C178.817419,439.056113 179.50919,438.395503 180.378368,438.202847 C181.45891,437.874333 182.620793,437.94665 183.65281,438.406652 C185.290032,439.119969 188.020512,440.643142 187.529879,442.697282 C186.836593,445.609547 189.295092,449.739278 189.295092,449.739278 C189.485783,449.981818 189.640287,450.251027 189.753727,450.538408 C190.204717,451.592443 190.02735,452.81203 189.295092,453.692021 L189.295092,453.692021 Z" id="Path" fill="#A27772"></path>
            <path d="M189.292465,453.656886 C187.709979,455.804755 178.392088,454.896041 176.804237,454.207621 C175.833288,453.794569 175.908389,451.927575 176.171243,450 C177.169014,450.47914 178.853423,450.881177 181.707261,450.611317 C182.370368,450.545289 183.03693,450.523214 183.702803,450.545228 C185.720191,450.642368 187.741635,450.601891 189.7538,450.424067 C190.205223,451.504889 190.026908,452.754433 189.292465,453.656886 L189.292465,453.656886 Z" id="Path" fill="#000000" opacity="0.1"></path>
            <path d="M157.095308,401.262113 C157.732989,409.432633 156.96561,422.007574 154.393269,428.800382 C152.842853,433.112369 152.190404,437.687507 152.474822,442.253015 C151.583149,442.992405 150.340211,443.120069 149,442.907295 C149.772783,437.587946 153.053058,414.751982 155.160648,396.703431 C157.554655,376.144148 168.762712,362 168.762712,362 L171,364.420304 C164.866372,367.574678 157.095308,401.262113 157.095308,401.262113 Z" id="Path" fill="#000000" opacity="0.1"></path>
            <path d="M186,269.971342 L184.440225,277.457014 L176.814058,290 L167.406832,286.067119 C167.406832,286.067119 154.615597,272.964555 162.651947,271.095777 C163.615326,270.894486 164.525216,270.49894 165.323534,269.934389 C166.899501,268.767722 167.396038,267.078431 167.406832,265.420814 C167.343288,263.563746 166.899139,261.738066 166.100723,260.052036 L182.556621,255 C181.875903,257.11403 181.478592,259.305539 181.374646,261.519608 C181.250512,265.901207 182.912833,268.065611 184.27831,269.095023 C184.786579,269.496716 185.372005,269.794691 186,269.971342 Z" id="Path" fill="#B5979B"></path>
            <path d="M182,255 C181.33814,257.105488 180.951837,259.288143 180.850771,261.493266 C177.534546,265.43635 172.164243,266.972779 167.269925,265.378711 C167.20814,263.529145 166.776296,261.710841 166,260.031624 L182,255 Z" id="Path" fill="#000000" opacity="0.1"></path>
            <path d="M184,253.00002 C184,260.179711 178.17967,266 170.99998,266 C163.820289,266 158,260.179711 158,253.00002 C158,245.82033 163.820289,240 170.99998,240 C174.450424,239.991422 177.76203,241.35829 180.20187,243.79813 C182.64171,246.23797 184.008578,249.549576 184,253.00002 Z" id="Path" fill="#B5979B"></path>
            <path d="M186,269.880303 L184.440225,277.4 L176.814058,290 L167.406832,286.049242 C167.406832,286.049242 154.615597,272.887121 162.651947,271.009848 C163.615326,270.807643 164.525216,270.410299 165.323534,269.843182 C163.871702,273.762121 169.862534,281.912879 169.862534,281.912879 C170.558766,282.920455 172.161718,282.289394 172.161718,282.289394 C176.01528,281.716667 183.123321,270.813636 184.27831,269 C184.786579,269.403519 185.372005,269.702849 186,269.880303 Z" id="Path" fill="#000000" opacity="0.1"></path>
            <path d="M193,342.266479 C190.754848,342.811537 178.342367,345.585886 173.63824,344.888211 C168.458354,344.114228 158.3819,343.601873 158.3819,343.601873 C158.3819,343.601873 151.967181,343.95071 150,343.056814 C150,342.811537 150,342.675273 150,342.675273 L153.65639,338.211242 C153.65639,338.211242 189.038911,335.485948 191.690328,338.211242 C192.385256,338.854411 192.759448,340.364224 193,342.266479 Z" id="Path" fill="#000000" opacity="0.1"></path>
            <path d="M169.086116,282.194272 C169.086116,282.194272 162.520151,273.032025 164.994893,269.461561 L153.900676,274.045337 C153.900676,274.045337 147.224137,273.228321 144.817845,283.265942 C144.432187,284.935718 144.292036,286.653514 144.401877,288.364332 C144.491389,289.876341 144.286038,292.5396 142.57478,295.988043 C139.836767,301.505551 140.468616,314.174599 146.060481,315.426649 C151.652346,316.678699 153.653202,316.052674 153.653202,316.052674 C153.653202,316.052674 152.905513,339.003386 149.672552,341.634813 C146.439591,344.26624 157.923449,343.640215 157.923449,343.640215 C157.923449,343.640215 167.84348,344.170745 172.945662,344.89757 C178.047843,345.624396 192.359226,342.244922 192.359226,342.244922 C192.359226,342.244922 190.253062,332.589282 189.494843,326.445749 C188.736624,320.302216 187.00957,307.219355 187.00957,307.219355 L199.704472,289.892257 C199.704472,289.892257 201.942271,279.419602 194.102077,274.782773 C186.261882,270.145944 183.307987,269 183.307987,269 C183.307987,269 175.409873,281.929007 171.323915,282.555032 C171.323915,282.565643 169.765354,283.202278 169.086116,282.194272 Z" id="Path" fill="#2C97D2"></path>
            <path d="M155.037257,286 C155.037257,286 154.920406,290.031008 155.641829,291.617571 C156.363251,293.204134 159,302 159,302 L153,302 C153,302 156.241321,298.459948 156.00254,296.749354 C155.76376,295.03876 155.037257,286 155.037257,286 Z" id="Path" fill="#000000" opacity="0.1"></path>
            <path d="M173.30175,317 C173.30175,317 159.235499,313.533655 157.925883,310.583459 C156.616266,307.633263 153,301.015696 153,301.015696 L154.482076,299 L161.326574,304.433142 C161.326574,304.433142 169.480688,310.952913 173.30175,311.626622 C177.122812,312.300332 173.30175,317 173.30175,317 Z" id="Path" fill="#FBBEBE"></path>
            <path d="M173.30175,317 C173.30175,317 159.235499,313.533655 157.925883,310.583459 C156.616266,307.633263 153,301.015696 153,301.015696 L154.482076,299 L161.326574,304.433142 C161.326574,304.433142 169.480688,310.952913 173.30175,311.626622 C177.122812,312.300332 173.30175,317 173.30175,317 Z" id="Path" fill="#B5979B" opacity="0.8182126"></path>
            <path d="M185,300.081856 L185,307.816586 L183.791349,307.816586 C177.829782,307.816632 171.966376,309.380654 166.753605,312.361286 L164.495335,313.650408 L163.885708,314 L160,304.987073 L163.636556,301.627709 L163.822095,301.627709 C164.71268,301.715108 168.55598,302.04285 170.183418,301.480225 C171.810857,300.9176 173.65564,299.2188 178.209288,300.420524 C180.456955,301.010461 182.370653,303.605091 184.570611,302.796659 L185,300.081856 Z" id="Path" fill="#B5979B"></path>
            <path d="M197.475155,286.544676 L200,289.371676 L200,296.215992 C200,296.215992 197.864824,317.822348 191.042937,320.208294 C184.22105,322.594239 172.066561,318.826677 172.066561,318.826677 C172.066561,318.826677 168.922515,310.536978 170.390448,310.032157 C171.858382,309.527335 183.382994,306.503721 183.382994,306.503721 C183.382994,306.503721 183.217517,293.830046 185.742363,290.062485 C185.742363,290.062485 184.103615,278.254977 189.777845,278.005224 C195.452075,277.75547 197.475155,286.544676 197.475155,286.544676 Z" id="Path" fill="#000000" opacity="0.1"></path>
            <path d="M197.475155,286.544676 L200,289.371676 L200,296.215992 C200,296.215992 197.864824,317.822348 191.037599,320.208294 C184.210374,322.594239 172.066561,318.826677 172.066561,318.826677 C172.066561,318.826677 168.922515,310.536978 170.390448,310.032157 C171.858382,309.527335 183.377656,306.503721 183.377656,306.503721 C183.377656,306.503721 183.217517,293.830046 185.742363,290.062485 C185.742363,290.062485 184.098278,278.254977 189.777845,278.005224 C195.457413,277.75547 197.475155,286.544676 197.475155,286.544676 Z" id="Path" fill="#2C97D2"></path>
            <path d="M180.46066,258.199828 C180.572292,257.377159 180.473725,256.539694 180.17411,255.765177 C179.85074,254.977822 179.034845,254.507832 178.189484,254.62195 C177.128187,254.870708 176.650604,256.262693 175.59992,256.596134 C174.713737,256.876648 173.74265,256.252107 173.318132,255.426443 C172.962819,254.565751 172.813822,253.634222 172.883,252.705986 C172.883,251.647442 172.883,250.615362 172.883,249.567403 C172.883,248.429469 172.845855,247.201558 172.140092,246.307088 C171.264522,245.195617 169.210913,244.719273 167.84184,244.756322 C166.928116,244.765756 166.051264,245.117099 165.384937,245.740767 C164.707171,246.421267 163.757337,246.759752 162.80068,246.6617 C161.950777,246.531531 161.251209,245.9264 161.001781,245.105641 C160.999406,245.091627 160.999406,245.077314 161.001781,245.063299 C163.908577,241.230136 168.728149,239.351081 173.470661,240.201932 C178.213172,241.052783 182.07413,244.489207 183.459477,249.092421 C184.844824,253.695635 183.519557,258.684777 180.030834,262 C180.242752,260.741939 180.386237,259.473359 180.46066,258.199828 Z" id="Path" fill="#000000" opacity="0.1"></path>
            <path d="M163.124982,246.184817 C162.273284,246.051653 161.571732,245.441869 161.317699,244.613941 C161.216704,244.207864 161.243282,243.769729 161.121025,243.368995 C160.82867,242.375176 159.776194,241.856894 159.069227,241.103514 C157.655295,239.596756 157.745659,237.112207 158.74498,235.295547 C159.558257,233.831534 161.12634,232.597274 162.768841,232.880459 C163.784108,233.062125 164.661172,233.788789 165.692386,233.852906 C166.7236,233.917024 167.590032,233.36134 168.493673,232.944577 C170.67096,231.953147 173.118723,231.734607 175.435764,232.324775 C176.148922,232.467191 176.810278,232.801431 177.349357,233.291879 C177.715227,233.753875 178.055921,234.235461 178.36994,234.73452 C179.539358,236.235936 181.638995,236.529807 183.504748,236.871767 C185.370501,237.213726 187.486084,237.94039 188.097371,239.762392 C188.506667,240.95925 188.097371,242.257627 187.879434,243.502573 C187.798207,243.757722 187.815281,244.034231 187.927274,244.277325 C188.219628,244.763549 188.947857,244.56051 189.521935,244.672716 C190.585042,244.897126 190.850819,246.27565 190.888028,247.344273 C190.937639,248.583876 190.971304,249.830603 190.989023,251.084454 C191.020349,251.548484 190.984539,252.014627 190.882712,252.468321 C190.653409,253.115692 190.291198,253.707339 189.819605,254.204834 L185.668171,259.216677 C183.828995,261.439413 181.878194,264.025481 182.244966,266.894734 C181.373218,267.284781 180.342004,266.531402 180.054965,265.612386 C179.767926,264.69337 179.996494,263.710237 180.193169,262.769849 C180.527472,261.143665 180.745964,259.495585 180.84698,257.838153 C180.959017,257.005896 180.860289,256.158677 180.559941,255.374976 C180.23402,254.579289 179.414872,254.105012 178.566615,254.220863 C177.503507,254.47199 177.030425,255.877229 175.977948,256.213846 C175.090254,256.502374 174.117511,255.866543 173.692268,255.033017 C173.338786,254.163442 173.189628,253.223622 173.256394,252.286655 L173.256394,249.118188 C173.256394,247.969418 173.219185,246.729815 172.512219,245.826829 C171.640471,244.704774 169.578043,244.223894 168.206634,244.261296 C167.291352,244.27082 166.413004,244.625508 165.745541,245.255115 C165.059324,245.951376 164.093957,246.293862 163.124982,246.184817 L163.124982,246.184817 Z" id="Path" fill="#2F2E41"></path>
            <path d="M165,285 L169.264306,301 C169.264306,301 172.619354,300.984211 165,285 Z" id="Path" fill="#000000" opacity="0.1"></path>
            <path d="M179,283 C179,283 173.28445,291.326959 175.517639,299.931832 L176.578257,300 C176.578257,300 174.68093,296.014806 179,283 Z" id="Path" fill="#000000" opacity="0.1"></path>
            <path d="M182,330.419166 C182,330.419166 188.523101,328.463688 189,333 C189,333 187.766641,329.88811 182,330.419166 Z" id="Path" fill="#000000" opacity="0.1"></path>
            <path d="M163.979298,302 C163.979298,302 162.70477,310.870283 165,314.418396 C161.398672,315.677474 157.576246,316.19361 153.766877,315.935188 L153,302 L163.979298,302 Z" id="Path" fill="#000000" opacity="0.1"></path>
            <path d="M165,313.660927 L164.457547,314 L161,305.258278 L164.235849,302 L164.400943,302 L164.400943,302 C164.349057,302.423841 163.448113,309.952318 165,313.660927 Z" id="Path" fill="#000000" opacity="0.1"></path>
            <path d="M164.024768,302 C164.024768,302 162.807018,310.870283 165,314.418396 C161.559103,315.677474 157.906957,316.19361 154.267286,315.935188 L150,302 L164.024768,302 Z" id="Path" fill="#2C97D2"></path>
            <path d="M152.983027,448.239903 C152.833295,449.499893 151.82209,450.500731 150.527238,450.670514 C147.097694,451.189875 138.820776,452.436342 136.734158,453.402354 C134.059007,454.63324 123.583114,453.7711 123.074835,452.545408 C122.93086,452.04812 122.996296,451.515682 123.256745,451.065228 C123.751134,450.078038 124.637517,449.328214 125.712534,448.987783 C127.692146,448.343776 131.426658,446.988243 132.432514,445.565193 C132.432514,445.565193 137.087278,441.607661 138.414153,439.473086 C138.920186,438.617715 139.834436,438.065725 140.848541,438.003294 C141.956053,437.951358 143.186623,438.496687 143.694902,440.849393 C143.694902,440.849393 149.762145,444.20966 151.404688,441.264882 C151.404688,441.264882 151.656152,445.788518 152.662009,447.029792 L152.662009,447.029792 C152.930832,447.375534 153.046385,447.811126 152.983027,448.239903 L152.983027,448.239903 Z" id="Path" fill="#A27772"></path>
            <path d="M152.981046,448.228186 C152.831324,449.490739 151.820185,450.493613 150.525419,450.663741 C147.096102,451.184159 138.81973,452.433161 136.73325,453.401138 C134.058276,454.634528 123.583075,453.770635 123.07483,452.542449 C122.930865,452.04415 122.996296,451.510628 123.256728,451.059258 C123.617277,450.311028 124.21057,449.692027 124.952662,449.289838 C126.664646,450.393124 130.46311,451.475592 138.81973,450.205773 C146.791155,448.9932 150.734067,447.806647 152.660049,447 L152.660049,447 C152.933084,447.350466 153.048855,447.793426 152.981046,448.228186 L152.981046,448.228186 Z" id="Path" fill="#000000" opacity="0.1"></path>
            <path d="M138,441 C138,441 139.296588,443.077185 144,441.244093" id="Path" fill="#000000" opacity="0.1"></path>
            <path d="M178,441 C178,441 181.984536,446.346543 187,442.764536" id="Path" fill="#000000" opacity="0.1"></path>
            <path d="M190,384 C190,384 187.099749,385.714354 187.004137,386.694703 C186.908524,387.675052 188.502068,385.980808 188.502068,385.980808 L190,384 Z" id="Path" fill="#000000" opacity="0.1"></path>
            <path d="M191,398 C190.032648,398.927933 188.827989,399.467531 187.569221,399.536735 C185.486248,399.642312 185.659829,402.762704 187.022951,401.82424 C188.386073,400.885777 191,398 191,398 Z" id="Path" fill="#000000" opacity="0.1"></path>
            <path d="M192,400 C192,400 190.345263,407.212861 189,405.821889" id="Path" fill="#000000" opacity="0.1"></path>
            <g id="Group" opacity="0.5" transform="translate(250.000000, 243.000000)" fill="#DCE0ED">
                <rect id="Rectangle" x="-3.01850721e-14" y="0" width="35.0474126" height="7"></rect>
                <rect id="Rectangle" x="80.4762937" y="0" width="35.0474126" height="7"></rect>
                <rect id="Rectangle" x="160.952587" y="0" width="35.0474126" height="7"></rect>
            </g>
            <path d="M246.981787,295.320637 C246.981787,284.380632 255.890079,275.977595 266.844654,275.977595 L267,275.977595 L267,271 L266.844654,271 C253.142061,271 242,281.634927 242,295.320637 C241.999202,302.48423 245.103699,309.297053 250.511892,314 L254.041997,310.472865 C249.566195,306.710455 246.98221,301.164851 246.981787,295.320637 L246.981787,295.320637 Z" id="Path" fill="#2C97D2"></path>
            <path d="M267.425784,271 L267.425784,275.914818 C276.153742,275.972541 283.810695,281.695176 286.26546,289.995168 C288.720224,298.295161 285.391841,307.208186 278.076084,311.925365 C270.760328,316.642544 261.188589,316.047482 254.525144,310.461234 L251,313.943885 C259.25702,321.098002 271.283414,322.006307 280.539189,316.174861 C289.794964,310.343415 294.067357,299.166332 291.033026,288.721747 C287.998695,278.277161 278.383053,271.062044 267.415118,271 L267.425784,271 Z" id="Path" fill="#2C97D2" opacity="0.5"></path>
            <path d="M428.679363,274.981788 C439.619368,274.981788 448.022405,283.89008 448.022405,294.844654 C448.022405,294.892865 448.022405,294.946432 448.022405,295 L453,295 C453,294.946432 453,294.892865 453,294.844654 C453,281.147419 442.365073,270 428.679363,270 C421.515464,269.997791 414.702083,273.102541 410,278.511893 L413.527135,282.041998 C417.289545,277.566196 422.835149,274.982211 428.679363,274.981788 Z" id="Path" fill="#2C97D2" opacity="0.5"></path>
            <path d="M452.984146,295.415118 L448.069328,295.415118 C448.011605,304.143076 442.28897,311.800029 433.988977,314.254794 C425.688985,316.709558 416.77596,313.381175 412.058781,306.065418 C407.341602,298.749662 407.936664,289.177923 413.522912,282.514478 L410.056115,279 C402.901998,287.25702 401.993693,299.283414 407.825139,308.539189 C413.656585,317.794964 424.833668,322.067357 435.278253,319.033026 C445.722839,315.998695 452.937956,306.383053 453,295.415118 L452.984146,295.415118 Z" id="Path" fill="#2C97D2"></path>
            <path d="M357.252712,272 L356.275112,276.939874 C363.467078,279.86859 368.064441,286.984997 368.064441,295.280358 C368.067405,305.155542 360.85358,313.51929 351.164111,314.874695 C341.474642,316.2301 332.279881,310.161656 329.622903,300.657728 C326.965924,291.1538 331.661239,281.127862 340.622943,277.169264 L338.445801,272.714841 C327.322676,277.769662 321.577889,290.315538 324.970065,302.144119 C328.362241,313.972699 339.857788,321.479832 351.93555,319.753848 C364.013313,318.027865 372.993213,307.594671 373,295.280358 C373,284.573741 366.722222,275.440841 357.252712,272 Z" id="Path" fill="#2C97D2" opacity="0.5"></path>
            <path d="M349.130332,275.241554 C351.498481,275.240674 353.841481,275.754819 356.013626,276.752014 L357,271.538672 C354.489035,270.516991 351.820887,269.995328 349.130332,270 C345.637078,269.999911 342.183802,270.785699 339,272.305174 L341.218009,277 C343.710832,275.83781 346.405826,275.238871 349.130332,275.241554 Z" id="Path" fill="#2C97D2"></path>
        </g>
    </g>
</svg>