<?xml version="1.0" encoding="UTF-8"?>
<svg width="153px" height="31px" viewBox="0 0 153 31" version="1.1" xmlns="http://www.w3.org/2000/svg" xmlns:xlink="http://www.w3.org/1999/xlink">
    <title>cloudsecure-logo-wide</title>
    <defs>
        <linearGradient x1="3.1398043%" y1="49.9998711%" x2="94.4667693%" y2="49.9998711%" id="linearGradient-1">
            <stop stop-color="#2FAFE5" offset="0%"></stop>
            <stop stop-color="#2FAAE0" offset="14.3%"></stop>
            <stop stop-color="#2D9DD1" offset="31.5%"></stop>
            <stop stop-color="#2B87B9" offset="50.2%"></stop>
            <stop stop-color="#276897" offset="70%"></stop>
            <stop stop-color="#23416C" offset="90.3%"></stop>
            <stop stop-color="#212C55" offset="100%"></stop>
        </linearGradient>
    </defs>
    <g id="cloudsecure-logo-wide" stroke="none" stroke-width="1" fill="none" fill-rule="evenodd">
        <g id="text" transform="translate(26.078246, 6.939381)" fill="#212C55" fill-rule="nonzero">
            <path d="M63.4371665,10.146351 C63.5169245,10.0505774 63.5966825,9.93909822 63.6764405,9.84332462 C63.8359565,9.63591783 64.0114856,9.50842501 64.2347464,9.69981821 C64.3463768,9.79543783 65.5107203,10.9120778 66.930351,10.9120778 C68.2223381,10.9120778 69.0676496,10.0986182 69.0676496,9.1575118 C69.0676496,8.05688538 68.1107077,7.40217588 66.2762739,6.63721897 C64.521752,5.87164614 63.4690389,5.15380614 63.4690389,3.33533972 C63.4690389,2.25072689 64.3303636,0.496314833 66.8664522,0.496314833 C67.8334849,0.509393239 68.7778474,0.791029842 69.5940831,1.30977445 C69.6897004,1.35750727 69.8810887,1.54905445 69.6897004,1.85192689 C69.6259555,1.94770048 69.5622107,2.05933368 69.498312,2.15510728 C69.3548092,2.37837369 69.1952932,2.4421201 68.94016,2.29861369 C68.8283756,2.23486728 67.8235481,1.56491407 66.850593,1.56491407 C65.159816,1.56491407 64.6487797,2.64952689 64.6487797,3.32024999 C64.6487797,4.3890032 65.4623728,5.01106961 66.8020915,5.56923564 C68.9554033,6.4469036 70.3434695,7.26005526 70.3434695,9.11070284 C70.3434695,10.7696493 68.7644769,11.9819089 66.8983246,11.9819089 C65.6582887,11.9662961 64.4646588,11.5080111 63.5327837,10.6897353 C63.4052941,10.5770242 63.2457781,10.4493774 63.4371665,10.146351 Z" id="Path"></path>
            <path d="M73.454185,0.958861245 C73.4541034,0.87842775 73.4860184,0.801265082 73.5428921,0.744389983 C73.5997657,0.687514884 73.6769265,0.6556807 73.7573579,0.6556807 L80.0417642,0.6556807 C80.122169,0.6556807 80.1992901,0.687573846 80.2561305,0.744444505 C80.3129708,0.801315163 80.3448647,0.878454451 80.3447831,0.958861245 L80.3447831,1.42079175 C80.3448647,1.50119854 80.3129708,1.57833783 80.2561305,1.63520849 C80.1992901,1.69207915 80.122169,1.72401306 80.0417642,1.72397214 L74.6824275,1.72397214 L74.6824275,5.6160446 L79.2601975,5.6160446 C79.4251929,5.62146653 79.5577106,5.75392026 79.5632162,5.91891703 L79.5632162,6.38084754 C79.563298,6.46125433 79.5314041,6.53839362 79.4745637,6.59526428 C79.4177234,6.65213493 79.3406023,6.68406884 79.2601975,6.68402792 L74.6824275,6.68402792 L74.6824275,10.75148 L80.0417642,10.75148 C80.1221423,10.7514391 80.1992401,10.7833519 80.256076,10.8401892 C80.3129119,10.8970266 80.3447831,10.9741263 80.3447831,11.0545064 L80.3447831,11.5164369 C80.3447831,11.5967904 80.312853,11.6738505 80.2560215,11.7306545 C80.19919,11.7874586 80.1221156,11.8193095 80.0417642,11.8193095 L73.7578199,11.8193095 C73.6774418,11.8193095 73.6003278,11.7875175 73.543463,11.730709 C73.4865982,11.6739006 73.4546471,11.5968171 73.4546471,11.5164369 L73.454185,0.958861245 Z" id="Path"></path>
            <path d="M88.5915746,0.496314833 C90.2025936,0.496314833 91.3669371,1.05448086 92.4515226,1.97957368 C92.5145339,2.03571744 92.5518282,2.11520017 92.5547366,2.19954638 C92.557645,2.28389259 92.5259142,2.36575555 92.4669199,2.42610651 L92.0357956,2.85724164 C91.908306,3.01676164 91.7806624,3.00074805 91.6211465,2.84184396 C90.7916941,2.12400396 89.659223,1.64559793 88.5746375,1.64559793 C86.0544082,1.64559793 84.1248191,3.76709076 84.1248191,6.2394968 C84.1248191,8.69588925 86.0547161,10.8172281 88.5746375,10.8172281 C89.9622418,10.8172281 90.7764508,10.2589081 91.6211465,9.62098207 C91.7203428,9.51449888 91.8815529,9.49433091 92.0039232,9.57309528 L92.4824712,10.0042304 C92.6099608,10.100004 92.5780884,10.3232704 92.4670739,10.4353656 C91.4298936,11.4419211 90.0367628,11.9974716 88.5915746,11.980831 C85.4202928,11.980831 82.8494611,9.40993452 82.8494611,6.23857294 C82.8494611,3.06721136 85.4202928,0.496314833 88.5915746,0.496314833 L88.5915746,0.496314833 Z" id="Path"></path>
            <path d="M95.5780975,0.958861245 C95.5835989,0.793751827 95.716165,0.661182392 95.8812702,0.6556807 L96.4873078,0.6556807 C96.5677252,0.6556807 96.6448701,0.687519705 96.7017193,0.74439926 C96.7585686,0.801278816 96.7904493,0.878441924 96.7903266,0.958861245 L96.7903266,7.61066052 C96.7903266,9.42897296 97.9227977,10.8486394 99.7891039,10.8486394 C101.671115,10.8486394 102.8196,9.46084617 102.8196,7.6426877 L102.8196,0.958861245 C102.819518,0.878454451 102.851412,0.801315163 102.908252,0.744444505 C102.965092,0.687573846 103.042214,0.6556807 103.122618,0.6556807 L103.72881,0.6556807 C103.893888,0.661186819 104.026407,0.793776704 104.031829,0.958861245 L104.031829,7.70643411 C104.031829,10.1309534 102.309179,11.981293 99.7891039,11.981293 C97.2848877,11.981293 95.5780975,10.1309534 95.5780975,7.70643411 L95.5780975,0.958861245 Z" id="Path"></path>
            <path d="M107.939816,0.958861245 C107.939694,0.878441924 107.971574,0.801278816 108.028424,0.74439926 C108.085273,0.687519705 108.162418,0.655598953 108.242835,0.655680857 L112.374238,0.655680857 C113.286606,0.642571088 114.166554,0.993751239 114.819205,1.63144746 C115.471855,2.26914368 115.843347,3.14072946 115.851409,4.05317972 C115.851409,5.52057896 114.878454,6.74885217 113.490849,7.30717218 L115.67588,11.3587646 C115.735914,11.4541234 115.737792,11.5749941 115.68075,11.6721724 C115.623708,11.7693506 115.517258,11.8266308 115.404733,11.8206951 L114.591448,11.8206951 C114.485788,11.8263143 114.386387,11.7704035 114.336315,11.6771887 L112.214722,7.45083256 L109.168213,7.45083256 L109.168213,11.5182846 C109.162632,11.6832489 109.030157,11.8156603 108.865194,11.8211572 L108.243143,11.8211572 C108.162779,11.8211572 108.085681,11.7893603 108.028841,11.7325474 C107.972,11.6757345 107.940083,11.5986506 107.940124,11.5182846 L107.939816,0.958861245 Z M112.294172,6.39793896 C113.568834,6.38274461 114.593565,5.34397614 114.591451,4.06919331 C114.591451,2.85693369 113.522876,1.82005368 112.294634,1.82005368 L109.199777,1.82005368 L109.199777,6.39763101 L112.294172,6.39793896 Z" id="Shape"></path>
            <path d="M119.281156,0.958861245 C119.281075,0.878454451 119.312969,0.801315163 119.369809,0.744444505 C119.426649,0.687573846 119.50377,0.6556807 119.584175,0.6556807 L125.868581,0.6556807 C125.949013,0.6556807 126.026174,0.687514884 126.083047,0.744389983 C126.139921,0.801265082 126.171836,0.87842775 126.171754,0.958861245 L126.171754,1.42079175 C126.171836,1.50122524 126.139921,1.57838791 126.083047,1.63526301 C126.026174,1.69213811 125.949013,1.72405396 125.868581,1.72397214 L120.509399,1.72397214 L120.509399,5.6160446 L125.087169,5.6160446 C125.252132,5.62154132 125.384607,5.75395272 125.390187,5.91891703 L125.390187,6.38084754 C125.390228,6.46124181 125.358321,6.53835733 125.30149,6.59521911 C125.244658,6.65208089 125.167561,6.68402793 125.087169,6.68402792 L120.509399,6.68402792 L120.509399,10.75148 L125.868581,10.75148 C125.948986,10.7513982 126.026124,10.783293 126.082993,10.8401347 C126.139862,10.8969765 126.171754,10.9740996 126.171754,11.0545064 L126.171754,11.5164369 C126.171754,11.5968171 126.139803,11.6739006 126.082938,11.730709 C126.026074,11.7875175 125.94896,11.8193095 125.868581,11.8193095 L119.584175,11.8193095 C119.503824,11.8193095 119.426749,11.7874586 119.369918,11.7306545 C119.313086,11.6738505 119.281156,11.5967904 119.281156,11.5164369 L119.281156,0.958861245 Z" id="Path"></path>
            <path d="M6.04482451,4.74936913e-05 C7.72405358,4.74936913e-05 8.96661534,0.520643173 10.1084788,1.56168055 C10.1784932,1.61849046 10.2205195,1.70280366 10.2237364,1.7929107 C10.2269534,1.88301774 10.1910467,1.97011342 10.1252618,2.03177183 L8.8154139,3.39200319 C8.76013449,3.44837568 8.68450134,3.48013882 8.60554876,3.48013882 C8.52659618,3.48013882 8.45096303,3.44837568 8.39568362,3.39200319 C7.76939204,2.84033167 6.96349976,2.53585635 6.12889374,2.53558404 C4.23148499,2.53558404 2.83772178,4.11415455 2.83772178,5.99482761 C2.83772178,7.85794731 4.24826804,9.40341281 6.1456768,9.40341281 C6.96627173,9.40285575 7.76134171,9.118075 8.39568362,8.59749805 C8.52486849,8.49301277 8.71141589,8.50018532 8.83219695,8.61428153 L10.1420449,10.0079259 C10.2546377,10.1406476 10.2473575,10.3373524 10.1252618,10.4613876 C9.03359049,11.521824 7.56679419,12.1073949 6.04497848,12.0903086 C3.8853157,12.0903086 1.88970497,10.9381133 0.809873557,9.06774336 C-0.269957852,7.19737343 -0.269957852,4.89298264 0.809873557,3.02261271 C1.88970497,1.15224279 3.8853157,4.74936913e-05 6.04497848,4.74936913e-05 L6.04482451,4.74936913e-05 Z" id="Path"></path>
            <path d="M12.9789966,0.486922246 C12.9789966,0.402309191 13.0125597,0.321152163 13.0724031,0.261336134 C13.1322465,0.201520106 13.2134177,0.168036072 13.2980286,0.168036072 L15.2961357,0.168036072 C15.4698402,0.173775339 15.6093448,0.313216157 15.6151676,0.486922246 L15.6151676,9.45376323 L19.6115357,9.45376323 C19.6961875,9.45372232 19.7773817,9.48734337 19.837225,9.54721716 C19.8970684,9.60709094 19.9306495,9.68830335 19.9305679,9.77295721 L19.9305679,11.6031259 C19.9306495,11.6877797 19.8970684,11.7689921 19.837225,11.8288659 C19.7773817,11.8887397 19.6961875,11.9223199 19.6115357,11.9223199 L13.2986445,11.9223199 C13.2139927,11.9223199 13.1327986,11.8887397 13.0729552,11.8288659 C13.0131118,11.7689921 12.9795308,11.6877797 12.9796125,11.6031259 L12.9789966,0.486922246 Z" id="Path"></path>
            <path d="M27.5028038,2.3664162e-05 C29.9477694,-0.00679364336 32.1561069,1.45989343 33.098065,3.71619022 C34.0400231,5.97248701 33.5300978,8.57405079 31.8060679,10.3077683 C30.0820381,12.0414858 27.4834248,12.5659282 25.2219654,11.6365471 C22.9605061,10.7071661 21.4815602,8.50698886 21.4746995,6.06196151 C21.467435,4.45784849 22.0990973,2.91683313 23.2301918,1.77938284 C24.3612862,0.641932544 25.8987152,0.00166804197 27.5028038,2.3664162e-05 L27.5028038,2.3664162e-05 Z M27.5028038,9.40345638 C28.8641968,9.4103239 30.095068,8.5946228 30.619248,7.33813817 C31.1434281,6.08165354 30.8571938,4.63301478 29.8945312,3.67032787 C28.9318685,2.70764096 27.4832662,2.42139949 26.2268132,2.94559273 C24.9703602,3.46978597 24.1546797,4.70068815 24.161547,6.06211549 C24.1743455,7.90215377 25.6628118,9.39065761 27.5028038,9.40345638 Z" id="Shape"></path>
            <path d="M36.2500075,0.486922246 C36.255905,0.31324861 36.3953674,0.173850089 36.5690394,0.168036072 L38.6344327,0.168036072 C38.7190436,0.168036072 38.8002148,0.201520106 38.8600582,0.261336134 C38.9199016,0.321152163 38.9535056,0.402309191 38.9534647,0.486922246 L38.9534647,7.28777109 C38.9534647,8.46323025 39.8266453,9.40341281 41.0188579,9.40341281 C41.5806951,9.4108885 42.1214746,9.18984382 42.5172179,8.79095516 C42.9129612,8.39206649 43.1297261,7.84954598 43.1178173,7.28777109 L43.1178173,0.486922246 C43.1177763,0.402309191 43.1513803,0.321152163 43.2112237,0.261336134 C43.2710671,0.201520106 43.3522383,0.168036072 43.4368492,0.168036072 L45.5022425,0.168036072 C45.6759146,0.173850089 45.8153769,0.31324861 45.8212744,0.486922246 L45.8212744,7.42203889 C45.8212744,9.97435891 43.6719659,12.0903086 41.0188579,12.0903086 C38.3826869,12.0903086 36.2500075,9.97435891 36.2500075,7.42203889 L36.2500075,0.486922246 Z" id="Path"></path>
            <path d="M49.3635545,0.486922246 C49.3615957,0.316410486 49.495456,0.175181867 49.6658252,0.168036221 L53.7628916,0.168036221 C57.0086657,0.168036221 59.6398854,2.79932224 59.6398854,6.04517804 C59.6398854,9.29103383 57.0086657,11.9223199 53.7628916,11.9223199 L49.6658252,11.9223199 C49.4954074,11.9150126 49.3615901,11.773693 49.3635545,11.6031259 L49.3635545,0.486922246 Z M53.5949071,9.43713373 C55.4924699,9.43713373 56.869296,7.94263457 56.869296,6.02824058 C56.869296,4.13078405 55.4924699,2.63628489 53.5949071,2.63628489 L51.9829642,2.63628489 L51.9829642,9.43713373 L53.5949071,9.43713373 Z" id="Shape"></path>
        </g>
        <g id="icon" transform="translate(0.000000, -0.000000)" fill-rule="nonzero">
            <path d="M14.9995836,14.9999613 L14.9995836,0 C6.71554231,0 6.57252031e-14,6.71571144 6.57252031e-14,14.9999613 C6.57252031e-14,23.2842112 6.71554231,30 14.9995836,30 C17.6870964,30.0121002 20.1756873,28.5852812 21.5229713,26.2597766 C22.8702553,23.9342719 22.8702553,21.0656121 21.5229713,18.7401074 C20.1756873,16.4146028 17.6870964,14.9877838 14.9995836,14.9999613 L14.9995836,14.9999613 Z" id="Path" fill="url(#linearGradient-1)"></path>
            <path d="M14.9995836,14.9999613 C10.8708274,14.9812533 7.53369672,11.6288832 7.53369672,7.49998067 C7.53369672,3.37107813 10.8708274,0.0187080667 14.9995836,-4.88498131e-14 L14.9995836,14.9999613 Z" id="Path" fill="#212C55"></path>
        </g>
    </g>
</svg>