<svg xmlns="http://www.w3.org/2000/svg" width="22" height="22" viewBox="0 0 22 22"><g fill="none" fill-rule="evenodd" stroke="none" stroke-width="1"><g fill="#000"><path fill-rule="nonzero" d="M12.3,10 C12.2196,10 12.1446,9.9688 12.0876,9.9124 C12.0306,9.856 12,9.7804 12,9.7 C12,9.6196 12.0312,9.5446 12.0876,9.4876 L16.9758,4.6 L14.1,4.6 C13.9344,4.6 13.8,4.4656 13.8,4.3 C13.8,4.1344 13.9344,4 14.1,4 L17.7,4 C17.7396,4 17.778,4.0078 17.8146,4.0228 C17.8884,4.0534 17.946,4.111 17.9766,4.1848 C17.9922,4.222 18,4.2604 18,4.3 L18,7.9 C18,8.0656 17.8656,8.2 17.7,8.2 C17.5344,8.2 17.4,8.0656 17.4,7.9 L17.4,5.0242 L12.5124,9.9118 C12.4554,9.9688 12.3804,10 12.3,10 Z"/><path d="M2,0 L2,1 L1,1 L1,21 L10,21 L10,22 L0,22 L-2.22044605e-16,12 L1,12 L1,10 L2.22044605e-16,10 L-2.22044605e-16,8 L1,8 L1,6 L2.22044605e-16,6 L-2.22044605e-16,4 L1,4 L1,2 L2.22044605e-16,2 L0,0 L2,0 Z M20,21 L21,21 L21,20 L22,20 L22,22 L20,22 L20,21 Z M14,21 L14,22 L12,22 L12,21 L14,21 Z M22,16 L22,18 L21,18 L21,16 L22,16 Z M22,12 L22,14 L21,14 L21,12 L22,12 Z M22,8 L22,10 L21,10 L21,8 L22,8 Z M22,4 L22,6 L21,6 L21,4 L22,4 Z M22,0 L22,2 L21,2 L21,1 L20,1 L20,0 L22,0 Z M6,0 L6,1 L4,1 L4,0 L6,0 Z M10,0 L10,1 L8,1 L8,0 L10,0 Z M14,0 L14,1 L12,1 L12,0 L14,0 Z M18,0 L18,1 L16,1 L16,0 L18,0 Z M18,22 L16,22 L16,21 L18,21 L18,22 Z"/><path d="M10,12 L10,22 L0,22 L0,12 L10,12 Z M9,13 L1,13 L1,21 L9,21 L9,13 Z"/></g></g></svg>