<svg xmlns="http://www.w3.org/2000/svg" x="0" y="0" enable-background="new 0 0 24 24" version="1.1" viewBox="0 0 24 24" xml:space="preserve"><path d="M18.487 9.513c-.265 0-.485-.208-.499-.473-.103-1.922-.867-3.768-2.153-5.2C15.746 3.74 15.7 3.612 15.708 3.479c.007-.133.066-.256.165-.345.091-.082.21-.128.334-.128.142 0 .278.061.372.166 1.437 1.601 2.292 3.666 2.407 5.814.014.276-.198.511-.473.526C18.509 9.512 18.491 9.513 18.487 9.513zM6 23.3c-.067 0-.132-.013-.194-.04C2.278 21.771-.001 18.335 0 14.506v-3c0-.276.224-.5.5-.5S1 11.23 1 11.506v3c-.001 3.426 2.038 6.501 5.194 7.833.123.052.219.148.269.272s.049.26-.003.383C6.382 23.18 6.201 23.3 6 23.3zM.487 9.505C.211 9.49-.001 9.253.015 8.978c.082-1.479.517-2.939 1.258-4.222 1.691-2.929 4.849-4.748 8.243-4.748 1.657 0 3.294.439 4.734 1.271.116.067.198.175.233.304.035.129.017.264-.05.38-.089.154-.255.25-.434.25-.087 0-.174-.023-.25-.067-1.288-.744-2.753-1.137-4.235-1.137-3.037 0-5.863 1.628-7.376 4.248C1.476 6.404 1.087 7.71 1.013 9.033.998 9.298.779 9.506.514 9.506.51 9.506.492 9.505.487 9.505z"/><path d="M15.5 9.978c-.275 0-.499-.223-.5-.498-.003-.788-.172-1.551-.5-2.267-.612-1.336-1.708-2.353-3.085-2.864-.62-.23-1.266-.347-1.918-.347-.79 0-1.56.169-2.289.503C7.142 4.534 7.073 4.549 7 4.549c-.195 0-.374-.115-.455-.292C6.431 4.007 6.541 3.71 6.792 3.595c.861-.394 1.771-.594 2.705-.594.771 0 1.534.138 2.266.41 1.628.604 2.922 1.807 3.646 3.385.388.846.587 1.748.591 2.68.001.276-.222.501-.498.502C15.502 9.978 15.501 9.978 15.5 9.978L15.5 9.978zM9.5 21.006c-3.584 0-6.5-2.916-6.5-6.5v-5C2.998 7.904 3.586 6.364 4.656 5.172c.094-.105.23-.166.372-.166.124 0 .242.045.334.128C5.461 5.223 5.52 5.345 5.527 5.479S5.489 5.74 5.4 5.84C4.495 6.848 3.998 8.15 4 9.505v5.001c0 3.033 2.467 5.5 5.5 5.5.152 0 .303-.006.461-.019.007 0 .032-.001.038-.001.26 0 .479.202.5.46.022.275-.184.516-.459.538C9.855 20.999 9.678 21.006 9.5 21.006z"/><path d="M6.5 13.006c-.276 0-.5-.224-.5-.5v-3c0-1.93 1.57-3.5 3.5-3.5s3.5 1.57 3.5 3.5v1.551c0 .276-.224.5-.5.5-.276 0-.5-.224-.5-.5V9.506c0-1.379-1.121-2.5-2.5-2.5S7 8.127 7 9.506v3C7 12.781 6.776 13.006 6.5 13.006zM9.5 18.006c-1.93 0-3.5-1.57-3.5-3.5 0-.276.224-.5.5-.5S7 14.23 7 14.506c0 1.378 1.121 2.5 2.5 2.5.276 0 .5.224.5.5S9.776 18.006 9.5 18.006z"/><path d="M9.5 13.006c-.276 0-.5-.224-.5-.5v-3c0-.276.224-.5.5-.5S10 9.23 10 9.506v3C10 12.781 9.776 13.006 9.5 13.006zM9.5 16.006c-.276 0-.5-.224-.5-.5v-1c0-.276.224-.5.5-.5s.5.224.5.5v1C10 15.781 9.776 16.006 9.5 16.006zM9.499 24.006c-.126 0-.252-.053-.347-.145C9.054 23.765 9 23.638 9 23.505c0-.275.224-.5.5-.5.628 0 1.25-.068 1.855-.203.037-.008.072-.012.108-.012.236 0 .438.161.489.391.06.269-.11.537-.379.597-.677.151-1.372.227-2.066.227L9.499 24.006zM17.5 24.006c-3.584 0-6.5-2.916-6.5-6.5s2.916-6.5 6.5-6.5 6.5 2.916 6.5 6.5S21.084 24.006 17.5 24.006zM17.5 12.006c-3.033 0-5.5 2.467-5.5 5.5s2.467 5.5 5.5 5.5 5.5-2.467 5.5-5.5S20.533 12.006 17.5 12.006z"/><path d="M16.667,20.434c-0.272,0-0.531-0.087-0.75-0.251c-0.045-0.034-0.089-0.072-0.13-0.112l-1.502-1.502 c-0.195-0.195-0.195-0.512,0-0.707c0.094-0.094,0.22-0.146,0.354-0.146s0.259,0.052,0.354,0.146l1.5,1.5 c0.006,0.006,0.014,0.013,0.023,0.02c0.046,0.035,0.099,0.052,0.153,0.052c0.012,0,0.024-0.001,0.036-0.003 c0.067-0.01,0.125-0.043,0.166-0.098l2.905-3.872c0.093-0.125,0.243-0.2,0.4-0.2c0.109,0,0.213,0.035,0.3,0.1 c0.107,0.08,0.176,0.197,0.195,0.329c0.019,0.132-0.015,0.264-0.095,0.371l-2.905,3.873c-0.201,0.268-0.494,0.44-0.825,0.488 C16.785,20.43,16.726,20.434,16.667,20.434z"/></svg>