<svg xmlns="http://www.w3.org/2000/svg" x="0" y="0" enable-background="new 0 0 24 24" version="1.1" viewBox="0 0 24 24" xml:space="preserve"><path d="M12 16c-1.103 0-2-.897-2-2s.897-2 2-2c.36 0 .706.096 1.014.278l4.644-4.642c.094-.094.22-.146.354-.146s.259.052.354.146.146.22.146.354c0 .134-.052.259-.146.354l-4.644 4.641C13.904 13.293 14 13.64 14 14 14 15.103 13.103 16 12 16zM12 13c-.551 0-1 .448-1 1s.449 1 1 1c.552 0 1-.448 1-1S12.552 13 12 13zM2.5 15C2.224 15 2 14.776 2 14.5S2.224 14 2.5 14h2C4.776 14 5 14.224 5 14.5S4.776 15 4.5 15H2.5zM19.5 15c-.276 0-.5-.224-.5-.5s.224-.5.5-.5h2c.276 0 .5.224.5.5S21.776 15 21.5 15H19.5zM18.929 11.63c-.203 0-.384-.121-.462-.309-.105-.255.016-.547.271-.653l1.847-.765c.061-.025.125-.038.191-.038.204 0 .385.121.462.309.105.255-.016.547-.271.653l-1.847.765C19.059 11.617 18.995 11.63 18.929 11.63zM14.87 7.571c-.066 0-.13-.013-.191-.038-.254-.105-.376-.398-.271-.653l.765-1.848c.077-.188.259-.309.462-.309.065 0 .13.013.191.038.255.105.376.398.271.653l-.765 1.848C15.255 7.45 15.073 7.571 14.87 7.571zM12 7c-.276 0-.5-.224-.5-.5v-2C11.5 4.224 11.724 4 12 4c.276 0 .5.224.5.5v2C12.5 6.776 12.276 7 12 7zM9.13 7.571c-.203 0-.385-.121-.462-.309L7.903 5.414c-.051-.123-.051-.259 0-.383C7.954 4.908 8.05 4.812 8.174 4.761c.06-.025.125-.038.191-.038.203 0 .385.121.462.309L9.592 6.88c.051.123.051.259 0 .383C9.541 7.386 9.445 7.482 9.321 7.533 9.26 7.558 9.196 7.571 9.13 7.571zM6.695 9.197c-.134 0-.26-.052-.354-.147L4.929 7.635C4.734 7.44 4.735 7.123 4.93 6.928c.095-.094.22-.146.353-.146.134 0 .26.052.354.147l1.412 1.415c.195.195.194.512-.001.707C6.954 9.145 6.828 9.197 6.695 9.197zM5.07 11.63c-.066 0-.13-.013-.191-.038l-1.846-.765c-.123-.051-.219-.147-.271-.271-.051-.123-.051-.259 0-.383C2.84 9.986 3.021 9.865 3.224 9.865c.066 0 .13.013.191.038l1.846.765c.123.051.219.147.271.271.051.123.051.259 0 .383C5.454 11.509 5.273 11.63 5.07 11.63z"/><path d="M1.5,19C0.673,19,0,18.327,0,17.5V14C0,7.383,5.383,2,12,2c6.617,0,12,5.383,12,12v3.5c0,0.827-0.673,1.5-1.5,1.5H1.5z M12,3C5.935,3,1,7.935,1,14v3.5C1,17.776,1.224,18,1.5,18h21c0.276,0,0.5-0.224,0.5-0.5V14C23,7.935,18.065,3,12,3z"/></svg>