<svg width="1440" height="737" xmlns="http://www.w3.org/2000/svg"><defs><filter id="a"><feColorMatrix in="SourceGraphic" values="0 0 0 0 0.129412 0 0 0 0 0.172549 0 0 0 0 0.333333 0 0 0 1.000000 0"/></filter></defs><g fill="none" fill-rule="evenodd"><g fill="#277EB4" fill-rule="nonzero" opacity=".497"><path d="M1372 263.146c-13.82-29.88-31.942-57.04-53.649-80.405l-744.19-6.898 612.719-80.95c-40.092-14.927-82.041-22.755-124.315-23.197C1003.579 26.886 927.767 0 845.073 0 770.877 0 702.27 21.692 646.335 58.499c-47.534-23.037-101.721-36.1-159.295-36.1C321.69 22.398 183.91 130.128 153 273l1219-9.854zM1395 379.709c-.051-38.672-7.962-76.841-23.153-111.709L84.257 393.81c-13.069 21.938-23.226 45.818-30.165 70.917l398.727 55.329L45 560.388c2.49 32.419 10.532 63.454 23.272 92.331C157 653 1189 654 1209.822 653.574c85.323-39.552 149.743-110.764 174.306-196.503l-504.243-72.797H1395v-4.565z" style="mix-blend-mode:multiply"/></g><g fill-rule="nonzero"><path fill="#D3D2D2" d="M204 495l28.243-31.134h68.913v26.775l-44.295 37.728-47.265-29.209z"/><path fill="#E6E6E6" d="M314.07 465.146h-9.33v4.032L301 464l-29 39-16.233 123.382L276.6 652h48.415V496.188l-10.943-14.58z"/><path fill="#F2F2F2" d="M204 494.774h74.298V652H204z"/><path fill="#D3D2D2" d="M234.254 613.03H247.7v38.298h-13.446z"/><path fill="#FFF" d="M218.79 624.452v-6.047h-6.05v6.047h5.546zM218.286 629.155h-5.546v6.047h6.05v-6.047zM222.824 618.404h6.051v6.047h-6.051zM222.824 629.155h6.051v6.047h-6.051zM258.456 624.452v-6.047h-6.05v6.047h5.546zM257.952 629.155h-5.546v6.047h6.05v-6.047zM262.49 618.404h6.051v6.047h-6.051zM262.49 629.155h6.051v6.047h-6.051zM300.14 502.165v-6.047h-6.052v6.047h5.548zM299.636 507.54h-5.548v6.047h6.051v-6.047zM303.501 496.117h6.051v6.047h-6.051zM303.501 507.54h6.051v6.047h-6.051zM300.14 536.432v-6.047h-6.052v6.047h5.548zM299.636 541.136h-5.548v6.047h6.051v-6.047zM303.501 530.385h6.051v6.047h-6.051zM303.501 541.135h6.051v6.047h-6.051zM300.14 570.7v-6.048h-6.052v6.047h5.548zM299.636 575.403h-5.548v6.047h6.051v-6.047zM303.501 564.652h6.051v6.047h-6.051zM303.501 575.402h6.051v6.047h-6.051zM300.14 604.967v-6.048h-6.052v6.048h5.548zM299.636 609.67h-5.548v6.047h6.051v-6.047zM303.501 598.92h6.051v6.046h-6.051zM303.501 609.67h6.051v6.047h-6.051zM212.74 502.165h57.146v14.782H212.74zM212.74 531.728h57.146v14.782H212.74zM212.74 560.62h57.146v14.782H212.74zM212.74 590.184h57.146v14.782H212.74z"/><g><path fill="#D3D2D2" d="M752.968 600.812l-3.731-6.21 34.825-56.826h89.55v8.694l-32.338 61.795-37.313 7.452z"/><path fill="#E6E6E6" d="M889.2 545.7v-9.94h-11.754v6.146l-3.699-4.2-29.924 56.994-4.987 4.983-6.234 24.913L843.823 652h57.354v-56.055z"/><path fill="#F2F2F2" d="M749.237 594.888h94.795V652h-94.795z"/><path fill="#FFF" d="M810.416 613.03h20.169v17.47h-20.17z"/><path fill="#D3D2D2" d="M784.869 612.357h17.48V652h-17.48z"/><path fill="#FFF" d="M765.372 618.405v-6.047h-7.395v6.047h6.778zM764.755 623.78h-6.778v6.047h7.395v-6.047zM770.078 612.357h7.395v6.047h-7.395zM770.078 623.78h7.395v6.047h-7.395zM870.251 619.077v-6.048h-7.395v6.048h6.778zM869.634 624.452h-6.778v6.047h7.395v-6.047zM875.63 613.03h7.395v6.046h-7.395zM875.63 624.452h7.395v6.047h-7.395z"/><path fill="#CDC9C9" d="M787.201 562.686l-.988-1.66 9.223-15.187h23.72v2.324l-8.565 16.514-9.884 1.991z"/><path fill="#E6E6E6" d="M818.62 545.839l-7.922 14.742-1.32 1.289-1.651 6.444 2.97 7.089h15.182v-14.5z"/><path fill="#F2F2F2" d="M786.214 560.621h24.875v14.782h-24.875z"/><path fill="#FFF" d="M796.97 567.34v-2.688h-3.361v2.688h3.081zM796.69 570.028h-3.081v2.687h3.361v-2.687zM799.66 564.652h3.362v2.688h-3.362zM799.66 570.027h3.362v2.688h-3.362z"/></g><g><path fill="#D3D2D2" d="M881.898 499.16l-4.924-4.868 27.571-30.426h69.913v26.775l-45.295 37.728z"/><path fill="#E6E6E6" d="M986.373 481.608v-16.462h-9.331v4.032l-3.484-4.64-22.766 30.432-8.909 7.304-13.814 124.108L948.9 652h48.415V496.188z"/><path fill="#F2F2F2" d="M876.302 494.774H951.6V652h-75.298z"/><path fill="#D3D2D2" d="M906.556 613.03h13.446v38.298h-13.446z"/><path fill="#FFF" d="M891.092 624.452v-6.047h-6.05v6.047h5.546zM890.588 629.155h-5.546v6.047h6.05v-6.047zM895.126 618.404h6.05v6.047h-6.05zM895.126 629.155h6.05v6.047h-6.05zM930.758 624.452v-6.047h-6.05v6.047h5.546zM930.254 629.155h-5.547v6.047h6.051v-6.047zM934.792 618.404h6.05v6.047h-6.05zM934.792 629.155h6.05v6.047h-6.05zM972.44 502.165v-6.047h-6.05v6.047h5.547zM971.937 507.54h-5.547v6.047h6.05v-6.047zM975.803 496.117h6.05v6.047h-6.05zM975.803 507.54h6.05v6.047h-6.05zM972.44 536.432v-6.047h-6.05v6.047h5.547zM971.937 541.136h-5.547v6.047h6.05v-6.047zM975.803 530.385h6.05v6.047h-6.05zM975.803 541.135h6.05v6.047h-6.05zM972.44 570.7v-6.048h-6.05v6.047h5.547zM971.937 575.403h-5.547v6.047h6.05v-6.047zM975.803 564.652h6.05v6.047h-6.05zM975.803 575.402h6.05v6.047h-6.05zM972.44 604.967v-6.048h-6.05v6.048h5.547zM971.937 609.67h-5.547v6.047h6.05v-6.047zM975.803 598.92h6.05v6.046h-6.05zM975.803 609.67h6.05v6.047h-6.05zM885.042 502.165h57.146v14.782h-57.146zM885.042 531.728h57.146v14.782h-57.146zM885.042 560.62h57.146v14.782h-57.146zM885.042 590.184h57.146v14.782h-57.146z"/></g><g><path d="M523.68 652c-3.155-.005-5.712-3.742-5.715-8.353V318.353c.003-4.61 30.88-8.348 34.035-8.353l27 13v329h-55.32z" fill="#E6E6E6"/><path d="M490.737 652c-3.155-.005-5.711-3.742-5.715-8.353L485 310h67l-.42 342h-60.843z" fill="#F2F2F2"/><path d="M512.25 468.57h-12.773a1.682 1.682 0 01-1.681-1.68v-19.485a1.682 1.682 0 011.68-1.68h12.774c.928.001 1.68.752 1.681 1.68v19.485a1.682 1.682 0 01-1.68 1.68zM537.125 468.57h-12.773a1.682 1.682 0 01-1.681-1.68v-19.485a1.682 1.682 0 011.68-1.68h12.774c.928.001 1.68.752 1.681 1.68v19.485a1.682 1.682 0 01-1.68 1.68zM512.25 432.959h-12.773a1.682 1.682 0 01-1.681-1.68v-19.485a1.682 1.682 0 011.68-1.68h12.774c.928.001 1.68.752 1.681 1.68v19.485a1.682 1.682 0 01-1.68 1.68zM537.125 432.959h-12.773a1.682 1.682 0 01-1.681-1.68v-19.485a1.682 1.682 0 011.68-1.68h12.774c.928.001 1.68.752 1.681 1.68v19.485a1.682 1.682 0 01-1.68 1.68zM512.25 395.332h-12.773a1.682 1.682 0 01-1.681-1.68v-19.485a1.682 1.682 0 011.68-1.68h12.774c.928.001 1.68.753 1.681 1.68v19.485a1.682 1.682 0 01-1.68 1.68zM537.125 395.332h-12.773a1.682 1.682 0 01-1.681-1.68v-19.485a1.682 1.682 0 011.68-1.68h12.774c.928.001 1.68.753 1.681 1.68v19.485a1.682 1.682 0 01-1.68 1.68zM512.25 359.721h-12.773a1.682 1.682 0 01-1.681-1.68v-19.485a1.682 1.682 0 011.68-1.68h12.774c.928.001 1.68.753 1.681 1.68v19.485a1.682 1.682 0 01-1.68 1.68zM537.125 359.721h-12.773a1.682 1.682 0 01-1.681-1.68v-19.485a1.682 1.682 0 011.68-1.68h12.774c.928.001 1.68.753 1.681 1.68v19.485a1.682 1.682 0 01-1.68 1.68zM512.25 504.18h-12.773a1.682 1.682 0 01-1.681-1.679v-19.485a1.682 1.682 0 011.68-1.68h12.774c.928.001 1.68.752 1.681 1.68V502.5a1.682 1.682 0 01-1.68 1.68zM537.125 504.18h-12.773a1.682 1.682 0 01-1.681-1.679v-19.485a1.682 1.682 0 011.68-1.68h12.774c.928.001 1.68.752 1.681 1.68V502.5a1.682 1.682 0 01-1.68 1.68zM512.25 539.792h-12.773a1.682 1.682 0 01-1.681-1.68v-19.485a1.682 1.682 0 011.68-1.68h12.774c.928.001 1.68.752 1.681 1.68v19.485a1.682 1.682 0 01-1.68 1.68zM537.125 539.792h-12.773a1.682 1.682 0 01-1.681-1.68v-19.485a1.682 1.682 0 011.68-1.68h12.774c.928.001 1.68.752 1.681 1.68v19.485a1.682 1.682 0 01-1.68 1.68zM512.25 575.403h-12.773a1.682 1.682 0 01-1.681-1.68v-19.485a1.682 1.682 0 011.68-1.68h12.774c.928.001 1.68.752 1.681 1.68v19.485a1.682 1.682 0 01-1.68 1.68zM537.125 575.403h-12.773a1.682 1.682 0 01-1.681-1.68v-19.485a1.682 1.682 0 011.68-1.68h12.774c.928.001 1.68.752 1.681 1.68v19.485a1.682 1.682 0 01-1.68 1.68zM512.25 611.014h-12.773a1.682 1.682 0 01-1.681-1.68v-19.485a1.682 1.682 0 011.68-1.68h12.774c.928.001 1.68.752 1.681 1.68v19.485a1.682 1.682 0 01-1.68 1.68zM537.125 611.014h-12.773a1.682 1.682 0 01-1.681-1.68v-19.485a1.682 1.682 0 011.68-1.68h12.774c.928.001 1.68.752 1.681 1.68v19.485a1.682 1.682 0 01-1.68 1.68z" fill="#FFF"/></g><g><path d="M451.07 652h-55.128a5.72 5.72 0 01-5.714-5.711V423.888a5.72 5.72 0 015.714-5.711h55.129a5.72 5.72 0 015.714 5.711v222.4a5.72 5.72 0 01-5.714 5.712z" fill="#E6E6E6"/><path d="M418.128 652h-60.843L357 418h126l-59.157 228.289a5.72 5.72 0 01-5.715 5.711z" fill="#F2F2F2"/><path d="M384.513 468.57h-12.774a1.682 1.682 0 01-1.68-1.68v-19.485a1.682 1.682 0 011.68-1.68h12.774c.928.001 1.68.752 1.68 1.68v19.485a1.682 1.682 0 01-1.68 1.68zM409.388 468.57h-12.774a1.682 1.682 0 01-1.68-1.68v-19.485a1.682 1.682 0 011.68-1.68h12.774c.928.001 1.68.752 1.68 1.68v19.485a1.682 1.682 0 01-1.68 1.68zM384.513 504.18h-12.774a1.682 1.682 0 01-1.68-1.679v-19.485a1.682 1.682 0 011.68-1.68h12.774c.928.001 1.68.752 1.68 1.68V502.5a1.682 1.682 0 01-1.68 1.68zM409.388 504.18h-12.774a1.682 1.682 0 01-1.68-1.679v-19.485a1.682 1.682 0 011.68-1.68h12.774c.928.001 1.68.752 1.68 1.68V502.5a1.682 1.682 0 01-1.68 1.68zM384.513 539.792h-12.774a1.682 1.682 0 01-1.68-1.68v-19.485a1.682 1.682 0 011.68-1.68h12.774c.928.001 1.68.752 1.68 1.68v19.485a1.682 1.682 0 01-1.68 1.68zM409.388 539.792h-12.774a1.682 1.682 0 01-1.68-1.68v-19.485a1.682 1.682 0 011.68-1.68h12.774c.928.001 1.68.752 1.68 1.68v19.485a1.682 1.682 0 01-1.68 1.68zM384.513 575.403h-12.774a1.682 1.682 0 01-1.68-1.68v-19.485a1.682 1.682 0 011.68-1.68h12.774c.928.001 1.68.752 1.68 1.68v19.485a1.682 1.682 0 01-1.68 1.68zM409.388 575.403h-12.774a1.682 1.682 0 01-1.68-1.68v-19.485a1.682 1.682 0 011.68-1.68h12.774c.928.001 1.68.752 1.68 1.68v19.485a1.682 1.682 0 01-1.68 1.68zM384.513 611.014h-12.774a1.682 1.682 0 01-1.68-1.68v-19.485a1.682 1.682 0 011.68-1.68h12.774c.928.001 1.68.752 1.68 1.68v19.485a1.682 1.682 0 01-1.68 1.68zM409.388 611.014h-12.774a1.682 1.682 0 01-1.68-1.68v-19.485a1.682 1.682 0 011.68-1.68h12.774c.928.001 1.68.752 1.68 1.68v19.485a1.682 1.682 0 01-1.68 1.68z" fill="#FFF"/></g><g><path d="M467.878 420.193h-10.756a3.028 3.028 0 01-3.026-3.024v-24.86a3.028 3.028 0 013.026-3.024l10.756 4a3.028 3.028 0 013.026 3.023v20.861a3.028 3.028 0 01-3.026 3.024z" fill="#E6E6E6"/><path d="M455.105 652a5.72 5.72 0 01-5.715-5.711V423.888c.004-3.153 30.455-5.884 33.61-5.888l33 11v223h-60.895z" fill="#E6E6E6"/><path d="M422.162 652a5.72 5.72 0 01-5.715-5.711V423.888a5.72 5.72 0 015.715-5.711L483 418l.005 234h-60.843z" fill="#F2F2F2"/><path d="M457.794 420.193h-10.757a3.028 3.028 0 01-3.025-3.024v-24.86a3.028 3.028 0 013.025-3.024h10.757a3.028 3.028 0 013.025 3.023v24.861a3.028 3.028 0 01-3.025 3.024z" fill="#F2F2F2"/><path d="M443.676 468.57h-12.774a1.682 1.682 0 01-1.68-1.68v-19.485a1.682 1.682 0 011.68-1.68h12.774c.927.001 1.68.752 1.68 1.68v19.485a1.682 1.682 0 01-1.68 1.68zM468.55 468.57h-12.773a1.682 1.682 0 01-1.68-1.68v-19.485a1.682 1.682 0 011.68-1.68h12.774c.928.001 1.68.752 1.68 1.68v19.485a1.682 1.682 0 01-1.68 1.68zM443.676 504.18h-12.774a1.682 1.682 0 01-1.68-1.679v-19.485a1.682 1.682 0 011.68-1.68h12.774c.927.001 1.68.752 1.68 1.68V502.5a1.682 1.682 0 01-1.68 1.68zM468.55 504.18h-12.773a1.682 1.682 0 01-1.68-1.679v-19.485a1.682 1.682 0 011.68-1.68h12.774c.928.001 1.68.752 1.68 1.68V502.5a1.682 1.682 0 01-1.68 1.68zM443.676 539.792h-12.774a1.682 1.682 0 01-1.68-1.68v-19.485a1.682 1.682 0 011.68-1.68h12.774c.927.001 1.68.752 1.68 1.68v19.485a1.682 1.682 0 01-1.68 1.68zM468.55 539.792h-12.773a1.682 1.682 0 01-1.68-1.68v-19.485a1.682 1.682 0 011.68-1.68h12.774c.928.001 1.68.752 1.68 1.68v19.485a1.682 1.682 0 01-1.68 1.68zM443.676 575.403h-12.774a1.682 1.682 0 01-1.68-1.68v-19.485a1.682 1.682 0 011.68-1.68h12.774c.927.001 1.68.752 1.68 1.68v19.485a1.682 1.682 0 01-1.68 1.68zM468.55 575.403h-12.773a1.682 1.682 0 01-1.68-1.68v-19.485a1.682 1.682 0 011.68-1.68h12.774c.928.001 1.68.752 1.68 1.68v19.485a1.682 1.682 0 01-1.68 1.68zM443.676 611.014h-12.774a1.682 1.682 0 01-1.68-1.68v-19.485a1.682 1.682 0 011.68-1.68h12.774c.927.001 1.68.752 1.68 1.68v19.485a1.682 1.682 0 01-1.68 1.68zM468.55 611.014h-12.773a1.682 1.682 0 01-1.68-1.68v-19.485a1.682 1.682 0 011.68-1.68h12.774c.928.001 1.68.752 1.68 1.68v19.485a1.682 1.682 0 01-1.68 1.68z" fill="#FFF"/></g><g><path d="M1177.157 652a5.72 5.72 0 01-5.715-5.711V423.888c.004-3.153 30.403-5.884 33.558-5.888l33 13v221h-60.843z" fill="#E6E6E6"/><path d="M1144.214 652a5.72 5.72 0 01-5.715-5.711L1138 418h67l.057 234h-60.843z" fill="#F2F2F2"/><path d="M1165.728 468.57h-12.774a1.682 1.682 0 01-1.68-1.68v-19.485a1.682 1.682 0 011.68-1.68h12.774c.927.001 1.68.752 1.68 1.68v19.485a1.682 1.682 0 01-1.68 1.68zM1190.603 468.57h-12.774a1.682 1.682 0 01-1.68-1.68v-19.485a1.682 1.682 0 011.68-1.68h12.774c.928.001 1.68.752 1.68 1.68v19.485a1.682 1.682 0 01-1.68 1.68zM1165.728 504.18h-12.774a1.682 1.682 0 01-1.68-1.679v-19.485a1.682 1.682 0 011.68-1.68h12.774c.927.001 1.68.752 1.68 1.68V502.5a1.682 1.682 0 01-1.68 1.68zM1190.603 504.18h-12.774a1.682 1.682 0 01-1.68-1.679v-19.485a1.682 1.682 0 011.68-1.68h12.774c.928.001 1.68.752 1.68 1.68V502.5a1.682 1.682 0 01-1.68 1.68zM1165.728 539.792h-12.774a1.682 1.682 0 01-1.68-1.68v-19.485a1.682 1.682 0 011.68-1.68h12.774c.927.001 1.68.752 1.68 1.68v19.485a1.682 1.682 0 01-1.68 1.68zM1190.603 539.792h-12.774a1.682 1.682 0 01-1.68-1.68v-19.485a1.682 1.682 0 011.68-1.68h12.774c.928.001 1.68.752 1.68 1.68v19.485a1.682 1.682 0 01-1.68 1.68zM1165.728 575.403h-12.774a1.682 1.682 0 01-1.68-1.68v-19.485a1.682 1.682 0 011.68-1.68h12.774c.927.001 1.68.752 1.68 1.68v19.485a1.682 1.682 0 01-1.68 1.68zM1190.603 575.403h-12.774a1.682 1.682 0 01-1.68-1.68v-19.485a1.682 1.682 0 011.68-1.68h12.774c.928.001 1.68.752 1.68 1.68v19.485a1.682 1.682 0 01-1.68 1.68zM1165.728 611.014h-12.774a1.682 1.682 0 01-1.68-1.68v-19.485a1.682 1.682 0 011.68-1.68h12.774c.927.001 1.68.752 1.68 1.68v19.485a1.682 1.682 0 01-1.68 1.68zM1190.603 611.014h-12.774a1.682 1.682 0 01-1.68-1.68v-19.485a1.682 1.682 0 011.68-1.68h12.774c.928.001 1.68.752 1.68 1.68v19.485a1.682 1.682 0 01-1.68 1.68z" fill="#FFF"/></g><g><path d="M1039.335 537.104a3.028 3.028 0 01-3.026-3.023v-14.11a3.028 3.028 0 013.026-3.024l10.757 2a3.028 3.028 0 013.025 3.024v12.11a3.028 3.028 0 01-3.025 3.023h-10.757zM1085.724 652a5.72 5.72 0 01-5.715-5.711V539.456c.004-3.153 30.836-5.452 33.991-5.456l33 11v107h-61.276z" fill="#E6E6E6"/><path fill="#F2F2F2" d="M1006.728 652l.272-118h106.624v118z"/><path d="M1029.25 537.104a3.028 3.028 0 01-3.025-3.023v-14.11a3.028 3.028 0 013.025-3.024h10.757a3.028 3.028 0 013.026 3.024v14.11a3.028 3.028 0 01-3.026 3.023h-10.757z" fill="#F2F2F2"/><path d="M1054.125 586.153h-12.773a1.682 1.682 0 01-1.681-1.68v-19.485a1.682 1.682 0 011.68-1.68h12.774c.928.002 1.68.753 1.681 1.68v19.485a1.682 1.682 0 01-1.68 1.68zM1079 586.153h-12.773a1.682 1.682 0 01-1.68-1.68v-19.485a1.682 1.682 0 011.68-1.68H1079c.927.002 1.68.753 1.68 1.68v19.485a1.682 1.682 0 01-1.68 1.68zM1054.125 621.764h-12.773a1.682 1.682 0 01-1.681-1.68V600.6a1.682 1.682 0 011.68-1.68h12.774c.928.002 1.68.753 1.681 1.68v19.485a1.682 1.682 0 01-1.68 1.68zM1079 621.764h-12.773a1.682 1.682 0 01-1.68-1.68V600.6a1.682 1.682 0 011.68-1.68H1079c.927.002 1.68.753 1.68 1.68v19.485a1.682 1.682 0 01-1.68 1.68z" fill="#FFF"/></g></g><g fill-rule="nonzero"><path d="M1327 608.626c0 19.193-11.46 25.895-25.596 25.895s-25.595-6.702-25.595-25.895c0-19.194 25.595-43.611 25.595-43.611S1327 589.432 1327 608.625z" fill="#F2F2F2"/><path fill="#CCC" d="M1300.39 631.816l.26-16.119 10.82-19.941-10.779 17.412.117-7.247 7.457-14.428-7.426 12.51.21-13.036 7.985-11.486-7.952 9.437.132-23.903-.826 31.643.068-1.306-8.118-12.519 7.988 15.025-.756 14.558-.023-.386-9.359-13.175 9.33 14.54-.094 1.82-.017.028.008.15-1.92 36.935h2.565l.307-19.078 9.308-14.503z"/><path d="M1296.657 573.718c0 34.869-10.237 47.043-22.866 47.043-12.628 0-22.866-12.174-22.866-47.043 0-34.868 22.866-79.225 22.866-79.225s22.866 44.357 22.866 79.225z" fill="#EAE9E9"/><path fill="#CCC" d="M1272.73 615.407l.23-29.015 9.574-35.895-9.537 31.344.103-13.047 6.598-25.969-6.57 22.517.185-23.463 7.066-20.676-7.036 16.986.116-43.025-.73 56.957.06-2.35-7.184-22.534 7.068 27.044-.669 26.206-.02-.696-8.28-23.714 8.255 26.172-.084 3.276-.015.05.007.269-1.698 66.484h2.269l.272-34.34 8.236-26.107z"/><g><path d="M187.075 608.626c0 19.193-11.46 25.895-25.596 25.895s-25.596-6.702-25.596-25.895c0-19.194 25.596-43.611 25.596-43.611s25.596 24.417 25.596 43.61z" fill="#F2F2F2"/><path fill="#CCC" d="M160.465 631.816l.26-16.119 10.82-19.941-10.779 17.412.117-7.247 7.456-14.428-7.425 12.51.21-13.036 7.985-11.486-7.952 9.437.132-23.903-.826 31.643.068-1.306-8.118-12.519 7.988 15.025-.757 14.558-.022-.386-9.36-13.175 9.331 14.54-.094 1.82-.017.028.008.15-1.92 36.935h2.565l.307-19.078 9.308-14.503z"/><g><path d="M156.732 573.718c0 34.869-10.238 47.043-22.866 47.043-12.629 0-22.866-12.174-22.866-47.043 0-34.868 22.866-79.225 22.866-79.225s22.866 44.357 22.866 79.225z" fill="#EAE9E9"/><path fill="#CCC" d="M132.805 615.407l.23-29.015 9.574-35.895-9.538 31.344.104-13.047 6.597-25.969-6.57 22.517.186-23.463 7.065-20.676-7.036 16.986.117-43.025-.73 56.957.06-2.35-7.184-22.534 7.068 27.044-.67 26.206-.02-.696-8.28-23.714 8.256 26.172-.084 3.276-.015.05.007.269-1.698 66.484h2.269l.272-34.34 8.235-26.107z"/></g></g><g><path d="M379.469 608.626c0 19.193-11.46 25.895-25.596 25.895s-25.596-6.702-25.596-25.895c0-19.194 25.596-43.611 25.596-43.611s25.596 24.417 25.596 43.61z" fill="#EAE9E9"/><path fill="#CCC" d="M352.86 631.816l.26-16.119 10.819-19.941-10.779 17.412.117-7.247 7.457-14.428-7.426 12.51.21-13.036 7.985-11.486-7.952 9.437.132-23.903-.826 31.643.068-1.306-8.118-12.519 7.988 15.025-.757 14.558-.022-.386-9.359-13.175 9.33 14.54-.094 1.82-.017.028.008.15-1.92 36.935h2.565l.307-19.078 9.308-14.503z"/></g><g><path d="M618.754 574.39c0 34.868-10.237 47.043-22.865 47.043-12.629 0-22.866-12.175-22.866-47.043 0-34.868 22.866-79.226 22.866-79.226s22.865 44.358 22.865 79.226z" fill="#F2F2F2"/><path fill="#CCC" d="M594.828 616.078l.23-29.014 9.573-35.895-9.537 31.343.104-13.046 6.597-25.97-6.57 22.518.186-23.464 7.065-20.675-7.036 16.986.116-43.025-.73 56.956.06-2.35-7.183-22.534 7.068 27.045-.67 26.205-.02-.695-8.28-23.714 8.256 26.171-.084 3.277-.015.05.007.269L592.267 653h2.268l.273-34.34 8.235-26.107z"/><path d="M655.743 563.183c0 39.69-13.399 53.548-29.927 53.548-16.529 0-29.927-13.858-29.927-53.548S625.816 473 625.816 473s29.927 50.492 29.927 90.183z" fill="#EAE9E9"/><path fill="#CCC" d="M624.63 610.871l.304-33.106 12.651-40.957-12.603 35.764.137-14.886 8.718-29.632-8.682 25.692v.001l.246-26.773 9.336-23.591-9.298 19.381.154-49.092-.965 64.989.08-2.681-9.493-25.713 9.34 30.859-.884 29.9-.027-.793-10.942-27.058 10.91 29.862-.111 3.74-.02.056.009.307-2.244 75.86h2.998l.36-39.183 10.882-29.789z"/><g><path d="M675.326 609.297c0 19.194-11.46 25.896-25.596 25.896s-25.595-6.702-25.595-25.896c0-19.193 25.595-43.61 25.595-43.61s25.596 24.417 25.596 43.61z" fill="#F2F2F2"/><path fill="#CCC" d="M648.716 632.488l.26-16.12 10.82-19.94-10.779 17.412.117-7.248 7.457-14.427-7.426 12.51.21-13.036 7.985-11.486-7.952 9.436.132-23.902-.826 31.642.068-1.305-8.118-12.52 7.988 15.026-.756 14.558-.023-.386-9.359-13.175 9.33 14.54-.094 1.82-.017.028.008.15L645.82 653h2.565l.307-19.078 9.308-14.504z"/></g></g></g><path d="M683.164 632.89a.672.672 0 100-1.34h-6.391v-2.682h6.39a.672.672 0 100-1.34h-54.49a.672.672 0 100 1.34h6.39v2.681h-6.39a.672.672 0 100 1.341h6.39v2.681h-6.39a.672.672 0 100 1.341h6.39v2.681h-5.718c-.743 0-1.345.6-1.345 1.341 0 .74.602 1.34 1.345 1.34h5.444a.996.996 0 00-.062.336v9.385c0 .555.452 1.005 1.01 1.005.557 0 1.008-.45 1.008-1.005v-9.385a.996.996 0 00-.061-.335h38.469a.996.996 0 00-.062.335v9.385c0 .555.452 1.005 1.009 1.005.557 0 1.01-.45 1.01-1.005v-9.385a.996.996 0 00-.063-.335h5.444c.743 0 1.345-.6 1.345-1.34 0-.741-.602-1.342-1.345-1.342h-5.718v-2.68h6.39a.672.672 0 100-1.342h-6.39v-2.68h6.39zm-47.091-4.022h39.018v2.681h-39.018v-2.68zm39.018 10.725h-39.018v-2.68h39.018v2.68zm0-4.022h-39.018v-2.68h39.018v2.68z" fill="#212C55" fill-rule="nonzero"/><g filter="url(#a)" transform="translate(628 592)"><g fill="#3F3D56" fill-rule="nonzero"><path d="M65.255 61a.671.671 0 01-.673-.67V.67c0-.37.301-.67.673-.67.371 0 .672.3.672.67v59.66c0 .37-.3.67-.672.67z"/><path d="M72.318 20.78h-14.8a1.68 1.68 0 01-1.682-1.676V4.357a1.68 1.68 0 011.682-1.676h14.8c.929.001 1.681.751 1.682 1.676v14.747a1.68 1.68 0 01-1.682 1.676z"/></g></g><g fill-rule="nonzero"><path fill="#E6E6E6" d="M0 732h1440v4H0z"/><g fill="#F2F2F2"><path d="M20 693h62.053v3H20zM225.956 693h62.053v3h-62.053zM431.82 693h62.053v3H431.82zM122.765 693h62.053v3h-62.053zM328.628 693h62.053v3h-62.053zM534.492 693h62.053v3h-62.053zM637.683 693h62.053v3h-62.053zM1049.411 693h62.053v3h-62.053zM1152.083 693h62.053v3h-62.053zM1255.274 693h62.053v3h-62.053zM1357.947 693H1420v3h-62.053zM740.356 693h62.053v3h-62.053zM843.547 693H905.6v3h-62.053zM946.219 693h62.053v3h-62.053z"/></g><path d="M1438.626 657H1.374C.615 657 0 655.88 0 654.5s.615-2.5 1.374-2.5h1437.252c.759 0 1.374 1.12 1.374 2.5s-.615 2.5-1.374 2.5z" fill="#D3D2D2"/></g><g transform="translate(447 655)" fill-rule="nonzero"><path fill="#3F3D56" d="M.387 55.938h14.655v2.307H.387z"/><path d="M121 56.455l-3.024.693-114.914.061-1.033-2.387a23.916 23.916 0 01-1.787-13.03c.495-3.298 1.735-6.574 4.552-7.997L9.894.113 73.47 0l24.597 19.674s11.603-.207 17.907 7.575c1.994 2.465 3.46 5.73 3.853 10.06l.248 4.048.925 15.098z" fill="#2FAEE5"/><ellipse fill="#3F3D56" cx="95.76" cy="55.892" rx="14.19" ry="14.071"/><ellipse fill="#CCC" cx="95.76" cy="55.892" rx="7.468" ry="7.406"/><ellipse fill="#3F3D56" cx="25.742" cy="55.929" rx="14.19" ry="14.071"/><ellipse fill="#CCC" cx="25.742" cy="55.929" rx="7.468" ry="7.406"/><path fill="#FFF" d="M88.294 17.374l-34.326.015h-4.19l-7.075.005v-.512l-.005-6.169-.005-6.927H47.4l4.19-.005 7.423-.005h4.19l8.569-.005zM37.118 17.399l-18.14.01-.006-3.53V7.71l-.005-3.91h2.656l4.19-.004 11.3-.005z"/><path fill="#3F3D56" d="M42.709 27.546h2.326v4.383h-2.326zM83.413 21.296l.001 2.307-4.42.002V21.3z"/><path d="M80.62 12.669h.255c2.685 0 4.862 2.159 4.862 4.821 0 2.663-2.177 4.821-4.862 4.821h-.256V12.67zM120.075 41.357c-3.631.392-7.02-1.863-8.033-5.344-1.012-3.48.647-7.178 3.932-8.764 1.995 2.465 3.46 5.73 3.853 10.06l.248 4.048z" fill="#3F3D56"/><path fill="#F2F2F2" d="M51.59 3.781l-8.887 13.101-.005-6.169L47.4 3.786zM25.814 3.796l-6.842 10.083V7.71l2.651-3.91zM63.203 3.776l-9.235 13.613h-4.19l9.235-13.613z"/></g><g transform="translate(894 646)" fill-rule="nonzero"><path fill="#3F3D56" d="M72.766 34.95l-8.841-.005V33.56l8.842.004z"/><path d="M0 33.873l1.824.416 69.329.037.623-1.433a14.278 14.278 0 001.078-7.818c-.299-1.979-1.047-3.944-2.746-4.798L67.03.067 28.675 0l-14.84 11.804s-7-.124-10.803 4.545a10.871 10.871 0 00-2.324 6.036l-.15 2.43L0 33.872z" fill="#625F84"/><ellipse fill="#3F3D56" cx="15.227" cy="33.535" rx="8.561" ry="8.443"/><ellipse fill="#CCC" cx="15.227" cy="33.535" rx="4.506" ry="4.444"/><ellipse fill="#3F3D56" cx="57.47" cy="33.557" rx="8.561" ry="8.443"/><ellipse fill="#CCC" cx="57.47" cy="33.557" rx="4.506" ry="4.444"/><path fill="#FFF" d="M19.732 10.424l20.709.01h2.527l4.269.003v-.308l.003-3.701.003-4.157h-2.84l-2.528-.003-4.477-.002h-2.529l-5.17-.003zM50.606 10.44l10.945.005.003-2.118V4.626l.003-2.345h-1.603l-2.528-.003-6.816-.003z"/><path d="M24.36 13.388h-.154c-1.62-.001-2.932-1.297-2.932-2.895.001-1.597 1.315-2.892 2.935-2.89h.154l-.003 5.785z" fill="#3F3D56"/><path fill="#F2F2F2" d="M41.875 2.268l5.362 7.861.003-3.701-2.837-4.157zM57.426 2.278l4.128 6.05V4.625l-1.6-2.345zM34.87 2.266l5.57 8.168h2.528l-5.57-8.168z"/></g><g transform="translate(186 646)" fill-rule="nonzero"><path fill="#3F3D56" d="M72.766 34.95l-8.841-.005V33.56l8.842.004z"/><path d="M0 33.873l1.824.416 69.329.037.623-1.433a14.278 14.278 0 001.078-7.818c-.299-1.979-1.047-3.944-2.746-4.798L67.03.067 28.675 0l-14.84 11.804s-7-.124-10.803 4.545a10.871 10.871 0 00-2.324 6.036l-.15 2.43L0 33.872z" fill="#625F84"/><ellipse fill="#3F3D56" cx="15.227" cy="33.535" rx="8.561" ry="8.443"/><ellipse fill="#CCC" cx="15.227" cy="33.535" rx="4.506" ry="4.444"/><ellipse fill="#3F3D56" cx="57.47" cy="33.557" rx="8.561" ry="8.443"/><ellipse fill="#CCC" cx="57.47" cy="33.557" rx="4.506" ry="4.444"/><path fill="#FFF" d="M19.732 10.424l20.709.01h2.527l4.269.003v-.308l.003-3.701.003-4.157h-2.84l-2.528-.003-4.477-.002h-2.529l-5.17-.003zM50.606 10.44l10.945.005.003-2.118V4.626l.003-2.345h-1.603l-2.528-.003-6.816-.003z"/><path d="M24.36 13.388h-.154c-1.62-.001-2.932-1.297-2.932-2.895.001-1.597 1.315-2.892 2.935-2.89h.154l-.003 5.785z" fill="#3F3D56"/><path fill="#F2F2F2" d="M41.875 2.268l5.362 7.861.003-3.701-2.837-4.157zM57.426 2.278l4.128 6.05V4.625l-1.6-2.345zM34.87 2.266l5.57 8.168h2.528l-5.57-8.168z"/></g><g fill-rule="nonzero"><g transform="translate(703.362 606)"><path d="M10.62 26.331a1.207 1.207 0 01-.796-.654 1.305 1.305 0 01-.033-1.059L5.38 14.186l2.523-.665 3.543 10.463c.544.29.794.959.584 1.558-.211.599-.816.938-1.41.79z" fill="#A0616A"/><path d="M6.667 17.528a.57.57 0 01-.314-.357l-.821-2.742a1.582 1.582 0 01.758-2.108 1.589 1.589 0 012.113.756l1.589 2.394a.57.57 0 01-.235.832l-2.614 1.22a.572.572 0 01-.476.005z" fill="#2C97D2"/><path d="M16.05 16.372l-2.842 1.844a.229.229 0 01-.25 0l-.768-.528a.19.19 0 01-.086-.148.186.186 0 01.072-.154l2.187-1.788a.231.231 0 01.213-.038l1.422.467a.201.201 0 01.139.158.19.19 0 01-.088.187z" fill="#3F3D56"/><path d="M15.461 16.175c.015-.044-.005-.092-.043-.11l-1.266-.51a.07.07 0 00-.075.015l-1.949 1.962-.01.013a.09.09 0 00-.013.06c.003.022.014.042.03.054l.682.579a.068.068 0 00.088-.001l2.53-2.023a.084.084 0 00.026-.04z" fill="#FFF"/><path fill="#A0616A" d="M5.38 45.972h1.366l.65-5.409H5.38z"/><path d="M5.38 45.972h2.874c.486 0 .952.207 1.296.575.344.368.537.868.537 1.389V48H5.38v-2.028z" fill="#2F2E41"/><path fill="#A0616A" d="M.672 45.972H2.04l.65-5.409H.672z"/><path d="M.672 45.972h2.875c.486 0 .952.207 1.296.575.344.368.537.868.537 1.389V48H.673v-2.028zM.224 44.47a.622.622 0 01-.155-.402C-.272 40.582.656 22.259 2.8 20.695l.013-.013 6.276-1.076.117.116c.009.161 1.15 16.222-2.001 24.418a.525.525 0 01-.49.332H5.464a.527.527 0 01-.524-.563l1.015-15.347a.175.175 0 00-.346-.05L2.751 44.087a.527.527 0 01-.474.41l-1.645.12a.528.528 0 01-.408-.149z" fill="#2F2E41"/><ellipse fill="#A0616A" cx="9.078" cy="7.099" rx="3.026" ry="3.042"/><path d="M1.547 22.846a.668.668 0 01-.202-.461l1.216-5.488c-.97-3.973.321-4.717 1.779-5.47l-.01-.005.61-1.587a.501.501 0 01.28-.324c.14-.062.3-.061.44.002l3.103 1.59c.14.075.243.2.288.35a.717.717 0 01-.01.482l-.23.597c.593.763 1.51 3.781.54 4.95l.732 3.894a.616.616 0 01-.454.655l-7.649.946a.503.503 0 01-.433-.131z" fill="#2C97D2"/><path d="M12.706 16.283a1.184 1.184 0 00-.132.133l-5.855-.37-.629-1.173-2.055.637.892 2.173c.147.361.538.59.957.56l6.66-.462c.3.383.83.556 1.33.434.498-.123.862-.516.914-.986.05-.47-.221-.921-.684-1.131a1.332 1.332 0 00-1.398.185z" fill="#A0616A"/><path d="M6.37 16.075l-2.482.8a.533.533 0 01-.43-.044.502.502 0 01-.244-.345l-.453-2.49c-.246-.73.164-1.516.917-1.757.754-.24 1.566.155 1.816.885l1.175 2.248c.068.13.074.283.016.418a.512.512 0 01-.315.285z" fill="#2C97D2"/><ellipse fill="#2F2E41" cx="7.061" cy="2.366" rx="2.354" ry="2.366"/><path d="M11.01 7.67c.22.048.447.027.655-.058a.84.84 0 00.39-.63c.42-3.005-1.961-2.757-2.243-2.888a3.107 3.107 0 01-.498-.39 2.2 2.2 0 00-1.301-.307 3.515 3.515 0 00-1.581.208 2.441 2.441 0 00-1.051 1.04c-.24.452-.416.94-.521 1.447a3.868 3.868 0 00-.089 1.776c.237.903.984 1.545 1.857 1.597-.14-.727.191-1.464.808-1.8a2.192 2.192 0 011.54-.196c.338.073.68.119 1.023.136.336.014.74.035 1.011.066z" fill="#2F2E41"/></g><g transform="translate(305 609.38)"><path fill="#F8F7F0" d="M1.011 8.91l2.896-1.68 4.118 7.17-2.896 1.682z"/><path fill="#2F2E41" d="M2.114 10.354L4.42 8.966l.031.053-2.304 1.388zM2.48 10.868L4.786 9.48l.032.054-2.304 1.388zM2.728 11.304l2.305-1.388.032.054-2.305 1.388zM3.1 11.864l2.304-1.387.032.053-2.304 1.388zM3.657 12.674l2.305-1.388.032.053-2.305 1.388zM14.41 16.315s1.594-.77 2.728-.483L14.41 8.434v-.76l3.862 9.238c.965 1.83 2.186 6 .105 6.334-2.361.38-6.611 1.805-6.611 1.805l-.945-8.261 3.59-.475z"/><path d="M5.107 13.846s-2.55-3.228-3.21-2.089c-.662 1.14 2.968 3.056 2.968 3.056l.242-.967z" fill="#FFB9B9"/><path d="M5.957 13.941l-1.038-.57s-.662 1.71-.662 1.995c0 .284 1.04.38 1.04.38l.66-1.805z" fill="#D0CDE1"/><ellipse fill="#FFB9B9" cx="9.924" cy="4.256" rx="2.456" ry="2.469"/><path d="M11.813 3.972s1.039 3.133 1.794 3.323c.756.19-2.927 1.614-2.927 1.614S9.546 6.25 8.98 5.586c-.567-.665 2.833-1.614 2.833-1.614z" fill="#FFB9B9"/><path d="M17.716 22.297c2.035-.328.912-4.325-.042-6.212.086.066.164.144.23.23.945 1.234 2.834 6.552.473 6.931-2.361.38-6.611 1.805-6.611 1.805l-.129-1.124c1.215-.392 4.227-1.332 6.079-1.63z" fill="#000" opacity=".1"/><path d="M20.974 38.628s2.36 1.9 2.172 2.09c-.189.19-2.172 3.228-3.872 3.512-1.7.285-2.456.285-2.456 0 0-.284.473-.949 1.323-1.234.85-.285.944-2.184.85-2.564-.095-.38 1.983-1.804 1.983-1.804z" fill="#2F2E41"/><path d="M13.89 24.48l1.512 7.122s6.233 7.026 6.044 7.121c-.189.095-2.078 1.994-2.455 1.994-.378 0-6.895-7.406-6.895-7.406l-2.36-6.172 4.155-2.658z" fill="#2F2E41"/><path d="M13.89 24.48l1.512 7.122s6.233 7.026 6.044 7.121c-.189.095-2.078 1.994-2.455 1.994-.378 0-6.895-7.406-6.895-7.406l-2.36-6.172 4.155-2.658z" fill="#2F2E41" opacity=".1"/><path d="M15.402 22.202s-.756 3.228-2.834 5.412c-2.077 2.184-3.022 6.647-3.022 6.647L7.47 43.186s-3.684-.475-3.495-1.424l1.983-7.881s2.267-10.92 3.495-11.679c1.228-.76 5.95 0 5.95 0z" fill="#2F2E41"/><path d="M7.28 42.426s.566 1.804.189 1.994c-.378.19-7.084.57-7.461-.76 0 0-.19-.664 1.322-.664 1.51 0 3.116-1.424 3.116-1.424l2.834.854z" fill="#2F2E41"/><path d="M10.113 8.53s2.455-2.47 3.117-2.28c.66.19.66 1.14.66 1.14s2.078.285 1.89 7.121c-.19 6.836 1.7 7.596 1.038 7.976-.66.38-8.216 2.089-8.5.38-.283-1.71-.188-8.261.567-10.35.756-2.089 1.7-3.418 1.228-3.988z" fill="#2C97D2"/><path d="M13.23 9.099s2.833 1.33 1.227 3.893c-1.605 2.563-2.833 5.317-4.533 5.222-1.7-.095-4.344-1.709-5.1-1.709-.755 0 .283-2.754.85-2.849.567-.094 3.211 1.52 3.211 1.52s.945-6.457 4.345-6.077z" fill="#2C97D2"/><path d="M11.34 4.53c-.209-.013-.413.058-.621.086-.745.099-1.519-.444-1.683-1.18a.909.909 0 00-.086-.282c-.115-.188-.376-.224-.59-.181-.216.043-.42.144-.639.156-.338.018-.662-.192-.843-.48-.18-.288-.23-.643-.206-.982l.162.17a.832.832 0 00.073-.449.517.517 0 01.492.127c.143.015.035-.267.141-.364.045-.041.113-.034.173-.033.304.003.55-.23.79-.419.415-.325.9-.548 1.417-.65.343-.067.708-.078 1.034.05.267.106.491.298.698.498.51.493.962 1.072 1.174 1.75.172.556.177 1.15.014 1.71-.086.29-.343 1.282-.72 1.305-.474.03-.19-.797-.78-.833z" fill="#2F2E41"/></g><g transform="translate(1210.85 623.577)"><path fill="#FFF" opacity=".4" d="M3.657 8.374h1.694v2.208H3.657zM9.054 10.582H7.36V8.374h1.694zM3.657 11.907h1.694v2.208H3.657zM3.657 15.44h1.694v2.208H3.657zM3.657 18.974h1.694v2.208H3.657z"/><path d="M7.568 27.132s.213 1.802.565 2.076 1.351 1.193.81 1.214c-.542.02-2.448-.29-2.448-.29l-.246-.473-.44.18-.42-.067-.376-1.684s-.529-.952.215-1.336c.744-.384 2.34.38 2.34.38z" fill="#3A384D"/><path d="M5.78 12.359s1.478 4.422 1.422 4.99c0 0 .542 1.098-.055 2.805-.598 1.706-.063.386-.063.386s-.057 5.041.353 5.396l.24 1.41s-2.305.275-2.693-.438c0 0 .3-.528.006-2.27-.293-1.744-.86-5.585-.86-5.585L2.597 10.29l3.183 2.068z" fill="#000" opacity=".1"/><path d="M5.786 12.324s1.478 4.424 1.422 4.992c0 0 .542 1.098-.056 2.805-.597 1.706-.063.387-.063.387s-.056 5.04.353 5.395l.24 1.41s-2.305.275-2.692-.437c0 0 .3-.528.006-2.272-.294-1.743-.86-5.586-.86-5.586l-1.534-8.763 3.184 2.069z" fill="#BEC7DE"/><path d="M2.983 10.485l1.503 8.59s.564 3.843.86 5.586c.296 1.743-.006 2.271-.006 2.271.113.208.387.331.72.402-.467-.055-.888-.183-1.035-.453 0 0 .3-.528.007-2.271-.294-1.743-.86-5.586-.86-5.586L2.636 10.26l.346.224z" fill="#000" opacity=".1"/><path d="M2.96 26.564s.212 1.802.564 2.076c.353.274 1.351 1.193.81 1.213-.542.02-2.448-.289-2.448-.289l-.246-.473-.44.181-.42-.069-.376-1.684s-.528-.951.215-1.335c.743-.385 2.34.38 2.34.38z" fill="#3A384D"/><path d="M5.78 12.359s1.478 4.422 1.422 4.99c0 0 .542 1.098-.055 2.805-.598 1.706-.063.386-.063.386s-.057 5.041.353 5.396l.24 1.41s-2.305.275-2.693-.438c0 0 .3-.528.006-2.27-.293-1.744-.86-5.585-.86-5.585L2.597 10.29l3.183 2.068z" fill="#2F2E41" opacity=".925"/><path d="M1.097 8.46s-1.645.634-.76 2.942c0 0 1.328 2.452 1.42 3.442l1.682 3.375s-1.793 3.569-1.873 5.179c0 0-.24 2.162-1.207 3.05 0 0 2.081 1.781 2.856.753 0 0-.232-1.228.47-2.918.702-1.69 1.535-3.969 1.535-3.969s2.014-1.368.672-4.183L4.386 9.862l-.025-1.41-1.155-.404-2.11.412z" fill="#000" opacity=".1"/><path d="M1.021 8.483s-1.644.635-.76 2.943c0 0 1.328 2.452 1.42 3.442l1.683 3.375s-1.794 3.568-1.872 5.179c0 0-.24 2.16-1.209 3.05 0 0 2.082 1.781 2.858.753 0 0-.234-1.229.469-2.918a117.628 117.628 0 001.535-3.971s2.014-1.369.672-4.184L4.311 9.884l-.024-1.411-1.155-.404-2.11.414z" fill="#000" opacity=".1"/><path d="M1.027 8.448s-1.645.636-.76 2.943c0 0 .976 1.801 1.312 2.939.147.489.336.963.565 1.419l1.225 2.46s-1.793 3.57-1.872 5.18c0 0-.24 2.161-1.209 3.05 0 0 2.082 1.78 2.858.752 0 0-.234-1.228.469-2.917.702-1.69 1.535-3.972 1.535-3.972s2.014-1.368.672-4.183L4.316 9.85l-.024-1.41-1.155-.404-2.11.412z" fill="#2F2E41"/><path d="M1.027 8.448l2.112-.414.275.096-1.967.386s-1.645.635-.76 2.943c0 0 .975 1.8 1.312 2.938.147.49.336.964.565 1.42l1.226 2.46s-1.796 3.568-1.874 5.178c0 0-.24 2.161-1.208 3.05 0 0 .897.767 1.732 1.004-.92-.02-2.152-1.073-2.152-1.073.969-.888 1.209-3.05 1.209-3.05.079-1.61 1.872-5.179 1.872-5.179l-1.225-2.46a8.798 8.798 0 01-.565-1.42C1.243 13.192.267 11.39.267 11.39c-.885-2.305.76-2.94.76-2.94z" fill="#000" opacity=".1"/><path d="M7.804 12.94l-1.31 2.565s.385 3.417-.349 3.514c-.734.097-.44-3.75-.44-3.75l.707-3.277 1.392.948zM14.963 14.608l.936 4.445s2.298 3.115.672 2.742c-1.627-.372-1.717-2.048-1.717-2.048l-1.569-5.414 1.678.275zM15.896 5.453L13.58 6.916l-.826-2.226s1.917.131 2.14-.59c.223-.721 1.002 1.353 1.002 1.353z" fill="#BE7C5E"/><path fill="#BE7C5E" d="M14.707 6.378l-.148-.638-2.283.135-.919 3.71 1.713.062.959-1.503.522-1.467z"/><path d="M13.917 5.709l.189-1.07s-4.224.053-5.169 1.018c-.944.965-3.26 1.31-3.26 1.31l-3.857.78-1.349.575s.38 1.432.544 1.531c.163.1 1.984-1.41 1.984-1.41l.69.185-2.248 2.376 4.15 4.101.076-2.26.531-.417s1.264 1.072 1.827.91l.71-1.292s1.47-.88 1.889-.811c.39.063 1.616-.208 2.09-.721a.899.899 0 00.09-.115c.381-.588.224 3.066.224 3.066l-.214 1.336 2.288.047-.46-2.275s.024-2.377.136-3.297c.112-.92.314-2.185-.096-2.974l-.806.771-1.402 2.263.532-1.97.911-1.657z" fill="#000" opacity=".1"/><path d="M13.93 5.638l-.2-1.097s-3.835.08-4.78 1.045c-.944.965-3.263 1.31-3.263 1.31l-3.857.78-1.343.576s.38 1.432.544 1.53c.163.1 1.985-1.408 1.985-1.408l.69.184-2.248 2.376 4.15 4.101.076-2.26.533-.419s1.263 1.073 1.827.91l.71-1.29s1.46-.88 1.883-.81c.391.063 1.616-.208 2.09-.721a.899.899 0 00.09-.116c.381-.587.224 3.067.224 3.067l-.214 1.336 2.288.047-.459-2.275s.023-2.377.135-3.297c.112-.919.314-2.185-.096-2.973l-.806.768-1.404 2.26.533-1.97.911-1.654z" fill="#2C97D2"/><path d="M9.094 7.035S6.809 8.973 6.57 10.016M11.589 8.705s-1.758 1.338-2.071 2.188M6.457 10.72s-.165.802-.198 1.23M5.622 12.567s-2.632-2.375-3-2.327M14.922 4.14c.214-.69.937 1.181.997 1.342a2.045 2.045 0 01-1.57-.893c.281-.089.506-.23.573-.449z" fill="#000" opacity=".1"/><ellipse fill="#BE7C5E" cx="16.014" cy="3.38" rx="2.055" ry="2.066"/><path d="M17.683 3.678c.161.267.308.556.557.743.25.187.642.229.849-.004a.721.721 0 00.148-.322c.152-.65-.114-1.325-.458-1.898-.416-.688-.967-1.311-1.667-1.704-.7-.392-1.56-.532-2.318-.27-.759.26-1.381.959-1.444 1.761-.034.41.069.829-.016 1.232-.044.21-.139.41-.15.625-.02.398.251.768.227 1.166-.015.246-.14.468-.217.702-.188.564-.086 1.178-.125 1.771-.039.594-.297 1.259-.862 1.434.625.315 1.486-.016 1.74-.671.077-.2.105-.422.223-.602.198-.303.61-.422.777-.744.166-.322.022-.714-.16-1.026-.182-.312-.41-.627-.413-.988a.87.87 0 01.565-.809c.17-.06.356-.063.536-.083a2.832 2.832 0 001.245-.478c.483-.317.612-.416.963.165z" fill="#000" opacity=".1"/><path d="M17.696 3.588c.161.267.308.556.557.743.25.188.642.23.849-.003a.724.724 0 00.148-.322c.152-.65-.114-1.325-.458-1.899-.416-.689-.967-1.31-1.667-1.703-.7-.393-1.56-.531-2.318-.27-.758.26-1.522.968-1.589 1.77-.034.41.015.6-.07 1.003-.043.21.059.631.048.845-.02.398.251.768.227 1.166-.015.246-.14.468-.217.702-.188.564-.086 1.178-.125 1.771-.039.594-.297 1.258-.862 1.433.625.316 1.486-.016 1.74-.671.077-.2.105-.421.223-.6.198-.303.61-.423.777-.745.166-.322.022-.714-.16-1.027-.181-.312-.41-.626-.413-.988a.87.87 0 01.564-.808c.172-.06.357-.063.537-.083a2.84 2.84 0 001.245-.478c.485-.319.615-.416.964.164z" fill="#723647"/><path d="M14.303 4.925l-.87-.142a.125.125 0 01.039-.246l.871.142a.125.125 0 01-.04.246z" fill="#252A62"/><path d="M11.636 22.22c.014.988.843 1.767 1.826 1.767h.137c.12 0 .237.046.323.13a.451.451 0 01.132.232c.009.035.014.072.013.109v1.744c0 .336.095.664.275.947.262.4.404.867.41 1.346a.835.835 0 00.852.842c.46-.008.82-.406.82-.868v-.436l.228.026v.438a.834.834 0 00.852.84c.46-.008.82-.406.82-.868v-.221c.227.096 1.52.096 1.878 0l.097-.008v.253c0 .226.09.443.25.602.16.159.377.246.602.242.46-.008.82-.406.82-.868v-.362l.076-.007v.397c0 .226.091.442.251.6.16.157.377.244.601.24a.853.853 0 00.824-.868v-1.825c0-.627-.209-1.236-.593-1.729a.52.52 0 01-.015-.612c.426-.626 1.055-1.684 1.034-2.433a.823.823 0 00-.199-.555l-.025-.027c-.612-.645-1.69-.138-1.597.749a2.519 2.519 0 01-.234 1.362.802.802 0 01-.82.458 2.784 2.784 0 00-.343-.02h-3.514a.988.988 0 01-.989-.994v-2.75a.536.536 0 00-.548-.536.518.518 0 00-.367.173.575.575 0 00-.148.384.283.283 0 01-.282.284h-1.661c-.479 0-.937.193-1.273.535a1.8 1.8 0 00-.513 1.287z" fill="#2F2E41"/><path d="M22.076 28.706a.838.838 0 00.826.631.853.853 0 00.816-.75c-.512-.137-1.214-.232-1.642.119zM20.325 28.706a.839.839 0 00.826.631.852.852 0 00.813-.75c-.506-.137-1.206-.232-1.639.119zM16.679 28.706a.838.838 0 00.826.631.853.853 0 00.815-.75c-.512-.137-1.212-.232-1.641.119zM14.777 28.706a.838.838 0 00.827.631.852.852 0 00.812-.75c-.506-.137-1.208-.232-1.639.119zM22.26 22.923c.59-.238 1.311-.675 1.883-1.053a.823.823 0 00-.199-.555l-.025-.027c-.612-.645-1.69-.138-1.597.749.032.297.011.597-.062.886zM21.546 23.841s-1.626 2.059-4.287-.005M16.423 20.016s-.987 1.3 0 2.902M14.067 24.448s.87 1.086.012 1.95" fill="#7C7B8C"/><path d="M13.992 24.218c.062.063.042.12.062.21l2.824-.744c-.152-.118-.34-.258-.403-.442-.337.262-1.007.705-2.484.976z" fill="#000" opacity=".1"/><path d="M13.922 24.12a.451.451 0 01.132.231l2.754-.722a.99.99 0 01-.331-.466c-.34.265-1.078.685-2.555.957z" fill="#383F4D"/><path d="M16.373 23.316s-.862.652-2.306.854" fill="#000" opacity=".1"/><path d="M16.373 23.24s-.862.651-2.306.853" fill="#FFF"/><path d="M14.22 23.301s-1.444.46-1.824-.993l1.823.993z" fill="#000" opacity=".1"/><path d="M14.22 23.225s-1.444.459-1.824-.993l1.823.993z" fill="#7C7B8C"/><circle fill="#383F4D" cx="11.636" cy="22.041" r="1"/><path d="M23.149 27.542l-.304-2.445s.912 1.451.304 2.445" fill="#000" opacity=".1"/><path d="M22.77 25.097s.911 1.451.303 2.445l-.304-2.445z" fill="#7C7B8C"/></g><g transform="matrix(-1 0 0 1 443.08 607.352)"><ellipse fill="#2F2E41" cx="14.356" cy="4.89" rx="2.999" ry="3.015"/><path d="M10.093 23.153l-.454.914s-1.455 2.377-.455 2.651c1 .275 1.319-1.782 1.319-1.782l.181-1.098-.59-.685z" fill="#A0616A"/><path fill="#2C97D2" d="M11.912 18.49l-1.137 3.017L9.64 23.61l1.41.914 1.136-2.011 1.364-3.154z"/><path d="M15.14 32.615l2.273 2.423 4.001 6.81 1.728-.548-2.046-4.068s-1.182-3.109-1.773-3.52c-.591-.411-1.591-3.108-1.591-3.108l-1.091-.869-1.5 2.88zM10.457 33.94l-.182.778s-.59 2.422-1.5 3.52L6.593 42.03l-1.637-.548 3.228-7.68 2.273.137z" fill="#A0616A"/><ellipse fill="#A0616A" cx="13.844" cy="5.943" rx="2.455" ry="2.468"/><path d="M15.777 7.154l.318 2.651-2.046 1.006s0-2.285-.546-2.88l2.274-.777zM22.187 24.25l.228.777s1.5 2.971.227 2.971-1.5-2.742-1.5-2.742l-.137-.686 1.182-.32z" fill="#A0616A"/><path d="M11.73 21.142l.318 2.24-3.864 8.182-.227 2.376 7.229.915 1.59-4.434 2.547 3.29-1.455-3.382s-.455-2.285-.318-2.88c.136-.594-.091-3.565-.5-4.296-.41-.732-5.32-2.011-5.32-2.011zM21.142 41.848l2.182-.731.682 1.097s1.319.366 1.273 1.326c.006.873.082 1.744.227 2.605l-.954.091-.364-1.874-1.864 2.24s-3.32.183-3.456-.366c-.136-.548 2.365-1.142 2.365-1.142l.409-1.966-.5-1.28zM4.82 41.208l2 .64v.457s.59.915.5 1.692c-.09.777-.5 2.65-.5 2.65H5.774l.046-1.736-2.092 1.737S0 46.374 0 45.779c0-.594 2.864-1.005 2.864-1.005l1.955-3.566z" fill="#2F2E41"/><path d="M13.913 10.263s1.864-1.875 2.728-1.417v.822s1.273.595 1.318 1.509c.045.914 1.364 9.233 1.364 9.233l3.092 10.834s-.955 1.508-4.456-.183l-2.182-7.451s2.318 8.41 1.182 8.273c-1.137-.137-5.593-10.559-5.593-10.559l.319-4.936s-.728-2.149.727-3.611l1.5-2.514z" fill="#2C97D2"/><path d="M17.095 10.537s.773.274 1.319 1.463c.545 1.188 3.273 9.553 3.273 9.553l.728 2.971-2.046.503-1-3.063-3.729-6.948s-.59-3.656 1.455-4.48z" fill="#2C97D2"/><path d="M16.916 3.974a1.734 1.734 0 00-.812-1.41c.25-.503.472-1.078.308-1.616a1.23 1.23 0 00-.925-.832 2.396 2.396 0 00-.718.01l-1.12.127a2.437 2.437 0 00-1.05.284 1.224 1.224 0 00-.141 1.963c-.784.63-1.308 1.109-1.664 2.052a3.359 3.359 0 012.117-.762c1.09-.059 2.03.765 2.12 1.86-.005.263.018.527.068.786.06.266.295.455.566.453-.036.005-.258-.666-.101-.975l.002-.005a.293.293 0 01.16-.137.456.456 0 01.609.32c.087.336.226.764.347.65.16-.148.093-1.462.136-1.665.085-.361.118-.733.098-1.103z" fill="#2F2E41"/><path d="M16.092 2.556s-2.465.161-3.643-.054" fill="#D0CDE1"/><path d="M15.952 2.224c.25-.503.472-1.079.308-1.617A1.221 1.221 0 0015.83 0c.313.145.552.415.657.745.165.538-.058 1.113-.308 1.617-.198-.03.27.129-.227-.138z" fill="#2F2E41"/><path fill="#000" opacity=".2" d="M15.163 15.04l3.546 6.307 1.364 3.429-1.91-3.292z"/></g><g transform="translate(1024.79 607.352)"><path d="M12.858 34.37s0 6.577 1.502 8.303c0 0 .322.863.429 1.186.06.184.132.364.214.54v.43s2.897-.323 3.218-1.078l-.536-.647s-.107-.108 0-.431a.223.223 0 00-.012-.226.22.22 0 00-.202-.098l-.751-1.725.107-7.117-.536-9.814-4.613-.216 1.18 10.892z" fill="#2F2E41"/><path d="M15.218 44.183s-.75 2.264 0 2.372c.75.108 7.294.216 7.187-.647-.108-.863-2.253-.755-2.253-.755L17.9 43.751l-2.682.432zM8.568 23.693a4.915 4.915 0 00.643 2.912c.858 1.51.322 6.578.322 6.578l-7.616 6.686s1.502 2.588 2.038 2.48c.537-.108 9.01-7.01 9.01-7.01l3.326-11.214-7.723-.432z" fill="#2F2E41"/><path d="M2.022 39.583s-2.304.575-1.993 1.27c.311.696 3.723 6.31 4.39 5.757.668-.553-.57-2.317-.57-2.317l-.029-2.664-1.798-2.046z" fill="#2F2E41"/><ellipse fill="#FFB8B8" cx="12.751" cy="3.635" rx="2.467" ry="2.48"/><path d="M10.81 4.51l.109 3.192 2.076.825s.203-3.269.49-3.45c.288-.18-2.675-.567-2.675-.567z" fill="#FFB8B8"/><path d="M13.502 8.92s-2.896-2.912-3.647-2.805c-.751.108-.751.432-.751.647 0 .216.215.324 0 .432-.215.108-.429 0-.429.323 0 .324-1.93 3.559-1.287 7.118.643 3.558 1.394 5.284 1.072 7.225-.321 1.941-.107 2.372-.107 2.372s8.045.647 8.152-.107c.107-.755-.322-.324.215-.863.536-.54.321-.54.321-.863 0-.323-2.36-13.48-3.54-13.48z" fill="#2C97D2"/><path d="M12 23.585s1.287 3.128 2.253 2.373c.965-.755-.43-3.343-.43-3.343l-1.823.97z" fill="#FFB8B8"/><path d="M8.89 9.135s-2.52.29-1.582 4.944 4.585 10.046 4.585 10.046l2.467-1.187-3.218-6.362.75-3.99s.43-3.775-3.003-3.451z" fill="#2C97D2"/><path fill="#000" opacity=".2" d="M11.088 16.63l3.54 5.93-.322.324zM9.215 19.394l2.839 4.677h-.966z"/><path d="M11.634 5.126c.21-.086.427-.15.648-.195a1.705 1.705 0 001.126-1.91.98.98 0 01-.04-.315.6.6 0 01.498-.441c.235-.028.467-.072.695-.133.339-.154.572-.476.613-.848a1.759 1.759 0 00-.233-1.056l-.083.24a.891.891 0 01-.271-.407.56.56 0 00-.426.344c-.133.079-.152-.246-.3-.293a.263.263 0 00-.183.045c-.297.14-.642.02-.96-.057A3.594 3.594 0 0011.04.098a2.004 2.004 0 00-.991.513 2.394 2.394 0 00-.464.8 4.637 4.637 0 00-.374 2.242 3.18 3.18 0 00.743 1.68c.213.247.905 1.104 1.285.958.477-.184-.168-.867.394-1.165z" fill="#2F2E41"/><path fill="#000" opacity=".2" d="M12.805 35.333l2.823-7.44.142.055-2.822 7.44z"/><circle fill="#D0CDE1" cx="13.487" cy="9.358" r="1"/><path fill="#D0CDE1" d="M13.487 9.358l1.297 4.219M14.784 13.653a.076.076 0 01-.073-.054l-1.297-4.218a.076.076 0 11.146-.045l1.296 4.218a.077.077 0 01-.072.1z"/></g><g transform="translate(582.995 607.352)"><path d="M7.131 24.704c.188-.218.285-.523.263-.833a1.1 1.1 0 00-.376-.77l-.453-3.495-1.858.685 1.018 3.118c-.238.456-.147 1.049.212 1.38.359.33.872.294 1.194-.085z" fill="#FFB8B8"/><path d="M5.355 22.986l-1.244-6.08a3.585 3.585 0 01.95-3.256c1.593-1.605 3.64-3.63 4.347-4.153a3.532 3.532 0 012.281-.704l.017.002 1.07 1.058-2.331 4.016-3.54 2.32.394 5.96-1.944.837z" fill="#2C97D2"/><rect fill="#CCC" x="4.035" y="14.197" width="6.052" height="1" rx=".5"/><rect fill="#CCC" x="4.035" y="23.662" width="6.052" height="1" rx=".5"/><path d="M6.76 46.648a.203.203 0 01-.197-.191L4.035 15.102a.215.215 0 01.084-.19.19.19 0 01.198-.019.21.21 0 01.113.172l2.327 28.97 2.261-28.97a.21.21 0 01.114-.172.19.19 0 01.198.018c.058.043.09.116.083.19L6.958 46.457a.203.203 0 01-.197.192z" fill="#CCC"/><ellipse fill="#FFB8B8" cx="12.776" cy="4.732" rx="2.69" ry="2.704"/><path fill="#FFB8B8" d="M4.569 45.296l-1.207-.398.91-5.01 1.78.587z"/><path d="M4.846 46.648L.672 45.255l.035-.114c.276-.904 1.2-1.403 2.064-1.116l2.609.87-.534 1.753z" fill="#2F2E41"/><path fill="#FFB8B8" d="M14.794 45.296h-1.367l-.65-5.409h2.017z"/><path d="M10.76 46.648h4.034v-1.352h-2.547c-.821 0-1.487.602-1.488 1.343v.009zM14.578 43.938l-.472-.069a7.244 7.244 0 01-1.748-.321c-.116-.05-.124-.81-.054-5.083.051-3.135.115-7.038-.009-9.133a.375.375 0 00-.717-.124c-1.067 2.426-2.856 7.855-4.04 11.448-.413 1.25-.738 2.237-.944 2.829a.485.485 0 01-.573.305c-.974-.24-.91-.342-2.297-.696a.472.472 0 01-.351-.556c.25-1.166 4.846-20.074 5.197-21.87a.474.474 0 01.205-.305.487.487 0 01.363-.072c1.034.205 1.664.423 2.686.634 1.103.227 2.244.462 3.357.681.11.022.21.082.28.17.31.326.691.578 1.116.737.29.138-.37.125-.116.323 1.028.801-.45 17.07-1.343 20.745a.483.483 0 01-.54.357zM14.22 6.72c-.155-.664.63-2.096.475-2.76-.105-.451-1.154-.145-1.399-.536a1.406 1.406 0 00-1.113-.713c-.527-.006-1.045.388-1.544.218a1.013 1.013 0 01-.443-1.358c.268-.471.682-.838 1.179-1.044a3.528 3.528 0 012.614-.444c.513.2.983.499 1.384.878.402.3.756.663 1.048 1.074a2.91 2.91 0 01.045 2.83 4.226 4.226 0 01-2.18 1.896" fill="#2F2E41"/><path d="M7.452 22.893c.295-.495.744-2.816 1.296-6.712.376-2.66.704-5.361.867-6.742a.664.664 0 01.371-.523c.106-.052.21-.1.315-.146a7.189 7.189 0 017.697 1.087l.012.011.003.017c.006.03.57 3.088-.586 5.154-1.141 2.039-1.155 7.437-1.155 7.492v.069l-.066-.02c-1.776-.509-8.633.383-8.702.392l-.107.014.055-.093z" fill="#2C97D2"/><rect fill="#CCC" x="12.104" y="15.549" width="6.052" height="1" rx=".5"/><rect fill="#CCC" x="12.104" y="25.014" width="6.052" height="1" rx=".5"/><path d="M15.502 46.648a.203.203 0 01-.197-.19l-2.528-30.004a.206.206 0 01.18-.227c.11-.01.205.075.215.19L15.5 44.042l2.261-27.625a.21.21 0 01.113-.172.19.19 0 01.198.018c.059.043.09.116.084.19L15.7 46.457a.203.203 0 01-.198.19z" fill="#CCC"/><path d="M13.473 25.535a1.058 1.058 0 01.19-.863c.186-.244.469-.393.773-.405l2.295-2.633 1.425 1.75-2.64 1.96c-.013.531-.416.969-.938 1.018a1.036 1.036 0 01-1.105-.827z" fill="#FFB8B8"/><path d="M14.794 23.879l3.61-4.787-1.862-3.966.135-4.705 1.526-.28.016.008a3.826 3.826 0 011.632 1.891c.34.843 1.042 3.71 1.573 5.968a3.475 3.475 0 01-.942 3.278l-4.427 4.404-1.261-1.811z" fill="#2C97D2"/><path d="M.012 45.5l4.787 1.134a.412.412 0 00.476-.219L9.387 35.65a.327.327 0 000-.263.379.379 0 00-.22-.201L5.57 33.83a.439.439 0 00-.353.02.363.363 0 00-.192.231l-2.54 9.49-.038.002a3.516 3.516 0 00-2.126.873 1.354 1.354 0 00-.308 1.052z" fill="#FFF"/><path fill="#B3B3B3" d="M3.387 39.653l.022-.21 4.39.467-.022.21zM3.457 40.969l.086-.193 3.533 1.597-.086.192zM7.988 37.86l-3.953-1.188.082-.165 3.952 1.187zM8.66 37.183l-3.953-1.851.082-.177 3.953 1.851zM2.84 42.93l.136-.161 3.002 2.576-.136.161zM1.555 43.451l.191-.087 1.206 2.67-.192.088z"/></g><g transform="translate(982.495 609.38)"><path d="M2.195 10.855c.343.083.63.301.781.597.152.295.153.636.004.932l3.072 2.72-2.164.445-2.586-2.65c-.537-.27-.77-.865-.543-1.386.228-.521.845-.804 1.436-.658z" fill="#FFB8B8"/><path d="M6.54 17.928l-3.685-3.271a.483.483 0 01-.165-.351.48.48 0 01.15-.357l.753-.721a.545.545 0 01.689-.045l3.088 2.233 1.926-4.421c.154-.353.455-.63.832-.765a1.534 1.534 0 011.158.052c.58.265.905.86.798 1.462-.35 2.01-2.468 4.67-3.699 6.075a1.32 1.32 0 01-1.846.109z" fill="#2C97D2"/><path d="M4.835 15.443l-2.776-4.162a.251.251 0 01.061-.341l.111-.08a.231.231 0 01.331.063l2.776 4.162a.252.252 0 01-.061.342l-.112.079a.233.233 0 01-.33-.063z" fill="#FFF"/><path d="M3.628 15.265l-2.174-3.369a.688.688 0 01.157-.916l.222-.163 2.874 4.453-.221.163a.593.593 0 01-.858-.168z" fill="#3F3D56"/><path fill="#FFB8B8" d="M4.086 42.592l-1.396-.156.185-5.253 1.832.205z"/><path d="M4.498 43.944L0 43.45l.007-.054c.053-.441.289-.844.655-1.12a1.83 1.83 0 011.298-.35l2.747.3-.209 1.717z" fill="#2F2E41"/><path fill="#FFB8B8" d="M20.173 41.514l-1.26.401L16.81 37.1l1.86-.592z"/><path d="M20.846 43.15l-4.606 1.47-.018-.06a1.994 1.994 0 01.134-1.477c.232-.454.63-.795 1.105-.946l2.813-.898.572 1.912zM2.424 41.91a.577.577 0 01-.386-.704l.85-9.778c.04-.446.18-.877.41-1.261l5.145-8.533 4.604.827.03.012c2.238 1.37 4.224 8.01 6.146 14.433.299.999.607 2.032.909 3.019a.581.581 0 01-.312.749l-1.394.586a.577.577 0 01-.733-.256l-7.167-13.112a.115.115 0 00-.089-.06.112.112 0 00-.1.039L6.18 32.574 4.65 41.538l-.006.02a.58.58 0 01-.684.329l-1.5.028h-.009l-.027-.005z" fill="#2F2E41"/><path d="M7.754 22.723l-.028-.01-.009-.029c-.02-.07-2.067-7.155-.223-11.671l.002-.004c.054-.108 1.34-2.637 2.835-2.89l.04-.006.485.929c.153.157 2.783 2.95 1.59 7.751.106.394 1.558 5.799.769 6.607a1.424 1.424 0 01-.986.253 19.506 19.506 0 01-4.475-.93z" fill="#2C97D2"/><ellipse fill="#2F2E41" cx="10.087" cy="3.38" rx="3.362" ry="3.38"/><ellipse fill="#FFB8B8" cx="8.742" cy="4.056" rx="2.69" ry="2.704"/><path d="M10.738 6.666c-.26.088-.577.166-.781-.017a.643.643 0 01-.046-.747 3.32 3.32 0 00.355-.717 1.084 1.084 0 00-.422-1.011 3.17 3.17 0 00-1.029-.498l-1.988-.679a2.308 2.308 0 01-1.298-.808c-.344-.7-.076-1.537.62-1.929A2.617 2.617 0 018.332.219c.38.17.768.32 1.165.447.796.202 1.701.021 2.401.453.6.437.928 1.137.871 1.858a5.572 5.572 0 01-.585 2.056c-.152.397-.37.767-.648 1.095-.277.325-.7.5-1.136.47l.337.068z" fill="#2F2E41"/><ellipse fill="#2F2E41" cx="13.113" cy="2.366" rx="2.354" ry="2.366"/><path d="M9.523 5.033c0-.151.085-.279.198-.298.114-.02.22.075.25.221.028.146-.03.298-.135.355v.66c0 .04-.016.078-.043.098a.068.068 0 01-.085 0 .123.123 0 01-.043-.098v-.66c-.086-.046-.142-.156-.142-.278z" fill="#FFF"/><path d="M2.393 13.527c.339-.034.675.085.918.324.243.24.368.575.342.917l3.744 1.644-1.78 1.165-3.282-1.74a1.161 1.161 0 01-.99-1.18 1.16 1.16 0 011.048-1.13z" fill="#FFB8B8"/><path d="M9.06 19.504l-4.702-1.983a.529.529 0 01-.277-.706l.444-.99a.527.527 0 01.635-.289l3.752 1.152.179-5.12a1.48 1.48 0 01.502-1.062c.307-.269.71-.398 1.115-.358a1.465 1.465 0 011.298 1.187c.417 2.143-.598 5.56-1.24 7.407-.18.516-.665.862-1.209.864-.17 0-.34-.035-.497-.102z" fill="#2C97D2"/></g></g><g transform="translate(1054 654)" fill-rule="nonzero"><ellipse fill="#F2F2F2" cx="77.239" cy="57.855" rx="20.149" ry="4.709"/><path d="M133.993 55.163h-1.027c-.007-.124-1.385-3.364-1.385-3.364l-.833-2.018-.55-1.346-.833-2.018-.954-2.321a.476.476 0 00-.927 0l-.953 2.32-.833 2.02-.55 1.345-.834 2.018s-1.378 3.24-1.385 3.364h-1.026a1.008 1.008 0 000 2.019h12.09a1.008 1.008 0 000-2.019z" fill="#FF6584"/><path fill="#F2F2F2" d="M130.299 48.436h-4.702l.87-2.018h2.961zM131.642 51.8h-7.388l.846-2.018h5.695z"/><path d="M82.036 71.477h-1.27c-.009-.156-1.715-4.205-1.715-4.205l-1.031-2.523-.682-1.682-1.031-2.523-1.181-2.902a.59.59 0 00-.574-.46.59.59 0 00-.573.46l-1.181 2.902-1.032 2.523-.681 1.682-1.032 2.523s-1.706 4.05-1.714 4.205h-1.27c-.69 0-1.248.565-1.248 1.261 0 .697.558 1.262 1.247 1.262h14.968c.69 0 1.248-.565 1.248-1.262 0-.696-.559-1.261-1.248-1.261z" fill="#FF6584"/><path fill="#F2F2F2" d="M77.91 63.236h-6.044l1.118-2.69h3.808zM79.254 67.273H69.85l1.077-2.691h7.248z"/><g><path d="M39.051 71.477h-1.27c-.009-.156-1.715-4.205-1.715-4.205l-1.031-2.523-.682-1.682-1.031-2.523-1.181-2.902a.59.59 0 00-.574-.46.59.59 0 00-.574.46l-1.18 2.902-1.032 2.523-.681 1.682-1.032 2.523s-1.706 4.05-1.714 4.205h-1.27c-.69 0-1.248.565-1.248 1.261 0 .697.558 1.262 1.247 1.262h14.968c.69 0 1.248-.565 1.248-1.262 0-.696-.559-1.261-1.248-1.261z" fill="#FF6584"/><path fill="#F2F2F2" d="M34.925 63.236h-6.044l1.118-2.69h3.808zM36.269 67.273h-9.403l1.077-2.691h7.248z"/></g><g><path d="M13.097 53.145h-1.026c-.007-.124-1.385-3.364-1.385-3.364l-.833-2.018-.55-1.346-.834-2.018-.953-2.322a.476.476 0 00-.927 0L5.635 44.4l-.833 2.018-.55 1.346-.833 2.018s-1.378 3.24-1.385 3.364H1.007a1.008 1.008 0 000 2.019h12.09a1.008 1.008 0 000-2.019z" fill="#FF6584"/><path fill="#F2F2F2" d="M9.403 46.418H4.701l.87-2.018h2.962zM10.746 49.782H3.358l.847-2.018H9.9z"/></g><g transform="translate(47.687)"><path d="M12.761 12.782H6.045v-2.223c2.122-1.61 4.003-1.47 6.476.13l.24 2.093z" fill="#2C97D2"/><path fill="#FFB8B8" d="M2.949 49.782l.738-6.055H4.7v6.055z"/><path d="M4.701 51.8H0v-.064c0-.518.193-1.015.536-1.382a1.773 1.773 0 011.294-.572h2.871V51.8z" fill="#2F2E41"/><path fill="#FFB8B8" d="M13.434 49.782h1.752l.262-6.055h-2.015z"/><path d="M12.761 49.782h2.872c.485 0 .95.206 1.294.572.343.367.536.864.536 1.382v.064H12.76v-2.018zM13.517 49.11a.558.558 0 01-.542-.438L9.227 32.24a.18.18 0 00-.18-.145h-.001a.18.18 0 00-.18.147L5.424 48.563a.558.558 0 01-.543.443h-1.64a.554.554 0 01-.553-.591l1.22-20.687.492-.146h.01l9.651.085 2.056 20.664a.56.56 0 01-.508.61l-2.048.166a.558.558 0 01-.044.002z" fill="#2F2E41"/><ellipse fill="#FFB8B8" cx="9.067" cy="5.718" rx="3.022" ry="3.027"/><path d="M7.03 29.6a5.088 5.088 0 01-1.543-.22 3.418 3.418 0 01-2.066-1.763.558.558 0 01-.04-.412c.328-1.134 1.915-7.028.902-11.714a5.012 5.012 0 01.698-3.816 4.847 4.847 0 013.145-2.14c.168-.032.337-.06.502-.08 1.43-.178 2.865.3 3.912 1.302a5.037 5.037 0 011.555 3.969l-.779 12.634a.547.547 0 01-.29.454c-.897.475-3.59 1.786-5.995 1.786z" fill="#3F3D56"/><path d="M12.743 3.068c-.63-1.665-2.28-2.64-3.96-2.342l.928.789c-1.153.04-2.366-.046-3.189.804.262-.008.605.582.867.574-.499.037-.94.357-1.15.835a2.492 2.492 0 00-.133 1.512c.296.744.642 1.466 1.033 2.16-.034-1.231 2.27-4.168 3.395-3.862a3.11 3.11 0 00-1.426 1.139 4 4 0 012.48-.427c.194.047.394.059.591.035a.733.733 0 00.537-.48.791.791 0 00-.109-.734l.136-.003z" fill="#2F2E41"/><path d="M7.08 29.6a.56.56 0 01-.226-.048l-5.843-2.559a.563.563 0 01-.32-.663L4.56 11.67a2.12 2.12 0 011-1.302 2.108 2.108 0 011.626-.195l1.546.442-1.088 18.452a.568.568 0 01-.563.533zM18.115 26.33l-.258-.973-.372-1.414-.18-.678-.372-1.41-2.687-10.185a2.118 2.118 0 00-.999-1.302 2.107 2.107 0 00-1.626-.195l-1.546.443.766 12.978.079 1.354.05.854v.002l.08 1.347.113 1.916c.02.298.265.53.563.533a.573.573 0 00.226-.048l5.843-2.558a.562.562 0 00.32-.665z" fill="#2C97D2"/><path fill="#CCC" d="M17.463 23.061l-6.635 1.83-.082-1.473 6.33-1.89zM17.463 25.028l-6.638 1.881-.079-1.413v-.001l6.353-1.95zM8.06 23.52l-.076 1.37-5.97-1.928.35-1.435zM8.06 25.598l-6.351-2.053-.366 1.384 6.64 1.98z"/><path d="M1.638 26.864c.37-.097.68-.356.843-.705.164-.35.166-.755.006-1.106l2.886-9.148-2.047-.432L.68 24.442a1.32 1.32 0 00-.587 1.64c.244.619.908.954 1.545.782z" fill="#FFB8B8"/><path d="M5.861 11.436c.623.061.974.73.819 1.564l-.743 3.998c-.056.3-.314.537-.53.486l-2.514-.6c-.193-.047-.264-.31-.155-.572l1.51-3.617c.209-.701.853-1.203 1.613-1.259z" fill="#3F3D56"/><path d="M9.254 0c2.095 0 3.812 1.718 3.877 3.88h.73c.135 0 .243.112.243.25v1.001c0 .139-.108.25-.242.25H5.616a.247.247 0 01-.243-.25V4.005c0-1.062.409-2.08 1.137-2.832A3.82 3.82 0 019.254 0z" fill="#2C97D2"/><path d="M9.542 24.89H7.92c-.108.001-.198-.093-.208-.216l-.325-3.82h2.687l-.325 3.82c-.01.123-.1.217-.208.217z" fill="#E6E6E6"/><path d="M10.52 20.855H7.614c-.125 0-.227-.069-.227-.153v-.367c0-.085.102-.153.227-.153h2.904c.126 0 .227.068.227.153v.367c0 .084-.101.152-.227.153z" fill="#CCC"/><path d="M8.79 22.29c.067.008.133.022.197.04l4.54-4.01-.265-1.472 2.104-.703.716 2.558c.118.425-.05.88-.412 1.115l-5.75 3.748a1.305 1.305 0 01-.8 1.233 1.24 1.24 0 01-1.402-.334 1.334 1.334 0 01-.193-1.469 1.258 1.258 0 011.266-.705z" fill="#FFB8B8"/><path d="M13.74 11.472c.598-.174 1.197.301 1.398 1.111l.962 3.887c.072.291-.068.6-.287.634l-2.564.384c-.197.03-.371-.181-.378-.46l-.1-3.824c-.078-.736.315-1.44.968-1.732z" fill="#3F3D56"/></g><g transform="translate(90 6.727)"><path d="M2.692 16.145H.666a.268.268 0 01-.26-.253L0 11.436h3.358l-.405 4.456a.268.268 0 01-.26.253z" fill="#E6E6E6"/><path d="M3.758 12.11H.272c-.15-.001-.272-.138-.272-.307v-.734c0-.168.122-.305.272-.305h3.486c.15 0 .272.137.272.305v.734c0 .17-.122.306-.272.306zM23.796 41.454a25.416 25.416 0 01-3.612-6.798.653.653 0 01.305-.784l5.273-2.85a.632.632 0 01.559-.022c.183.08.32.241.37.436a15.525 15.525 0 003.367 6.339c.133.15.19.353.156.551a.642.642 0 01-.329.457l-5.273 2.85a.642.642 0 01-.816-.179z" fill="#CCC"/><path d="M24.466 41.634c.06.075.165.097.25.052l5.404-2.918a.193.193 0 00.1-.139.205.205 0 00-.05-.175 16.358 16.358 0 01-3.553-6.68.204.204 0 00-.116-.139.19.19 0 00-.171.007l-5.404 2.917a.202.202 0 00-.096.239 25.547 25.547 0 003.636 6.836z" fill="#FFF"/><path d="M26.584 35.195l-3.011 1.1c-.239.086-.517-.003-.623-.2l-.074-.14c-.105-.197.003-.427.241-.514l3.012-1.099c.238-.086.517.003.622.2l.075.14c.104.196-.003.426-.242.513zM27.256 36.54l-3.012 1.1c-.238.086-.516-.003-.622-.2l-.074-.14c-.105-.196.003-.426.24-.514l3.012-1.098c.239-.087.517.002.623.2l.074.139c.105.197-.003.427-.241.514z" fill="#CCC"/><path d="M20.328 35.387a1.648 1.648 0 01-.31-2.486l-1.212-17.428 3.492.343.095 17.067a1.66 1.66 0 01.065 2.182 1.607 1.607 0 01-2.13.322z" fill="#A0616A"/><path d="M20.004 21.396a.696.696 0 01-.273-.522l-.25-4.739c-.052-.972.608-1.828 1.528-1.983.92-.155 1.804.44 2.048 1.38l1.1 4.238a.695.695 0 01-.466.847l-3.127.886a.636.636 0 01-.56-.107z" fill="#3F3D56"/><path fill="#A0616A" d="M14.104 56.51l-1.82-.002-.866-7.399h2.686z"/><path d="M10.637 55.836h4.14v2.019H8.73v-.372c0-.436.201-.855.559-1.164a2.068 2.068 0 011.347-.483z" fill="#2F2E41"/><path fill="#A0616A" d="M20.82 56.51L19 56.507l-.866-7.399h2.687z"/><path d="M17.354 55.836h4.139v2.019h-6.045v-.372c0-.436.2-.855.558-1.164a2.068 2.068 0 011.348-.483zM14.042 53.145l-1.961-.098a.67.67 0 01-.623-.678c-.517-8.34-1.233-17.281-.137-20.735-.001-.2.08-.39.225-.52a.635.635 0 01.523-.161l7.846 1.19a.67.67 0 01.56.67c1.001 4.091 1.047 11.508 1.009 19.215a.7.7 0 01-.19.486.64.64 0 01-.464.202h-2.114a.66.66 0 01-.646-.577l-1.305-8.666a.515.515 0 00-.511-.448.518.518 0 00-.496.468l-1.036 9.05a.667.667 0 01-.68.602z" fill="#2F2E41"/><path d="M15.315 32.92a10.628 10.628 0 00-3.95-1.318.684.684 0 01-.469-.25.66.66 0 01-.143-.51l1.99-14.4c.232-1.712 1.36-3.185 2.977-3.89a5.078 5.078 0 015.029.504c1.662 1.187 2.428 3.231 1.943 5.183-1.22 4.865-1.639 12.841-1.71 14.39a.671.671 0 01-.45.6 7.097 7.097 0 01-2.34.407 5.984 5.984 0 01-2.877-.715z" fill="#3F3D56"/><ellipse fill="#A0616A" cx="17.127" cy="7.064" rx="3.694" ry="3.7"/><path d="M19.7 9.704a1.202 1.202 0 01-2.08-.672 1.233 1.233 0 01.002-.237c.136-.433.218-.882.244-1.335a.701.701 0 00-.128-.328c-.555-.745-1.857.334-2.38-.341-.321-.414.056-1.066-.19-1.528-.325-.61-1.288-.31-1.892-.644-.672-.372-.632-1.406-.19-2.036a3.187 3.187 0 012.42-1.236 6.47 6.47 0 012.733.536 5.463 5.463 0 012.583 1.797 4.401 4.401 0 01.442 3.736A7.043 7.043 0 0119.7 9.704z" fill="#2F2E41"/><path d="M22.163 13.11c-.065-.3-.62-.71-1.413-1.043a8.837 8.837 0 00-7.888.667.371.371 0 00-.344.29L9.849 24.668l-.347 1.517-.23 1.004-.347 1.512-.184.808a.368.368 0 00.063.301.378.378 0 00.27.151l11.523.982.033.001a.374.374 0 00.373-.346l.11-1.648.117-1.761.05-.764.116-1.757.768-11.54v-.011l-.001-.009z" fill="#2C97D2"/><path d="M3.764 13.982c.018.08.03.161.036.243l6.412 3.674 1.56-.891 1.66 2.16-3.334 2.36-7.316-5.731a1.574 1.574 0 01-1.725-.438A1.547 1.547 0 01.858 13.6a1.57 1.57 0 012.906.381z" fill="#A0616A"/><path d="M10.079 17.795a.66.66 0 01.195-.544l3.311-3.256a1.902 1.902 0 012.51-.13c.747.595.916 1.648.393 2.44l-2.358 3.572a.69.69 0 01-.942.197l-2.803-1.788a.666.666 0 01-.306-.491z" fill="#3F3D56"/><path fill="#CCC" d="M22.164 24.89l-.117 2.02-11.972-.277.353-1.742zM21.493 27.582l-.116 2.018-11.974-.285.341-1.733z"/><path d="M16.716 0c-2.579 0-4.692 2.148-4.772 4.85h-.9a.306.306 0 00-.298.313v1.251c0 .173.134.313.299.313h10.149c.165 0 .299-.14.299-.313V5.006a5.131 5.131 0 00-1.4-3.54A4.667 4.667 0 0016.717 0z" fill="#2C97D2"/></g></g><g transform="translate(254 310)" fill-rule="nonzero"><ellipse fill="#D3D2D2" cx="19.278" cy="19.473" rx="19.278" ry="19.473"/><path d="M42.072 32.154l-.081.045a5.978 5.978 0 01-5.75.02 6.007 6.007 0 00-5.896-.062l-.077.042a5.978 5.978 0 01-5.75.02 30.1 30.1 0 00-.158-.085 5.972 5.972 0 00-5.688-.01c-2.675 1.454-6.29 3.942-6.275 6.752 0 .111.007.222.019.332.31 2.918 9.732 3.662 14.907 2.287 3.858.889 7.865.889 11.723 0 5.153 1.397 14.766.596 15.047-2.355.01-.11.016-.222.015-.333-.016-2.81-3.664-5.272-6.355-6.707a5.966 5.966 0 00-5.68.054zM163.31 62.991l-.08.045a5.978 5.978 0 01-5.751.02 6.007 6.007 0 00-5.896-.062l-.076.042a5.978 5.978 0 01-5.751.02 31.887 31.887 0 00-.158-.085 5.972 5.972 0 00-5.688-.01c-2.675 1.455-6.29 3.943-6.275 6.753.001.11.007.222.02.332.31 2.918 9.731 3.661 14.907 2.286 3.858.89 7.865.89 11.723 0 5.153 1.397 14.766.597 15.047-2.354.01-.11.015-.222.015-.333-.016-2.811-3.664-5.273-6.356-6.707a5.966 5.966 0 00-5.68.053zM493.796 62.991l-.081.045a5.978 5.978 0 01-5.75.02 6.007 6.007 0 00-5.896-.062l-.077.042a5.978 5.978 0 01-5.75.02 31.797 31.797 0 00-.158-.085 5.972 5.972 0 00-5.688-.01c-2.675 1.455-6.291 3.943-6.275 6.753 0 .11.007.222.019.332.31 2.918 9.732 3.661 14.907 2.286 3.858.89 7.865.89 11.723 0 5.153 1.397 14.766.597 15.047-2.354.01-.11.016-.222.015-.333-.016-2.811-3.664-5.273-6.355-6.707a5.966 5.966 0 00-5.68.053zM420.285 33.491l-.082.045a5.978 5.978 0 01-5.75.02 6.007 6.007 0 00-5.896-.062l-.077.042a5.978 5.978 0 01-5.75.02 30.068 30.068 0 00-.158-.085 5.972 5.972 0 00-5.688-.01c-2.675 1.455-6.29 3.943-6.275 6.753 0 .11.007.222.019.332.31 2.918 9.732 3.661 14.908 2.286 3.858.89 7.864.89 11.722 0 5.154 1.397 14.767.597 15.047-2.354.011-.11.016-.222.015-.333-.015-2.811-3.663-5.273-6.355-6.707a5.966 5.966 0 00-5.68.053zM750.77 33.491l-.082.045a5.978 5.978 0 01-5.75.02 6.007 6.007 0 00-5.896-.062l-.076.042a5.978 5.978 0 01-5.75.02 30.068 30.068 0 00-.159-.085 5.972 5.972 0 00-5.688-.01c-2.674 1.455-6.29 3.943-6.274 6.753 0 .11.007.222.018.332.311 2.918 9.733 3.661 14.908 2.286 3.858.89 7.865.89 11.723 0 5.153 1.397 14.766.597 15.047-2.354.01-.11.015-.222.015-.333-.016-2.811-3.664-5.273-6.356-6.707a5.966 5.966 0 00-5.68.053zM875.964 33.491l-.081.045a5.978 5.978 0 01-5.751.02 6.007 6.007 0 00-5.896-.062l-.076.042a5.978 5.978 0 01-5.75.02 30.108 30.108 0 00-.159-.085 5.972 5.972 0 00-5.687-.01c-2.675 1.455-6.291 3.943-6.275 6.753 0 .11.007.222.018.332.311 2.918 9.733 3.661 14.908 2.286 3.858.89 7.865.89 11.723 0 5.153 1.397 14.766.597 15.047-2.354.01-.11.016-.222.015-.333-.016-2.811-3.664-5.273-6.355-6.707a5.966 5.966 0 00-5.68.053z" fill="#E6E6E6"/></g></g></svg>