<svg width="188" height="94" viewBox="0 0 188 94" fill="none" xmlns="http://www.w3.org/2000/svg">
    <path d="M100.544 53.2781C100.544 57.9689 94.7291 57.6905 94.7291 57.6905H88.9145V49.2146H94.7291C100.713 49.1743 100.544 53.2781 100.544 53.2781ZM88.9145 36.2882H93.3453C97.9462 36.5322 97.7725 39.971 97.7725 39.971C97.7725 44.2444 92.6851 44.3141 92.6851 44.3141H88.9145V36.2882ZM99.4682 45.9809C99.4682 45.9809 103.448 44.2783 103.413 39.7625C103.413 39.7625 104.018 32.3618 94.2505 31.4592H83.4123V62.4847H95.8355C95.8355 62.4847 106.216 62.5157 106.216 53.7307C106.216 53.7307 106.461 47.7523 99.4682 45.9809ZM71.4192 25.3799H117.05V68.5467H71.4192V25.3799ZM47.9239 53.2781C47.9239 57.9689 42.1092 57.6905 42.1092 57.6905H36.2942V49.2146H42.1092C48.0936 49.1743 47.9239 53.2781 47.9239 53.2781ZM36.2942 36.2882H40.7259C45.327 36.5322 45.1529 39.971 45.1529 39.971C45.1529 44.2444 40.0657 44.3141 40.0657 44.3141H36.2942V36.2882V36.2882ZM46.8488 45.9809C46.8488 45.9809 50.8294 44.2783 50.7936 39.7625C50.7936 39.7625 51.3984 32.3618 41.631 31.4592H30.7923V62.4847H43.2163C43.2163 62.4847 53.5963 62.5157 53.5963 53.7307C53.5963 53.7307 53.8409 47.7523 46.8488 45.9809ZM18.7998 25.3799H64.4309V68.5467H18.7998V25.3799ZM160.361 33.6834V39.4154C160.361 39.4154 154.788 35.9771 148.629 35.9079C148.629 35.9079 137.139 35.6814 136.621 46.9649C136.621 46.9649 136.206 57.3415 148.491 57.9328C148.491 57.9328 153.645 58.5561 160.638 54.0796V60.0159C160.638 60.0159 151.258 65.6105 140.391 61.3015C140.391 61.3015 131.257 57.953 130.909 46.9649C130.909 46.9649 130.529 35.6634 142.712 31.9119C142.712 31.9119 145.965 30.6616 151.811 31.2173C151.811 31.2171 155.305 31.5641 160.361 33.6834ZM124.039 68.5467H169.67V25.3799H124.039V68.5467Z" fill="black"/>
</svg>
