<svg width="175" height="37" viewBox="0 0 175 37" fill="none" xmlns="http://www.w3.org/2000/svg">
<path d="M76.475 27.3292V27.7667C76.475 28 76.3 28.175 76.0667 28.175H73.0042C72.7708 28.175 72.5958 28 72.5958 27.7667V27.3292C72.5958 27.0958 72.7708 26.9208 73.0042 26.9208H76.0667C76.2708 26.8917 76.475 27.0958 76.475 27.3292ZM69.125 23.5667C69.4167 24.5 69.5625 25.55 69.5625 26.775V28.2042H59.2667C59.2958 29.3417 59.4125 30.3042 59.6167 31.1208C59.8208 31.9375 60.1125 32.6083 60.4917 33.1333C60.8708 33.6583 61.3667 34.0375 61.9208 34.3C62.475 34.5333 63.1458 34.6792 63.875 34.6792C64.4 34.6792 64.8958 34.6208 65.3625 34.5042C65.8292 34.3875 66.2375 34.2125 66.6167 34.0083C66.9958 33.8042 67.3167 33.5708 67.6083 33.3083C67.9 33.0458 68.1333 32.7833 68.3083 32.4917C68.4542 32.55 68.5708 32.6667 68.7167 32.8708C68.8333 33.075 68.8917 33.2792 68.8917 33.5417C68.8917 33.8625 68.775 34.1833 68.5708 34.5333C68.3375 34.8833 68.0167 35.2333 67.55 35.525C67.0833 35.8167 66.5292 36.0792 65.8583 36.2833C65.1875 36.4875 64.3708 36.575 63.4667 36.575C62.3583 36.575 61.3375 36.4 60.4625 36.0208C59.5875 35.6417 58.8292 35.0875 58.2167 34.3583C57.6042 33.6292 57.1375 32.7542 56.8167 31.7042C56.4958 30.6542 56.3208 29.4583 56.3208 28.1167C56.3208 25.2292 56.9042 23.0708 58.1 21.6125C59.2958 20.1542 60.9875 19.425 63.175 19.425C64.1667 19.425 65.0708 19.5708 65.8583 19.8917C66.6458 20.2125 67.3167 20.6792 67.8708 21.2917C68.3958 21.9042 68.8042 22.6625 69.125 23.5667ZM66.4417 26.5417C66.4417 25.725 66.3833 24.9958 66.2667 24.2958C66.15 23.625 65.9458 23.0417 65.6833 22.575C65.4208 22.0792 65.0708 21.7292 64.6625 21.4667C64.225 21.2042 63.7 21.0875 63.0875 21.0875C61.95 21.0875 61.0458 21.5542 60.4333 22.4875C59.8208 23.4208 59.4417 24.7625 59.3542 26.5708H66.4417V26.5417ZM12.1625 31.8792L5.775 14.2333H0V15.5167C1.45833 15.5167 1.63333 16.0125 1.63333 17.0917V33.3958C1.60417 34.475 1.42917 34.9708 0 34.9708V36.2542H5.1625V34.9708C3.70417 34.9708 3.52917 34.475 3.52917 33.3958V16.5958L10.7042 36.2833H12.3667L19.4542 16.5375V33.3958C19.425 34.475 19.25 34.9708 17.8208 34.9708V36.2542H24.0917V34.9708C22.6333 34.9708 22.4583 34.475 22.4583 33.3958V17.0917C22.4875 16.0125 22.6625 15.5167 24.0917 15.5167V14.2333H18.4917L12.1625 31.8792ZM54.8917 34.3292C54.3667 33.8917 53.8417 33.2792 53.2875 32.4333L49.175 26.3375L51.3333 23.8875C52.15 22.9833 52.8792 22.2542 53.5792 21.7583C54.2792 21.2625 54.9792 21 55.6792 21V19.7167H53.4917H49.525V21C50.925 21 51.275 21.4083 50.4292 22.4292C49.5833 23.3625 48.825 24.2083 48.6792 24.3542L45.1792 28.175V16.275V12.7458H40.6292V14.0292C42.0875 14.0292 42.2625 14.525 42.2625 15.6042V33.3375C42.2333 34.4167 42.0583 34.9125 40.6292 34.9125V36.1958H46.8125V34.9125C45.3542 34.9125 45.1792 34.4167 45.1792 33.3375V30.625L47.1917 28.3792L50.1375 32.9C50.575 33.5708 50.9833 34.125 51.3042 34.5333C52.3542 35.8167 52.8792 36.575 54.6292 36.575C56.525 36.575 56.7583 34.9708 56.7583 34.9708H56.6708C56.0292 34.9708 55.4167 34.7667 54.8917 34.3292ZM39.6667 34.9708V35.0583C39.6667 35.3792 39.4917 36.6042 37.5958 36.6042C35.5833 36.6042 35.0875 34.0958 35 33.6875V33.6292C34.6792 34.0667 34.0083 36.575 29.925 36.575C29.2542 36.575 28.6125 36.4875 28.0292 36.2833C27.4458 36.0792 26.9208 35.7875 26.5125 35.3792C26.075 34.9708 25.7542 34.4458 25.5208 33.8333C25.2875 33.2208 25.1708 32.4917 25.1708 31.6458C25.1708 30.0125 25.7542 28.7875 26.9208 28C29.2542 26.3958 32.6375 26.6 34.7667 26.6V24.7333C34.7667 24.1792 34.7375 23.6833 34.6792 23.2167C34.6208 22.75 34.475 22.3417 34.3 22.0208C34.0958 21.6708 33.8042 21.4083 33.425 21.2333C33.0458 21.0583 32.55 20.9417 31.9083 20.9417C31.325 20.9417 30.8292 21.0292 30.4792 21.2042C30.1 21.3792 29.8375 21.6125 29.6042 21.9042C29.4 22.1958 29.2542 22.575 29.1958 22.9833C29.1375 23.3917 29.0792 23.8292 29.0792 24.325C28.2333 24.325 27.5625 24.1792 27.125 23.8875C26.6875 23.5958 26.4542 23.1 26.4542 22.3708C26.4542 21.8458 26.6 21.3792 26.8917 21C27.1833 20.6208 27.5917 20.3292 28.0875 20.0958C28.5833 19.8625 29.1958 19.6875 29.8667 19.5708C30.5375 19.4542 31.2667 19.3958 32.025 19.3958C32.9583 19.3958 33.8042 19.4833 34.5042 19.6875C35.2042 19.8625 35.7875 20.1833 36.2542 20.5917C36.7208 21 37.0708 21.5542 37.3042 22.2542C37.5375 22.925 37.6542 23.7708 37.6542 24.7625V32.7833C37.6542 33.2208 37.6833 33.5125 37.7417 33.8042C38.0625 35.525 39.6667 34.9708 39.6667 34.9708ZM34.7667 27.9417C33.25 27.9417 30.5958 27.7667 29.1667 28.9917C28.8167 29.3125 28.5542 29.6917 28.3792 30.1583C28.2333 30.625 28.1458 31.15 28.1458 31.7625C28.1458 32.725 28.35 33.4542 28.7583 33.9208C29.1667 34.3875 29.8083 34.65 30.6542 34.65C31.2667 34.65 31.85 34.5625 32.3458 34.3583C32.8417 34.1542 33.2792 33.8625 33.6292 33.5125C33.9792 33.1333 34.2708 32.6958 34.4458 32.1417C34.65 31.6167 34.7375 31.0042 34.7375 30.3625V27.9417H34.7667ZM167.854 33.1917V25.4625C167.854 21.6417 166.221 19.425 162.458 19.425C160.446 19.425 158.725 20.2125 157.821 22.0792V12.8333H155.342H154.904H153.271V14.1167C154.729 14.1167 154.904 14.6125 154.904 15.6917V33.425C154.875 34.5042 154.7 35 153.271 35V36.2833H159.483V35C158.025 35 157.85 34.5042 157.85 33.425V26.775C157.85 24.0042 159.017 21.4083 161.583 21.4083C164.15 21.4083 164.967 23.0417 164.967 25.6375V33.95C164.967 35.0583 165.637 36.7208 167.942 36.7208C169.604 36.7208 169.925 35.4667 169.925 35.4667C169.925 35.4667 167.854 35.7 167.854 33.1917ZM173.746 35.175C173.804 35.4958 173.862 35.5833 173.892 35.6708H173.396C173.337 35.5833 173.308 35.4083 173.221 35.175C173.192 34.9708 173.046 34.8542 172.783 34.8542H172.55V35.6708H172.083V33.6292C172.258 33.6 172.521 33.5708 172.871 33.5708C173.25 33.5708 173.425 33.6292 173.571 33.7458C173.687 33.8333 173.775 33.9792 173.775 34.1833C173.775 34.4458 173.6 34.5917 173.337 34.6792V34.7083C173.571 34.7375 173.687 34.9125 173.746 35.175ZM173.308 34.2417C173.308 34.0667 173.162 33.9208 172.871 33.9208C172.754 33.9208 172.667 33.9208 172.608 33.95V34.5333H172.842C173.075 34.5333 173.308 34.4458 173.308 34.2417ZM100.508 35.2917H100.917V36.575H92.4292V35.2917H93.1292C94.7333 35.2917 95.2 34.4167 94.9083 33.2792C94.85 33.1042 94.7917 32.9 94.7333 32.6667L93.8583 30.1583C92.4875 30.6542 90.9417 30.9167 89.2792 30.9167C87.7333 30.9167 86.3042 30.6833 85.0208 30.2167L84.2042 32.4333C84.1167 32.6667 84.0292 32.9292 84 33.1625C83.7958 34.1542 84.0583 34.65 84.4375 34.9125C84.7875 35.1458 85.2833 35.2625 85.9833 35.2625H86.6833V36.5458H79.1292V35.2625H79.7125C80.0042 35.2625 80.2667 35.2333 80.4708 35.175C80.9667 35.0292 81.2875 34.5333 81.5208 34.0667C81.6667 33.7458 81.8417 33.3375 82.0458 32.8708L83.3 29.4875C78.9833 27.2125 76.5917 22.5167 76.5917 17.675C76.5917 4.375 91.3792 0 104.037 0C115.092 0 126.029 4.14167 132.037 8.63334C132.096 8.6625 132.096 8.72084 132.067 8.77917C132.037 8.8375 131.979 8.8375 131.921 8.80834C127.546 6.475 118.008 2.07084 104.767 2.07084C93.2167 2.07084 78.6917 5.71667 78.6917 17.9667C78.6917 22.1083 80.7042 25.7542 83.9125 27.7667L88.8708 14.4667H91.2917L96.1042 27.6792C98.0292 26.4542 99.4583 24.6458 100.333 22.4875C100.362 22.4292 100.392 22.4292 100.45 22.4292C100.508 22.4292 100.537 22.4875 100.508 22.5458C100.129 24.9667 98.7 27.1833 96.4833 28.7292L98.2625 33.6C98.3792 33.9208 98.4958 34.1833 98.6417 34.3875C99.1083 35.1458 99.7208 35.2917 100.508 35.2917ZM93.45 28.9625L89.5417 17.85L85.6042 28.6417C86.9167 29.1667 88.3458 29.4875 89.8917 29.4875C91.1458 29.4875 92.3417 29.3125 93.45 28.9625ZM175 34.6208C175 35.7583 174.067 36.6625 172.9 36.6625C171.733 36.6625 170.8 35.7583 170.8 34.6208C170.8 33.4833 171.733 32.5792 172.9 32.5792C174.067 32.5792 175 33.4833 175 34.6208ZM174.621 34.6208C174.621 33.6875 173.862 32.9583 172.9 32.9583C171.937 32.9583 171.179 33.6875 171.179 34.6208C171.179 35.5542 171.937 36.2833 172.9 36.2833C173.862 36.2833 174.621 35.5542 174.621 34.6208ZM138.192 10.0333C138.104 9.94583 138.046 9.8 138.075 9.68334L138.512 7.6125C138.542 7.46667 138.396 7.37917 138.279 7.4375L136.412 8.42917C136.296 8.4875 136.15 8.4875 136.033 8.42917L134.196 7.37917C134.079 7.32084 133.933 7.40833 133.962 7.55417L134.312 9.65417C134.342 9.77084 134.283 9.91667 134.196 10.0042L132.621 11.4333C132.504 11.5208 132.562 11.6958 132.708 11.725L134.808 12.0167C134.925 12.0458 135.042 12.1333 135.1 12.25L135.975 14.175C136.033 14.2917 136.208 14.2917 136.267 14.175L137.2 12.2792C137.258 12.1625 137.375 12.075 137.492 12.075L139.592 11.8417C139.737 11.8125 139.796 11.6667 139.679 11.55L138.192 10.0333ZM150.85 28.7C150.471 28.3208 150.004 27.9417 149.421 27.6208C148.837 27.3 148.137 26.95 147.321 26.6C146.65 26.3083 146.037 26.075 145.571 25.8417C145.075 25.6083 144.696 25.375 144.375 25.1417C144.054 24.9083 143.85 24.6458 143.704 24.3542C143.558 24.0625 143.5 23.7417 143.5 23.3333C143.5 22.9833 143.558 22.6333 143.675 22.3417C143.792 22.05 143.967 21.7875 144.2 21.5542C144.433 21.3208 144.754 21.175 145.104 21.0292C145.483 20.9125 145.921 20.8542 146.446 20.8542C147.35 20.8542 148.021 21.1458 148.458 21.7C148.896 22.2833 149.1 23.0708 149.1 24.1208C149.8 24.1208 150.354 23.9458 150.762 23.625C151.171 23.3042 151.346 22.8375 151.346 22.2833C151.346 21.9042 151.258 21.525 151.054 21.2042C150.85 20.8542 150.587 20.5625 150.208 20.3C149.829 20.0375 149.362 19.8333 148.779 19.6875C148.225 19.5417 147.554 19.4542 146.825 19.4542C145.95 19.4542 145.162 19.5417 144.433 19.7458C143.704 19.95 143.092 20.2125 142.596 20.5917C142.071 20.9708 141.692 21.4083 141.4 21.9625C141.137 22.5167 140.992 23.1292 140.992 23.8292C140.992 24.5 141.079 25.0833 141.283 25.5792C141.487 26.075 141.75 26.5125 142.129 26.8917C142.508 27.2708 143.004 27.6208 143.587 27.9417C144.171 28.2625 144.871 28.6125 145.658 28.9625C146.387 29.2833 147.029 29.575 147.525 29.8083C148.021 30.0708 148.4 30.3042 148.692 30.5375C148.983 30.7708 149.187 31.0333 149.304 31.325C149.421 31.5875 149.479 31.9375 149.479 32.3167C149.479 32.725 149.392 33.1042 149.246 33.4542C149.1 33.8042 148.867 34.0958 148.604 34.3583C148.312 34.5917 147.962 34.7958 147.554 34.9417C147.146 35.0875 146.65 35.1458 146.096 35.1458C145.483 35.1458 144.958 35.0292 144.521 34.825C144.083 34.6208 143.762 34.3292 143.5 33.9792C143.237 33.6292 143.062 33.2208 142.946 32.725C142.829 32.2583 142.771 31.7333 142.771 31.2083C142.596 31.2083 142.392 31.2375 142.158 31.2958C141.925 31.3542 141.721 31.4708 141.517 31.6458C141.312 31.7917 141.167 32.025 141.021 32.3167C140.875 32.5792 140.817 32.9292 140.817 33.3375C140.817 33.8917 140.933 34.3583 141.167 34.7667C141.4 35.175 141.75 35.525 142.187 35.7875C142.625 36.0792 143.179 36.2833 143.792 36.4C144.433 36.5458 145.133 36.6042 145.892 36.6042C146.796 36.6042 147.642 36.5167 148.4 36.3125C149.158 36.1083 149.8 35.8167 150.325 35.4083C150.85 35 151.258 34.5042 151.55 33.8917C151.842 33.2792 151.987 32.5792 151.987 31.7917C151.987 31.15 151.9 30.5667 151.725 30.1C151.521 29.5458 151.229 29.0792 150.85 28.7ZM104.767 26.8917H101.704C101.471 26.8917 101.296 27.0667 101.296 27.3V27.7375C101.296 27.9708 101.471 28.1458 101.704 28.1458H104.767C105 28.1458 105.175 27.9708 105.175 27.7375V27.3C105.175 27.0958 105 26.8917 104.767 26.8917ZM133.846 14.525H127.283V15.8083H127.983C128.654 15.8083 129.15 15.925 129.5 16.1583C129.821 16.3917 129.996 16.7708 129.996 17.2958C129.996 17.6458 129.762 18.55 129.675 18.9L125.708 32.4625L120.604 14.7292H118.358L113.458 32.9292L109.375 18.375C109.317 18.1417 109.258 17.9375 109.2 17.7625C109.054 17.2083 109.112 16.5083 109.579 16.1292C109.871 15.8958 110.337 15.7792 110.95 15.7792H111.65V14.4958H103.25V15.7792C103.862 15.7792 104.533 15.75 105.029 16.1C105.437 16.3917 105.642 16.8875 105.817 17.3833L111.387 36.2542H114.187L118.854 19.1917L123.812 36.2542H126.554L131.775 18.1417C131.921 17.6458 132.067 17.2375 132.212 16.9167C132.621 16.0417 133.087 15.8375 133.787 15.7792V14.525H133.846ZM137.871 33.3958V19.7167H133.7L133.321 21C134.779 21 134.954 21.4958 134.954 22.575V22.5458V33.3958C134.925 34.475 134.75 34.9708 133.321 34.9708V36.2542H139.504V34.9708C138.075 34.9708 137.9 34.475 137.871 33.3958Z" fill="#0066B5"/>
</svg>
