<svg width="188" height="91" viewBox="0 0 188 91" fill="none" xmlns="http://www.w3.org/2000/svg">
<path d="M67.214 51.6279C67.2833 50.2009 67.3387 48.7463 67.3802 47.2777C69.7077 47.2223 71.9797 47.1392 74.1548 47.0284C74.0717 48.4138 73.9331 49.7853 73.7669 51.1153C71.6472 51.3369 69.4583 51.517 67.214 51.6279ZM66.8399 46.7374C66.8676 45.3936 66.8815 44.0221 66.8815 42.6783C66.8815 41.3344 66.8676 39.9629 66.8399 38.6191C65.3714 38.5775 63.8752 38.5498 62.379 38.536C62.3928 39.9213 62.4067 41.3067 62.4067 42.6783C62.4067 44.0498 62.3928 45.4352 62.379 46.8206C63.8752 46.8067 65.3714 46.779 66.8399 46.7374ZM36.2783 46.7652C34.4358 46.6405 32.6625 46.5019 31 46.3495C31.1524 47.4856 31.3879 48.6216 31.6927 49.7437C33.2582 50.0485 34.9483 50.3256 36.6939 50.5611C36.5138 49.3004 36.3753 48.0259 36.2783 46.7652ZM48.7052 59.289C46.7103 59.0258 44.7707 58.6656 42.9005 58.2223C43.2191 59.483 43.5793 60.7021 43.9811 61.8797C45.6435 62.3369 47.3753 62.7109 49.1486 62.988C48.9823 61.7966 48.8299 60.5497 48.7052 59.289ZM53.0553 52.4037C51.6007 52.3621 50.1322 52.3067 48.7052 52.2374C48.8299 54.4679 48.9962 56.6707 49.204 58.7903C50.5478 58.9565 51.9193 59.0951 53.2909 59.1782C53.2077 56.9893 53.1246 54.7173 53.0553 52.4037ZM83.6585 35.6266C82.0792 35.3219 80.4029 35.0448 78.6573 34.8093C78.8374 36.0561 78.9759 37.3307 79.0729 38.6052C80.9155 38.7299 82.6888 38.8685 84.3512 39.0208C84.185 37.871 83.9495 36.735 83.6585 35.6266ZM71.3701 23.4907C69.7077 23.0335 67.976 22.6594 66.2027 22.3824C66.3551 23.5738 66.5074 24.8206 66.6321 26.0813C68.6271 26.3446 70.5666 26.7048 72.4369 27.1481C72.1183 25.8735 71.7581 24.6544 71.3701 23.4907ZM41.0579 33.7148C41.3211 31.7199 41.6813 29.7665 42.1246 27.91C40.8639 28.2287 39.6448 28.5889 38.4811 28.9907C38.0239 30.6531 37.6499 32.3848 37.3728 34.1581C38.5642 33.9919 39.8111 33.8395 41.0579 33.7148ZM53.0553 32.9667C53.1108 30.6531 53.1939 28.3672 53.3047 26.1922C51.9193 26.2753 50.5478 26.4138 49.2178 26.5801C49.01 28.6997 48.8299 30.9025 48.7191 33.133C50.1322 33.0637 51.6007 32.9944 53.0553 32.9667ZM73.8916 64.1656C74.3626 63.2374 74.8198 62.2399 75.2354 61.2286C74.1271 61.6442 72.9772 62.0183 71.8135 62.3369C71.287 63.8331 70.7052 65.2601 70.0817 66.5762C71.3979 65.8835 72.6863 65.08 73.8916 64.1656ZM43.5377 23.0196C44.0503 21.5234 44.6322 20.0965 45.2695 18.7804C43.9395 19.473 42.6511 20.2904 41.4458 21.1909C40.9748 22.1191 40.5176 23.1166 40.102 24.1279C41.2241 23.7262 42.374 23.3521 43.5377 23.0196Z" fill="#82CD27"/>
<path d="M74.7563 46.4459C74.8256 45.1852 74.8533 43.9245 74.8533 42.6777C74.8533 41.4308 74.8256 40.1701 74.7563 38.9094C76.0447 38.9787 77.3054 39.048 78.5246 39.1311C78.6077 40.3087 78.6354 41.514 78.6354 42.6777C78.6354 43.8414 78.5938 45.0467 78.5246 46.2243C77.3193 46.3074 76.0447 46.3767 74.7563 46.4459ZM71.3621 61.8791C71.7639 60.7154 72.1241 59.4824 72.4427 58.2217C70.5725 58.665 68.6191 59.0253 66.638 59.2885C66.5133 60.5492 66.3609 61.796 66.2085 62.9875C67.9679 62.7104 69.6997 62.3363 71.3621 61.8791ZM64.7261 68.6675C65.0309 67.0882 65.308 65.4119 65.5435 63.6663C64.2967 63.8464 63.0221 63.9849 61.7476 64.0819C61.6229 65.9383 61.4843 67.6978 61.3319 69.3602C62.468 69.194 63.6178 68.9585 64.7261 68.6675ZM40.4819 42.6777C40.4819 41.4308 40.5234 40.1701 40.5789 38.9094C39.2904 38.9787 38.0297 39.048 36.8106 39.1311C36.7275 40.3087 36.6998 41.514 36.6998 42.6777C36.6998 43.8414 36.7413 45.0467 36.8106 46.2243C38.0297 46.3074 39.3043 46.3767 40.5789 46.4459C40.5096 45.1852 40.4819 43.9245 40.4819 42.6777ZM61.7337 51.8489C61.7753 50.3943 61.803 48.8981 61.8168 47.388C60.4314 47.4019 59.0461 47.4157 57.6745 47.4157C56.303 47.4157 54.9176 47.4019 53.5322 47.388C53.5461 48.8842 53.5738 50.3804 53.6153 51.8489C54.9592 51.8767 56.3307 51.8905 57.6745 51.8905C59.0183 51.8905 60.376 51.8767 61.7337 51.8489ZM66.1115 26.5795C64.7677 26.4133 63.3962 26.2747 62.0246 26.1916C62.1216 28.3805 62.2186 30.6525 62.274 32.9661C63.7425 33.0077 65.1972 33.0631 66.6241 33.1324C66.4994 30.9019 66.3332 28.6992 66.1115 26.5795ZM48.7111 26.0808C48.8358 24.8201 48.9882 23.5732 49.1405 22.3818C47.3811 22.6589 45.6355 23.0468 43.9731 23.4901C43.5713 24.6538 43.2111 25.8868 42.8925 27.1475C44.7627 26.7042 46.7161 26.344 48.7111 26.0808ZM61.7337 33.5203C60.3899 33.4926 59.0183 33.4787 57.6745 33.4787C56.3307 33.4787 54.9592 33.4926 53.6153 33.5203C53.5738 34.9749 53.5461 36.4712 53.5322 37.9674C54.9037 37.9535 56.2891 37.9397 57.6745 37.9397C59.0461 37.9397 60.4453 37.9535 61.8168 37.9674C61.7891 36.4712 61.7614 34.9749 61.7337 33.5203ZM38.0159 56.8086C36.5197 56.2822 35.0927 55.7003 33.7766 55.0769C34.4693 56.4069 35.2728 57.6953 36.1872 58.9006C37.1154 59.3716 38.099 59.8288 39.1242 60.2444C38.7224 59.1222 38.3484 57.9862 38.0159 56.8086ZM79.148 26.4687C78.2198 25.9977 77.2362 25.5405 76.211 25.1249C76.6266 26.2332 77.0007 27.383 77.3193 28.5468C78.8155 29.0732 80.2425 29.6551 81.5586 30.2785C80.8797 28.9485 80.0624 27.674 79.148 26.4687Z" fill="#54C4A6"/>
<path d="M78.6489 50.5516C78.829 49.3047 78.9676 48.0302 79.0645 46.7556C80.9071 46.6309 82.6804 46.4924 84.3428 46.34C84.1905 47.476 83.9549 48.612 83.6502 49.7342C82.0847 50.039 80.3945 50.3022 78.6489 50.5516ZM76.8618 56.3702C77.3189 54.7077 77.693 52.976 77.9839 51.2027C76.7786 51.3551 75.5457 51.5075 74.285 51.6322C74.0217 53.6271 73.6615 55.5667 73.2182 57.4369C74.465 57.1322 75.698 56.772 76.8618 56.3702ZM66.1112 58.7808C66.319 56.6611 66.4991 54.4584 66.6099 52.2279C65.183 52.2972 63.7283 52.3526 62.2598 52.3941C62.2044 54.7077 62.1213 56.9798 62.0104 59.1687C63.4097 59.0855 64.7812 58.9609 66.1112 58.7808ZM47.9488 47.2959C45.6213 47.2405 43.3493 47.1574 41.1742 47.0465C41.2573 48.4319 41.3959 49.8035 41.5621 51.1334C43.6818 51.3412 45.8845 51.5213 48.115 51.6322C48.0457 50.2052 47.9903 48.7506 47.9488 47.2959ZM53.5873 64.0729C52.3127 63.976 51.0382 63.8374 49.7913 63.6573C50.0407 65.4029 50.3039 67.0931 50.6087 68.6586C51.717 68.9633 52.853 69.185 54.0029 69.3374C53.8505 67.7026 53.712 65.9294 53.5873 64.0729ZM76.8618 28.995C75.698 28.5932 74.465 28.233 73.2043 27.9144C73.6477 29.7846 74.0079 31.738 74.2711 33.7191C75.5318 33.8438 76.7786 33.9962 77.9701 34.1486C77.693 32.3892 77.3189 30.6574 76.8618 28.995ZM64.7258 16.6927C63.6175 16.3879 62.4815 16.1663 61.3316 16C61.484 17.6486 61.6225 19.4219 61.7472 21.2784C63.0218 21.3753 64.2963 21.5139 65.5432 21.694C65.2938 19.9484 65.0167 18.2721 64.7258 16.6927ZM36.27 38.5957C36.3669 37.3211 36.5055 36.0466 36.6856 34.7997C34.94 35.0491 33.2498 35.3123 31.6843 35.6171C31.3795 36.7254 31.1579 37.8614 31.0055 39.0113C32.6541 38.8589 34.4274 38.7204 36.27 38.5957ZM47.9488 38.0692C47.9903 36.6146 48.0457 35.1461 48.115 33.733C45.8845 33.8577 43.6818 34.0239 41.5621 34.2317C41.3959 35.5755 41.2573 36.9471 41.1742 38.3186C43.3631 38.2216 45.6352 38.1385 47.9488 38.0692ZM61.2208 21.8187C60.0432 21.7355 58.8379 21.7078 57.6742 21.7078C56.5104 21.7078 55.3052 21.7355 54.1137 21.8187C54.0306 23.0378 53.9613 24.3124 53.8921 25.5869C55.1389 25.5176 56.4135 25.4899 57.6603 25.4899C58.9072 25.4899 60.1679 25.5315 61.4286 25.5869C61.3732 24.3124 61.3039 23.0378 61.2208 21.8187ZM43.5432 62.3412C42.3795 62.0087 41.2296 61.6347 40.1213 61.2329C40.5369 62.2581 40.9803 63.2417 41.4652 64.1699C42.6704 65.0843 43.945 65.8878 45.2888 66.5805C44.6377 65.2644 44.0558 63.8374 43.5432 62.3412ZM73.8832 21.1952C72.6779 20.2809 71.4033 19.4774 70.0595 18.7847C70.6968 20.1008 71.2787 21.5277 71.7913 23.0239C72.955 23.3564 74.1048 23.7305 75.2132 24.1323C74.8114 23.1209 74.3681 22.1373 73.8832 21.1952Z" fill="#77B5E6"/>
<path d="M42.125 57.458C40.8643 57.1394 39.6452 56.7792 38.4814 56.3774C38.0243 54.715 37.6502 52.9832 37.3731 51.2099C38.5646 51.3623 39.8114 51.5147 41.0721 51.6394C41.3353 53.6344 41.6817 55.5877 42.125 57.458ZM52.931 42.676C52.931 41.3044 52.9449 39.9052 52.9587 38.5336C51.4625 38.5475 49.9663 38.5752 48.4978 38.6168C48.4701 39.9606 48.4562 41.3321 48.4562 42.676C48.4562 44.0198 48.4701 45.3913 48.4978 46.7351C49.9663 46.7767 51.4625 46.8044 52.9587 46.8183C52.9449 45.4467 52.931 44.0475 52.931 42.676ZM61.2156 63.5399C61.2987 62.3207 61.368 61.0462 61.4373 59.7578C60.1766 59.827 58.9159 59.8547 57.669 59.8547C56.4222 59.8547 55.1615 59.827 53.9008 59.7578C53.97 61.0462 54.0393 62.3069 54.1224 63.5399C55.3139 63.623 56.5053 63.6507 57.669 63.6507C58.8466 63.6645 60.038 63.623 61.2156 63.5399ZM73.7811 34.239C71.6614 34.0311 69.4587 33.851 67.2282 33.7402C67.2975 35.1672 67.3529 36.6218 67.3944 38.0903C69.708 38.1457 71.9801 38.2289 74.169 38.3397C74.072 36.9405 73.9473 35.5689 73.7811 34.239ZM53.596 21.2856C53.7207 19.4292 53.8592 17.6697 54.0116 16.0073C52.8756 16.1597 51.7257 16.3952 50.6174 16.7C50.3126 18.2655 50.0356 19.9556 49.8 21.7012C51.0469 21.5211 52.3214 21.3826 53.596 21.2856ZM79.1564 58.8988C80.0707 57.6935 80.8742 56.4051 81.5669 55.0752C80.2508 55.7124 78.8239 56.2943 77.3277 56.8069C76.9952 57.9706 76.6211 59.1205 76.2193 60.2288C77.2307 59.827 78.2143 59.3699 79.1564 58.8988ZM38.0104 28.545C38.3429 27.3813 38.7169 26.2314 39.1187 25.1231C38.0935 25.5387 37.1099 25.9821 36.1817 26.4669C35.2673 27.6722 34.4638 28.9468 33.7711 30.2906C35.0872 29.6533 36.5142 29.0715 38.0104 28.545Z" fill="#A5AADC"/>
<path d="M107.444 22.0492L104.299 31.8577H102.789L100.601 24.8477L98.4116 31.8577H96.9015L93.7567 22.0492H95.3499L97.6635 29.5026L99.9632 22.0492H101.238L103.551 29.5026L105.851 22.0492H107.444ZM113.138 27.466V29.5441C113.138 30.1121 112.917 31.9686 110.063 31.9686C107.153 31.9686 106.932 30.0706 106.932 29.4887C106.932 28.0063 108.234 27.1197 110.409 27.1197C110.839 27.1197 111.226 27.1474 111.628 27.189C111.545 26.0945 111.019 25.6927 109.73 25.6927C109.107 25.6927 108.47 25.8036 107.763 26.053L107.638 26.0945V24.7784L107.694 24.7507C108.4 24.4875 109.121 24.3489 109.91 24.3489C111.988 24.3628 113.138 25.4711 113.138 27.466ZM111.628 28.4497C111.31 28.4081 110.908 28.3804 110.464 28.3804C110.381 28.3804 108.428 28.3943 108.428 29.5026C108.428 30.2645 108.968 30.6386 110.063 30.6386C111.116 30.6386 111.628 30.2784 111.628 29.5441V28.4497V28.4497ZM114.427 31.8577H115.937V21.7305H114.427V31.8577ZM123.293 26.7179V32.0655C123.293 33.257 122.725 34.6839 120.037 34.6839C119.303 34.6839 118.597 34.5869 117.876 34.3791L117.807 34.3653V32.9106L117.932 32.9522C118.597 33.16 119.276 33.2708 119.927 33.2708C121.797 33.2708 121.797 32.5504 121.797 32.0794V31.5668C121.34 31.6776 120.883 31.7469 120.425 31.7469C118.306 31.7469 117.128 30.4585 117.128 28.131C117.128 25.7343 118.292 24.3628 120.315 24.3628C122.171 24.3489 123.293 25.2356 123.293 26.7179ZM121.797 26.6348C121.797 26.3854 121.797 25.7205 120.315 25.7205C119.483 25.7205 118.652 26.0114 118.652 28.1172C118.652 30.1814 119.566 30.3476 120.439 30.3476C120.924 30.3476 121.381 30.2645 121.811 30.0983V26.6348H121.797ZM124.845 25.0832L124.789 25.1109V31.8577H126.299V26.0391C127.006 25.859 127.713 25.762 128.391 25.762H128.488V24.3628H128.391C126.715 24.3628 125.371 24.8615 124.845 25.0832ZM135.526 27.9371C135.526 28.2834 135.512 28.6298 135.485 28.9346L135.471 29.0177H130.525C130.705 30.1537 131.301 30.6663 132.451 30.6663C133.406 30.6663 134.224 30.4862 134.889 30.1398L135.027 30.0706V31.4837L134.972 31.5114C134.224 31.83 133.351 31.9963 132.381 31.9963C130.83 31.9963 128.973 31.3451 128.973 28.2696C128.973 27.2998 128.973 24.3628 132.257 24.3628C134.238 24.3628 135.526 25.762 135.526 27.9371ZM134.002 27.6323C133.905 26.7456 133.517 25.7205 132.257 25.7205C131.093 25.7205 130.636 26.2192 130.511 27.6323H134.002ZM143.367 27.9371C143.367 28.2834 143.354 28.6298 143.326 28.9346L143.312 29.0177H138.38C138.56 30.1537 139.156 30.6663 140.306 30.6663C141.262 30.6663 142.079 30.4862 142.744 30.1398L142.882 30.0706V31.4837L142.827 31.5114C142.079 31.83 141.206 31.9963 140.236 31.9963C138.685 31.9963 136.828 31.3451 136.828 28.2696C136.828 27.2998 136.828 24.3628 140.112 24.3628C142.079 24.3628 143.367 25.762 143.367 27.9371ZM141.843 27.6323C141.746 26.7456 141.359 25.7205 140.098 25.7205C138.934 25.7205 138.477 26.2192 138.352 27.6323H141.843ZM147.856 24.3489C146.332 24.3489 145.099 24.9308 144.739 25.1109L144.683 25.1386V31.8716H146.194V25.9975C146.692 25.8451 147.26 25.762 147.787 25.762C149.131 25.762 149.325 26.3716 149.325 27.0366V31.8577H150.848V27.1197C150.848 25.388 149.726 24.3489 147.856 24.3489ZM154.547 27.3137C153.882 27.1058 153.342 26.9535 153.342 26.5655C153.342 26.1776 153.495 25.7343 154.686 25.7343C155.226 25.7343 155.808 25.8729 156.418 26.1638L156.542 26.2192V24.8754L156.487 24.8477C155.85 24.529 155.171 24.3628 154.506 24.3628C152.539 24.3628 151.832 25.5265 151.832 26.6071C151.832 28.0479 152.996 28.4081 154.021 28.7129C154.811 28.9484 155.489 29.1701 155.489 29.8212C155.489 30.3199 154.991 30.6247 154.173 30.6247C153.467 30.6247 152.83 30.4585 152.206 30.0983L152.068 30.0152V31.4283L152.109 31.456C152.746 31.8023 153.453 31.9686 154.229 31.9686C156.279 31.9686 157 30.7771 157 29.7519C157.027 28.0479 155.586 27.6184 154.547 27.3137ZM102.498 44.728C102.498 45.7947 102.041 47.568 98.9658 47.568H95.2668V37.7595H98.6887C101.515 37.7595 101.944 39.4635 101.944 40.4748C101.944 41.6385 101.265 42.2066 100.933 42.4282C101.376 42.636 102.498 43.2872 102.498 44.728ZM96.7907 41.8325H98.6748C99.9078 41.8325 100.407 41.4584 100.407 40.5302C100.407 39.5466 99.8663 39.1448 98.5363 39.1448H96.7768V41.8325H96.7907ZM100.975 44.6587C100.975 43.6335 100.337 43.204 98.7718 43.204H96.7907V46.1965L98.8688 46.1826C100.337 46.1826 100.975 45.7254 100.975 44.6587ZM110.451 43.8829C110.451 47.0277 108.553 47.6788 106.973 47.6788C105.38 47.6788 103.496 47.0138 103.496 43.8829C103.496 40.7519 105.394 40.0869 106.973 40.0869C108.553 40.0869 110.451 40.738 110.451 43.8829ZM108.927 43.8829C108.927 41.6247 107.915 41.4307 106.959 41.4307C106.004 41.4307 104.992 41.6247 104.992 43.8829C104.992 46.141 106.004 46.335 106.959 46.335C107.915 46.335 108.927 46.141 108.927 43.8829ZM118.306 43.8829C118.306 47.0277 116.408 47.6788 114.828 47.6788C113.235 47.6788 111.351 47.0138 111.351 43.8829C111.351 40.7519 113.249 40.0869 114.828 40.0869C116.408 40.0869 118.306 40.738 118.306 43.8829ZM116.796 43.8829C116.796 41.6247 115.784 41.4307 114.828 41.4307C113.873 41.4307 112.861 41.6247 112.861 43.8829C112.861 46.141 113.873 46.335 114.828 46.335C115.77 46.335 116.796 46.141 116.796 43.8829ZM121.617 38.0365H120.121V40.1839H118.86V41.4861H120.121V45.4899C120.121 47.5818 122.032 47.6927 122.42 47.6927C122.781 47.6927 123.127 47.6234 123.473 47.4849L123.529 47.4572V46.0441L123.39 46.1272C123.238 46.2242 122.974 46.335 122.6 46.335C121.922 46.335 121.617 46.0995 121.617 45.573V41.4861H123.529V40.1839H121.617V38.0365ZM127.02 43.0101C126.355 42.8023 125.815 42.6499 125.815 42.262C125.815 41.8741 125.967 41.4307 127.145 41.4307C127.685 41.4307 128.267 41.5693 128.876 41.8602L129.001 41.9156V40.5718L128.946 40.5441C128.308 40.2254 127.629 40.0592 126.978 40.0592C125.011 40.0592 124.304 41.2229 124.304 42.3035C124.304 43.7443 125.468 44.1045 126.493 44.4093C127.283 44.6448 127.962 44.8665 127.962 45.5176C127.962 46.0164 127.449 46.3211 126.646 46.3211C125.939 46.3211 125.302 46.1549 124.679 45.7947L124.54 45.7116V47.1247L124.582 47.1524C125.219 47.4987 125.925 47.665 126.701 47.665C128.752 47.665 129.472 46.4735 129.472 45.4484C129.5 43.7582 128.059 43.3287 127.02 43.0101ZM98.9935 53.4697L102.886 63.2783H101.252L100.213 60.5629H96.3335L95.2945 63.2783H93.6459L97.5527 53.4697H98.9935ZM99.6723 59.136L98.2731 55.4924L96.8738 59.136H99.6723ZM104.036 63.2783H105.546V53.1511H104.036V63.2783ZM107.195 63.2783H108.705V53.1511H107.195V63.2783ZM110.645 63.2783H112.155V55.8942H110.645V63.2783ZM110.603 54.966H112.196V53.3866H110.603V54.966ZM119.469 58.8866V60.9647C119.469 61.5327 119.248 63.3891 116.394 63.3891C113.485 63.3891 113.263 61.4911 113.263 60.9093C113.263 59.4269 114.565 58.5402 116.74 58.5402C117.156 58.5402 117.558 58.568 117.959 58.6095C117.876 57.5151 117.35 57.1133 116.075 57.1133C115.452 57.1133 114.815 57.2241 114.108 57.4735L113.983 57.5151V56.1989L114.039 56.1712C114.745 55.908 115.466 55.7695 116.255 55.7695C118.32 55.7833 119.469 56.8778 119.469 58.8866ZM117.946 59.8564C117.627 59.8148 117.225 59.7871 116.782 59.7871C116.699 59.7871 114.745 59.801 114.745 60.9093C114.745 61.6712 115.286 62.0453 116.38 62.0453C117.433 62.0453 117.946 61.6851 117.946 60.9508V59.8564V59.8564ZM124.041 55.7695C122.517 55.7695 121.284 56.3513 120.924 56.5314L120.869 56.5591V63.2921H122.379V57.4319C122.878 57.2795 123.432 57.1964 123.972 57.1964C125.33 57.1964 125.51 57.806 125.51 58.471V63.2921H127.02V58.5541C127.034 56.7947 125.912 55.7695 124.041 55.7695ZM131.73 55.7833C129.486 55.7833 128.253 57.1272 128.253 59.5793C128.253 62.0314 129.486 63.3891 131.73 63.3891C132.464 63.3891 133.199 63.2506 133.877 62.9735L133.933 62.9458V61.4773L133.794 61.5465C133.157 61.8513 132.506 62.0037 131.827 62.0037C130.843 62.0037 129.804 61.8236 129.804 59.5793C129.804 57.4458 130.774 57.1549 131.827 57.1549C132.478 57.1549 133.143 57.3073 133.794 57.6259L133.933 57.6952V56.2267L133.877 56.1989C133.212 55.9219 132.464 55.7833 131.73 55.7833ZM141.248 59.3438C141.248 59.6901 141.234 60.0365 141.206 60.3413V60.4244H136.26C136.44 61.5604 137.036 62.073 138.186 62.073C139.142 62.073 139.959 61.8929 140.624 61.5465L140.763 61.4773V62.8904L140.707 62.9181C139.959 63.2367 139.087 63.403 138.117 63.403C136.565 63.403 134.709 62.7518 134.709 59.6763C134.709 58.7065 134.709 55.7695 137.992 55.7695C139.959 55.7833 141.248 57.1826 141.248 59.3438ZM139.724 59.0528C139.627 58.1662 139.239 57.141 137.978 57.141C136.828 57.141 136.357 57.6397 136.233 59.0528" fill="#232D61"/>
</svg>
